<svg width="48" height="48" viewBox="0 0 48 48" fill="none" xmlns="http://www.w3.org/2000/svg">
<circle cx="24" cy="24" r="23.5" fill="black" stroke="#808080"/>
<path fill-rule="evenodd" clip-rule="evenodd" d="M35.7132 23.4083C35.713 23.6053 35.7128 23.8025 35.7128 23.9999C35.7128 24.2206 35.7131 24.4411 35.7134 24.6613C35.7155 26.0548 35.7176 27.44 35.6366 28.8339C35.5458 30.7089 35.121 32.37 33.747 33.744C32.3759 35.1151 30.7118 35.5429 28.8368 35.6337C27.4196 35.7134 26.0113 35.7119 24.5943 35.7103C24.3973 35.7101 24.2002 35.7099 24.0028 35.7099C23.8059 35.7099 23.6091 35.7101 23.4124 35.7103C21.9973 35.7119 20.5887 35.7134 19.1688 35.6337C17.2938 35.5429 15.6327 35.1181 14.2587 33.744C12.8876 32.3729 12.4599 30.7089 12.369 28.8339C12.2893 27.4166 12.2909 26.0061 12.2924 24.5904C12.2926 24.3937 12.2929 24.1969 12.2929 23.9999C12.2929 23.8029 12.2926 23.6061 12.2924 23.4094C12.2909 21.9943 12.2893 20.5858 12.369 19.1659C12.4599 17.2909 12.8847 15.6298 14.2587 14.2558C15.6298 12.8847 17.2938 12.4569 19.1688 12.3661C20.5861 12.2864 21.9943 12.2879 23.4113 12.2895C23.6083 12.2897 23.8054 12.2899 24.0028 12.2899C24.1998 12.2899 24.3966 12.2897 24.5933 12.2895C26.0084 12.2879 27.417 12.2864 28.8368 12.3661C30.7118 12.4569 32.3729 12.8817 33.747 14.2558C35.1181 15.6268 35.5458 17.2909 35.6366 19.1659C35.7164 20.5831 35.7148 21.9913 35.7132 23.4083ZM32.2499 32.2499C32.663 31.8397 32.9208 31.4413 33.1347 30.9081C33.6613 29.5828 33.6331 26.6908 33.6149 24.8207C33.612 24.5163 33.6093 24.239 33.6093 23.9999C33.6093 23.7601 33.612 23.4818 33.615 23.1762C33.6332 21.3054 33.6614 18.4134 33.1376 17.0888C32.9237 16.5556 32.6659 16.1601 32.2528 15.747C31.8427 15.3339 31.4442 15.0761 30.911 14.8622C29.5864 14.3384 26.6944 14.3666 24.8236 14.3848C24.518 14.3878 24.2397 14.3905 23.9999 14.3905C23.7601 14.3905 23.4818 14.3878 23.1762 14.3848C21.3054 14.3666 18.4134 14.3384 17.0888 14.8622C16.5556 15.0761 16.1601 15.3368 15.747 15.747C15.3339 16.1571 15.0761 16.5556 14.8622 17.0888C14.3384 18.4134 14.3666 21.3054 14.3848 23.1762C14.3878 23.4818 14.3905 23.7601 14.3905 23.9999C14.3905 24.2397 14.3878 24.518 14.3848 24.8235C14.3666 26.6938 14.3384 29.5839 14.8622 30.911C15.0761 31.4442 15.3339 31.8397 15.747 32.2528C16.1571 32.6659 16.5556 32.9237 17.0888 33.1376C18.4134 33.6614 21.3054 33.6332 23.1762 33.615C23.4818 33.612 23.7601 33.6093 23.9999 33.6093C24.239 33.6093 24.5163 33.612 24.8207 33.6149C26.6908 33.6331 29.5828 33.6613 30.9081 33.1347C31.4413 32.9208 31.8368 32.663 32.2499 32.2499ZM17.991 24C17.991 20.6748 20.6746 17.9912 23.9998 17.9912C27.325 17.9912 30.0085 20.6748 30.0085 24C30.0085 27.3252 27.325 30.0088 23.9998 30.0088C20.6746 30.0088 17.991 27.3252 17.991 24ZM20.0945 24C20.0945 26.1504 21.8494 27.9053 23.9998 27.9053C26.1501 27.9053 27.905 26.1504 27.905 24C27.905 21.8496 26.1501 20.0947 23.9998 20.0947C21.8494 20.0947 20.0945 21.8496 20.0945 24ZM28.8513 17.748C28.8513 16.9717 29.4783 16.3447 30.2546 16.3447C31.031 16.3447 31.655 16.9688 31.658 17.748C31.658 18.5273 31.031 19.1514 30.2546 19.1514C29.4783 19.1514 28.8513 18.5244 28.8513 17.748Z" fill="#808080"/>
</svg>
