<svg width="48" height="48" viewBox="0 0 48 48" fill="none" xmlns="http://www.w3.org/2000/svg">
<circle cx="24" cy="24" r="23.5" fill="black" stroke="#808080"/>
<path fill-rule="evenodd" clip-rule="evenodd" d="M37.1221 23.6953C37.125 23.7803 37.125 23.8535 37.125 23.918V24V24.082C37.125 24.112 37.1244 24.1439 37.1237 24.1781C37.1229 24.2172 37.1221 24.2593 37.1221 24.3047L37.1215 24.3476C37.1188 24.5739 37.1157 24.8256 37.1074 25.0928C37.084 25.9102 37.043 26.7246 36.9785 27.4922C36.8906 28.5498 36.7646 29.4316 36.5859 30.0938C36.2109 31.5 35.1094 32.6045 33.7061 32.9795C32.8799 33.1992 31.2539 33.3369 28.9688 33.4248C27.8818 33.4658 26.7187 33.4922 25.5557 33.5068C25.1922 33.5121 24.8521 33.515 24.5416 33.5176C24.5042 33.5179 24.4672 33.5182 24.4307 33.5186H23.5693C23.5328 33.5182 23.4958 33.5179 23.4584 33.5176C23.1479 33.515 22.8078 33.5121 22.4443 33.5068C21.2812 33.4922 20.1182 33.4658 19.0312 33.4248C16.7461 33.3398 15.1201 33.2021 14.2939 32.9795C12.8906 32.6045 11.7891 31.4971 11.4141 30.0938C11.2383 29.4316 11.1094 28.5498 11.0215 27.4922C10.957 26.7246 10.916 25.9102 10.8926 25.0928C10.8918 25.0541 10.891 25.0157 10.8902 24.9778C10.8852 24.7366 10.8805 24.5097 10.8779 24.3047C10.875 24.2197 10.875 24.1465 10.875 24.082V23.918C10.875 23.888 10.8756 23.8561 10.8763 23.8219C10.8771 23.7828 10.8779 23.7407 10.8779 23.6953L10.8785 23.6524C10.8812 23.4261 10.8843 23.1744 10.8926 22.9072C10.916 22.0898 10.957 21.2754 11.0215 20.5078C11.1094 19.4502 11.2354 18.5684 11.4141 17.9062C11.7891 16.5 12.8936 15.3955 14.2939 15.0205C15.1201 14.8008 16.7461 14.6631 19.0312 14.5752C20.1182 14.5342 21.2812 14.5078 22.4443 14.4932C22.8076 14.4879 23.1475 14.485 23.4579 14.4824C23.4955 14.4821 23.5326 14.4818 23.5693 14.4814H24.4307C24.4674 14.4818 24.5045 14.4821 24.5421 14.4824C24.8525 14.485 25.1924 14.4879 25.5557 14.4932C26.7187 14.5078 27.8818 14.5342 28.9688 14.5752C31.2539 14.6602 32.877 14.7979 33.7061 15.0205C35.1094 15.3984 36.2109 16.5029 36.5859 17.9062C36.7617 18.5684 36.8906 19.4502 36.9785 20.5078C37.043 21.2754 37.084 22.0898 37.1074 22.9072C37.1082 22.9459 37.109 22.9842 37.1098 23.0222C37.1148 23.2634 37.1195 23.4903 37.1221 23.6953ZM35.0127 24.2783C35.0156 24.1992 35.0156 24.1318 35.0156 24.0703V23.9297C35.0156 23.9026 35.015 23.873 35.0143 23.8411C35.0135 23.8042 35.0127 23.7642 35.0127 23.7217L35.0121 23.6788C35.0094 23.464 35.0063 23.2241 34.998 22.9687C34.9746 22.1895 34.9365 21.4102 34.875 20.6865C34.7959 19.7432 34.6846 18.9697 34.5469 18.4512C34.3652 17.7744 33.832 17.2412 33.1582 17.0596C32.5459 16.8955 30.9932 16.7666 28.8867 16.6846C27.8174 16.6436 26.6719 16.6172 25.5264 16.6025C25.125 16.5996 24.7529 16.5967 24.4189 16.5938H23.5811C23.2471 16.5938 22.875 16.5967 22.4736 16.6025C21.3281 16.6172 20.1797 16.6436 19.1133 16.6846C17.0068 16.7637 15.457 16.8955 14.8418 17.0596C14.168 17.2383 13.6348 17.7744 13.4531 18.4512C13.3154 18.9697 13.2041 19.7432 13.125 20.6865C13.0635 21.4102 13.0225 22.1895 13.002 22.9687C13.001 23.0112 13.0001 23.0531 12.9992 23.0945C12.9943 23.3191 12.9898 23.5287 12.9873 23.7217C12.9844 23.8008 12.9844 23.8682 12.9844 23.9297V23.9824V24.0703C12.9844 24.0974 12.985 24.127 12.9857 24.1589C12.9865 24.1958 12.9873 24.2358 12.9873 24.2783L12.9879 24.3212C12.9906 24.536 12.9937 24.7759 13.002 25.0312C13.0254 25.8105 13.0635 26.5898 13.125 27.3135C13.2041 28.2568 13.3154 29.0303 13.4531 29.5488C13.6348 30.2256 14.168 30.7588 14.8418 30.9404C15.4541 31.1045 17.0068 31.2334 19.1133 31.3154C20.1826 31.3564 21.3281 31.3828 22.4736 31.3975C22.875 31.4004 23.2471 31.4033 23.5811 31.4062H24.4189C24.7529 31.4062 25.125 31.4033 25.5264 31.3975C26.6719 31.3828 27.8203 31.3564 28.8867 31.3154C30.9932 31.2363 32.543 31.1045 33.1582 30.9404C33.832 30.7617 34.3652 30.2256 34.5469 29.5488C34.6846 29.0303 34.7959 28.2568 34.875 27.3135C34.9365 26.5898 34.9775 25.8105 34.998 25.0312C34.999 24.9888 34.9999 24.9469 35.0008 24.9055C35.0057 24.6809 35.0102 24.4713 35.0127 24.2783ZM28.1895 23.9707L21.3926 27.9258V20.0742L28.1895 23.9707Z" fill="#808080"/>
</svg>
