<svg width="48" height="48" viewBox="0 0 48 48" fill="none" xmlns="http://www.w3.org/2000/svg">
<circle cx="24" cy="24" r="23.5" fill="black" stroke="#808080"/>
<path d="M15.3201 19.975H19.3625V33H15.3201V19.975ZM17.343 18.1942C18.6337 18.1942 19.686 17.1435 19.686 15.8471C19.686 14.5541 18.6371 13.5 17.343 13.5C16.0489 13.5 15 14.5507 15 15.8471C14.9966 17.1435 16.0455 18.1942 17.343 18.1942ZM25.9351 26.5557C25.9351 24.8568 26.2586 23.2125 28.3599 23.2125C30.4304 23.2125 30.4611 25.1536 30.4611 26.6649V33H34.5V25.8564C34.5 22.3494 33.744 19.6509 29.6539 19.6509C27.689 19.6509 26.371 20.7323 25.8296 21.7558H25.7751V19.975H21.8962V33H25.9351V26.5557Z" fill="#808080"/>
</svg>
