<svg width="32" height="32" viewBox="0 0 32 32" fill="none" xmlns="http://www.w3.org/2000/svg">
<g id="add_circle">
<path id="icon" d="M14.6667 22.6665H17.3334V17.3332H22.6667V14.6665H17.3334V9.33317H14.6667V14.6665H9.33335V17.3332H14.6667V22.6665ZM16 29.3332C14.1556 29.3332 12.4222 28.9887 10.8 28.2998C9.1778 27.5887 7.76669 26.6332 6.56669 25.4332C5.36669 24.2332 4.41113 22.8221 3.70002 21.1998C3.01113 19.5776 2.66669 17.8443 2.66669 15.9998C2.66669 14.1554 3.01113 12.4221 3.70002 10.7998C4.41113 9.17761 5.36669 7.7665 6.56669 6.5665C7.76669 5.3665 9.1778 4.42206 10.8 3.73317C12.4222 3.02206 14.1556 2.6665 16 2.6665C17.8445 2.6665 19.5778 3.02206 21.2 3.73317C22.8222 4.42206 24.2334 5.3665 25.4334 6.5665C26.6334 7.7665 27.5778 9.17761 28.2667 10.7998C28.9778 12.4221 29.3334 14.1554 29.3334 15.9998C29.3334 17.8443 28.9778 19.5776 28.2667 21.1998C27.5778 22.8221 26.6334 24.2332 25.4334 25.4332C24.2334 26.6332 22.8222 27.5887 21.2 28.2998C19.5778 28.9887 17.8445 29.3332 16 29.3332ZM16 26.6665C18.9778 26.6665 21.5 25.6332 23.5667 23.5665C25.6334 21.4998 26.6667 18.9776 26.6667 15.9998C26.6667 13.0221 25.6334 10.4998 23.5667 8.43317C21.5 6.3665 18.9778 5.33317 16 5.33317C13.0222 5.33317 10.5 6.3665 8.43335 8.43317C6.36669 10.4998 5.33335 13.0221 5.33335 15.9998C5.33335 18.9776 6.36669 21.4998 8.43335 23.5665C10.5 25.6332 13.0222 26.6665 16 26.6665Z" fill="#FEF7FF"/>
</g>
</svg>
