<svg width="250" height="250" viewBox="0 0 250 250" fill="none" xmlns="http://www.w3.org/2000/svg">
<g filter="url(#filter0_d_6636_2809)">
<path d="M116.5 106.875C131.101 106.875 142.938 95.0385 142.938 80.4375C142.938 65.8365 131.101 54 116.5 54C101.899 54 90.0625 65.8365 90.0625 80.4375C90.0625 95.0385 101.899 106.875 116.5 106.875Z" stroke="#949292" stroke-width="15"/>
<path d="M169.375 195C179.109 195 187 187.109 187 177.375C187 167.641 179.109 159.75 169.375 159.75C159.641 159.75 151.75 167.641 151.75 177.375C151.75 187.109 159.641 195 169.375 195Z" stroke="#949292" stroke-width="15" stroke-linecap="round" stroke-linejoin="round"/>
<path d="M119.505 195H63.625C58.9506 195 54.4676 193.143 51.1622 189.838C47.8569 186.532 46 182.049 46 177.375C46 168.026 49.7138 159.06 56.3245 152.449C62.9351 145.839 71.9011 142.125 81.25 142.125H129.965M187 177.375V115.688L204.625 133.312" stroke="#949292" stroke-width="15" stroke-linecap="round" stroke-linejoin="round"/>
</g>
<defs>
<filter id="filter0_d_6636_2809" x="38.5" y="46.5" width="183.625" height="166" filterUnits="userSpaceOnUse" color-interpolation-filters="sRGB">
<feFlood flood-opacity="0" result="BackgroundImageFix"/>
<feColorMatrix in="SourceAlpha" type="matrix" values="0 0 0 0 0 0 0 0 0 0 0 0 0 0 0 0 0 0 127 0" result="hardAlpha"/>
<feOffset dx="10" dy="10"/>
<feComposite in2="hardAlpha" operator="out"/>
<feColorMatrix type="matrix" values="0 0 0 0 0.636312 0 0 0 0 0.636312 0 0 0 0 0.636312 0 0 0 0.25 0"/>
<feBlend mode="normal" in2="BackgroundImageFix" result="effect1_dropShadow_6636_2809"/>
<feBlend mode="normal" in="SourceGraphic" in2="effect1_dropShadow_6636_2809" result="shape"/>
</filter>
</defs>
</svg>
