<svg width="80" height="54" viewBox="0 0 80 54" fill="none" xmlns="http://www.w3.org/2000/svg">
<g id="Group">
<g id="Group_2" opacity="0.5">
<g id="Group_3">
<path id="Vector" d="M50.5349 23.7596H28.8899C28.9799 23.4896 29.0699 23.2646 29.2499 22.9946L30.0149 21.5996H49.3649L50.3999 23.3546C50.3999 23.4446 50.4899 23.6246 50.5349 23.7596Z" fill="white"/>
<path id="Vector_2" d="M50.4899 25.9199C50.2199 26.6849 49.6799 27.3149 48.9149 27.7199C48.4649 27.9449 47.9699 28.0799 47.4749 28.0799H31.9049C31.1399 28.0799 30.4199 27.8099 29.7899 27.2699C29.3849 26.9099 29.0699 26.4149 28.8899 25.9199H50.4899Z" fill="white"/>
<path id="Vector_3" d="M31.905 30.2402H37.44C37.44 30.2852 37.44 30.2852 37.44 30.3302V32.4002H31.905V30.2402Z" fill="white"/>
<path id="Vector_4" d="M47.4752 30.2402V32.4002H41.9402V30.3302C41.9402 30.2852 41.9402 30.2852 41.9402 30.2402H47.4752Z" fill="white"/>
<path id="Vector_5" d="M48.0601 19.4393H31.1401L31.7701 18.2693C32.0851 17.6393 32.7601 17.2793 33.4351 17.2793H45.7201C46.3951 17.2793 47.0252 17.6393 47.3402 18.2243L48.0601 19.4393Z" fill="white"/>
<path id="Vector_6" d="M31.9497 34.5596H37.4397V36.7196H34.4697C33.2097 36.7196 32.1297 35.7746 31.9497 34.5596Z" fill="white"/>
<path id="Vector_7" d="M47.4302 34.5596C47.2502 35.7746 46.1702 36.7196 44.9102 36.7196H41.9402V34.5596H47.4302Z" fill="white"/>
</g>
<g id="Group_4">
<path id="Vector_8" d="M39.6897 0C35.9097 0 32.3547 0.765 29.1147 2.16H50.3097C47.0247 0.765 43.4697 0 39.6897 0Z" fill="white"/>
<path id="Vector_9" d="M54.3598 4.32031H25.0648C24.0748 4.99531 23.0848 5.71531 22.1848 6.48031H57.2848C56.3398 5.71531 55.3498 4.99531 54.3598 4.32031Z" fill="white"/>
<path id="Vector_10" d="M29.1598 12.96H16.6048C16.1548 13.68 15.7948 14.4 15.4348 15.12H26.7748C27.4948 14.31 28.3048 13.59 29.1598 12.96Z" fill="white"/>
<path id="Vector_11" d="M52.605 15.12H63.945C63.585 14.4 63.18 13.68 62.775 12.96H50.22C51.075 13.59 51.885 14.31 52.605 15.12Z" fill="white"/>
<path id="Vector_12" d="M22.9951 21.6006H13.2301C13.0951 22.3206 12.9601 23.0406 12.8701 23.7606H22.4101C22.5901 23.0406 22.7701 22.3206 22.9951 21.6006Z" fill="white"/>
<path id="Vector_13" d="M22.1399 26.9999C22.1399 26.6399 22.1399 26.2799 22.1849 25.9199H12.7349C12.7349 26.2799 12.6899 26.6399 12.6899 26.9999C12.6899 27.3599 12.6899 27.7199 12.7349 28.0799H22.1849C22.1399 27.7199 22.1399 27.3599 22.1399 26.9999Z" fill="white"/>
<path id="Vector_14" d="M22.455 30.2402H12.915C13.005 30.9602 13.14 31.6802 13.275 32.4002H23.04C22.77 31.6802 22.59 30.9602 22.455 30.2402Z" fill="white"/>
<path id="Vector_15" d="M26.7748 38.8809H15.4348C15.7948 39.6009 16.1998 40.3209 16.6048 41.0409H29.1598C28.3048 40.4109 27.4948 39.6909 26.7748 38.8809Z" fill="white"/>
<path id="Vector_16" d="M50.22 41.0409H62.775C63.225 40.3209 63.585 39.6009 63.945 38.8809H52.605C51.885 39.6909 51.075 40.4109 50.22 41.0409Z" fill="white"/>
<path id="Vector_17" d="M25.0199 49.6805H54.3599C55.3499 49.0055 56.3399 48.2855 57.2399 47.5205H22.1399C23.0399 48.2855 24.0299 49.0055 25.0199 49.6805Z" fill="white"/>
<path id="Vector_18" d="M39.6898 53.9998C43.4698 53.9998 47.0248 53.2348 50.2648 51.8398H29.0698C32.3548 53.2348 35.9098 53.9998 39.6898 53.9998Z" fill="white"/>
<path id="Vector_19" d="M53.0101 8.64062H26.4151C25.5151 9.31562 24.6601 10.0356 23.8501 10.8006H32.9401C35.0101 9.94562 37.3051 9.45062 39.6901 9.45062C42.0751 9.45062 44.3701 9.94562 46.4401 10.8006H55.5301C54.7651 10.0356 53.9101 9.31562 53.0101 8.64062Z" fill="white"/>
<path id="Vector_20" d="M19.2149 17.2803C18.8999 18.0003 18.5849 18.7203 18.3149 19.4403H23.8499C24.2099 18.6753 24.6149 17.9553 25.0649 17.2803H19.2149Z" fill="white"/>
<path id="Vector_21" d="M60.1648 17.2803H54.2698C54.7198 17.9553 55.1248 18.6753 55.4848 19.4403H61.0198C60.7948 18.7203 60.5248 18.0003 60.1648 17.2803Z" fill="white"/>
<path id="Vector_22" d="M18.3149 34.5596C18.5849 35.2796 18.8549 35.9996 19.2149 36.7196H25.1099C24.6599 36.0446 24.2549 35.3246 23.8949 34.5596H18.3149Z" fill="white"/>
<path id="Vector_23" d="M54.3152 36.7196H60.2102C60.5252 35.9996 60.8402 35.2796 61.1102 34.5596H55.5752C55.1702 35.3246 54.7652 36.0446 54.3152 36.7196Z" fill="white"/>
<path id="Vector_24" d="M26.3698 45.3602H53.0098C53.9098 44.6852 54.7648 43.9652 55.5748 43.2002H46.4848C44.4148 44.0552 42.1198 44.5502 39.7348 44.5502C37.3498 44.5502 35.0548 44.0552 32.9848 43.2002H23.8948C24.6148 43.9652 25.4698 44.6852 26.3698 45.3602Z" fill="white"/>
<path id="Vector_25" d="M50.5349 23.7606H28.8899C28.9799 23.4906 29.0699 23.2656 29.2499 22.9956L30.0149 21.6006H49.3649L50.3999 23.3556C50.3999 23.4456 50.4899 23.6256 50.5349 23.7606Z" fill="white"/>
<path id="Vector_26" d="M50.4899 25.9199C50.2199 26.6849 49.6799 27.3149 48.9149 27.7199C48.4649 27.9449 47.9699 28.0799 47.4749 28.0799H31.9049C31.1399 28.0799 30.4199 27.8099 29.7899 27.2699C29.3849 26.9099 29.0699 26.4149 28.8899 25.9199H50.4899Z" fill="white"/>
<path id="Vector_27" d="M31.905 30.2402H37.44C37.44 30.2852 37.44 30.2852 37.44 30.3302V32.4002H31.905V30.2402Z" fill="white"/>
<path id="Vector_28" d="M47.4752 30.2402V32.4002H41.9402V30.3302C41.9402 30.2852 41.9402 30.2852 41.9402 30.2402H47.4752Z" fill="white"/>
<path id="Vector_29" d="M48.0601 19.4403H31.1401L31.7701 18.2703C32.0851 17.6403 32.7601 17.2803 33.4351 17.2803H45.7201C46.3951 17.2803 47.0252 17.6403 47.3402 18.2253L48.0601 19.4403Z" fill="white"/>
<path id="Vector_30" d="M31.95 34.5596H37.4399V36.7196H34.4699C33.2099 36.7196 32.13 35.7746 31.95 34.5596Z" fill="white"/>
<path id="Vector_31" d="M47.4302 34.5596C47.2502 35.7746 46.1702 36.7196 44.9102 36.7196H41.9402V34.5596H47.4302Z" fill="white"/>
</g>
</g>
<g id="Group_5">
<path id="Vector_32" d="M0.539992 24.7487C0.899992 24.0737 1.395 23.5787 2.025 23.2187C2.655 22.8587 3.42 22.6787 4.275 22.6787C5.355 22.6787 6.255 22.9487 6.975 23.5337C7.695 24.1187 8.18999 24.8837 8.36999 25.8737H5.805C5.67 25.5587 5.445 25.2887 5.175 25.1537C4.905 24.9737 4.59 24.8837 4.23 24.8837C3.69 24.8837 3.24 25.0637 2.925 25.4687C2.61 25.8737 2.43 26.3687 2.43 27.0437C2.43 27.7187 2.61 28.2587 2.925 28.6187C3.24 29.0237 3.69 29.2037 4.23 29.2037C4.59 29.2037 4.905 29.1137 5.175 28.9337C5.445 28.7537 5.67 28.5287 5.805 28.2137H8.36999C8.14499 29.2037 7.695 29.9687 6.975 30.5537C6.255 31.1387 5.355 31.4087 4.275 31.4087C3.42 31.4087 2.7 31.2287 2.025 30.8687C1.395 30.5087 0.854992 29.9687 0.539992 29.3387C0.179992 28.6637 0 27.9437 0 27.0887C0 26.1437 0.179992 25.4237 0.539992 24.7487Z" fill="white"/>
<path id="Vector_33" d="M16.155 29.9245H13.095L12.645 31.3195H10.125L13.23 22.7695H15.975L19.08 31.3195H16.56L16.155 29.9245ZM15.525 28.0795L14.58 25.2895L13.68 28.0795H15.525Z" fill="white"/>
<path id="Vector_34" d="M29.025 31.3186H26.64L23.49 26.5486V31.3186H21.105V22.7686H23.49L26.64 27.6286V22.7236H29.025V31.3186Z" fill="white"/>
<path id="Vector_35" d="M33.9751 22.7236V31.2736H31.5901V22.7236H33.9751Z" fill="white"/>
<path id="Vector_36" d="M37.3499 30.6887C36.7199 30.1937 36.3599 29.5187 36.3149 28.6637H38.8349C38.8799 28.9787 38.9699 29.2037 39.1049 29.3387C39.2399 29.4737 39.4649 29.5637 39.6899 29.5637C39.9149 29.5637 40.0949 29.5187 40.2299 29.3837C40.3649 29.2937 40.4549 29.1137 40.4549 28.9337C40.4549 28.6637 40.3199 28.4837 40.0949 28.3487C39.8699 28.2137 39.4649 28.0787 38.9699 27.8987C38.4299 27.7187 37.9799 27.5387 37.6199 27.3587C37.2599 27.1787 36.9899 26.9087 36.7199 26.5937C36.4499 26.2787 36.3149 25.8287 36.3149 25.2887C36.3149 24.7487 36.4499 24.2537 36.7199 23.8937C36.9899 23.4887 37.3949 23.2187 37.8449 22.9937C38.3399 22.7687 38.8799 22.6787 39.5099 22.6787C40.4999 22.6787 41.3099 22.9037 41.8949 23.3987C42.4799 23.8487 42.7949 24.5237 42.8399 25.3787H40.2299C40.2299 25.1087 40.1399 24.9287 40.0049 24.7937C39.8699 24.6587 39.6449 24.6137 39.4199 24.6137C39.2399 24.6137 39.1049 24.6587 38.9699 24.7937C38.8349 24.8837 38.7899 25.0637 38.7899 25.2437C38.7899 25.4237 38.8349 25.5587 38.9699 25.6487C39.1049 25.7837 39.2399 25.8737 39.4199 25.9637C39.5999 26.0537 39.8699 26.1437 40.2299 26.2787C40.7699 26.4587 41.2199 26.6387 41.5799 26.8187C41.9399 26.9987 42.2549 27.2687 42.4799 27.5837C42.7499 27.8987 42.8849 28.3487 42.8849 28.8437C42.8849 29.3387 42.7499 29.8337 42.4799 30.2387C42.2099 30.6437 41.8499 30.9587 41.3549 31.1837C40.8599 31.4087 40.3199 31.5437 39.6449 31.5437C38.7899 31.4087 37.9799 31.1387 37.3499 30.6887Z" fill="white"/>
<path id="Vector_37" d="M51.7501 22.7236V24.6136H49.4551V31.2736H47.0701V24.6136H44.8201V22.7236H51.7501Z" fill="white"/>
<path id="Vector_38" d="M55.755 30.8238C55.08 30.4638 54.54 29.9238 54.135 29.2488C53.73 28.5738 53.55 27.8088 53.55 26.9988C53.55 26.1888 53.73 25.3788 54.135 24.7488C54.54 24.0738 55.08 23.5788 55.755 23.1738C56.43 22.8138 57.15 22.6338 57.96 22.6338C58.77 22.6338 59.4901 22.8138 60.1651 23.1738C60.8401 23.5338 61.3801 24.0738 61.7401 24.7488C62.1451 25.4238 62.325 26.1888 62.325 26.9988C62.325 27.8088 62.1451 28.6188 61.7401 29.2488C61.3351 29.9238 60.8401 30.4188 60.1651 30.8238C59.4901 31.1838 58.77 31.4088 57.96 31.4088C57.195 31.4088 56.43 31.1838 55.755 30.8238ZM59.4 28.5738C59.76 28.1688 59.9401 27.6288 59.9401 26.9988C59.9401 26.3238 59.76 25.7838 59.4 25.3788C59.04 24.9738 58.59 24.7938 57.96 24.7938C57.33 24.7938 56.88 24.9738 56.52 25.3788C56.16 25.7838 55.98 26.3238 55.98 26.9988C55.98 27.6738 56.16 28.2138 56.52 28.6188C56.88 29.0238 57.33 29.2038 57.96 29.2038C58.59 29.1588 59.085 28.9788 59.4 28.5738Z" fill="white"/>
<path id="Vector_39" d="M68.9851 31.3195L67.2751 28.1695H67.0051V31.3195H64.6201V22.7695H68.3551C69.0301 22.7695 69.6151 22.9045 70.1101 23.1295C70.6051 23.3545 70.9651 23.7145 71.1901 24.1195C71.4151 24.5245 71.5501 25.0195 71.5501 25.5145C71.5501 26.0995 71.3701 26.5945 71.0551 27.0445C70.7401 27.4945 70.2451 27.8095 69.6601 27.9895L71.5951 31.3195H68.9851ZM67.0501 26.5045H68.2201C68.5351 26.5045 68.8051 26.4145 68.9401 26.2795C69.1201 26.1445 69.1651 25.9195 69.1651 25.6045C69.1651 25.3345 69.0751 25.1095 68.8951 24.9745C68.7151 24.7945 68.4901 24.7495 68.1751 24.7495H67.0051V26.5045H67.0501Z" fill="white"/>
<path id="Vector_40" d="M76.2751 24.6586V26.0536H79.0201V27.8536H76.2751V29.3836H79.3801V31.2736H73.8901V22.7236H79.3801V24.6136H76.2751V24.6586Z" fill="white"/>
</g>
</g>
</svg>
