<svg width="32" height="32" viewBox="0 0 32 32" fill="none" xmlns="http://www.w3.org/2000/svg">
<g id="home">
<path id="Vector" d="M17.1573 4.34208L26.9913 10.6053C27.3003 10.8021 27.5547 11.0737 27.731 11.3948C27.9074 11.716 27.9999 12.0764 28 12.4428V25.8205C27.9998 26.1069 27.9432 26.3905 27.8334 26.655C27.7236 26.9196 27.5628 27.1599 27.3601 27.3623C27.1575 27.5646 26.9169 27.7251 26.6522 27.8346C26.3876 27.944 26.1039 28.0002 25.8175 28H19.2V19.2H12.8V28H6.18175C5.60344 28.0002 5.04873 27.7707 4.6396 27.362C4.23046 26.9533 4.0004 26.3988 4 25.8205V12.2545C4 11.5001 4.39 10.7996 5.032 10.4021L14.8345 4.32708C15.1838 4.11075 15.5871 3.99739 15.998 4.00005C16.4089 4.0027 16.8107 4.12125 17.1573 4.34208Z" fill="white"/>
</g>
</svg>
