<svg width="177" height="120" viewBox="0 0 177 120" fill="none" xmlns="http://www.w3.org/2000/svg">
<path d="M112.3 52.8H64.2C64.4 52.2 64.6 51.7 65 51.1L66.7 48H109.7L112 51.9C112 52.1 112.2 52.4 112.3 52.8Z" fill="white"/>
<path d="M112.2 57.6006C111.6 59.3006 110.4 60.7006 108.7 61.6006C107.7 62.1006 106.6 62.4006 105.5 62.4006H70.9C69.2 62.4006 67.6 61.8006 66.2 60.6006C65.3 59.8006 64.6 58.7006 64.2 57.6006H112.2Z" fill="white"/>
<path d="M70.8999 67.2002H83.1999C83.1999 67.3002 83.1999 67.3002 83.1999 67.4002V72.0002H70.8999V67.2002Z" fill="white"/>
<path d="M105.5 67.2002V72.0002H93.2V67.4002C93.2 67.3002 93.2 67.3002 93.2 67.2002H105.5Z" fill="white"/>
<path d="M106.8 43.2004H69.2L70.5999 40.6004C71.2999 39.2004 72.8 38.4004 74.3 38.4004H101.6C103.1 38.4004 104.5 39.2004 105.2 40.5004L106.8 43.2004Z" fill="white"/>
<path d="M71 76.8008H83.2V81.6008H76.6C73.8 81.6008 71.4 79.5008 71 76.8008Z" fill="white"/>
<path d="M105.4 76.8008C105 79.5008 102.6 81.6008 99.8 81.6008H93.2V76.8008H105.4Z" fill="white"/>
<path d="M88.2 0C79.8 0 71.9 1.7 64.7 4.8H111.8C104.5 1.7 96.6 0 88.2 0Z" fill="url(#paint0_linear_4930_2951)"/>
<path d="M120.8 9.59961H55.6999C53.4999 11.0996 51.2999 12.6996 49.2999 14.3996H127.3C125.2 12.5996 123 10.9996 120.8 9.59961Z" fill="url(#paint1_linear_4930_2951)"/>
<path d="M64.7999 28.7998H36.8999C35.8999 30.3998 35.0999 31.9998 34.2999 33.5998H59.4999C61.0999 31.7998 62.8999 30.1998 64.7999 28.7998Z" fill="url(#paint2_linear_4930_2951)"/>
<path d="M116.9 33.5998H142.1C141.3 31.9998 140.4 30.3998 139.5 28.7998H111.6C113.5 30.1998 115.3 31.7998 116.9 33.5998Z" fill="url(#paint3_linear_4930_2951)"/>
<path d="M51.1 48H29.4C29.1 49.6 28.8 51.2 28.6 52.8H49.8C50.2 51.1 50.6 49.5 51.1 48Z" fill="url(#paint4_linear_4930_2951)"/>
<path d="M49.2 59.9996C49.2 59.1996 49.2 58.3996 49.3 57.5996H28.3C28.3 58.3996 28.2 59.1996 28.2 59.9996C28.2 60.7996 28.2 61.5996 28.3 62.3996H49.3C49.2 61.5996 49.2 60.7996 49.2 59.9996Z" fill="url(#paint5_linear_4930_2951)"/>
<path d="M49.9 67.2002H28.7C28.9 68.8002 29.2 70.4002 29.5 72.0002H51.2C50.6 70.4002 50.2 68.8002 49.9 67.2002Z" fill="url(#paint6_linear_4930_2951)"/>
<path d="M59.4999 86.4004H34.2999C35.0999 88.0004 35.9999 89.6004 36.8999 91.2004H64.7999C62.8999 89.8004 61.0999 88.1004 59.4999 86.4004Z" fill="url(#paint7_linear_4930_2951)"/>
<path d="M111.6 91.2004H139.5C140.5 89.6004 141.3 88.0004 142.1 86.4004H116.9C115.3 88.1004 113.5 89.8004 111.6 91.2004Z" fill="url(#paint8_linear_4930_2951)"/>
<path d="M55.5999 110.4H120.8C123 108.9 125.2 107.3 127.2 105.6H49.2C51.2 107.3 53.3999 108.9 55.5999 110.4Z" fill="url(#paint9_linear_4930_2951)"/>
<path d="M88.2 120C96.6 120 104.5 118.3 111.7 115.2H64.6C71.9 118.3 79.8 120 88.2 120Z" fill="url(#paint10_linear_4930_2951)"/>
<path d="M117.8 19.2002H58.7C56.7 20.7002 54.8 22.3002 53 24.0002H73.2C77.8 22.1002 82.9 21.0002 88.2 21.0002C93.5 21.0002 98.6 22.1002 103.2 24.0002H123.4C121.7 22.2002 119.8 20.6002 117.8 19.2002Z" fill="url(#paint11_linear_4930_2951)"/>
<path d="M42.7 38.4004C42 40.0004 41.3 41.6004 40.7 43.2004H53C53.8 41.5004 54.7 39.9004 55.7 38.4004H42.7Z" fill="url(#paint12_linear_4930_2951)"/>
<path d="M133.7 38.4004H120.6C121.6 39.9004 122.5 41.5004 123.3 43.2004H135.6C135.1 41.5004 134.5 39.9004 133.7 38.4004Z" fill="url(#paint13_linear_4930_2951)"/>
<path d="M40.7 76.7998C41.3 78.3998 41.9 79.9998 42.7 81.5998H55.8C54.8 80.0998 53.8999 78.4998 53.0999 76.7998H40.7Z" fill="url(#paint14_linear_4930_2951)"/>
<path d="M120.7 81.5998H133.8C134.5 79.9998 135.2 78.3998 135.8 76.7998H123.5C122.6 78.3998 121.7 79.9998 120.7 81.5998Z" fill="url(#paint15_linear_4930_2951)"/>
<path d="M58.6 100.8H117.8C119.8 99.3 121.7 97.7 123.5 96H103.3C98.7 97.9 93.6 99 88.3 99C83 99 77.9 97.9 73.3 96H53.1C54.7 97.7 56.6 99.3 58.6 100.8Z" fill="url(#paint16_linear_4930_2951)"/>
<path d="M112.3 52.8H64.2C64.4 52.2 64.6 51.7 65 51.1L66.7 48H109.7L112 51.9C112 52.1 112.2 52.4 112.3 52.8Z" fill="url(#paint17_linear_4930_2951)"/>
<path d="M112.2 57.5996C111.6 59.2996 110.4 60.6996 108.7 61.5996C107.7 62.0996 106.6 62.3996 105.5 62.3996H70.9C69.2 62.3996 67.6 61.7996 66.2 60.5996C65.3 59.7996 64.6 58.6996 64.2 57.5996H112.2Z" fill="url(#paint18_linear_4930_2951)"/>
<path d="M70.8999 67.2002H83.1999C83.1999 67.3002 83.1999 67.3002 83.1999 67.4002V72.0002H70.8999V67.2002Z" fill="url(#paint19_linear_4930_2951)"/>
<path d="M105.5 67.2002V72.0002H93.2V67.4002C93.2 67.3002 93.2 67.3002 93.2 67.2002H105.5Z" fill="url(#paint20_linear_4930_2951)"/>
<path d="M106.8 43.2004H69.2L70.5999 40.6004C71.2999 39.2004 72.8 38.4004 74.3 38.4004H101.6C103.1 38.4004 104.5 39.2004 105.2 40.5004L106.8 43.2004Z" fill="url(#paint21_linear_4930_2951)"/>
<path d="M71 76.7998H83.2V81.5998H76.6C73.8 81.5998 71.4 79.4998 71 76.7998Z" fill="url(#paint22_linear_4930_2951)"/>
<path d="M105.4 76.7998C105 79.4998 102.6 81.5998 99.8 81.5998H93.2V76.7998H105.4Z" fill="url(#paint23_linear_4930_2951)"/>
<path d="M1.19998 54.9994C1.99998 53.4994 3.1 52.3994 4.5 51.5994C5.9 50.7994 7.6 50.3994 9.5 50.3994C11.9 50.3994 13.9 50.9994 15.5 52.2994C17.1 53.5994 18.2 55.2994 18.6 57.4994H12.9C12.6 56.7994 12.1 56.1994 11.5 55.8994C10.9 55.4994 10.2 55.2994 9.39999 55.2994C8.19999 55.2994 7.2 55.6994 6.5 56.5994C5.8 57.4994 5.39999 58.5994 5.39999 60.0994C5.39999 61.5994 5.8 62.7994 6.5 63.5994C7.2 64.4994 8.19999 64.8994 9.39999 64.8994C10.2 64.8994 10.9 64.6994 11.5 64.2994C12.1 63.8994 12.6 63.3994 12.9 62.6994H18.6C18.1 64.8994 17.1 66.5994 15.5 67.8994C13.9 69.1994 11.9 69.7994 9.5 69.7994C7.6 69.7994 6 69.3994 4.5 68.5994C3.1 67.7994 1.89998 66.5994 1.19998 65.1994C0.399982 63.6994 0 62.0994 0 60.1994C0 58.0994 0.399982 56.4994 1.19998 54.9994Z" fill="white"/>
<path d="M35.9 66.4H29.1L28.1 69.5H22.5L29.4 50.5H35.5L42.4 69.5H36.8L35.9 66.4ZM34.5 62.4L32.4 56.2L30.4 62.4H34.5Z" fill="white"/>
<path d="M64.5 69.5996H59.2L52.2 58.9996V69.5996H46.9V50.5996H52.2L59.2 61.3996V50.5996H64.5V69.5996Z" fill="white"/>
<path d="M75.5 50.5V69.5H70.2V50.5H75.5Z" fill="white"/>
<path d="M83 68.1994C81.6 67.0994 80.8 65.5994 80.7 63.6994H86.3C86.4 64.3994 86.6 64.8994 86.9 65.1994C87.2 65.4994 87.7 65.6994 88.2 65.6994C88.7 65.6994 89.1 65.5994 89.4 65.2994C89.7 65.0994 89.9 64.6994 89.9 64.2994C89.9 63.6994 89.5999 63.2994 89.0999 62.9994C88.5999 62.6994 87.6999 62.3994 86.5999 61.9994C85.3999 61.5994 84.3999 61.1994 83.5999 60.7994C82.7999 60.3994 82.1999 59.7994 81.5999 59.0994C80.9999 58.3994 80.7 57.3994 80.7 56.1994C80.7 54.9994 80.9999 53.8994 81.5999 53.0994C82.1999 52.1994 83.0999 51.5994 84.0999 51.0994C85.1999 50.6994 86.4 50.3994 87.8 50.3994C90 50.3994 91.7999 50.8994 93.0999 51.9994C94.3999 52.9994 95.1 54.4994 95.2 56.3994H89.4C89.4 55.7994 89.2 55.3994 88.9 55.0994C88.6 54.7994 88.0999 54.6994 87.5999 54.6994C87.1999 54.6994 86.8999 54.7994 86.5999 55.0994C86.2999 55.2994 86.2 55.6994 86.2 56.0994C86.2 56.4994 86.2999 56.7994 86.5999 56.9994C86.8999 57.2994 87.1999 57.4994 87.5999 57.6994C87.9999 57.8994 88.6 58.0994 89.4 58.3994C90.6 58.7994 91.6 59.1994 92.4 59.5994C93.2 59.9994 93.9 60.5994 94.4 61.2994C95 61.9994 95.3 62.9994 95.3 64.0994C95.3 65.1994 95 66.2994 94.4 67.1994C93.8 68.0994 93 68.7994 91.9 69.2994C90.8 69.7994 89.5999 70.0994 88.0999 70.0994C86.1999 69.6994 84.4 69.1994 83 68.1994Z" fill="white"/>
<path d="M115 50.5V54.7H109.9V69.5H104.6V54.7H99.6V50.5H115Z" fill="white"/>
<path d="M123.9 68.4998C122.4 67.6998 121.2 66.4998 120.3 64.9998C119.4 63.4998 119 61.7998 119 59.9998C119 58.1998 119.4 56.3998 120.3 54.9998C121.2 53.4998 122.4 52.3998 123.9 51.4998C125.4 50.6998 127 50.2998 128.8 50.2998C130.6 50.2998 132.2 50.6998 133.7 51.4998C135.2 52.2998 136.4 53.4998 137.2 54.9998C138.1 56.4998 138.5 58.1998 138.5 59.9998C138.5 61.7998 138.1 63.5998 137.2 64.9998C136.3 66.4998 135.2 67.5998 133.7 68.4998C132.2 69.2998 130.6 69.7998 128.8 69.7998C127.1 69.6998 125.4 69.2998 123.9 68.4998ZM132 63.4998C132.8 62.5998 133.2 61.3998 133.2 59.9998C133.2 58.4998 132.8 57.2998 132 56.3998C131.2 55.4998 130.2 55.0998 128.8 55.0998C127.4 55.0998 126.4 55.4998 125.6 56.3998C124.8 57.2998 124.4 58.4998 124.4 59.9998C124.4 61.4998 124.8 62.6998 125.6 63.5998C126.4 64.4998 127.4 64.8998 128.8 64.8998C130.2 64.7998 131.3 64.3998 132 63.4998Z" fill="white"/>
<path d="M153.3 69.5996L149.5 62.5996H148.9V69.5996H143.6V50.5996H151.9C153.4 50.5996 154.7 50.8996 155.8 51.3996C156.9 51.8996 157.7 52.6996 158.2 53.5996C158.7 54.4996 159 55.5996 159 56.6996C159 57.9996 158.6 59.0996 157.9 60.0996C157.2 61.0996 156.1 61.7996 154.8 62.1996L159.1 69.5996H153.3ZM149 58.8996H151.6C152.3 58.8996 152.9 58.6996 153.2 58.3996C153.6 58.0996 153.7 57.5996 153.7 56.8996C153.7 56.2996 153.5 55.7996 153.1 55.4996C152.7 55.0996 152.2 54.9996 151.5 54.9996H148.9V58.8996H149Z" fill="white"/>
<path d="M169.5 54.8V57.9H175.6V61.9H169.5V65.3H176.4V69.5H164.2V50.5H176.4V54.7H169.5V54.8Z" fill="white"/>
<defs>
<linearGradient id="paint0_linear_4930_2951" x1="85.1431" y1="119.98" x2="85.1431" y2="-0.0204992" gradientUnits="userSpaceOnUse">
<stop stop-color="#6600CC"/>
<stop offset="1" stop-color="#50D955"/>
</linearGradient>
<linearGradient id="paint1_linear_4930_2951" x1="85.143" y1="119.979" x2="85.143" y2="-0.0208942" gradientUnits="userSpaceOnUse">
<stop stop-color="#6600CC"/>
<stop offset="1" stop-color="#50D955"/>
</linearGradient>
<linearGradient id="paint2_linear_4930_2951" x1="85.143" y1="119.979" x2="85.143" y2="-0.0207147" gradientUnits="userSpaceOnUse">
<stop stop-color="#6600CC"/>
<stop offset="1" stop-color="#50D955"/>
</linearGradient>
<linearGradient id="paint3_linear_4930_2951" x1="85.1431" y1="119.979" x2="85.1431" y2="-0.0207147" gradientUnits="userSpaceOnUse">
<stop stop-color="#6600CC"/>
<stop offset="1" stop-color="#50D955"/>
</linearGradient>
<linearGradient id="paint4_linear_4930_2951" x1="85.1431" y1="119.98" x2="85.1431" y2="-0.0205351" gradientUnits="userSpaceOnUse">
<stop stop-color="#6600CC"/>
<stop offset="1" stop-color="#50D955"/>
</linearGradient>
<linearGradient id="paint5_linear_4930_2951" x1="85.1431" y1="119.979" x2="85.1431" y2="-0.0209301" gradientUnits="userSpaceOnUse">
<stop stop-color="#6600CC"/>
<stop offset="1" stop-color="#50D955"/>
</linearGradient>
<linearGradient id="paint6_linear_4930_2951" x1="85.1431" y1="119.98" x2="85.1431" y2="-0.0203484" gradientUnits="userSpaceOnUse">
<stop stop-color="#6600CC"/>
<stop offset="1" stop-color="#50D955"/>
</linearGradient>
<linearGradient id="paint7_linear_4930_2951" x1="85.143" y1="119.98" x2="85.143" y2="-0.0198906" gradientUnits="userSpaceOnUse">
<stop stop-color="#6600CC"/>
<stop offset="1" stop-color="#50D955"/>
</linearGradient>
<linearGradient id="paint8_linear_4930_2951" x1="85.1431" y1="119.98" x2="85.1431" y2="-0.0198906" gradientUnits="userSpaceOnUse">
<stop stop-color="#6600CC"/>
<stop offset="1" stop-color="#50D955"/>
</linearGradient>
<linearGradient id="paint9_linear_4930_2951" x1="85.1431" y1="119.979" x2="85.1431" y2="-0.0212963" gradientUnits="userSpaceOnUse">
<stop stop-color="#6600CC"/>
<stop offset="1" stop-color="#50D955"/>
</linearGradient>
<linearGradient id="paint10_linear_4930_2951" x1="85.1431" y1="119.98" x2="85.1431" y2="-0.0207466" gradientUnits="userSpaceOnUse">
<stop stop-color="#6600CC"/>
<stop offset="1" stop-color="#50D955"/>
</linearGradient>
<linearGradient id="paint11_linear_4930_2951" x1="85.1431" y1="119.98" x2="85.1431" y2="-0.0203197" gradientUnits="userSpaceOnUse">
<stop stop-color="#6600CC"/>
<stop offset="1" stop-color="#50D955"/>
</linearGradient>
<linearGradient id="paint12_linear_4930_2951" x1="85.1431" y1="119.98" x2="85.1431" y2="-0.0200109" gradientUnits="userSpaceOnUse">
<stop stop-color="#6600CC"/>
<stop offset="1" stop-color="#50D955"/>
</linearGradient>
<linearGradient id="paint13_linear_4930_2951" x1="85.1431" y1="119.98" x2="85.1431" y2="-0.0200109" gradientUnits="userSpaceOnUse">
<stop stop-color="#6600CC"/>
<stop offset="1" stop-color="#50D955"/>
</linearGradient>
<linearGradient id="paint14_linear_4930_2951" x1="85.1431" y1="119.979" x2="85.1431" y2="-0.020747" gradientUnits="userSpaceOnUse">
<stop stop-color="#6600CC"/>
<stop offset="1" stop-color="#50D955"/>
</linearGradient>
<linearGradient id="paint15_linear_4930_2951" x1="85.1431" y1="119.979" x2="85.1431" y2="-0.020747" gradientUnits="userSpaceOnUse">
<stop stop-color="#6600CC"/>
<stop offset="1" stop-color="#50D955"/>
</linearGradient>
<linearGradient id="paint16_linear_4930_2951" x1="85.1431" y1="119.979" x2="85.1431" y2="-0.0202586" gradientUnits="userSpaceOnUse">
<stop stop-color="#6600CC"/>
<stop offset="1" stop-color="#50D955"/>
</linearGradient>
<linearGradient id="paint17_linear_4930_2951" x1="85.1431" y1="119.98" x2="85.1431" y2="-0.0205351" gradientUnits="userSpaceOnUse">
<stop stop-color="#6600CC"/>
<stop offset="1" stop-color="#50D955"/>
</linearGradient>
<linearGradient id="paint18_linear_4930_2951" x1="85.1431" y1="119.979" x2="85.1431" y2="-0.0209301" gradientUnits="userSpaceOnUse">
<stop stop-color="#6600CC"/>
<stop offset="1" stop-color="#50D955"/>
</linearGradient>
<linearGradient id="paint19_linear_4930_2951" x1="85.143" y1="119.98" x2="85.143" y2="-0.0203484" gradientUnits="userSpaceOnUse">
<stop stop-color="#6600CC"/>
<stop offset="1" stop-color="#50D955"/>
</linearGradient>
<linearGradient id="paint20_linear_4930_2951" x1="85.143" y1="119.98" x2="85.143" y2="-0.0203484" gradientUnits="userSpaceOnUse">
<stop stop-color="#6600CC"/>
<stop offset="1" stop-color="#50D955"/>
</linearGradient>
<linearGradient id="paint21_linear_4930_2951" x1="85.1431" y1="119.98" x2="85.1431" y2="-0.0200109" gradientUnits="userSpaceOnUse">
<stop stop-color="#6600CC"/>
<stop offset="1" stop-color="#50D955"/>
</linearGradient>
<linearGradient id="paint22_linear_4930_2951" x1="85.1431" y1="119.979" x2="85.1431" y2="-0.020747" gradientUnits="userSpaceOnUse">
<stop stop-color="#6600CC"/>
<stop offset="1" stop-color="#50D955"/>
</linearGradient>
<linearGradient id="paint23_linear_4930_2951" x1="85.1431" y1="119.979" x2="85.1431" y2="-0.020747" gradientUnits="userSpaceOnUse">
<stop stop-color="#6600CC"/>
<stop offset="1" stop-color="#50D955"/>
</linearGradient>
</defs>
</svg>
