<svg width="64" height="80" viewBox="0 0 64 80" fill="none" xmlns="http://www.w3.org/2000/svg">
<g id="logo">
<g id="Group">
<path id="Combined Shape" fill-rule="evenodd" clip-rule="evenodd" d="M9.41116 79.2499C8.58639 79.727 7.62882 80 6.60748 80C3.51055 80 1 77.4895 1 74.3925C1 73.2317 1.35271 72.1533 1.95682 71.2586L13.7037 32.8972L28.6208 67.3969L9.41376 79.2524L9.41116 79.2499Z" fill="#960C0B"/>
<path id="Combined Shape_2" fill-rule="evenodd" clip-rule="evenodd" d="M1.05958 6.8288L1 6.86915L1.12279 7.50578L1.17418 7.45937L18.3184 63.4621C18.724 64.6639 18.9439 65.9512 18.9439 67.2899C18.9439 70.3229 17.8151 73.0924 15.9547 75.201L56.74 49.6263C60.0524 47.8689 62.3084 44.3848 62.3084 40.3738C62.3084 37.0951 60.8009 34.1685 58.4413 32.2492L58.4416 32.2402L58.3839 32.2029C57.829 31.758 57.2278 31.3685 56.5887 31.0426L11.0948 1.63907C10.0228 0.623154 8.57483 0 6.98131 0C3.67792 0 1 2.67792 1 5.98131C1 6.269 1.02031 6.55195 1.05958 6.8288Z" fill="url(#paint0_linear_1381_1454)"/>
</g>
</g>
<defs>
<linearGradient id="paint0_linear_1381_1454" x1="-27.477" y1="46.8557" x2="51.6126" y2="107.953" gradientUnits="userSpaceOnUse">
<stop offset="0.130294" stop-color="#D7439C"/>
<stop offset="0.691381" stop-color="#D02423"/>
</linearGradient>
</defs>
</svg>
