<svg width="32" height="32" viewBox="0 0 32 32" fill="none" xmlns="http://www.w3.org/2000/svg">
<g id="user">
<path id="Vector" d="M16.0002 2.33398C8.46683 2.33398 2.3335 8.46732 2.3335 16.0007C2.3335 23.534 8.46683 29.6673 16.0002 29.6673C23.5335 29.6673 29.6668 23.534 29.6668 16.0007C29.6668 8.46732 23.5335 2.33398 16.0002 2.33398ZM16.0002 7.33398C18.2002 7.33398 20.0002 9.13398 20.0002 11.334C20.0002 13.534 18.2002 15.334 16.0002 15.334C13.8002 15.334 12.0002 13.534 12.0002 11.334C12.0002 9.13398 13.8002 7.33398 16.0002 7.33398ZM23.4002 23.2007C22.6668 24.2007 19.7335 26.334 16.0002 26.334C12.2668 26.334 9.3335 24.2007 8.60016 23.2007C8.3335 22.8673 8.26683 22.534 8.3335 22.2007C9.26683 18.734 12.4002 16.334 16.0002 16.334C19.6002 16.334 22.7335 18.734 23.6668 22.2007C23.7335 22.534 23.6668 22.8673 23.4002 23.2007Z" fill="white"/>
</g>
</svg>
