<svg width="16" height="16" viewBox="0 0 16 16" fill="none" xmlns="http://www.w3.org/2000/svg">
<g id="web">
<path id="Vector" d="M1 8C1 6.14348 1.7375 4.36301 3.05025 3.05025C4.36301 1.7375 6.14348 1 8 1C9.85651 1 11.637 1.7375 12.9497 3.05025C14.2625 4.36301 15 6.14348 15 8C15 9.85651 14.2625 11.637 12.9497 12.9497C11.637 14.2625 9.85651 15 8 15C6.14348 15 4.36301 14.2625 3.05025 12.9497C1.7375 11.637 1 9.85651 1 8ZM6.18139 2.25701C5.4017 2.5037 4.68052 2.90683 4.06195 3.44175C4.45263 3.77871 4.88531 4.06683 5.35119 4.29538C5.45472 3.90763 5.5729 3.54528 5.70476 3.21418C5.8454 2.86452 6.00363 2.54025 6.18139 2.25701ZM3.37631 4.13813C2.57736 5.09218 2.09504 6.27118 1.99623 7.51165H4.91461C4.93707 6.72443 5.01423 5.97042 5.13827 5.27306C4.4975 4.98582 3.90354 4.6039 3.37631 4.14009V4.13813ZM9.81861 13.743C10.5984 13.496 11.3195 13.0925 11.938 12.5573C11.5467 12.2186 11.1134 11.9317 10.6488 11.7036C10.5531 12.0709 10.435 12.432 10.2952 12.7848C10.1556 13.1345 9.99637 13.4578 9.81861 13.742V13.743ZM12.6237 11.8589C13.4221 10.9057 13.9044 9.72781 14.0038 8.48835H11.0864C11.0661 9.2387 10.9911 9.98657 10.8617 10.726C11.5063 11.016 12.1002 11.3999 12.6237 11.8599V11.8589ZM14.0038 7.51165C13.9045 6.27188 13.4222 5.09364 12.6237 4.14009C12.0968 4.60381 11.5031 4.98572 10.8627 5.27306C10.9858 5.97042 11.0629 6.72443 11.0864 7.51165H14.0038ZM11.9361 3.44175C11.3176 2.9065 10.5964 2.50304 9.81666 2.25603C9.99539 2.54123 10.1546 2.86452 10.2943 3.21418C10.4271 3.54625 10.5453 3.90763 10.6469 4.29538C11.1114 4.06731 11.5447 3.78041 11.9361 3.44175ZM6.18139 13.744C5.9947 13.4392 5.83521 13.1186 5.70476 12.7858C5.56533 12.4329 5.44758 12.0719 5.35217 11.7046C4.88758 11.9327 4.45428 12.2196 4.06293 12.5583C4.68142 13.0935 5.4026 13.497 6.18236 13.744H6.18139ZM3.37728 11.8599C3.90422 11.3962 4.49784 11.0143 5.13827 10.7269C5.00888 9.98722 4.9338 9.23903 4.91363 8.48835H1.99721C2.09669 9.72825 2.57933 10.9065 3.37826 11.8599H3.37728ZM8 1.9767C7.81833 1.9767 7.59565 2.06753 7.34073 2.33612C7.08679 2.60569 6.83382 3.02177 6.61211 3.57653C6.48319 3.89884 6.36794 4.26022 6.26831 4.65481C6.8302 4.82264 7.41358 4.90753 8 4.9068C8.60262 4.9068 9.18376 4.81889 9.73266 4.65481C9.64207 4.28848 9.52722 3.92859 9.38887 3.57751C9.16618 3.02177 8.91419 2.60569 8.65927 2.33612C8.40533 2.06753 8.18264 1.9767 8 1.9767ZM5.89131 7.51165H10.1087C10.0907 6.87585 10.031 6.24191 9.92996 5.61392C9.30234 5.79329 8.65274 5.88402 8 5.88349C7.34759 5.88393 6.69832 5.7932 6.07102 5.61392C5.96936 6.24187 5.909 6.8758 5.89033 7.51165H5.89131ZM6.07102 10.3861C6.69832 10.2068 7.34759 10.1161 8 10.1165C8.66904 10.1165 9.31659 10.2103 9.92996 10.3861C10.0257 9.79615 10.0882 9.15836 10.1087 8.48835H5.89131C5.91182 9.15836 5.97433 9.79713 6.07102 10.3861ZM8 11.0932C7.39835 11.0932 6.81624 11.1811 6.26831 11.3452C6.36696 11.7388 6.48319 12.1002 6.61211 12.4225C6.83382 12.9782 7.08581 13.3943 7.34073 13.6639C7.59467 13.9325 7.81833 14.0233 8 14.0233C8.18264 14.0233 8.40533 13.9325 8.65927 13.6639C8.91419 13.3943 9.16715 12.9782 9.38887 12.4235C9.51779 12.1002 9.63304 11.7398 9.73169 11.3452C9.1698 11.1774 8.58642 11.0925 8 11.0932Z" fill="white"/>
</g>
</svg>
