<svg width="67" height="67" viewBox="0 0 67 67" fill="none" xmlns="http://www.w3.org/2000/svg">
<g clip-path="url(#clip0_6065_2921)">
<path fill-rule="evenodd" clip-rule="evenodd" d="M0 6.7C0 4.92305 0.705891 3.21888 1.96238 1.96238C3.21888 0.705891 4.92305 0 6.7 0L60.3 0C62.077 0 63.7811 0.705891 65.0376 1.96238C66.2941 3.21888 67 4.92305 67 6.7V24.5667L63.4267 21.8822C59.556 18.9792 54.768 17.5698 49.9418 17.9128C45.1156 18.2558 40.5751 20.3281 37.1538 23.7494C33.7326 27.1706 31.6602 31.7111 31.3172 36.5373C30.9742 41.3635 32.3836 46.1515 35.2867 50.0222L35.7333 50.6207V67H6.7C4.92305 67 3.21888 66.2941 1.96238 65.0376C0.705891 63.7811 0 62.077 0 60.3L0 6.7ZM35.7333 22.3333H13.4V17.8667H35.7333V22.3333ZM13.4 35.7333H26.8V31.2667H13.4V35.7333Z" fill="white"/>
<path fill-rule="evenodd" clip-rule="evenodd" d="M51.3667 22.3333C48.2878 22.3328 45.2774 23.2415 42.7129 24.9453C40.1485 26.6492 38.1443 29.0723 36.9516 31.9108C35.759 34.7493 35.431 37.8767 36.0089 40.9009C36.5868 43.925 38.0448 46.7112 40.2 48.9099V64.7666C40.2 65.1813 40.3155 65.5879 40.5335 65.9407C40.7516 66.2935 41.0636 66.5787 41.4345 66.7641C41.8055 66.9496 42.2208 67.0281 42.6339 66.9909C43.047 66.9536 43.4415 66.8021 43.7733 66.5532L51.3667 60.8583L58.96 66.5532C59.2918 66.8021 59.6863 66.9536 60.0994 66.9909C60.5125 67.0281 60.9278 66.9496 61.2988 66.7641C61.6697 66.5787 61.9817 66.2935 62.1998 65.9407C62.4178 65.5879 62.5333 65.1813 62.5333 64.7666V48.9099C64.6885 46.7112 66.1465 43.925 66.7244 40.9009C67.3023 37.8767 66.9743 34.7493 65.7817 31.9108C64.589 29.0723 62.5848 26.6492 60.0204 24.9453C57.456 23.2415 54.4455 22.3328 51.3667 22.3333ZM44.6667 60.2999V52.0947C46.699 53.0595 48.9681 53.5999 51.3667 53.5999C53.7653 53.5999 56.0343 53.0639 58.0667 52.0947V60.2999L52.7067 56.2799C52.3201 55.99 51.8499 55.8333 51.3667 55.8333C50.8834 55.8333 50.4132 55.99 50.0267 56.2799L44.6667 60.2999Z" fill="white"/>
</g>
<defs>
<clipPath id="clip0_6065_2921">
<rect width="67" height="67" fill="white"/>
</clipPath>
</defs>
</svg>
