<svg width="105" height="105" viewBox="0 0 105 105" fill="none" xmlns="http://www.w3.org/2000/svg">
<g id="Group" filter="url(#filter0_d_5466_3562)">
<path id="Vector" d="M84.8722 90.9999H12.0671C8.73019 90.9999 6 88.2678 6 84.9285V12.0714C6 8.73214 8.73019 6 12.0671 6H84.8722C88.2091 6 90.9393 8.73214 90.9393 12.0714V84.9285C90.9393 88.2678 88.2698 90.9999 84.8722 90.9999Z" fill="#0C0C0C"/>
<g id="Group_2">
<path id="Vector_2" d="M11.7031 6H15.4647V15.4714H6V11.6464C6 8.55 8.54818 6 11.7031 6Z" fill="#50D955"/>
<path id="Vector_3" d="M24.9295 6H15.4648V15.4714H24.9295V6Z" fill="#0C0C0C"/>
<path id="Vector_4" d="M34.3944 6H24.9297V15.4714H34.3944V6Z" fill="#50D955"/>
<path id="Vector_5" d="M43.7987 6H34.334V15.4714H43.7987V6Z" fill="#0C0C0C"/>
<path id="Vector_6" d="M53.2635 6H43.7988V15.4714H53.2635V6Z" fill="#50D955"/>
<path id="Vector_7" d="M62.6678 6H53.2031V15.4714H62.6678V6Z" fill="#0C0C0C"/>
<path id="Vector_8" d="M72.1307 6H62.666V15.4714H72.1307V6Z" fill="#50D955"/>
<path id="Vector_9" d="M81.535 6H72.0703V15.4714H81.535V6Z" fill="#0C0C0C"/>
<path id="Vector_10" d="M81.5353 6H85.2969C88.3911 6 90.9393 8.55 90.9393 11.6464V15.4107H81.4746V6H81.5353Z" fill="#50D955"/>
<path id="Vector_11" d="M15.4647 15.4111H6V24.8826H15.4647V15.4111Z" fill="#0C0C0C"/>
<path id="Vector_12" d="M24.9295 15.4111H15.4648V24.8826H24.9295V15.4111Z" fill="#50D955"/>
<path id="Vector_13" d="M34.3944 15.4111H24.9297V24.8826H34.3944V15.4111Z" fill="#0C0C0C"/>
<path id="Vector_14" d="M43.7987 15.4111H34.334V24.8826H43.7987V15.4111Z" fill="#50D955"/>
<path id="Vector_15" d="M53.2635 15.4111H43.7988V24.8826H53.2635V15.4111Z" fill="#0C0C0C"/>
<path id="Vector_16" d="M62.6678 15.4111H53.2031V24.8826H62.6678V15.4111Z" fill="#50D955"/>
<path id="Vector_17" d="M72.1307 15.4111H62.666V24.8826H72.1307V15.4111Z" fill="#0C0C0C"/>
<path id="Vector_18" d="M81.535 15.4111H72.0703V24.8826H81.535V15.4111Z" fill="#50D955"/>
<path id="Vector_19" d="M90.9998 15.4111H81.5352V24.8826H90.9998V15.4111Z" fill="#0C0C0C"/>
<path id="Vector_20" d="M15.4647 24.8823H6V34.3537H15.4647V24.8823Z" fill="#50D955"/>
<path id="Vector_21" d="M24.9295 24.8823H15.4648V34.3537H24.9295V24.8823Z" fill="#0C0C0C"/>
<path id="Vector_22" d="M34.3944 24.8823H24.9297V34.3537H34.3944V24.8823Z" fill="#50D955"/>
<path id="Vector_23" d="M43.7987 24.8823H34.334V34.3537H43.7987V24.8823Z" fill="#0C0C0C"/>
<path id="Vector_24" d="M53.2635 24.8823H43.7988V34.3537H53.2635V24.8823Z" fill="#50D955"/>
<path id="Vector_25" d="M62.6678 24.8823H53.2031V34.3537H62.6678V24.8823Z" fill="#0C0C0C"/>
<path id="Vector_26" d="M72.1307 24.8823H62.666V34.3537H72.1307V24.8823Z" fill="#50D955"/>
<path id="Vector_27" d="M81.535 24.8823H72.0703V34.3537H81.535V24.8823Z" fill="#0C0C0C"/>
<path id="Vector_28" d="M90.9998 24.8823H81.5352V34.3537H90.9998V24.8823Z" fill="#50D955"/>
<path id="Vector_29" d="M15.4647 34.354H6V43.8254H15.4647V34.354Z" fill="#0C0C0C"/>
<path id="Vector_30" d="M24.9295 34.354H15.4648V43.8254H24.9295V34.354Z" fill="#50D955"/>
<path id="Vector_31" d="M34.3944 34.354H24.9297V43.8254H34.3944V34.354Z" fill="#0C0C0C"/>
<path id="Vector_32" d="M43.7987 34.354H34.334V43.8254H43.7987V34.354Z" fill="#50D955"/>
<path id="Vector_33" d="M53.2635 34.354H43.7988V43.8254H53.2635V34.354Z" fill="#0C0C0C"/>
<path id="Vector_34" d="M62.6678 34.354H53.2031V43.8254H62.6678V34.354Z" fill="#50D955"/>
<path id="Vector_35" d="M72.1307 34.354H62.666V43.8254H72.1307V34.354Z" fill="#0C0C0C"/>
<path id="Vector_36" d="M81.535 34.354H72.0703V43.8254H81.535V34.354Z" fill="#50D955"/>
<path id="Vector_37" d="M90.9998 34.354H81.5352V43.8254H90.9998V34.354Z" fill="#0C0C0C"/>
<path id="Vector_38" d="M15.4647 43.7646H6V53.2361H15.4647V43.7646Z" fill="#50D955"/>
<path id="Vector_39" d="M24.9295 43.7646H15.4648V53.2361H24.9295V43.7646Z" fill="#0C0C0C"/>
<path id="Vector_40" d="M34.3944 43.7646H24.9297V53.2361H34.3944V43.7646Z" fill="#50D955"/>
<path id="Vector_41" d="M43.7987 43.7646H34.334V53.2361H43.7987V43.7646Z" fill="#0C0C0C"/>
<path id="Vector_42" d="M53.2635 43.7646H43.7988V53.2361H53.2635V43.7646Z" fill="#50D955"/>
<path id="Vector_43" d="M62.6678 43.7646H53.2031V53.2361H62.6678V43.7646Z" fill="#0C0C0C"/>
<path id="Vector_44" d="M72.1307 43.7646H62.666V53.2361H72.1307V43.7646Z" fill="#50D955"/>
<path id="Vector_45" d="M81.535 43.7646H72.0703V53.2361H81.535V43.7646Z" fill="#0C0C0C"/>
<path id="Vector_46" d="M90.9998 43.7646H81.5352V53.2361H90.9998V43.7646Z" fill="#50D955"/>
<path id="Vector_47" d="M15.4647 53.2358H6V62.7073H15.4647V53.2358Z" fill="#0C0C0C"/>
<path id="Vector_48" d="M24.9295 53.2358H15.4648V62.7073H24.9295V53.2358Z" fill="#50D955"/>
<path id="Vector_49" d="M34.3944 53.2358H24.9297V62.7073H34.3944V53.2358Z" fill="#0C0C0C"/>
<path id="Vector_50" d="M43.7987 53.2358H34.334V62.7073H43.7987V53.2358Z" fill="#50D955"/>
<path id="Vector_51" d="M53.2635 53.2358H43.7988V62.7073H53.2635V53.2358Z" fill="#0C0C0C"/>
<path id="Vector_52" d="M62.6678 53.2358H53.2031V62.7073H62.6678V53.2358Z" fill="#50D955"/>
<path id="Vector_53" d="M72.1307 53.2358H62.666V62.7073H72.1307V53.2358Z" fill="#0C0C0C"/>
<path id="Vector_54" d="M81.535 53.2358H72.0703V62.7073H81.535V53.2358Z" fill="#50D955"/>
<path id="Vector_55" d="M90.9998 53.2358H81.5352V62.7073H90.9998V53.2358Z" fill="#0C0C0C"/>
<path id="Vector_56" d="M15.4647 62.647H6V72.1184H15.4647V62.647Z" fill="#50D955"/>
<path id="Vector_57" d="M24.9295 62.647H15.4648V72.1184H24.9295V62.647Z" fill="#0C0C0C"/>
<path id="Vector_58" d="M34.3944 62.647H24.9297V72.1184H34.3944V62.647Z" fill="#50D955"/>
<path id="Vector_59" d="M43.7987 62.647H34.334V72.1184H43.7987V62.647Z" fill="#0C0C0C"/>
<path id="Vector_60" d="M53.2635 62.647H43.7988V72.1184H53.2635V62.647Z" fill="#50D955"/>
<path id="Vector_61" d="M62.6678 62.647H53.2031V72.1184H62.6678V62.647Z" fill="#0C0C0C"/>
<path id="Vector_62" d="M72.1307 62.647H62.666V72.1184H72.1307V62.647Z" fill="#50D955"/>
<path id="Vector_63" d="M81.535 62.647H72.0703V72.1184H81.535V62.647Z" fill="#0C0C0C"/>
<path id="Vector_64" d="M90.9998 62.647H81.5352V72.1184H90.9998V62.647Z" fill="#50D955"/>
<path id="Vector_65" d="M15.4647 72.1182H6V81.5896H15.4647V72.1182Z" fill="#0C0C0C"/>
<path id="Vector_66" d="M24.9295 72.1182H15.4648V81.5896H24.9295V72.1182Z" fill="#50D955"/>
<path id="Vector_67" d="M34.3944 72.1182H24.9297V81.5896H34.3944V72.1182Z" fill="#0C0C0C"/>
<path id="Vector_68" d="M43.7987 72.1182H34.334V81.5896H43.7987V72.1182Z" fill="#50D955"/>
<path id="Vector_69" d="M53.2635 72.1182H43.7988V81.5896H53.2635V72.1182Z" fill="#0C0C0C"/>
<path id="Vector_70" d="M62.6678 72.1182H53.2031V81.5896H62.6678V72.1182Z" fill="#50D955"/>
<path id="Vector_71" d="M72.1307 72.1182H62.666V81.5896H72.1307V72.1182Z" fill="#0C0C0C"/>
<path id="Vector_72" d="M81.535 72.1182H72.0703V81.5896H81.535V72.1182Z" fill="#50D955"/>
<path id="Vector_73" d="M90.9998 72.1182H81.5352V81.5896H90.9998V72.1182Z" fill="#0C0C0C"/>
<path id="Vector_74" d="M6 81.5283H15.4647V90.9997H11.7031C8.60885 90.9997 6.06067 88.4497 6.06067 85.3533V81.5283H6Z" fill="#50D955"/>
<path id="Vector_75" d="M24.9295 81.5283H15.4648V90.9997H24.9295V81.5283Z" fill="#0C0C0C"/>
<path id="Vector_76" d="M34.3944 81.5283H24.9297V90.9997H34.3944V81.5283Z" fill="#50D955"/>
<path id="Vector_77" d="M43.7987 81.5283H34.334V90.9997H43.7987V81.5283Z" fill="#0C0C0C"/>
<path id="Vector_78" d="M53.2635 81.5283H43.7988V90.9997H53.2635V81.5283Z" fill="#50D955"/>
<path id="Vector_79" d="M62.6678 81.5283H53.2031V90.9997H62.6678V81.5283Z" fill="#0C0C0C"/>
<path id="Vector_80" d="M72.1307 81.5283H62.666V90.9997H72.1307V81.5283Z" fill="#50D955"/>
<path id="Vector_81" d="M81.535 81.5283H72.0703V90.9997H81.535V81.5283Z" fill="#0C0C0C"/>
<path id="Vector_82" d="M81.5352 81.5283H90.9998V85.2926C90.9998 88.389 88.4516 90.939 85.3574 90.939H81.5958V81.5283H81.5352Z" fill="#50D955"/>
</g>
<g id="Group_3">
<path id="Vector_83" d="M48.4678 48.4998L39.3672 11.707H57.6291L48.4678 48.4998Z" fill="#053EC6"/>
<path id="Vector_84" d="M48.4667 48.5002L16.0684 28.9502L28.9913 16.0181L48.4667 48.5002Z" fill="#053EC6"/>
<path id="Vector_85" d="M48.4677 48.4999L11.7617 57.607V39.332L48.4677 48.4999Z" fill="#053EC6"/>
<path id="Vector_86" d="M48.4667 48.5L28.9913 80.9821L16.0684 68.05L48.4667 48.5Z" fill="#053EC6"/>
<path id="Vector_87" d="M48.4678 48.5L57.6291 85.2321H39.3672L48.4678 48.5Z" fill="#053EC6"/>
<path id="Vector_88" d="M48.4668 48.5L80.9258 68.05L68.0028 80.9821L48.4668 48.5Z" fill="#053EC6"/>
<path id="Vector_89" d="M48.4668 48.4999L85.2334 39.332V57.607L48.4668 48.4999Z" fill="#053EC6"/>
<path id="Vector_90" d="M48.4668 48.5002L68.0028 16.0181L80.9258 28.9502L48.4668 48.5002Z" fill="#053EC6"/>
</g>
<path id="Vector_91" d="M48.4687 54.2072C51.6184 54.2072 54.1718 51.6521 54.1718 48.5001C54.1718 45.3481 51.6184 42.793 48.4687 42.793C45.319 42.793 42.7656 45.3481 42.7656 48.5001C42.7656 51.6521 45.319 54.2072 48.4687 54.2072Z" fill="#E023E5"/>
<path id="Vector_92" d="M48.4687 54.2072C51.6184 54.2072 54.1718 51.6521 54.1718 48.5001C54.1718 45.3481 51.6184 42.793 48.4687 42.793C45.319 42.793 42.7656 45.3481 42.7656 48.5001C42.7656 51.6521 45.319 54.2072 48.4687 54.2072Z" fill="#E023E5"/>
</g>
<defs>
<filter id="filter0_d_5466_3562" x="0" y="0" width="105" height="105" filterUnits="userSpaceOnUse" color-interpolation-filters="sRGB">
<feFlood flood-opacity="0" result="BackgroundImageFix"/>
<feColorMatrix in="SourceAlpha" type="matrix" values="0 0 0 0 0 0 0 0 0 0 0 0 0 0 0 0 0 0 127 0" result="hardAlpha"/>
<feOffset dx="4" dy="4"/>
<feGaussianBlur stdDeviation="5"/>
<feComposite in2="hardAlpha" operator="out"/>
<feColorMatrix type="matrix" values="0 0 0 0 0 0 0 0 0 0 0 0 0 0 0 0 0 0 0.7 0"/>
<feBlend mode="multiply" in2="BackgroundImageFix" result="effect1_dropShadow_5466_3562"/>
<feBlend mode="normal" in="SourceGraphic" in2="effect1_dropShadow_5466_3562" result="shape"/>
</filter>
</defs>
</svg>
