<svg width="150" height="150" viewBox="0 0 150 150" fill="none" xmlns="http://www.w3.org/2000/svg">
<g id="Group" filter="url(#filter0_d_5466_2813)">
<path id="Vector" d="M126.714 136H15.2857C10.1786 136 6 131.821 6 126.714V15.2857C6 10.1786 10.1786 6 15.2857 6H126.714C131.821 6 136 10.1786 136 15.2857V126.714C136 131.914 131.914 136 126.714 136Z" fill="#0C0C0C"/>
<g id="Group_2">
<g id="Group_3">
<g id="Group_4">
<path id="Vector_2" d="M39.0516 11.2931V14.4502H21.3159C19.9231 14.4502 18.6231 14.8216 17.4159 15.6573C16.2088 16.4931 15.3731 17.5145 14.8159 18.7216C14.4445 19.6502 14.1659 20.5788 14.1659 21.6002C14.1659 22.2502 14.2588 22.9002 14.4445 23.5502C14.9088 25.0359 15.7445 26.3359 16.9516 27.2645C18.2516 28.2859 19.6445 28.7502 21.2231 28.7502H33.4802C34.2231 28.7502 34.9659 28.5645 35.6159 28.1931L35.7088 28.1002L38.8659 26.2431V26.9859L35.9874 28.6573L31.5302 31.1645C30.8802 31.5359 30.1374 31.7216 29.3945 31.7216H21.2231C20.0159 31.7216 18.8088 31.5359 17.6945 31.0716C16.5802 30.6073 15.5588 30.0502 14.6302 29.3073C13.7016 28.5645 12.9588 27.6359 12.4016 26.6145C11.7516 25.5931 11.3802 24.4788 11.1945 23.2716C11.1016 22.6216 11.0088 22.0645 11.0088 21.4145C11.0088 19.5573 11.4731 17.8859 12.4016 16.3073C13.3302 14.7288 14.5374 13.5216 16.1159 12.5931C17.6945 11.6645 19.3659 11.2002 21.2231 11.2002H39.0516V11.2931Z" fill="#6600CC"/>
<path id="Vector_3" d="M63.3801 20.6715L62.7301 21.043L62.6372 21.1358L58.8301 23.3644L54.373 25.8715C53.723 26.243 52.9801 26.4287 52.2372 26.4287H44.623V31.8144H41.4658V18.2573C41.4658 16.3073 42.1158 14.7287 43.5087 13.3358C44.9015 11.943 46.4801 11.293 48.4301 11.293H69.5087V31.8144H66.3515V18.9073L63.3801 20.6715ZM44.623 18.2573V23.2715H56.323C57.0658 23.2715 57.8087 23.0858 58.4587 22.7144L63.2872 19.9287L64.123 19.4644C64.8658 19.093 65.3301 18.5358 65.7015 17.8858C66.073 17.2358 66.2587 16.493 66.2587 15.6573V14.4501H48.4301C47.4087 14.4501 46.4801 14.8215 45.7372 15.5644C44.9944 16.3073 44.623 17.2358 44.623 18.2573Z" fill="#6600CC"/>
<path id="Vector_4" d="M76.6581 17.6073L82.0438 14.543L86.501 12.0358C87.151 11.6644 87.8938 11.4787 88.6367 11.4787H94.4867C96.4367 11.4787 98.0153 12.1287 99.4081 13.5215C100.801 14.9144 101.451 16.493 101.451 18.443V32.0001H98.2938V18.2573C98.2938 17.2358 97.9224 16.3073 97.1795 15.5644C96.4367 14.8215 95.5081 14.4501 94.4867 14.4501H84.4581C83.7153 14.4501 82.9724 14.6358 82.3224 15.0073L78.7938 17.0501C78.1438 17.4215 77.5867 17.9787 77.2153 18.6287C76.8438 19.2787 76.6581 20.0215 76.6581 20.8573V31.8144H73.501V11.293H76.6581V17.6073Z" fill="#6600CC"/>
<path id="Vector_5" d="M108.324 11.293V31.8144H105.167V11.293H108.324Z" fill="#6600CC"/>
<path id="Vector_6" d="M15.2792 57.4431V57.7216H12.1221V37.2002H33.1078C34.0364 37.2002 34.9649 37.3859 35.8006 37.7573C36.6364 38.1288 37.3792 38.5931 38.0292 39.2431C38.6792 39.8931 39.1435 40.6359 39.5149 41.4716C39.8864 42.3073 40.0721 43.2359 40.0721 44.1645C40.0721 46.1145 39.4221 47.6931 38.0292 49.0859C36.6364 50.4788 35.0578 51.1288 33.1078 51.1288H23.0792C22.3364 51.1288 21.5935 51.3145 20.9435 51.6859L17.4149 53.7288C16.7649 54.1002 16.2078 54.6573 15.8364 55.3073C15.4649 55.8645 15.2792 56.6074 15.2792 57.4431ZM15.2792 44.8145V54.1931L20.6649 51.1288L25.1221 48.6216C25.7721 48.2502 26.5149 48.0645 27.2578 48.0645H33.1078C34.1292 48.0645 35.0578 47.6931 35.8006 46.9502C36.5435 46.2073 36.9149 45.2788 36.9149 44.2573C36.9149 43.2359 36.5435 42.3073 35.8006 41.5645C35.0578 40.8216 34.1292 40.4502 33.1078 40.4502H15.2792V44.8145Z" fill="#6600CC"/>
<path id="Vector_7" d="M46.0175 54.5645H66.2603C67.0032 54.5645 67.7461 54.3788 68.3961 54.0073L71.0889 52.5216V53.2645L68.7675 54.6574L64.3103 57.1645C63.6603 57.5359 62.9175 57.7216 62.1746 57.7216H42.8604V37.2002H46.0175V54.5645Z" fill="#6600CC"/>
<path id="Vector_8" d="M94.8586 46.5788L94.2086 46.9502L94.1158 47.0431L90.3086 49.2716L85.8515 51.7788C85.2015 52.1502 84.4586 52.3359 83.7158 52.3359H76.1015V57.7216H72.9443V44.1645C72.9443 42.2145 73.5943 40.6359 74.9872 39.2431C76.38 37.8502 77.9586 37.2002 79.9086 37.2002H100.894V57.7216H97.7372V44.8145L94.8586 46.5788ZM76.1015 44.0716V49.0859H87.8015C88.5443 49.0859 89.2872 48.9002 89.9372 48.5288L94.7658 45.7431L95.6015 45.2788C96.3443 44.9073 96.8086 44.3502 97.18 43.7002C97.5515 43.0502 97.7372 42.3073 97.7372 41.4716V40.2645H79.9086C78.8872 40.2645 77.9586 40.6359 77.2158 41.3788C76.4729 42.2145 76.1015 43.0502 76.1015 44.0716Z" fill="#6600CC"/>
<path id="Vector_9" d="M103.495 41.7503V37.1074H106.652V41.1931C106.652 42.0289 106.838 42.6789 107.209 43.4217C107.581 44.0717 108.138 44.6288 108.788 45.0003L108.974 45.0931C109.252 45.186 109.438 45.2789 109.717 45.2789H125.224C125.502 45.2789 125.781 45.186 125.967 45.0931L126.152 45.0003C126.895 44.6288 127.359 44.0717 127.731 43.4217C128.102 42.7717 128.288 42.0289 128.288 41.1931V37.1074H131.445V41.7503C131.445 42.3074 131.167 42.7717 130.702 43.0503L128.288 44.4431H128.195L126.895 45.186L123.459 47.136L122.902 47.5074L121.788 48.1574C121.509 48.2503 121.324 48.3431 121.045 48.3431H119.002V57.6288H115.845V48.3431H113.802C113.524 48.3431 113.245 48.2503 113.059 48.1574L112.038 47.5074L108.045 45.186L106.745 44.4431H106.652L104.238 43.0503C103.681 42.7717 103.495 42.4003 103.495 41.7503Z" fill="#6600CC"/>
</g>
</g>
<g id="Group_5">
<g id="Group_6">
<path id="Vector_10" d="M103.032 130.707V127.55H120.768C122.161 127.55 123.461 127.178 124.668 126.343C125.875 125.507 126.711 124.485 127.268 123.278C127.639 122.35 127.918 121.421 127.918 120.4C127.918 119.75 127.825 119.1 127.639 118.45C127.175 116.964 126.339 115.664 125.132 114.735C123.832 113.714 122.439 113.25 120.861 113.25H108.604C107.861 113.25 107.118 113.435 106.468 113.807L106.375 113.9L103.218 115.757V115.014L106.097 113.343L110.554 110.835C111.204 110.464 111.947 110.278 112.689 110.278H120.861C122.068 110.278 123.275 110.464 124.389 110.928C125.504 111.393 126.525 111.95 127.454 112.693C128.382 113.435 129.125 114.364 129.682 115.385C130.332 116.407 130.704 117.521 130.889 118.728C130.982 119.378 131.075 119.935 131.075 120.585C131.075 122.443 130.611 124.114 129.682 125.693C128.754 127.271 127.546 128.478 125.968 129.407C124.389 130.335 122.718 130.8 120.861 130.8H103.032V130.707Z" fill="#6600CC"/>
<path id="Vector_11" d="M78.7047 121.328L79.3547 120.956L79.4475 120.864L83.2547 118.635L87.7118 116.128C88.3618 115.756 89.1047 115.571 89.8475 115.571H97.4618V110.185H100.619V123.742C100.619 125.692 99.9689 127.271 98.5761 128.664C97.1832 130.056 95.6047 130.706 93.6547 130.706H72.6689V110.185H75.8261V123.092L78.7047 121.328ZM97.4618 123.835V118.821H85.7618C85.019 118.821 84.2761 119.006 83.6261 119.378L78.7975 122.164L77.9618 122.628C77.219 122.999 76.7547 123.556 76.3832 124.206C76.0118 124.856 75.8261 125.599 75.8261 126.435V127.642H93.6547C94.6761 127.642 95.6047 127.271 96.3475 126.528C97.0904 125.692 97.4618 124.856 97.4618 123.835Z" fill="#6600CC"/>
<path id="Vector_12" d="M65.4247 124.485L60.039 127.549L55.5818 130.056C54.9318 130.428 54.189 130.614 53.4461 130.614H47.5961C45.6461 130.614 44.0676 129.964 42.6747 128.571C41.2818 127.178 40.6318 125.599 40.6318 123.649V110.185H43.789V123.742C43.789 124.764 44.1604 125.692 44.9033 126.435C45.6461 127.178 46.5747 127.549 47.5961 127.549H57.6247C58.3676 127.549 59.1104 127.364 59.7604 126.992L63.289 124.949C63.939 124.578 64.4961 124.021 64.8676 123.371C65.239 122.721 65.4247 121.978 65.4247 121.142V110.185H68.5818V130.706H65.4247V124.485Z" fill="#6600CC"/>
<path id="Vector_13" d="M33.7617 130.706V110.185H36.919V130.706H33.7617Z" fill="#6600CC"/>
<path id="Vector_14" d="M126.804 84.6497V84.3711H129.961V104.893H108.975C108.046 104.893 107.118 104.707 106.282 104.335C105.446 103.964 104.704 103.5 104.054 102.85C103.404 102.2 102.939 101.457 102.568 100.621C102.196 99.7854 102.011 98.8568 102.011 97.9282C102.011 95.9782 102.661 94.3997 104.054 93.0068C105.446 91.6139 107.025 90.9639 108.975 90.9639H119.004C119.746 90.9639 120.489 90.7782 121.139 90.4068L124.668 88.3639C125.318 87.9925 125.875 87.4354 126.246 86.7854C126.618 86.1354 126.804 85.3925 126.804 84.6497ZM126.804 97.2782V87.8997L121.418 90.9639L116.961 93.4711C116.311 93.8425 115.568 94.0282 114.825 94.0282H108.975C107.954 94.0282 107.025 94.3996 106.282 95.1425C105.539 95.8854 105.168 96.814 105.168 97.8354C105.168 98.8568 105.539 99.7854 106.282 100.528C107.025 101.271 107.954 101.643 108.975 101.643H126.804V97.2782Z" fill="#6600CC"/>
<path id="Vector_15" d="M96.0685 87.5282H75.8256C75.0828 87.5282 74.3399 87.714 73.6899 88.0854L70.9971 89.5711V88.8282L73.3185 87.4354L77.7756 84.9282C78.4256 84.5568 79.1685 84.3711 79.9113 84.3711H99.2256V104.893H96.0685V87.5282Z" fill="#6600CC"/>
<path id="Vector_16" d="M47.2242 95.514L47.8742 95.1425L47.9671 95.0497L51.7742 92.8211L56.2313 90.3139C56.8813 89.9425 57.6242 89.7568 58.367 89.7568H65.9813V84.3711H69.1385V97.9282C69.1385 99.8782 68.4885 101.457 67.0956 102.85C65.7028 104.243 64.1242 104.893 62.1742 104.893H41.1885V84.3711H44.3456V97.2782L47.2242 95.514ZM65.9813 97.9282V92.9139H54.2813C53.5385 92.9139 52.7956 93.0997 52.1456 93.4711L47.3171 96.2568L46.4813 96.7211C45.7385 97.0925 45.2742 97.6497 44.9028 98.2997C44.5313 98.9497 44.3456 99.6925 44.3456 100.528V101.735H62.1742C63.1956 101.735 64.1242 101.364 64.867 100.621C65.6099 99.8782 65.9813 98.9496 65.9813 97.9282Z" fill="#6600CC"/>
<path id="Vector_17" d="M38.5896 100.25V104.892H35.4325V100.9C35.4325 100.064 35.2468 99.4139 34.8754 98.671C34.5039 98.021 33.9468 97.4639 33.2968 97.0924L33.1111 96.9996C32.8325 96.9067 32.6468 96.8139 32.3682 96.8139H16.8611C16.5825 96.8139 16.3039 96.9067 16.1182 96.9996L15.9325 97.0924C15.1896 97.4639 14.7254 98.021 14.3539 98.671C13.9825 99.321 13.7968 100.064 13.7968 100.9V104.985H10.6396V100.342C10.6396 99.7853 10.9182 99.321 11.3825 99.0425L13.7968 97.6496H13.8896L15.1896 96.9067L18.6254 94.9567L19.1825 94.5853L20.2968 93.9353C20.5754 93.8425 20.7611 93.7496 21.0396 93.7496H23.0825V84.4639H26.2396V93.7496H28.2825C28.5611 93.7496 28.8396 93.8425 29.0254 93.9353L30.0468 94.5853L34.0396 96.9067L35.3396 97.6496H35.4325L37.8468 99.0425C38.4039 99.2282 38.5896 99.6924 38.5896 100.25Z" fill="#6600CC"/>
</g>
</g>
</g>
<g id="Group_7">
<path id="Vector_18" d="M96.7223 80.843C97.4651 79.9145 98.208 78.893 98.9509 77.9645C99.7866 78.9859 99.8794 78.9859 100.715 77.8716C106.194 70.9073 110.094 63.1073 111.579 54.2859C111.672 53.9145 111.858 53.3573 111.301 53.2645C110.837 53.1716 110.558 53.543 110.372 53.9145C110.187 54.2859 110.094 54.7502 110.001 55.2145C109.258 58.8359 108.051 62.3645 106.844 65.893C106.287 67.4716 105.451 68.9573 104.708 70.443C104.429 71.0002 104.151 71.5573 103.315 71.3716C106.658 65.7073 108.329 59.4859 109.629 53.1716C111.208 45.2788 106.194 36.643 99.0437 33.3002C90.9651 29.493 82.7009 29.7716 74.3437 32.2788C66.1723 34.693 59.4866 39.4287 53.6366 45.4644C50.4794 48.7145 47.6937 52.3359 45.1866 56.143C44.4437 55.7716 44.8152 55.2145 45.0009 54.843C45.558 53.7287 46.208 52.6145 47.0437 51.6859C48.9009 49.643 50.3866 47.3216 52.058 45.1859C53.0794 43.8859 52.9866 43.7002 51.6866 42.5859C50.8509 41.9359 50.2009 40.8216 49.3652 40.7288C48.4366 40.7288 47.8794 42.0288 47.1366 42.5859C46.5794 42.9573 46.1152 43.4216 45.4652 43.5145C44.8152 43.7002 44.3509 44.1645 43.9794 44.7216C42.308 46.8573 40.6366 48.993 39.2437 51.4073C38.5937 52.4288 38.7795 52.7073 39.8937 52.7073C40.4509 52.7073 40.8223 52.9859 41.1937 53.3573C41.9366 54.1002 42.5866 54.7502 43.5152 55.1216C43.9794 55.3073 44.258 55.6787 44.1652 56.143C44.0723 56.5145 44.258 56.793 44.4437 57.0716C44.1652 57.443 44.1652 57.7216 44.6294 58.093C45.3723 58.6502 46.0223 59.3002 46.6723 60.043C46.6723 60.1359 46.5794 60.2288 46.4866 60.2288C45.558 59.8573 44.1652 60.043 43.3294 60.6002C41.7509 61.7145 40.8223 63.3859 40.0794 65.1502C38.8723 68.0287 38.408 71.093 38.0366 74.1573C37.6652 77.1288 37.8509 80.0073 38.3152 82.8859C38.8723 86.043 39.6152 89.2002 42.0294 91.6145C42.958 92.543 44.1652 93.1002 45.3723 93.4716C46.208 93.7502 47.6937 92.6359 48.3437 91.4287C50.4794 87.343 51.1294 82.9787 51.408 78.5216C51.5937 75.1787 50.9437 71.9287 50.4794 68.6787C50.3866 68.2145 50.2009 67.7502 50.5723 67.3787C51.5009 69.3287 51.8723 71.4645 52.058 73.6002C52.8009 79.3573 52.1509 84.9288 49.9223 90.3145C48.6223 93.4716 46.3009 95.6073 43.0509 96.8145C41.1937 97.4645 39.1509 97.1859 37.2009 97.3716C36.6437 97.4645 36.1794 97.3716 35.6223 97.4645C31.908 97.9287 28.7509 97.0002 26.3366 93.9359C24.8509 91.9859 23.7366 90.0359 23.1795 87.6216C21.8795 82.0502 21.0437 76.5716 22.2509 70.9073C22.5295 69.4216 22.9937 68.0288 23.7366 66.6359C24.2009 65.7073 24.8509 64.9645 25.3152 64.0359C26.708 61.993 28.658 60.5073 30.4223 58.8359C32.3723 57.0716 33.5794 54.9359 34.8794 52.7073C36.8294 49.3645 38.9652 46.1145 41.2866 43.0502C43.2366 40.543 45.2794 38.1287 47.508 35.8073C55.6794 27.4502 64.9652 21.043 76.3866 17.9787C82.5152 16.3073 88.7366 15.7502 95.0509 17.6073C96.7223 18.0716 98.4866 18.5359 99.7866 19.8359C99.8794 20.2073 100.158 20.393 100.437 20.5787C102.201 21.6002 103.779 22.9002 105.172 24.3859C107.587 26.893 109.444 29.8645 111.022 33.0216C111.115 33.3002 111.208 33.5788 111.394 33.6716C113.437 34.693 113.715 36.7359 114.551 38.5002C115.294 40.0787 115.294 41.7502 115.201 43.4216C115.108 45.1859 115.665 46.5787 116.965 47.7859C117.708 48.4359 118.358 49.2716 119.008 50.1073C119.379 50.6645 119.565 51.2216 119.008 51.6859C118.451 52.1502 117.894 52.4288 117.151 51.8716C116.687 51.5002 116.222 51.1287 115.758 50.6645C115.572 50.4787 115.387 50.1073 115.015 50.293C114.737 50.3859 114.737 50.8502 114.737 51.1287C114.644 51.593 114.551 52.0573 114.551 52.5216C114.179 59.6716 111.858 66.2645 108.608 72.5788C107.029 75.643 105.172 78.5216 103.129 81.3073C102.572 82.0502 102.665 82.5145 103.408 83.0716C104.337 83.8145 105.172 84.5573 106.101 85.393C107.029 86.3216 107.401 86.3216 108.237 85.3002C109.537 83.6288 110.744 81.8645 111.672 80.0073C111.858 79.6359 112.044 79.1716 112.322 78.8002C115.387 74.343 117.058 69.4216 118.358 64.2216C119.565 59.5787 119.751 54.843 119.379 50.1073C119.194 46.8573 117.987 43.8859 116.594 41.0073C116.222 40.2645 115.851 39.6145 115.572 38.8716C115.387 38.5002 115.015 38.1287 115.387 37.6645C115.944 37.6645 116.037 38.0359 116.315 38.4073C120.215 45.1859 121.515 52.4288 120.215 60.2288C119.101 66.7288 117.337 73.043 114.458 78.9859C112.508 82.8859 110.372 86.693 107.587 90.0359C105.822 92.2645 104.151 94.5859 102.665 97.0002C102.108 97.8359 101.829 98.7645 101.829 99.7859C101.829 101.922 100.994 103.779 99.9723 105.543C98.9509 107.214 97.8366 108.979 96.6295 110.557C91.9866 116.686 86.2294 121.422 78.708 123.557C73.4152 125.136 67.9366 126.064 62.3652 124.95C60.7866 124.579 59.3937 123.929 57.908 123.279C57.8152 123.186 57.6295 123.093 57.5366 123C57.0723 122.35 56.2366 122.164 55.6795 121.607C54.7509 120.772 54.1937 119.75 53.6366 118.636C52.3366 115.943 50.8509 113.436 49.9223 110.65C48.6223 106.75 47.6937 102.664 48.5294 98.4859C49.2723 94.5859 51.3152 91.5216 54.008 88.7359C61.0652 81.4002 69.7937 77.4073 79.8223 76.293C84.3723 75.7359 88.6437 76.8502 92.2652 79.7288C92.2652 79.8216 92.1723 79.9145 92.0794 80.0073C90.7794 80.0073 89.9437 79.1716 88.9223 78.6145C86.6937 77.3145 84.4652 77.593 82.1437 78.4287C81.4937 78.6145 80.8437 78.9859 80.1937 78.9859C79.2652 78.9859 78.6152 79.3573 78.058 80.2859C79.6366 79.8216 81.1223 80.0073 82.5152 79.9145C84.4652 79.7287 86.4152 79.9145 88.3652 80.1002C89.758 80.193 90.7794 81.2145 91.9866 81.6787C92.4509 81.8644 92.4509 82.3288 92.1723 82.793C91.708 83.5359 91.058 84.0002 90.1294 84.093C89.108 84.1859 87.9937 84.1859 86.9723 84.0002C86.7866 84.0002 86.6009 83.9073 86.4152 83.9073C86.1366 83.9073 85.7652 84.0002 85.6723 84.2788C85.6723 84.743 86.0437 84.6502 86.3223 84.6502C87.9937 84.5573 89.5723 84.6502 91.2437 84.743C91.9866 84.8359 92.5437 84.3716 93.1009 84.0002C93.5652 83.7216 94.1223 83.3502 94.4937 84.093C94.7723 84.6502 94.2152 84.9288 93.7509 85.2073C93.2866 85.4859 92.8223 85.5787 92.4509 85.8573C91.708 86.2287 91.708 86.7859 92.0794 87.343C92.4509 87.9002 92.9152 87.7145 93.3794 87.4359C94.0294 86.9716 94.5866 86.5073 95.0509 85.9502C96.0723 84.743 97.2794 83.8145 98.6723 83.1645C99.2294 82.8859 99.7866 82.6073 99.2294 81.7716C98.5794 80.7502 98.3009 80.6573 97.4652 81.1216C97.4652 80.7502 97.1866 81.0287 96.7223 80.843Z" fill="#50D955"/>
<path id="Vector_19" d="M25.3152 63.6646C25.408 63.6646 25.408 63.7574 25.5009 63.7574C24.9437 64.686 24.2937 65.5217 23.7365 66.4503H23.6436L23.5508 66.3574C24.2008 65.4288 24.758 64.5003 25.3152 63.6646Z" fill="#15E915"/>
<path id="Vector_20" d="M55.8652 121.236C56.5153 121.7 57.351 121.886 57.7225 122.629C57.0724 122.164 56.4224 121.793 55.8652 121.329C55.8652 121.422 55.8652 121.329 55.8652 121.236Z" fill="#15E915"/>
<path id="Vector_21" d="M102.851 72.1143C102.944 72.6714 102.851 73.1357 102.479 73.6928C101.829 74.5286 101.272 75.4571 100.715 76.3857C100.436 76.7571 100.158 77.1285 99.6006 77.0357C100.715 75.3642 101.736 73.6928 102.851 72.1143Z" fill="#15E915"/>
<path id="Vector_22" d="M95.2372 82.886C95.0515 83.0717 94.8658 82.9789 94.7729 82.7931C93.9371 81.6789 93.1014 80.5646 92.2656 79.4503L92.3585 79.3574C93.4728 80.1931 94.3086 81.2146 94.9586 82.4217C95.0515 82.6074 95.3301 82.7003 95.2372 82.886Z" fill="#15E915"/>
<path id="Vector_23" d="M95.2376 82.886C95.1447 82.7931 95.0518 82.6074 94.959 82.5145C95.7947 82.4217 95.9805 81.4931 96.5377 81.0288C96.8162 82.0502 95.9805 82.4217 95.2376 82.886Z" fill="#15E915"/>
<path id="Vector_24" d="M48.3425 62.1789C47.5067 61.7146 47.1353 60.7861 46.5781 59.9503C46.5781 59.8575 46.671 59.8575 46.671 59.7646C47.321 60.5075 47.9711 61.2503 48.3425 62.1789Z" fill="#15E915"/>
<path id="Vector_25" d="M50.571 67.1933C50.0139 66.5433 49.7353 65.8005 49.8281 65.0576C50.1996 65.7076 50.571 66.3576 50.571 67.1933Z" fill="#15E915"/>
<path id="Vector_26" d="M49.7353 65.0569C49.271 64.4998 48.8066 63.9426 48.8066 63.1069C49.3638 63.6641 49.7353 64.3141 49.7353 65.0569Z" fill="#15E915"/>
<g id="Group_8">
<path id="Vector_27" d="M50.5746 67.1924C50.7603 68.7709 51.0389 70.2567 51.3175 71.8352C52.0604 76.1995 51.8746 80.4709 50.946 84.7424C50.4817 87.1566 49.8317 89.4781 48.5316 91.5209C47.8815 92.5423 46.9529 93.3781 45.6528 93.6567C44.8171 93.8424 44.3528 93.0995 43.6099 92.8209C42.2169 92.3566 41.3812 91.1495 40.5454 90.0352C39.431 88.4566 39.1525 86.5067 38.5024 84.8352C37.5738 82.5138 38.131 80.1923 37.3881 77.9638C37.2023 77.3138 37.3881 76.4781 37.4809 75.8281C37.7595 72.8566 38.0381 69.7923 38.9667 66.9138C39.7096 64.5923 40.7311 62.4566 42.3098 60.5995C42.4026 60.5066 42.5884 60.3209 42.7741 60.3209C43.6099 60.1352 43.9813 59.4852 44.167 58.6495C44.2599 58.0924 44.3528 57.9995 44.8171 58.4638C45.3742 59.0209 45.9314 59.5781 46.5815 59.9495C47.2315 60.5995 47.6958 61.4352 48.3459 62.1781C48.4387 62.5495 48.6244 62.8281 48.903 63.1066C49.0888 63.8495 49.5531 64.4066 49.8317 65.0566C50.0174 65.7995 50.296 66.5424 50.5746 67.1924Z" fill="#E023E5"/>
<path id="Vector_28" d="M44.4453 56.8856C44.1667 56.9785 43.8881 57.3499 43.5167 57.0713C43.2381 56.7927 43.7024 56.607 43.7953 56.3285C43.8881 55.7713 44.0738 55.307 43.2381 55.1213C42.1237 54.8428 41.4737 54.007 40.7308 53.1713C40.3593 52.7999 39.9879 52.4284 39.5236 52.9856C39.0593 53.4499 38.6878 52.7999 38.3164 52.7999C37.852 52.707 38.3164 52.3356 38.4092 52.1499C39.245 50.107 40.5451 48.3428 41.938 46.7642C42.7738 45.8356 43.331 44.6284 44.2596 43.6999C44.631 43.4213 44.8168 42.957 45.4668 43.1427C45.5597 43.1427 45.6525 43.2356 45.6525 43.1427C46.7669 42.1213 48.2527 41.2856 48.9956 39.707C50.3885 40.9142 51.7814 42.1213 53.1744 43.3285C53.453 43.5142 53.1744 43.6999 53.0815 43.8856C51.9672 45.6499 50.6671 47.3213 49.2742 48.8999C49.0884 49.1785 48.9027 49.457 48.8098 49.7356C48.717 50.1999 48.4384 50.6642 48.1598 50.8499C46.5811 51.7785 46.1168 53.4499 45.0953 54.8427C44.8167 55.1213 44.7239 55.5856 45.0953 55.957C44.9096 56.2356 44.631 56.607 44.4453 56.8856Z" fill="#E023E5"/>
<path id="Vector_29" d="M96.723 80.8424C97.0945 80.6567 97.5588 80.5638 97.7445 80.2852C98.3945 79.1709 98.7659 79.9138 99.2302 80.3781C100.623 81.9567 100.716 82.0495 98.7659 82.9781C96.723 83.9067 95.6088 85.8567 93.8445 87.1567C93.473 87.4352 93.0088 87.8995 92.4516 87.621C91.9873 87.4352 91.8016 86.7852 91.8016 86.3209C91.7088 85.6709 91.9873 85.2995 92.5445 85.1138C93.1016 84.9281 93.7516 84.6495 94.3088 84.371C94.5873 84.2781 94.8659 83.9995 94.6802 83.6281C94.4945 83.3495 94.123 83.2567 93.8445 83.5352C92.5445 85.0209 90.873 84.5567 89.2945 84.4638C88.3659 84.3709 87.4373 84.4638 86.5088 84.4638C86.1373 84.4638 85.7659 84.5567 85.4873 84.2781C85.3016 83.9995 85.4873 83.721 85.673 83.4424C85.9516 82.9781 86.4159 82.8852 86.7873 83.0709C87.9016 83.5352 89.1088 83.2567 90.223 83.3495C90.5945 83.3495 91.0588 83.3495 91.4302 82.9781C91.8016 82.6067 92.4516 82.2352 92.3588 81.6781C92.2659 81.1209 91.523 81.2138 91.1516 81.121C90.4088 80.8424 89.9445 80.1924 89.0159 80.0995C86.973 79.9138 85.023 79.6352 82.9802 79.8209C81.4016 79.9138 79.7302 79.7281 78.1516 80.2852C78.0588 80.2852 77.9659 80.1924 77.873 80.1924C78.1516 80.0067 77.9659 79.6352 77.9659 79.5424C78.6159 79.3567 78.8016 78.7067 79.173 78.3352C79.6373 77.9638 79.9159 78.6138 80.473 78.3352C81.2159 77.9638 82.1445 78.0567 82.7945 77.4067C83.1659 77.0352 83.4445 77.5924 83.8159 77.4067C86.4159 76.3852 88.4588 77.6852 90.5945 78.8924C91.1516 79.1709 91.523 79.7281 92.173 79.6352C93.0088 80.2852 93.5659 81.121 94.2159 81.9567C94.4016 82.2352 94.4945 82.6995 95.0516 82.7924C95.7945 82.5138 96.2588 81.8638 96.4445 81.121C96.6302 80.9352 96.6302 80.8424 96.723 80.8424Z" fill="#E023E5"/>
<path id="Vector_30" d="M103.318 71.278C103.968 71.0923 104.247 70.628 104.525 70.0708C106.568 65.9851 107.961 61.6208 109.169 57.1637C109.447 56.1423 109.633 55.1208 109.819 54.0994C109.911 53.5423 110.19 53.1708 110.654 52.8922C111.026 52.6137 111.397 52.7994 111.769 52.8922C112.233 53.078 112.047 53.4494 111.954 53.728C111.212 57.4423 110.283 61.2494 108.797 64.778C106.94 69.2351 104.34 73.1351 101.74 77.128C101.275 77.8708 100.532 78.3351 100.161 79.1708C100.068 79.4494 99.8823 79.3566 99.6037 79.2637C99.0465 78.9851 98.6751 78.6137 98.8608 77.9637C99.0465 77.5922 99.2322 77.3137 99.5108 77.0351C100.997 75.6422 102.111 74.0637 102.761 72.1137C102.947 71.8351 103.132 71.5565 103.318 71.278Z" fill="#E023E5"/>
<path id="Vector_31" d="M63.4807 108.607C65.0592 106.193 66.8235 104.429 69.2378 103.221C69.5164 103.036 69.9807 102.85 70.1664 102.943C71.1878 103.686 72.0235 103.036 72.8592 102.664C74.9021 101.55 76.9449 100.621 78.9878 99.6929C79.5449 99.4143 80.1021 99.1357 80.5664 98.5786C81.1235 97.9286 81.9592 97.65 82.8878 97.7428C84.6521 97.9286 86.4164 97.5571 88.1807 97.3714C90.2235 97.0929 90.6878 97.2786 91.5235 99.1357C91.8949 99.9714 92.9164 100.343 93.5664 100.9C94.3092 101.55 94.0306 101.829 93.5664 102.2C92.3592 103.221 91.8021 104.521 91.3378 106.007C91.0592 107.029 91.4307 107.679 92.4521 107.957C95.3307 108.7 95.2378 108.7 93.4735 111.021C89.8521 115.571 85.1164 118.45 79.9164 120.586C77.6878 121.514 75.2735 121.7 72.9521 122.164C71.9307 122.35 70.9092 121.7 70.5378 120.586C70.3521 119.843 70.0735 119.1 69.8878 118.357C69.2378 116.129 67.4735 115.293 65.3378 115.014C64.9664 115.014 64.6878 114.921 64.3164 114.921C62.1807 114.736 62.1807 114.736 62.1807 112.507C62.2735 110.929 62.6449 109.536 63.4807 108.607Z" fill="#E023E5"/>
<path id="Vector_32" d="M115.574 37.3855C116.502 39.3355 117.431 41.2855 118.174 43.2355C119.195 45.8355 119.938 48.4355 119.845 51.2212C119.752 52.7069 119.845 54.2855 120.031 55.7712C120.309 58.2784 119.474 60.6926 119.009 63.1069C118.452 65.9855 117.802 68.8641 116.595 71.5569C115.759 73.4141 115.109 75.4569 113.902 77.1284C112.231 79.4498 111.117 82.0498 109.445 84.2784C109.352 84.3712 109.352 84.4641 109.259 84.5569C107.867 86.6926 107.309 86.7855 105.638 84.9283C105.081 84.2783 104.338 83.8141 103.688 83.2569C102.388 82.0498 102.295 82.1427 103.317 80.6569C103.874 79.9141 104.524 79.1712 104.988 78.4283C106.009 76.5712 107.217 74.8069 108.238 72.9498C109.259 70.9998 110.281 68.9569 111.024 66.9141C112.231 63.8498 113.252 60.6926 113.902 57.3498C114.274 55.1212 114.459 52.8926 114.645 50.5712C114.645 50.1998 114.831 49.7355 115.109 49.5498C115.574 49.1784 115.574 49.9212 115.945 50.1069C116.595 50.4783 117.059 51.0355 117.524 51.4998C118.174 52.1498 118.638 51.8712 119.102 51.4998C119.752 51.0355 119.288 50.5712 118.824 50.1069C117.895 49.1783 117.245 47.9712 116.224 47.1355C115.202 46.2069 115.017 45.0927 115.109 43.9784C115.388 40.5427 114.274 37.4784 112.509 34.5998C112.324 34.3212 112.231 33.6712 111.674 34.2284C111.302 34.5998 111.209 33.9498 111.209 33.9498C109.724 30.5141 107.774 27.4498 105.267 24.7569V24.6641C105.359 24.6641 105.359 24.6641 105.452 24.6641C106.567 25.1283 107.217 26.0569 107.867 26.9855C110.374 30.3283 113.252 33.6712 115.574 37.3855Z" fill="#E023E5"/>
<path id="Vector_33" d="M111.953 46.1142C111.488 46.2071 111.396 46.7642 110.838 46.6714C110.374 46.5785 110.374 46.2071 110.281 45.8357C109.446 43.3285 109.074 40.6357 108.053 38.2214C106.938 35.6214 105.267 33.2071 103.131 31.3499C101.553 29.9571 100.253 28.2857 98.3955 27.1714C95.7027 25.4071 92.8241 23.9214 89.667 23.0856C87.9027 22.6214 86.0455 22.7142 84.1884 22.4357C82.2384 22.0642 80.2884 22.6214 78.3384 22.6214C76.8527 22.6214 75.367 22.8999 73.9741 23.2714C72.3027 23.7356 70.4455 23.8285 68.7741 24.4785C67.2884 25.0356 65.8027 25.4071 64.4098 26.1499C62.9241 26.8928 61.3455 27.6357 59.8598 28.5642C58.1884 29.5857 56.6098 30.7928 55.0313 31.9999C54.8455 32.1857 54.3813 32.5571 54.1955 32.0928C54.0098 31.7214 53.917 31.2571 54.4741 30.8857C55.4027 30.2357 56.3313 29.5857 57.3527 28.9357C58.5598 28.1928 59.6741 27.2642 60.7884 26.4285C64.2241 24.1071 67.8455 22.2499 71.7455 20.7642C75.367 19.4642 79.0813 18.6285 82.7955 18.1642C84.1884 17.9785 85.5813 18.0714 86.9741 18.2571C89.017 18.4428 91.0598 18.7214 92.917 19.3714C95.517 20.2999 98.117 21.2285 100.253 23.1785C101.738 24.4785 103.41 25.5928 104.896 27.0785C107.496 29.7714 109.074 33.0214 110.188 36.5499C111.21 39.5214 111.581 42.5857 111.767 45.7428C111.953 45.8357 111.953 46.0214 111.953 46.1142Z" fill="#E023E5"/>
<path id="Vector_34" d="M67.6597 90.2214C66.7312 89.6643 66.0812 90.4072 65.524 90.7786C62.6455 92.7286 59.674 94.5857 57.2598 97.0929C55.8669 98.5786 54.474 100.064 52.8955 101.736C52.524 100.436 52.4312 99.4143 53.0812 98.3C55.5883 94.0286 59.4883 91.15 63.3883 88.4572C66.5455 86.3215 69.9812 84.7429 73.5098 83.4429C74.3455 83.1643 75.274 82.8857 76.2026 82.7C76.574 82.6072 77.3169 82.2357 77.4097 82.6071C77.6883 83.1643 78.1526 83.8143 77.9669 84.4643C77.7812 85.3 77.4097 85.7643 76.2955 86.0429C74.9026 86.3214 73.4169 86.7857 72.024 87.7143C73.1383 87.9929 73.974 87.3429 74.8097 87.1572C75.3669 87.0643 75.924 86.4143 75.7383 87.6215C75.7383 87.7143 75.8312 87.9 75.924 87.9929C76.574 89.0143 76.574 89.2929 75.4597 89.6643C72.4883 90.7786 69.6097 92.0786 66.9169 93.75C65.6169 94.5857 64.224 95.3286 63.2026 96.4429C62.0883 97.65 60.974 98.8572 59.8598 100.064C58.7455 101.364 57.8169 102.85 56.7955 104.243C56.6098 104.521 56.424 104.986 55.9597 104.521C55.6812 104.243 55.4955 104.521 55.3097 104.8C54.9383 105.357 54.474 105.914 54.3812 106.75C53.3597 105.729 53.174 104.243 53.9169 102.85C54.1955 102.386 54.474 101.921 54.7526 101.55C54.9383 101.271 55.0312 101.179 55.4026 101.364C56.1455 101.736 56.6097 101.271 56.424 100.714C56.0526 99.5071 56.9812 98.8572 57.5383 98.3C60.1383 95.8857 62.7383 93.3786 65.8955 91.6143C66.5455 91.2429 67.0097 90.6857 67.6597 90.2214Z" fill="#E023E5"/>
<path id="Vector_35" d="M105.454 88.5494C104.432 89.8494 103.503 91.0565 101.832 91.7065C100.996 91.9851 100.346 92.8208 99.789 93.6565C98.9532 94.9565 98.1175 94.9565 97.3746 93.5637C97.096 93.0994 96.8174 92.7279 96.4459 92.3565C96.1673 92.0779 95.7959 91.7994 95.7959 91.4279C95.8888 90.9637 96.3531 90.8708 96.7245 90.778C97.5603 90.4994 98.3032 90.2208 98.6746 89.3851C99.0461 88.5494 98.7675 88.2708 98.0246 88.4565C97.5603 88.5494 97.3745 88.4565 97.1888 88.2708C97.0031 87.9922 97.2817 87.7137 97.5603 87.528C98.8604 86.3208 99.9747 85.0208 100.996 83.628C101.182 83.2565 101.461 83.1637 101.832 83.4423C103.225 84.6494 104.711 85.7637 106.011 87.0637C106.568 87.528 105.546 87.9923 105.454 88.5494Z" fill="#E023E5"/>
<path id="Vector_36" d="M54.5671 90.4997C54.3813 89.8497 54.8456 89.4783 55.1242 89.1069C59.1171 84.5569 63.8528 81.0283 69.7956 79.1712C71.0956 78.7997 72.3956 78.4283 73.6956 78.3354C74.5314 78.3354 74.7171 78.614 74.4385 79.264C74.0671 79.914 73.7885 80.4711 72.7671 80.7497C71.5599 81.0283 70.4456 81.7711 69.2385 82.2354C66.5456 83.3497 63.8528 84.6497 61.1599 85.8569C60.1385 86.3211 59.2099 86.8783 58.1885 87.5283C57.0742 88.2712 56.1456 89.1069 55.3099 90.1283C55.1242 90.4069 54.8456 90.4069 54.5671 90.4997Z" fill="#E023E5"/>
<path id="Vector_37" d="M29.4031 81.1209C29.1245 81.3066 29.1245 81.8637 28.5673 81.5852C28.1958 81.3995 27.7315 81.4923 27.6387 80.8423C27.1743 79.1709 27.4529 77.4066 27.5458 75.7352C27.7315 71.928 28.3816 68.1209 29.5888 64.4066C29.8674 63.5709 30.2388 62.7352 30.7031 61.9923C30.9817 61.6209 31.2603 61.4352 31.7246 61.3423C32.2818 61.2494 32.5604 61.528 32.2818 62.0852C30.796 65.2423 30.146 68.5852 29.8674 71.928C29.6816 74.1566 29.7745 76.478 29.8674 78.7066C29.8674 79.728 29.6816 80.4709 29.4031 81.1209Z" fill="#E023E5"/>
<path id="Vector_38" d="M33.7649 76.107C33.9506 75.5499 33.5792 75.1784 33.3934 74.807C32.7434 72.857 32.8363 70.8142 33.1148 68.957C33.3934 67.007 33.7649 64.9641 34.6006 63.107C35.3435 61.3427 36.1793 59.6713 37.5722 58.2784C37.8508 57.9999 38.1294 57.9999 38.408 58.1856C38.5009 58.2784 38.5937 58.4641 38.7795 58.4641C38.9652 58.4641 39.2438 58.557 39.5224 58.557C38.3151 61.157 36.9222 63.5713 36.0864 66.357C35.5293 68.307 34.9721 70.3499 35.1578 72.3927C35.2507 73.3213 34.6935 74.0642 34.8792 74.9927C34.8792 75.2713 33.8577 75.3641 33.7649 76.107Z" fill="#E023E5"/>
<path id="Vector_39" d="M66.0801 102.2C67.2873 100.343 68.123 98.207 69.8874 96.8142C71.7447 95.3285 74.0663 94.4927 76.295 93.7499C76.945 93.5642 77.6879 93.3785 78.3379 93.1927C79.0808 92.9142 79.2666 93.0999 79.4523 93.7499C79.5452 94.2142 79.8237 94.5856 80.1023 95.1427C77.595 95.9784 74.9949 96.7213 72.5805 97.9284C70.166 99.0427 68.1231 100.621 66.0801 102.2Z" fill="#E023E5"/>
<path id="Vector_40" d="M23.9253 76.1998C24.4824 76.5713 23.7395 77.407 24.4824 77.7784C24.6682 76.5713 24.9467 75.457 24.9467 74.4356C25.1325 71.2784 25.7825 68.307 26.8969 65.4284C27.1755 64.7784 27.5469 64.3141 28.4755 64.1284C28.1041 65.5213 27.7326 66.9141 27.454 68.2141C26.7111 71.8356 26.4325 75.457 26.7111 79.1713C26.7111 79.5427 26.7111 79.8213 26.7111 80.1927C26.7111 80.7499 26.4326 80.7499 25.9682 80.5641C23.9253 79.4499 23.5538 78.6141 23.9253 76.1998Z" fill="#E023E5"/>
<path id="Vector_41" d="M95.1461 88.8282C93.7533 89.5711 92.2675 89.7568 90.7818 89.5711C85.8604 89.1068 81.1247 89.8497 76.389 91.3354C73.8818 92.1711 71.4675 93.3782 68.8675 94.0282C68.7747 93.5639 69.239 93.4711 69.5175 93.3782C74.2533 90.6854 79.2675 89.2925 84.6533 88.8282C86.3247 88.7354 88.089 88.9211 89.7604 88.4568C90.2247 88.3639 90.5961 88.7354 91.0604 88.7354C92.2675 88.8282 93.3818 89.1068 94.4961 88.4568C94.6818 88.4568 94.8675 88.5496 95.1461 88.8282Z" fill="#E023E5"/>
<path id="Vector_42" d="M104.246 75.8285C107.218 71.3714 109.446 66.5428 111.118 61.4357C112.789 56.4214 113.44 51.3143 113.718 46.1143C113.718 56.9785 111.397 67.1928 104.246 75.8285Z" fill="#E023E5"/>
<path id="Vector_43" d="M88.7384 85.5783C89.4813 86.0426 89.3885 86.9712 89.7599 87.6212C89.8528 87.8069 89.7599 87.9926 89.4813 87.9926C88.0884 87.9926 86.6954 87.9926 85.3025 87.8997C84.7453 87.8997 84.4667 87.3426 84.5596 86.8783C84.5596 86.3211 84.5596 85.5783 85.2096 85.3926C86.324 85.114 87.6241 84.9283 88.7384 85.5783Z" fill="#E023E5"/>
<path id="Vector_44" d="M110.559 52.6139C110.002 51.0353 110.467 49.4567 110.467 47.971C110.467 47.4139 111.117 47.0425 111.859 47.1353C112.602 47.2282 112.602 47.5067 112.602 48.1567C112.695 49.0853 112.417 50.0139 112.324 50.9425C112.231 52.0567 111.117 51.9639 110.559 52.6139Z" fill="#E023E5"/>
<path id="Vector_45" d="M96.3532 96.3494C95.2389 95.5136 93.8459 95.3279 92.6387 94.7708C92.1744 94.5851 91.3387 94.5851 91.8958 93.6565C92.0816 93.3779 91.4315 93.0994 91.3386 92.7279C91.2458 92.4494 90.9672 92.0779 91.7101 92.1708C93.2888 92.3565 96.1675 94.7708 96.3532 96.3494Z" fill="#E023E5"/>
<path id="Vector_46" d="M90.7815 94.4929C88.8314 94.1214 86.9741 93.9357 85.024 94.1214C84.6526 94.1214 84.1882 94.3071 83.8168 94.3071C83.5382 94.3071 83.0739 94.7714 83.0739 94.1214C82.981 93.6572 83.3525 93.3786 83.8168 93.2857C84.0954 93.2857 84.4668 93.3786 84.8383 93.2857C85.3026 93.2857 85.7669 93.1929 86.1384 93.1C86.9741 92.8214 87.6242 91.7072 88.7385 92.6357C89.3885 93.2857 90.2243 93.5643 90.7815 94.4929Z" fill="#E023E5"/>
<path id="Vector_47" d="M101.553 32.8352C100.625 32.5566 99.696 32.3709 98.9531 31.8138C97.7459 30.8852 96.3529 30.4209 95.1457 29.4923C94.96 29.3995 94.5885 29.3066 94.7743 28.9352C94.8671 28.6566 95.1457 28.5638 95.4243 28.5638C96.3529 28.3781 97.0958 28.9352 97.5601 29.4923C98.6745 30.7923 100.439 31.4423 101.553 32.8352Z" fill="#E023E5"/>
<path id="Vector_48" d="M42.4941 43.9781C42.8656 43.5138 42.2156 42.7709 42.6799 42.4924C43.5156 42.0281 43.6085 41.0995 44.1657 40.7281C45.0943 39.9852 45.5586 38.7781 46.5801 38.1281C46.8587 37.9423 46.9515 37.4781 47.4159 37.8495C47.973 38.3138 47.4159 38.5924 47.2301 38.7781C45.9301 40.1709 44.5371 41.4709 43.237 42.7709C42.9585 43.1423 42.7727 43.6066 42.4941 43.9781Z" fill="#E023E5"/>
<path id="Vector_49" d="M99.9744 19.9282C101.182 20.3925 102.203 21.1354 103.225 21.9711C103.596 22.8996 104.618 23.1782 105.175 23.9211C105.36 24.1068 105.639 24.2925 105.268 24.5711C103.41 22.9925 101.46 21.3211 99.1387 20.0211C99.603 19.9282 99.7887 19.9282 99.9744 19.9282Z" fill="#E023E5"/>
<path id="Vector_50" d="M36.551 82.9783C35.251 82.3283 35.8081 81.1212 35.7153 80.0997C35.7153 79.8212 35.8081 79.3569 35.8081 78.8926C36.8296 79.4497 37.1082 81.4926 36.551 82.9783Z" fill="#E023E5"/>
<path id="Vector_51" d="M52.432 33.0214C52.432 32.9286 52.432 32.65 52.5248 32.4643C52.6177 32.1857 52.8963 32.0928 53.1749 32.1857C53.3606 32.2786 53.6392 32.3714 53.7321 32.5571C53.8249 32.7428 53.6392 32.9286 53.4535 33.0214C52.8034 33.5786 52.2463 34.1357 51.5962 34.6928C51.4105 34.7857 51.1319 35.1571 50.9462 34.8786C50.8533 34.6928 50.5747 34.2286 51.039 33.95C51.4105 33.6714 52.0605 33.5786 52.432 33.0214Z" fill="#E023E5"/>
<path id="Vector_52" d="M48.2526 37.4783C47.974 37.2925 48.1597 37.1068 48.0668 36.9211C47.8811 36.364 49.1812 35.1568 49.7384 35.2497C50.1098 35.3426 50.3884 35.5283 50.1098 35.8068C49.6455 36.364 49.0883 36.9211 48.5311 37.3854C48.4383 37.5711 48.2526 37.4783 48.2526 37.4783Z" fill="#E023E5"/>
<path id="Vector_53" d="M38.874 56.6997C38.6882 56.0497 39.4311 55.5854 39.1525 55.0282C39.0597 54.9354 39.1525 54.6568 39.3383 54.7496C39.524 54.7496 39.7097 54.8425 39.7097 55.0282C39.9883 56.6068 39.9883 56.6068 41.7527 57.1639C41.1027 57.9068 40.6383 57.9997 40.3598 57.3497C39.9883 56.4211 39.4311 56.5139 38.874 56.6997Z" fill="#E023E5"/>
<path id="Vector_54" d="M51.0396 39.9859C50.6681 39.7073 50.0181 39.5216 50.4824 38.7787C50.6681 38.5002 51.1324 38.2216 51.2253 38.4073C51.5039 39.0573 52.4325 39.5216 52.1539 40.2645C51.9682 40.7287 51.411 40.1716 51.0396 39.9859Z" fill="#E023E5"/>
<path id="Vector_55" d="M33.7656 57.1643C34.6943 55.8643 34.88 54.1929 36.1801 53.0786C35.2514 54.3786 34.9728 56.05 33.7656 57.1643Z" fill="#E023E5"/>
<path id="Vector_56" d="M89.5752 90.8712C90.5038 90.2212 92.2682 90.5926 93.3826 91.6141C91.9896 91.6141 90.8753 90.8712 89.5752 90.8712Z" fill="#E023E5"/>
<path id="Vector_57" d="M40.7309 46.1142C39.8022 45.5571 40.9166 44.9999 40.9166 44.4428C40.9166 43.8857 41.5666 44.0714 42.2167 43.9785C41.5666 44.8142 41.1023 45.4642 40.7309 46.1142Z" fill="#E023E5"/>
<path id="Vector_58" d="M36.5529 83.0711C37.0172 83.5353 37.853 83.9068 37.1101 84.8354C36.8315 85.0211 37.2029 84.0925 36.5529 84.3711C35.9957 84.5568 36.1814 83.7211 36.0886 83.3496C35.9957 82.7925 36.5529 83.3496 36.5529 83.0711Z" fill="#E023E5"/>
<path id="Vector_59" d="M53.2659 42.0279C53.0802 41.8422 52.6159 41.8421 52.8945 41.285C53.1731 40.9136 53.4517 40.8207 53.8231 41.0064C54.1946 41.285 54.2874 41.5636 54.1017 41.935C53.8231 42.4921 53.6374 42.2136 53.2659 42.0279Z" fill="#E023E5"/>
<path id="Vector_60" d="M37.6669 55.0282C37.7598 54.8425 37.8527 54.7496 37.8527 54.5639C37.8527 54.3782 37.8527 54.1925 38.1312 54.3782C38.317 54.471 38.5027 54.6568 38.2241 54.8425C37.5741 55.2139 37.3883 55.7711 37.6669 56.4211C37.6669 56.6068 37.8527 56.7925 37.6669 56.8853C37.5741 56.9782 37.3883 56.9782 37.2026 56.8853C37.0169 56.7925 36.924 56.5139 37.0169 56.3282C37.2026 55.8639 37.2026 55.3068 37.6669 55.0282Z" fill="#E023E5"/>
<path id="Vector_61" d="M37.4796 51.0352C37.1081 51.5923 36.9224 52.0566 36.3652 52.5209C36.551 51.4994 36.551 51.4066 37.4796 51.0352Z" fill="#E023E5"/>
<path id="Vector_62" d="M94.1242 97.464C93.1956 97.1854 93.1956 97.1854 93.567 96.2568C93.8456 96.6283 93.9385 96.9997 94.1242 97.464Z" fill="#E023E5"/>
<path id="Vector_63" d="M23.088 70.9995C23.088 70.4424 22.9023 69.7924 23.5523 69.3281C23.5523 69.9781 23.4595 70.5353 23.088 70.9995Z" fill="#E023E5"/>
</g>
<path id="Vector_64" d="M105.173 24.5717C104.987 24.0145 104.523 23.5502 104.059 23.2717C103.594 22.9931 103.223 22.5288 103.13 21.9717C104.894 23.1788 106.473 24.6645 107.68 26.336C110.095 29.6788 112.788 32.7431 115.016 36.2717C115.202 36.6431 115.666 36.9217 115.573 37.4788C114.552 36.6431 113.809 35.5288 113.252 34.5074C112.045 32.2788 110.187 30.6074 108.794 28.5645C107.68 26.986 106.752 25.5003 105.173 24.5717Z" fill="#15E915"/>
<path id="Vector_65" d="M48.1581 89.0147C47.6009 90.1289 46.5794 90.4075 45.4651 90.6861C45.0008 90.7789 44.5364 90.8718 44.3507 90.1289C44.2578 89.7575 43.8864 89.7575 43.6078 89.5718C42.9578 89.2932 42.2149 89.1075 41.6577 88.4575C40.8219 87.5289 40.7291 86.8789 41.472 85.8575C42.2149 84.8361 42.5863 83.5361 42.772 82.2361C43.4221 78.3361 43.9793 74.5289 42.9578 70.6289C42.5863 69.2361 42.122 67.9361 40.9148 67.1004C40.079 66.5432 41.0077 65.8932 41.1934 65.6146C41.8434 64.7789 42.4935 63.9432 43.2364 63.2003C44.2578 62.1789 45.9294 62.5504 46.9509 63.8504C47.6009 64.6861 48.2509 65.7075 48.3438 66.8218C48.4367 68.5861 49.2724 70.0718 49.3653 71.8361C49.4582 73.4147 50.0153 74.9004 50.2011 76.4789C50.4796 78.6147 50.3868 80.6575 50.1082 82.7932C49.9225 84.9289 49.1796 87.0647 48.1581 89.0147Z" fill="#15E915"/>
<path id="Vector_66" d="M54.6586 97.1857C55.6801 96.2571 56.7015 95.2357 57.723 94.2143C57.9088 94.0285 58.0945 93.6571 58.4659 94.0286C58.7445 94.3071 58.7445 94.7714 58.4659 94.9571C57.6302 95.4214 57.4444 96.7214 56.1444 96.7214C55.8658 96.7214 56.1444 96.9071 56.1444 96.9071C56.2372 97.3714 55.8658 97.5571 55.6801 97.8357C55.4015 98.3928 54.8443 98.3928 54.4728 98.2071C53.9157 97.8357 54.6586 97.5571 54.6586 97.1857Z" fill="#15E915"/>
</g>
</g>
<defs>
<filter id="filter0_d_5466_2813" x="0" y="0" width="150" height="150" filterUnits="userSpaceOnUse" color-interpolation-filters="sRGB">
<feFlood flood-opacity="0" result="BackgroundImageFix"/>
<feColorMatrix in="SourceAlpha" type="matrix" values="0 0 0 0 0 0 0 0 0 0 0 0 0 0 0 0 0 0 127 0" result="hardAlpha"/>
<feOffset dx="4" dy="4"/>
<feGaussianBlur stdDeviation="5"/>
<feComposite in2="hardAlpha" operator="out"/>
<feColorMatrix type="matrix" values="0 0 0 0 0 0 0 0 0 0 0 0 0 0 0 0 0 0 0.7 0"/>
<feBlend mode="multiply" in2="BackgroundImageFix" result="effect1_dropShadow_5466_2813"/>
<feBlend mode="normal" in="SourceGraphic" in2="effect1_dropShadow_5466_2813" result="shape"/>
</filter>
</defs>
</svg>
