<svg width="471" height="615" viewBox="0 0 471 615" fill="none" xmlns="http://www.w3.org/2000/svg">
<g filter="url(#filter0_d_5686_2533)">
<path d="M246.714 136H135.286C130.179 136 126 131.821 126 126.714V15.2857C126 10.1786 130.179 6 135.286 6L246.714 6C251.821 6 256 10.1786 256 15.2857V126.714C256 131.821 251.821 136 246.714 136Z" fill="#50D955"/>
<mask id="mask0_5686_2533" style="mask-type:luminance" maskUnits="userSpaceOnUse" x="126" y="6" width="130" height="130">
<path d="M246.714 136H135.286C130.179 136 126 131.821 126 126.714V15.2857C126 10.1786 130.179 6 135.286 6L246.714 6C251.821 6 256 10.1786 256 15.2857V126.714C256 131.821 251.821 136 246.714 136Z" fill="white"/>
</mask>
<g mask="url(#mask0_5686_2533)">
<path d="M187.101 -41.0786C153.394 -6.25718 124.422 30.1428 134.079 45.7428C149.958 71.1857 260.458 25.7785 267.701 42.1214C275.036 58.7428 164.165 109.907 172.429 141.943C177.165 160.236 219.322 165.621 258.879 167.014" fill="#E023E5"/>
</g>
<path d="M159.056 82.9781V86.1353H141.32C139.927 86.1353 138.627 86.5067 137.42 87.3424C136.213 88.1781 135.377 89.1995 134.82 90.4067C134.448 91.3353 134.17 92.2638 134.17 93.2853C134.17 93.9353 134.263 94.5853 134.448 95.2353C134.913 96.721 135.748 98.021 136.956 98.9495C138.256 99.971 139.648 100.435 141.227 100.435H153.484C154.227 100.435 154.97 100.25 155.62 99.8781L155.713 99.7853L158.87 97.9281V98.671L155.991 100.342L151.534 102.85C150.884 103.221 150.141 103.407 149.398 103.407H141.227C140.02 103.407 138.813 103.221 137.698 102.757C136.584 102.292 135.563 101.735 134.634 100.992C133.706 100.25 132.963 99.321 132.406 98.2995C131.756 97.2781 131.384 96.1638 131.198 94.9567C131.106 94.3067 131.013 93.7495 131.013 93.0995C131.013 91.2424 131.477 89.571 132.406 87.9924C133.334 86.4138 134.541 85.2067 136.12 84.2781C137.698 83.3495 139.37 82.8853 141.227 82.8853H159.056V82.9781Z" fill="black"/>
<path d="M183.29 92.3566L182.64 92.728L182.547 92.8209L178.74 95.0495L174.283 97.5566C173.633 97.928 172.89 98.1137 172.147 98.1137H164.533V103.499H161.376V89.9423C161.376 87.9923 162.026 86.4137 163.419 85.0209C164.812 83.628 166.39 82.978 168.34 82.978H189.326V103.499H186.169V90.5923L183.29 92.3566ZM164.626 89.9423V94.9566H176.326C177.069 94.9566 177.812 94.7709 178.462 94.3994L183.29 91.6137L184.126 91.1494C184.869 90.778 185.333 90.2209 185.705 89.5709C186.076 88.9209 186.262 88.178 186.262 87.3423V86.1352H168.433C167.412 86.1352 166.483 86.5066 165.74 87.2494C164.997 87.9923 164.626 88.9209 164.626 89.9423Z" fill="black"/>
<path d="M196.569 89.1999L201.955 86.1356L206.412 83.6284C207.062 83.257 207.805 83.0713 208.548 83.0713H214.398C216.348 83.0713 217.926 83.7213 219.319 85.1141C220.712 86.507 221.362 88.0856 221.362 90.0356V103.593H218.205V90.0356C218.205 89.0141 217.833 88.0856 217.091 87.3427C216.348 86.5999 215.419 86.2284 214.398 86.2284H204.462C203.719 86.2284 202.976 86.4141 202.326 86.7856L198.798 88.8284C198.148 89.1999 197.591 89.757 197.219 90.407C196.848 91.057 196.662 91.7999 196.662 92.6356V103.593H193.505V83.0713H196.569V89.1999Z" fill="black"/>
<path d="M228.233 82.978V103.499H225.075V82.978H228.233Z" fill="black"/>
<path d="M135.19 129.128V129.407H132.126V108.885H153.112C154.04 108.885 154.969 109.071 155.805 109.442C156.64 109.814 157.383 110.278 158.033 110.928C158.683 111.578 159.147 112.321 159.519 113.157C159.89 113.992 160.076 114.921 160.076 115.85C160.076 117.8 159.426 119.378 158.033 120.771C156.64 122.164 155.062 122.814 153.112 122.814H143.083C142.34 122.814 141.597 123 140.947 123.371L137.419 125.414C136.769 125.785 136.212 126.342 135.84 126.992C135.376 127.55 135.19 128.292 135.19 129.128ZM135.19 116.5V125.878L140.576 122.814L145.033 120.307C145.683 119.935 146.426 119.75 147.169 119.75H153.019C154.04 119.75 154.969 119.378 155.712 118.635C156.455 117.892 156.826 116.964 156.826 115.942C156.826 114.921 156.455 113.992 155.712 113.25C154.969 112.507 154.04 112.135 153.019 112.135H135.19V116.5Z" fill="black"/>
<path d="M165.928 126.157H186.171C186.913 126.157 187.656 125.971 188.306 125.6L190.999 124.114V124.857L188.678 126.25L184.221 128.757C183.571 129.128 182.828 129.314 182.085 129.314H162.771V108.792H165.928V126.157Z" fill="black"/>
<path d="M214.769 118.171L214.119 118.542L214.026 118.635L210.219 120.864L205.762 123.371C205.112 123.742 204.369 123.928 203.626 123.928H196.012V129.314H192.854V115.757C192.854 113.807 193.504 112.228 194.897 110.835C196.29 109.442 197.869 108.792 199.819 108.792H220.804V129.314H217.647V116.407L214.769 118.171ZM196.104 115.757V120.771H207.804C208.547 120.771 209.29 120.585 209.94 120.214L214.769 117.428L215.604 116.964C216.347 116.592 216.812 116.035 217.183 115.385C217.554 114.735 217.74 113.992 217.74 113.157V111.95H199.912C198.89 111.95 197.962 112.321 197.219 113.064C196.476 113.807 196.104 114.735 196.104 115.757Z" fill="black"/>
<path d="M223.405 113.435V108.792H226.562V112.878C226.562 113.714 226.748 114.364 227.12 115.107C227.491 115.85 228.048 116.314 228.698 116.685L228.884 116.778C229.162 116.871 229.348 116.964 229.627 116.964H245.134C245.412 116.964 245.691 116.871 245.877 116.778L246.062 116.685C246.805 116.314 247.27 115.757 247.641 115.107C248.012 114.457 248.198 113.714 248.198 112.878V108.792H251.355V113.435C251.355 113.992 251.077 114.457 250.612 114.735L248.198 116.128H248.105L246.805 116.871L243.37 118.821L242.812 119.192L241.698 119.842C241.42 119.935 241.234 120.028 240.955 120.028H238.912V129.314H235.755V120.028H233.712C233.434 120.028 233.155 119.935 232.97 119.842L231.948 119.192L227.955 116.871L226.655 116.128H226.562L224.148 114.735C223.684 114.457 223.405 114.085 223.405 113.435Z" fill="black"/>
</g>
<g filter="url(#filter1_d_5686_2533)">
<path d="M126.714 601H15.2857C10.1786 601 6 596.821 6 591.714V480.286C6 475.179 10.1786 471 15.2857 471H126.714C131.821 471 136 475.179 136 480.286V591.714C136 596.821 131.914 601 126.714 601Z" fill="#0C0C0C"/>
<path d="M28.6586 546.957V548.536H19.5586C18.8158 548.536 18.1658 548.721 17.5158 549.186C16.8658 549.557 16.4944 550.114 16.2158 550.764C16.0301 551.228 15.9372 551.693 15.9372 552.25C15.9372 552.621 15.9372 552.9 16.0301 553.271C16.2158 554.014 16.6801 554.664 17.3301 555.221C17.9801 555.685 18.7229 555.964 19.5586 555.964H25.8729C26.2444 555.964 26.6158 555.871 26.9872 555.685H27.0801L28.6586 554.757V555.128L27.1729 555.964L24.8515 557.264C24.4801 557.449 24.1086 557.542 23.7372 557.542H19.4658C18.8158 557.542 18.2587 557.449 17.6087 557.171C17.0515 556.985 16.4944 556.614 16.0301 556.242C15.5658 555.871 15.1944 555.407 14.8229 554.85C14.5444 554.292 14.2658 553.735 14.1729 553.178C14.0801 552.9 14.0801 552.528 14.0801 552.25C14.0801 551.321 14.3587 550.393 14.8229 549.557C15.2872 548.721 15.9372 548.071 16.7729 547.607C17.6086 547.143 18.4444 546.864 19.4658 546.864H28.6586V546.957Z" fill="#E023E5"/>
<path d="M41.1936 551.785L40.9151 551.971L38.9651 553.085L36.6436 554.385C36.2722 554.571 35.9008 554.664 35.5293 554.664H31.6293V557.449H30.0508V550.485C30.0508 549.464 30.4222 548.628 31.0722 547.978C31.8151 547.236 32.6508 546.957 33.5794 546.957H44.4436V557.542H42.8651V550.857L41.1936 551.785ZM31.5365 550.578V553.178H37.5722C37.9436 553.178 38.3151 553.085 38.6865 552.9L41.1936 551.507L41.6579 551.228C42.0294 551.043 42.3079 550.764 42.4936 550.393C42.6793 550.021 42.7722 549.65 42.7722 549.278V548.628H33.5794C33.0222 548.628 32.5579 548.814 32.1865 549.185C31.8151 549.557 31.5365 550.021 31.5365 550.578Z" fill="#E023E5"/>
<path d="M48.0649 550.207L50.8506 548.628L53.172 547.328C53.5435 547.143 53.9149 547.05 54.2863 547.05H57.3506C58.372 547.05 59.2078 547.421 59.8578 548.071C60.6006 548.814 60.8792 549.65 60.8792 550.578V557.542H59.3006V550.578C59.3006 550.021 59.1149 549.557 58.7435 549.185C58.372 548.814 57.9078 548.628 57.3506 548.628H52.1506C51.7792 548.628 51.4078 548.721 51.0363 548.907L49.1792 549.928C48.8078 550.114 48.5292 550.393 48.3435 550.764C48.1578 551.135 48.0649 551.507 48.0649 551.878V557.542H46.4863V546.957H48.0649V550.207Z" fill="#E023E5"/>
<path d="M64.4086 546.957V557.542H62.8301V546.957H64.4086Z" fill="#E023E5"/>
<path d="M68.1215 557.449V557.542H66.543V546.957H77.4073C77.8715 546.957 78.3358 547.05 78.8001 547.236C79.2644 547.421 79.6358 547.7 79.9144 547.978C80.193 548.257 80.4715 548.721 80.6573 549.093C80.843 549.557 80.9358 550.021 80.9358 550.485C80.9358 551.507 80.5644 552.342 79.9144 552.992C79.1715 553.735 78.3358 554.014 77.4073 554.014H72.2072C71.8358 554.014 71.4644 554.107 71.093 554.292L69.2358 555.314C68.8644 555.499 68.5858 555.778 68.4001 556.149C68.2144 556.706 68.1215 557.078 68.1215 557.449ZM68.1215 550.95V555.778L70.9073 554.199L73.2287 552.9C73.6001 552.714 73.9715 552.621 74.343 552.621H77.4073C77.9644 552.621 78.4287 552.435 78.8001 552.064C79.1715 551.692 79.3573 551.228 79.3573 550.671C79.3573 550.114 79.1715 549.65 78.8001 549.278C78.4287 548.907 77.9644 548.721 77.4073 548.721H68.2144V550.95H68.1215Z" fill="#E023E5"/>
<path d="M84.0024 555.964H94.4953C94.8667 555.964 95.2381 555.871 95.6096 555.685L97.0024 554.942V555.314L95.7953 555.964L93.4738 557.264C93.1024 557.449 92.731 557.542 92.3596 557.542H82.4238V546.957H84.0024V555.964Z" fill="#E023E5"/>
<path d="M109.166 551.785L108.888 551.971L106.938 553.085L104.616 554.385C104.245 554.571 103.873 554.664 103.502 554.664H99.602V557.449H98.0234V550.485C98.0234 549.464 98.3948 548.628 99.0448 547.978C99.7877 547.236 100.623 546.957 101.552 546.957H112.416V557.542H110.838V550.857L109.166 551.785ZM99.5091 550.578V553.178H105.545C105.916 553.178 106.288 553.085 106.659 552.9L109.166 551.507L109.631 551.228C110.002 551.043 110.281 550.764 110.466 550.393C110.652 550.021 110.745 549.65 110.745 549.278V548.628H101.552C100.995 548.628 100.531 548.814 100.159 549.185C99.6949 549.557 99.5091 550.021 99.5091 550.578Z" fill="#E023E5"/>
<path d="M113.623 549.371V546.957H115.202V549C115.202 549.371 115.294 549.743 115.48 550.114C115.666 550.485 115.944 550.764 116.316 550.95L116.409 551.042C116.502 551.135 116.687 551.135 116.78 551.135H124.766C124.952 551.135 125.044 551.135 125.137 551.042L125.23 550.95C125.602 550.764 125.88 550.485 126.066 550.114C126.252 549.743 126.344 549.371 126.344 549V546.957H127.923V549.371C127.923 549.65 127.83 549.928 127.552 550.021L126.344 550.764L125.694 551.135L123.93 552.157L123.652 552.342L123.094 552.621C123.002 552.714 122.816 552.714 122.723 552.714H121.702V557.449H120.123V552.714H119.009C118.823 552.714 118.73 552.714 118.637 552.621L118.08 552.342L115.944 551.135L115.294 550.764L114.087 550.021C113.809 549.928 113.623 549.65 113.623 549.371Z" fill="#E023E5"/>
<path d="M28.6586 530.522V532.1H19.5586C18.8158 532.1 18.1658 532.286 17.5158 532.75C16.8658 533.121 16.4944 533.679 16.2158 534.328C16.0301 534.793 15.9372 535.257 15.9372 535.814C15.9372 536.186 15.9372 536.464 16.0301 536.835C16.2158 537.578 16.6801 538.228 17.3301 538.785C17.9801 539.25 18.7229 539.528 19.5586 539.528H25.8729C26.2444 539.528 26.6158 539.435 26.9872 539.25H27.0801L28.6586 538.321V538.693L27.1729 539.528L24.8515 540.828C24.4801 541.014 24.1086 541.107 23.7372 541.107H19.4658C18.8158 541.107 18.2587 541.014 17.6087 540.735C17.0515 540.55 16.4944 540.178 16.0301 539.807C15.5658 539.435 15.1944 538.971 14.8229 538.414C14.5444 537.857 14.2658 537.3 14.1729 536.743C14.0801 536.464 14.0801 536.093 14.0801 535.814C14.0801 534.886 14.3587 533.957 14.8229 533.121C15.2872 532.286 15.9372 531.636 16.7729 531.172C17.6086 530.707 18.4444 530.429 19.4658 530.429H28.6586V530.522Z" fill="#50D955"/>
<path d="M41.1936 535.35L40.9151 535.535L38.9651 536.65L36.6436 537.95C36.2722 538.135 35.9008 538.228 35.5293 538.228H31.6293V541.014H30.0508V534.05C30.0508 533.028 30.4222 532.193 31.0722 531.543C31.8151 530.8 32.6508 530.521 33.5794 530.521H44.4436V541.107H42.8651V534.421L41.1936 535.35ZM31.5365 534.143V536.743H37.5722C37.9436 536.743 38.3151 536.65 38.6865 536.464L41.1936 535.071L41.6579 534.793C42.0294 534.607 42.3079 534.328 42.4936 533.957C42.6793 533.586 42.7722 533.214 42.7722 532.843V532.193H33.5794C33.0222 532.193 32.5579 532.379 32.1865 532.75C31.8151 533.121 31.5365 533.586 31.5365 534.143Z" fill="#50D955"/>
<path d="M48.0649 533.771L50.8506 532.193L53.172 530.893C53.5435 530.707 53.9149 530.614 54.2863 530.614H57.3506C58.372 530.614 59.2078 530.986 59.8578 531.636C60.6006 532.379 60.8792 533.214 60.8792 534.143V541.107H59.3006V534.143C59.3006 533.586 59.1149 533.121 58.7435 532.75C58.372 532.379 57.9078 532.193 57.3506 532.193H52.1506C51.7792 532.193 51.4078 532.286 51.0363 532.471L49.1792 533.493C48.8078 533.678 48.5292 533.957 48.3435 534.328C48.1578 534.7 48.0649 535.071 48.0649 535.443V541.107H46.4863V530.521H48.0649V533.771Z" fill="#50D955"/>
<path d="M64.4086 530.521V541.107H62.8301V530.521H64.4086Z" fill="#50D955"/>
<path d="M68.1215 541.014V541.107H66.543V530.521H77.4073C77.8715 530.521 78.3358 530.614 78.8001 530.8C79.2644 530.986 79.6358 531.264 79.9144 531.543C80.193 531.821 80.4715 532.286 80.6573 532.657C80.843 533.121 80.9358 533.586 80.9358 534.05C80.9358 535.071 80.5644 535.907 79.9144 536.557C79.1715 537.3 78.3358 537.578 77.4073 537.578H72.2072C71.8358 537.578 71.4644 537.671 71.093 537.857L69.2358 538.878C68.8644 539.064 68.5858 539.342 68.4001 539.714C68.2144 540.178 68.1215 540.549 68.1215 541.014ZM68.1215 534.514V539.342L70.9073 537.764L73.2287 536.464C73.6001 536.278 73.9715 536.185 74.343 536.185H77.4073C77.9644 536.185 78.4287 536 78.8001 535.628C79.1715 535.257 79.3573 534.793 79.3573 534.236C79.3573 533.678 79.1715 533.214 78.8001 532.843C78.4287 532.471 77.9644 532.286 77.4073 532.286H68.2144V534.514H68.1215Z" fill="#50D955"/>
<path d="M84.0024 539.528H94.4953C94.8667 539.528 95.2381 539.435 95.6096 539.25L97.0024 538.507V538.878L95.7953 539.528L93.4738 540.828C93.1024 541.014 92.731 541.107 92.3596 541.107H82.4238V530.521H84.0024V539.528Z" fill="#50D955"/>
<path d="M109.166 535.35L108.888 535.535L106.938 536.65L104.616 537.95C104.245 538.135 103.873 538.228 103.502 538.228H99.602V541.014H98.0234V534.05C98.0234 533.028 98.3948 532.193 99.0448 531.543C99.7877 530.8 100.623 530.521 101.552 530.521H112.416V541.107H110.838V534.421L109.166 535.35ZM99.5091 534.143V536.743H105.545C105.916 536.743 106.288 536.65 106.659 536.464L109.166 535.071L109.631 534.793C110.002 534.607 110.281 534.328 110.466 533.957C110.652 533.586 110.745 533.214 110.745 532.843V532.193H101.552C100.995 532.193 100.531 532.379 100.159 532.75C99.6949 533.121 99.5091 533.586 99.5091 534.143Z" fill="#50D955"/>
<path d="M113.623 532.936V530.521H115.202V532.564C115.202 532.936 115.294 533.307 115.48 533.678C115.666 534.05 115.944 534.328 116.316 534.514L116.409 534.607C116.502 534.7 116.687 534.7 116.78 534.7H124.766C124.952 534.7 125.044 534.7 125.137 534.607L125.23 534.514C125.602 534.328 125.88 534.05 126.066 533.678C126.252 533.307 126.344 532.936 126.344 532.564V530.521H127.923V532.936C127.923 533.214 127.83 533.493 127.552 533.586L126.344 534.328L125.694 534.7L123.93 535.721L123.652 535.907L123.094 536.185C123.002 536.278 122.816 536.278 122.723 536.278H121.702V541.014H120.123V536.278H119.009C118.823 536.278 118.73 536.278 118.637 536.185L118.08 535.907L116.037 534.7L115.387 534.328L114.18 533.586C113.809 533.493 113.623 533.214 113.623 532.936Z" fill="#50D955"/>
<path d="M28.6576 579.828V581.407H19.5576C18.8147 581.407 18.1647 581.592 17.5147 582.057C16.8647 582.428 16.4933 582.985 16.2147 583.635C16.029 584.099 15.9362 584.564 15.9362 585.121C15.9362 585.492 15.9362 585.771 16.029 586.142C16.2147 586.885 16.679 587.535 17.329 588.092C17.979 588.556 18.7219 588.835 19.5576 588.835H25.8719C26.2433 588.835 26.6147 588.742 26.9862 588.556H27.079L28.6576 587.628V587.999L27.1719 588.835L24.9433 590.135C24.5719 590.32 24.2005 590.413 23.829 590.413H19.5576C18.9076 590.413 18.3504 590.32 17.7004 590.042C17.1433 589.856 16.5862 589.485 16.1219 589.113C15.6576 588.742 15.2862 588.278 14.9147 587.721C14.6362 587.163 14.3576 586.606 14.2647 586.049C14.1719 585.771 14.1719 585.399 14.1719 585.121C14.1719 584.192 14.4504 583.264 14.9147 582.428C15.379 581.592 16.029 580.942 16.8647 580.478C17.7005 580.014 18.5362 579.735 19.5576 579.735H28.6576V579.828Z" fill="#50D955"/>
<path d="M41.1917 584.75L40.9131 584.935L38.9631 586.05L36.6417 587.35C36.2703 587.535 35.8988 587.628 35.5274 587.628H31.6274V590.414H30.0488V583.45C30.0488 582.428 30.4203 581.593 31.0703 580.943C31.8131 580.2 32.6488 579.921 33.5774 579.921H44.4417V590.506H42.8631V583.821L41.1917 584.75ZM31.5345 583.45V586.05H37.5703C37.9417 586.05 38.3131 585.957 38.6845 585.771L41.1917 584.378L41.656 584.1C42.0274 583.914 42.306 583.635 42.4917 583.264C42.6774 582.893 42.7703 582.521 42.7703 582.15V581.5H33.5774C33.0203 581.5 32.556 581.686 32.1845 582.057C31.8131 582.428 31.5345 582.893 31.5345 583.45Z" fill="#50D955"/>
<path d="M48.0649 583.078L50.8506 581.499L53.172 580.2C53.5435 580.014 53.9149 579.921 54.2863 579.921H57.3506C58.372 579.921 59.2078 580.292 59.8578 580.942C60.6006 581.685 60.8792 582.521 60.8792 583.449V590.413H59.3006V583.449C59.3006 582.892 59.1149 582.428 58.7435 582.057C58.372 581.685 57.9078 581.499 57.3506 581.499H52.1506C51.7792 581.499 51.4078 581.592 51.0363 581.778L49.1792 582.799C48.8078 582.985 48.5292 583.264 48.3435 583.635C48.1578 584.006 48.0649 584.378 48.0649 584.749V590.413H46.4863V579.828H48.0649V583.078Z" fill="#50D955"/>
<path d="M64.4086 579.828V590.413H62.8301V579.828H64.4086Z" fill="#50D955"/>
<path d="M68.1215 590.32V590.413H66.543V579.828H77.4073C77.8715 579.828 78.3358 579.921 78.8001 580.107C79.2644 580.292 79.6358 580.571 79.9144 580.849C80.193 581.128 80.4715 581.592 80.6573 581.964C80.843 582.428 80.9358 582.892 80.9358 583.356C80.9358 584.378 80.5644 585.214 79.9144 585.863C79.1715 586.606 78.3358 586.885 77.4073 586.885H72.2072C71.8358 586.885 71.4644 586.978 71.093 587.163L69.2358 588.185C68.8644 588.37 68.5858 588.649 68.4001 589.02C68.2144 589.578 68.1215 589.949 68.1215 590.32ZM68.1215 583.821V588.649L70.9073 587.071L73.2287 585.771C73.6001 585.585 73.9715 585.492 74.343 585.492H77.4073C77.9644 585.492 78.4287 585.306 78.8001 584.935C79.1715 584.564 79.3573 584.099 79.3573 583.542C79.3573 582.985 79.1715 582.521 78.8001 582.149C78.4287 581.778 77.9644 581.592 77.4073 581.592H68.2144V583.821H68.1215Z" fill="#50D955"/>
<path d="M84.0005 588.835H94.4933C94.8647 588.835 95.2362 588.742 95.6076 588.556L97.0005 587.813V588.185L95.7933 588.835L93.4719 590.135C93.1005 590.32 92.729 590.413 92.3576 590.413H82.4219V579.828H84.0005V588.835Z" fill="#50D955"/>
<path d="M109.164 584.75L108.886 584.935L106.936 586.05L104.614 587.35C104.243 587.535 103.871 587.628 103.5 587.628H99.6V590.414H98.0215V583.45C98.0215 582.428 98.3929 581.593 99.0429 580.943C99.7857 580.2 100.621 579.921 101.55 579.921H112.414V590.506H110.836V583.821L109.164 584.75ZM99.5072 583.45V586.05H105.543C105.914 586.05 106.286 585.957 106.657 585.771L109.164 584.378L109.629 584.1C110 583.914 110.279 583.635 110.464 583.264C110.65 582.893 110.743 582.521 110.743 582.15V581.5H101.55C100.993 581.5 100.529 581.686 100.157 582.057C99.6929 582.428 99.5072 582.893 99.5072 583.45Z" fill="#50D955"/>
<path d="M113.623 582.242V579.828H115.202V581.871C115.202 582.242 115.294 582.614 115.48 582.985C115.666 583.356 115.944 583.635 116.316 583.821L116.409 583.914C116.502 584.006 116.687 584.006 116.78 584.006H124.766C124.952 584.006 125.044 584.006 125.137 583.914L125.23 583.821C125.602 583.635 125.88 583.356 126.066 582.985C126.252 582.614 126.344 582.242 126.344 581.871V579.828H127.923V582.242C127.923 582.521 127.83 582.799 127.552 582.892L126.344 583.635L125.694 584.006L123.93 585.028L123.652 585.214L123.094 585.492C123.002 585.585 122.816 585.585 122.723 585.585H121.702V590.32H120.123V585.585H119.009C118.823 585.585 118.73 585.585 118.637 585.492L118.08 585.214L116.037 584.006L115.387 583.635L114.18 582.892C113.809 582.799 113.623 582.521 113.623 582.242Z" fill="#50D955"/>
<path d="M28.6586 563.393V564.971H19.5586C18.8158 564.971 18.1658 565.157 17.5158 565.621C16.8658 565.993 16.4944 566.55 16.2158 567.2C16.0301 567.664 15.9372 568.128 15.9372 568.685C15.9372 569.057 15.9372 569.335 16.0301 569.707C16.2158 570.449 16.6801 571.099 17.3301 571.656C17.9801 572.121 18.7229 572.399 19.5586 572.399H25.8729C26.2444 572.399 26.6158 572.306 26.9872 572.121H27.0801L28.6586 571.192V571.564L27.1729 572.399L24.8515 573.699C24.4801 573.885 24.1086 573.978 23.7372 573.978H19.4658C18.8158 573.978 18.2587 573.885 17.6087 573.606C17.0515 573.421 16.4944 573.049 16.0301 572.678C15.5658 572.306 15.1944 571.842 14.8229 571.285C14.5444 570.728 14.2658 570.171 14.1729 569.614C14.0801 569.335 14.0801 568.964 14.0801 568.685C14.0801 567.757 14.3587 566.828 14.8229 565.992C15.2872 565.157 15.9372 564.507 16.7729 564.043C17.6086 563.578 18.4444 563.3 19.4658 563.3H28.6586V563.393Z" fill="#053EC6"/>
<path d="M41.1936 568.314L40.9151 568.5L38.9651 569.614L36.6436 570.914C36.2722 571.1 35.9008 571.193 35.5293 571.193H31.6293V573.978H30.0508V567.014C30.0508 565.993 30.4222 565.157 31.0722 564.507C31.8151 563.764 32.6508 563.486 33.5794 563.486H44.4436V574.071H42.8651V567.386L41.1936 568.314ZM31.5365 567.014V569.614H37.5722C37.9436 569.614 38.3151 569.521 38.6865 569.335L41.1936 567.943L41.6579 567.664C42.0294 567.478 42.3079 567.2 42.4936 566.828C42.6793 566.457 42.7722 566.086 42.7722 565.714V565.064H33.5794C33.0222 565.064 32.5579 565.25 32.1865 565.621C31.8151 565.993 31.5365 566.457 31.5365 567.014Z" fill="#053EC6"/>
<path d="M48.0649 566.642L50.8506 565.064L53.172 563.764C53.5435 563.578 53.9149 563.485 54.2863 563.485H57.3506C58.372 563.485 59.2078 563.857 59.8578 564.507C60.6006 565.25 60.8792 566.085 60.8792 567.014V573.978H59.3006V567.014C59.3006 566.457 59.1149 565.992 58.7435 565.621C58.372 565.25 57.9078 565.064 57.3506 565.064H52.1506C51.7792 565.064 51.4078 565.157 51.0363 565.342L49.1792 566.364C48.8078 566.55 48.5292 566.828 48.3435 567.2C48.1578 567.571 48.0649 567.942 48.0649 568.314V573.978H46.4863V563.393H48.0649V566.642Z" fill="#053EC6"/>
<path d="M64.4086 563.393V573.978H62.8301V563.393H64.4086Z" fill="#053EC6"/>
<path d="M68.1215 573.885V573.978H66.543V563.393H77.4073C77.8715 563.393 78.3358 563.485 78.8001 563.671C79.2644 563.857 79.6358 564.135 79.9144 564.414C80.193 564.693 80.4715 565.157 80.6573 565.528C80.843 565.992 80.9358 566.457 80.9358 566.921C80.9358 567.942 80.5644 568.778 79.9144 569.428C79.1715 570.171 78.3358 570.449 77.4073 570.449H72.2072C71.8358 570.449 71.4644 570.542 71.093 570.728L69.2358 571.749C68.8644 571.935 68.5858 572.213 68.4001 572.585C68.2144 573.142 68.1215 573.513 68.1215 573.885ZM68.1215 567.385V572.213L70.9073 570.635L73.2287 569.335C73.6001 569.149 73.9715 569.057 74.343 569.057H77.4073C77.9644 569.057 78.4287 568.871 78.8001 568.499C79.1715 568.128 79.3573 567.664 79.3573 567.107C79.3573 566.55 79.1715 566.085 78.8001 565.714C78.4287 565.342 77.9644 565.157 77.4073 565.157H68.2144V567.385H68.1215Z" fill="#053EC6"/>
<path d="M84.0024 572.399H94.4953C94.8667 572.399 95.2381 572.306 95.6096 572.121L97.0024 571.378V571.749L95.7953 572.399L93.4738 573.699C93.1024 573.885 92.731 573.978 92.3596 573.978H82.4238V563.393H84.0024V572.399Z" fill="#053EC6"/>
<path d="M109.166 568.314L108.888 568.5L106.938 569.614L104.616 570.914C104.245 571.1 103.873 571.193 103.502 571.193H99.602V573.978H98.0234V567.014C98.0234 565.993 98.3948 565.157 99.0448 564.507C99.7877 563.764 100.623 563.486 101.552 563.486H112.416V574.071H110.838V567.386L109.166 568.314ZM99.5091 567.014V569.614H105.545C105.916 569.614 106.288 569.521 106.659 569.335L109.166 567.943L109.631 567.664C110.002 567.478 110.281 567.2 110.466 566.828C110.652 566.457 110.745 566.086 110.745 565.714V565.064H101.552C100.995 565.064 100.531 565.25 100.159 565.621C99.6949 565.993 99.5091 566.457 99.5091 567.014Z" fill="#053EC6"/>
<path d="M113.623 565.807V563.393H115.202V565.435C115.202 565.807 115.294 566.178 115.48 566.55C115.666 566.921 115.944 567.199 116.316 567.385L116.409 567.478C116.502 567.571 116.687 567.571 116.78 567.571H124.766C124.952 567.571 125.044 567.571 125.137 567.478L125.23 567.385C125.602 567.199 125.88 566.921 126.066 566.55C126.252 566.178 126.344 565.807 126.344 565.435V563.393H127.923V565.807C127.923 566.085 127.83 566.364 127.552 566.457L126.344 567.2L125.694 567.571L123.93 568.592L123.652 568.778L123.094 569.057C123.002 569.149 122.816 569.149 122.723 569.149H121.702V573.885H120.123V569.149H119.009C118.823 569.149 118.73 569.149 118.637 569.057L118.08 568.778L116.037 567.571L115.387 567.2L114.18 566.457C113.809 566.364 113.623 566.085 113.623 565.807Z" fill="#053EC6"/>
<path d="M28.6586 514.085V515.664H19.5586C18.8158 515.664 18.1658 515.849 17.5158 516.313C16.8658 516.685 16.4944 517.242 16.2158 517.892C16.0301 518.356 15.9372 518.82 15.9372 519.378C15.9372 519.749 15.9372 520.028 16.0301 520.399C16.2158 521.142 16.6801 521.792 17.3301 522.349C17.9801 522.813 18.7229 523.092 19.5586 523.092H25.8729C26.2444 523.092 26.6158 522.999 26.9872 522.813H27.0801L28.6586 521.885V522.256L27.1729 523.092L24.8515 524.392C24.4801 524.577 24.1086 524.67 23.7372 524.67H19.4658C18.8158 524.67 18.2587 524.577 17.6087 524.299C17.0515 524.113 16.4944 523.742 16.0301 523.37C15.5658 522.999 15.1944 522.535 14.8229 521.977C14.5444 521.42 14.2658 520.863 14.1729 520.306C14.0801 520.028 14.0801 519.656 14.0801 519.378C14.0801 518.449 14.3587 517.521 14.8229 516.685C15.2872 515.849 15.9372 515.199 16.7729 514.735C17.6086 514.271 18.4444 513.992 19.4658 513.992H28.6586V514.085Z" fill="#053EC6"/>
<path d="M41.1936 518.914L40.9151 519.099L38.9651 520.214L36.6436 521.514C36.2722 521.699 35.9008 521.792 35.5293 521.792H31.6293V524.578H30.0508V517.707C30.0508 516.685 30.4222 515.85 31.0722 515.2C31.8151 514.457 32.6508 514.178 33.5794 514.178H44.4436V524.763H42.8651V518.078L41.1936 518.914ZM31.5365 517.707V520.306H37.5722C37.9436 520.306 38.3151 520.214 38.6865 520.028L41.1936 518.635L41.6579 518.357C42.0294 518.171 42.3079 517.892 42.4936 517.521C42.6793 517.149 42.7722 516.778 42.7722 516.407V515.757H33.5794C33.0222 515.757 32.5579 515.942 32.1865 516.314C31.8151 516.685 31.5365 517.149 31.5365 517.707Z" fill="#053EC6"/>
<path d="M48.0649 517.335L50.8506 515.756L53.172 514.456C53.5435 514.271 53.9149 514.178 54.2863 514.178H57.3506C58.372 514.178 59.2078 514.549 59.8578 515.199C60.6006 515.942 60.8792 516.778 60.8792 517.706V524.67H59.3006V517.706C59.3006 517.149 59.1149 516.685 58.7435 516.313C58.372 515.942 57.9078 515.756 57.3506 515.756H52.1506C51.7792 515.756 51.4078 515.849 51.0363 516.035L49.1792 517.056C48.8078 517.242 48.5292 517.52 48.3435 517.892C48.1578 518.263 48.0649 518.635 48.0649 519.006V524.67H46.4863V514.085H48.0649V517.335Z" fill="#053EC6"/>
<path d="M64.4086 514.085V524.67H62.8301V514.085H64.4086Z" fill="#053EC6"/>
<path d="M68.1215 524.577V524.67H66.543V514.085H77.4073C77.8715 514.085 78.3358 514.178 78.8001 514.364C79.2644 514.549 79.6358 514.828 79.9144 515.106C80.193 515.385 80.4715 515.849 80.6573 516.221C80.843 516.685 80.9358 517.149 80.9358 517.613C80.9358 518.635 80.5644 519.47 79.9144 520.12C79.1715 520.863 78.3358 521.142 77.4073 521.142H72.2072C71.8358 521.142 71.4644 521.235 71.093 521.42L69.2358 522.442C68.8644 522.627 68.5858 522.906 68.4001 523.277C68.2144 523.742 68.1215 524.113 68.1215 524.577ZM68.1215 518.078V522.906L70.9073 521.327L73.2287 520.027C73.6001 519.842 73.9715 519.749 74.343 519.749H77.4073C77.9644 519.749 78.4287 519.563 78.8001 519.192C79.1715 518.82 79.3573 518.356 79.3573 517.799C79.3573 517.242 79.1715 516.778 78.8001 516.406C78.4287 516.035 77.9644 515.849 77.4073 515.849H68.2144V518.078H68.1215Z" fill="#053EC6"/>
<path d="M84.0024 523.092H94.4953C94.8667 523.092 95.2381 522.999 95.6096 522.813L97.0024 522.07V522.442L95.7953 523.092L93.4738 524.391C93.1024 524.577 92.731 524.67 92.3596 524.67H82.4238V514.085H84.0024V523.092Z" fill="#053EC6"/>
<path d="M109.166 518.914L108.888 519.099L106.938 520.214L104.616 521.514C104.245 521.699 103.873 521.792 103.502 521.792H99.602V524.578H98.0234V517.707C98.0234 516.685 98.3948 515.85 99.0448 515.2C99.7877 514.457 100.623 514.178 101.552 514.178H112.416V524.763H110.838V518.078L109.166 518.914ZM99.5091 517.707V520.306H105.545C105.916 520.306 106.288 520.214 106.659 520.028L109.166 518.635L109.631 518.357C110.002 518.171 110.281 517.892 110.466 517.521C110.652 517.149 110.745 516.778 110.745 516.407V515.757H101.552C100.995 515.757 100.531 515.942 100.159 516.314C99.6949 516.685 99.5091 517.149 99.5091 517.707Z" fill="#053EC6"/>
<path d="M113.623 516.499V514.085H115.202V516.128C115.202 516.499 115.294 516.871 115.48 517.242C115.666 517.613 115.944 517.892 116.316 518.078L116.409 518.17C116.502 518.263 116.687 518.263 116.78 518.263H124.766C124.952 518.263 125.044 518.263 125.137 518.17L125.23 518.078C125.602 517.892 125.88 517.613 126.066 517.242C126.252 516.871 126.344 516.499 126.344 516.128V514.085H127.923V516.499C127.923 516.778 127.83 517.056 127.552 517.149L126.344 517.892L125.694 518.263L123.93 519.285L123.652 519.47L123.094 519.749C123.002 519.842 122.816 519.842 122.723 519.842H121.702V524.577H120.123V519.842H119.009C118.823 519.842 118.73 519.842 118.637 519.749L118.08 519.47L116.037 518.263L115.387 517.892L114.18 517.149C113.809 517.056 113.623 516.778 113.623 516.499Z" fill="#053EC6"/>
<path d="M28.6586 497.649V499.228H19.5586C18.8158 499.228 18.1658 499.414 17.5158 499.878C16.8658 500.249 16.4944 500.806 16.2158 501.456C16.0301 501.921 15.9372 502.385 15.9372 502.942C15.9372 503.313 15.9372 503.592 16.0301 503.963C16.2158 504.706 16.6801 505.356 17.3301 505.913C17.9801 506.378 18.7229 506.656 19.5586 506.656H25.8729C26.2444 506.656 26.6158 506.563 26.9872 506.378H27.0801L28.6586 505.449V505.82L27.1729 506.656L24.8515 507.956C24.4801 508.142 24.1086 508.235 23.7372 508.235H19.4658C18.8158 508.235 18.2587 508.142 17.6087 507.863C17.0515 507.677 16.4944 507.306 16.0301 506.935C15.5658 506.563 15.1944 506.099 14.8229 505.542C14.5444 504.985 14.2658 504.428 14.1729 503.871C14.0801 503.592 14.0801 503.221 14.0801 502.942C14.0801 502.014 14.3587 501.085 14.8229 500.249C15.2872 499.414 15.9372 498.764 16.7729 498.299C17.6086 497.835 18.4444 497.557 19.4658 497.557H28.6586V497.649Z" fill="#E023E5"/>
<path d="M41.1936 502.478L40.9151 502.663L38.9651 503.778L36.6436 505.078C36.2722 505.263 35.9008 505.356 35.5293 505.356H31.6293V508.142H30.0508V501.178C30.0508 500.156 30.4222 499.321 31.0722 498.671C31.8151 497.928 32.6508 497.649 33.5794 497.649H44.4436V508.235H42.8651V501.549L41.1936 502.478ZM31.5365 501.271V503.87H37.5722C37.9436 503.87 38.3151 503.778 38.6865 503.592L41.1936 502.199L41.6579 501.921C42.0294 501.735 42.3079 501.456 42.4936 501.085C42.6793 500.714 42.7722 500.342 42.7722 499.971V499.321H33.5794C33.0222 499.321 32.5579 499.506 32.1865 499.878C31.8151 500.249 31.5365 500.714 31.5365 501.271Z" fill="#E023E5"/>
<path d="M48.0649 500.899L50.8506 499.321L53.172 498.021C53.5435 497.835 53.9149 497.742 54.2863 497.742H57.3506C58.372 497.742 59.2078 498.114 59.8578 498.764C60.6006 499.506 60.8792 500.342 60.8792 501.271V508.235H59.3006V501.271C59.3006 500.714 59.1149 500.249 58.7435 499.878C58.372 499.506 57.9078 499.321 57.3506 499.321H52.1506C51.7792 499.321 51.4078 499.414 51.0363 499.599L49.1792 500.621C48.8078 500.806 48.5292 501.085 48.3435 501.456C48.1578 501.828 48.0649 502.199 48.0649 502.571V508.235H46.4863V497.649H48.0649V500.899Z" fill="#E023E5"/>
<path d="M64.4086 497.649V508.235H62.8301V497.649H64.4086Z" fill="#E023E5"/>
<path d="M68.1215 508.142V508.235H66.543V497.649H77.4073C77.8715 497.649 78.3358 497.742 78.8001 497.928C79.2644 498.114 79.6358 498.392 79.9144 498.671C80.193 498.949 80.4715 499.414 80.6573 499.785C80.843 500.249 80.9358 500.714 80.9358 501.178C80.9358 502.199 80.5644 503.035 79.9144 503.685C79.1715 504.428 78.3358 504.706 77.4073 504.706H72.2072C71.8358 504.706 71.4644 504.799 71.093 504.985L69.2358 506.006C68.8644 506.192 68.5858 506.47 68.4001 506.842C68.2144 507.306 68.1215 507.677 68.1215 508.142ZM68.1215 501.642V506.47L70.9073 504.892L73.2287 503.592C73.6001 503.406 73.9715 503.313 74.343 503.313H77.4073C77.9644 503.313 78.4287 503.128 78.8001 502.756C79.1715 502.385 79.3573 501.921 79.3573 501.363C79.3573 500.806 79.1715 500.342 78.8001 499.971C78.4287 499.599 77.9644 499.414 77.4073 499.414H68.2144V501.642H68.1215Z" fill="#E023E5"/>
<path d="M84.0024 506.656H94.4953C94.8667 506.656 95.2381 506.563 95.6096 506.377L97.0024 505.635V506.006L95.7953 506.656L93.4738 507.956C93.1024 508.142 92.731 508.235 92.3596 508.235H82.4238V497.649H84.0024V506.656Z" fill="#E023E5"/>
<path d="M109.166 502.478L108.888 502.663L106.938 503.778L104.616 505.078C104.245 505.263 103.873 505.356 103.502 505.356H99.602V508.142H98.0234V501.178C98.0234 500.156 98.3948 499.321 99.0448 498.671C99.7877 497.928 100.623 497.649 101.552 497.649H112.416V508.235H110.838V501.549L109.166 502.478ZM99.5091 501.271V503.87H105.545C105.916 503.87 106.288 503.778 106.659 503.592L109.166 502.199L109.631 501.921C110.002 501.735 110.281 501.456 110.466 501.085C110.652 500.714 110.745 500.342 110.745 499.971V499.321H101.552C100.995 499.321 100.531 499.506 100.159 499.878C99.6949 500.249 99.5091 500.714 99.5091 501.271Z" fill="#E023E5"/>
<path d="M113.623 500.064V497.649H115.202V499.692C115.202 500.064 115.294 500.435 115.48 500.806C115.666 501.178 115.944 501.456 116.316 501.642L116.409 501.735C116.502 501.828 116.687 501.828 116.78 501.828H124.766C124.952 501.828 125.044 501.828 125.137 501.735L125.23 501.642C125.602 501.456 125.88 501.178 126.066 500.806C126.252 500.435 126.344 500.064 126.344 499.692V497.649H127.923V500.064C127.923 500.342 127.83 500.621 127.552 500.714L126.344 501.456L125.694 501.828L123.93 502.849L123.652 503.035L123.094 503.313C123.002 503.406 122.816 503.406 122.723 503.406H121.702V508.142H120.123V503.406H119.009C118.823 503.406 118.73 503.406 118.637 503.313L118.08 503.035L116.037 501.828L115.387 501.456L114.18 500.714C113.809 500.528 113.623 500.342 113.623 500.064Z" fill="#E023E5"/>
<path d="M28.6586 481.214V482.792H19.5586C18.8158 482.792 18.1658 482.978 17.5158 483.442C16.8658 483.814 16.4944 484.371 16.2158 485.021C16.0301 485.485 15.9372 485.949 15.9372 486.506C15.9372 486.878 15.9372 487.156 16.0301 487.528C16.2158 488.271 16.6801 488.921 17.3301 489.478C17.9801 489.942 18.7229 490.221 19.5586 490.221H25.8729C26.2444 490.221 26.6158 490.128 26.9872 489.942H27.0801L28.6586 489.013V489.385L27.1729 490.221L24.8515 491.52C24.4801 491.706 24.1086 491.799 23.7372 491.799H19.4658C18.8158 491.799 18.2587 491.706 17.6087 491.428C17.0515 491.242 16.4944 490.871 16.0301 490.499C15.5658 490.128 15.1944 489.663 14.8229 489.106C14.5444 488.549 14.2658 487.992 14.1729 487.435C14.0801 487.156 14.0801 486.785 14.0801 486.506C14.0801 485.578 14.3587 484.649 14.8229 483.814C15.2872 482.978 15.9372 482.328 16.7729 481.864C17.6086 481.4 18.4444 481.121 19.4658 481.121H28.6586V481.214Z" fill="#50D955"/>
<path d="M41.1936 486.042L40.9151 486.228L38.9651 487.342L36.6436 488.642C36.2722 488.828 35.9008 488.921 35.5293 488.921H31.6293V491.706H30.0508V484.742C30.0508 483.721 30.4222 482.885 31.0722 482.235C31.8151 481.492 32.6508 481.214 33.5794 481.214H44.4436V491.799H42.8651V485.114L41.1936 486.042ZM31.5365 484.835V487.435H37.5722C37.9436 487.435 38.3151 487.342 38.6865 487.156L41.1936 485.764L41.6579 485.485C42.0294 485.299 42.3079 485.021 42.4936 484.649C42.6793 484.278 42.7722 483.907 42.7722 483.535V482.885H33.5794C33.0222 482.885 32.5579 483.071 32.1865 483.442C31.8151 483.814 31.5365 484.278 31.5365 484.835Z" fill="#50D955"/>
<path d="M48.0649 484.464L50.8506 482.885L53.172 481.585C53.5435 481.4 53.9149 481.307 54.2863 481.307H57.3506C58.372 481.307 59.2078 481.678 59.8578 482.328C60.6006 483.071 60.8792 483.907 60.8792 484.835V491.799H59.3006V484.835C59.3006 484.278 59.1149 483.814 58.7435 483.442C58.372 483.071 57.9078 482.885 57.3506 482.885H52.1506C51.7792 482.885 51.4078 482.978 51.0363 483.164L49.1792 484.185C48.8078 484.371 48.5292 484.649 48.3435 485.021C48.1578 485.392 48.0649 485.764 48.0649 486.135V491.799H46.4863V481.214H48.0649V484.464Z" fill="#50D955"/>
<path d="M64.4086 481.214V491.799H62.8301V481.214H64.4086Z" fill="#50D955"/>
<path d="M68.1215 491.706V491.799H66.543V481.214H77.4073C77.8715 481.214 78.3358 481.307 78.8001 481.492C79.2644 481.678 79.6358 481.957 79.9144 482.235C80.193 482.514 80.4715 482.978 80.6573 483.349C80.843 483.814 80.9358 484.278 80.9358 484.742C80.9358 485.764 80.5644 486.599 79.9144 487.249C79.1715 487.992 78.3358 488.271 77.4073 488.271H72.2072C71.8358 488.271 71.4644 488.363 71.093 488.549L69.2358 489.571C68.8644 489.756 68.5858 490.035 68.4001 490.406C68.2144 490.87 68.1215 491.242 68.1215 491.706ZM68.1215 485.114V489.942L70.9073 488.363L73.2287 487.064C73.6001 486.878 73.9715 486.785 74.343 486.785H77.4073C77.9644 486.785 78.4287 486.599 78.8001 486.228C79.1715 485.856 79.3573 485.392 79.3573 484.835C79.3573 484.278 79.1715 483.814 78.8001 483.442C78.4287 483.071 77.9644 482.885 77.4073 482.885H68.2144V485.114H68.1215Z" fill="#50D955"/>
<path d="M84.0024 490.22H94.4953C94.8667 490.22 95.2381 490.128 95.6096 489.942L97.0024 489.199V489.571L95.7953 490.22L93.4738 491.52C93.1024 491.706 92.731 491.799 92.3596 491.799H82.4238V481.214H84.0024V490.22Z" fill="#50D955"/>
<path d="M109.166 486.042L108.888 486.228L106.938 487.342L104.616 488.642C104.245 488.828 103.873 488.921 103.502 488.921H99.602V491.706H98.0234V484.742C98.0234 483.721 98.3948 482.885 99.0448 482.235C99.7877 481.492 100.623 481.214 101.552 481.214H112.416V491.799H110.838V485.114L109.166 486.042ZM99.5091 484.835V487.435H105.545C105.916 487.435 106.288 487.342 106.659 487.156L109.166 485.764L109.631 485.485C110.002 485.299 110.281 485.021 110.466 484.649C110.652 484.278 110.745 483.907 110.745 483.535V482.885H101.552C100.995 482.885 100.531 483.071 100.159 483.442C99.6949 483.814 99.5091 484.278 99.5091 484.835Z" fill="#50D955"/>
<path d="M113.623 483.628V481.214H115.202V483.257C115.202 483.628 115.294 483.999 115.48 484.371C115.666 484.742 115.944 485.021 116.316 485.206L116.409 485.299C116.502 485.392 116.687 485.392 116.78 485.392H124.766C124.952 485.392 125.044 485.392 125.137 485.299L125.23 485.206C125.602 485.021 125.88 484.742 126.066 484.371C126.252 483.999 126.344 483.628 126.344 483.257V481.214H127.923V483.628C127.923 483.907 127.83 484.185 127.552 484.278L126.344 485.021L125.694 485.392L123.93 486.414L123.652 486.599L123.094 486.878C123.002 486.971 122.816 486.971 122.723 486.971H121.702V491.706H120.123V487.064H119.009C118.823 487.064 118.73 487.064 118.637 486.971L118.08 486.692L116.037 485.485L115.387 485.114L114.18 484.371C113.809 484.092 113.623 483.907 113.623 483.628Z" fill="#50D955"/>
</g>
<path d="M188.257 249.361L188.347 249.451C188.89 249.905 189.343 250.359 189.886 250.812C189.886 250.812 189.886 250.812 189.976 250.903C190.519 251.356 190.972 251.901 191.424 252.445L208.166 242.647C208.076 242.557 207.985 242.466 207.895 242.375C207.714 242.103 207.442 241.922 207.261 241.74C207.08 241.559 206.899 241.377 206.718 241.196C206.718 241.196 206.718 241.196 206.628 241.105C206.628 241.105 206.628 241.105 206.537 241.014C206.356 240.833 206.085 240.561 205.813 240.379C205.542 240.198 205.361 240.017 205.089 239.744L204.999 239.654L204.908 239.563C204.727 239.472 204.546 239.291 204.456 239.2C204.275 239.019 204.003 238.837 203.822 238.656C203.732 238.565 203.551 238.474 203.46 238.384L203.37 238.293C203.279 238.293 203.279 238.202 203.189 238.202C203.008 238.021 202.736 237.93 202.555 237.749C202.374 237.567 202.103 237.476 201.922 237.386C201.831 237.386 201.831 237.295 201.741 237.295C201.56 237.204 201.379 237.114 201.288 237.023C201.107 236.932 200.836 236.841 200.655 236.66C200.564 236.569 200.383 236.569 200.293 236.479C200.293 236.479 200.202 236.479 200.202 236.388C200.202 236.388 200.112 236.388 200.112 236.297C199.931 236.206 199.659 236.116 199.478 236.025C199.297 235.934 199.026 235.844 198.845 235.753H198.754H198.664C198.483 235.662 198.392 235.662 198.211 235.571C198.03 235.481 197.759 235.481 197.578 235.39C197.487 235.39 197.397 235.39 197.306 235.299H197.216C197.125 235.299 197.125 235.299 197.035 235.299C196.854 235.299 196.582 235.208 196.401 235.208C196.22 235.208 196.13 235.208 196.039 235.208C195.949 235.208 195.949 235.208 195.858 235.208C195.768 235.208 195.768 235.208 195.677 235.208C195.406 235.208 195.225 235.208 194.954 235.208C194.863 235.208 194.773 235.208 194.682 235.208C194.592 235.208 194.501 235.208 194.411 235.208C194.32 235.208 194.23 235.208 194.139 235.208C193.868 235.208 193.506 235.299 193.234 235.299C193.144 235.299 193.144 235.299 193.053 235.39C192.782 235.481 192.42 235.571 192.148 235.662C192.148 235.662 192.148 235.662 192.058 235.662C191.605 235.844 191.243 236.025 190.881 236.206L174.049 246.004C174.411 245.823 174.773 245.641 175.225 245.46C175.497 245.369 175.859 245.278 176.13 245.188C176.221 245.188 176.221 245.188 176.311 245.097C176.673 245.006 177.035 245.006 177.488 244.915C177.578 244.915 177.669 244.915 177.759 244.915C178.121 244.915 178.483 244.915 178.936 244.915C179.026 244.915 179.026 244.915 179.117 244.915C179.569 244.915 179.931 245.006 180.384 245.097H180.474C180.927 245.188 181.379 245.278 181.832 245.46H181.922C182.375 245.641 182.917 245.823 183.37 246.004C183.37 246.004 183.46 246.004 183.46 246.095C184.003 246.367 184.456 246.548 184.999 246.911C185.542 247.274 186.085 247.546 186.628 248L186.718 248.091C187.261 248.544 187.714 248.998 188.257 249.361Z" fill="url(#paint0_linear_5686_2533)"/>
<path d="M200.383 231.398L200.292 273.583C200.292 274.127 200.292 274.762 200.202 275.306C200.202 275.397 200.202 275.397 200.202 275.488C200.111 275.941 200.111 276.486 200.021 276.939C200.021 277.03 200.021 277.03 200.021 277.121C199.93 277.574 199.84 278.028 199.659 278.391C199.659 278.481 199.568 278.572 199.568 278.572C199.478 278.935 199.297 279.298 199.116 279.661C199.116 279.661 199.116 279.751 199.025 279.751C198.844 280.114 198.663 280.477 198.392 280.84C198.12 281.294 197.758 281.747 197.306 282.11C197.216 282.201 197.125 282.292 197.035 282.382C196.673 282.745 196.22 283.108 195.768 283.38L212.509 273.583C212.962 273.31 213.414 272.948 213.776 272.585C213.867 272.494 213.957 272.403 214.048 272.312C214.41 271.95 214.772 271.496 215.134 271.042C215.315 270.68 215.496 270.407 215.677 269.954C215.677 269.954 215.677 269.863 215.767 269.863C215.858 269.591 215.948 269.409 216.039 269.137C216.129 269.047 216.129 268.865 216.129 268.774C216.129 268.684 216.22 268.593 216.22 268.593C216.22 268.502 216.31 268.502 216.31 268.412C216.401 268.139 216.491 267.867 216.491 267.595C216.491 267.504 216.491 267.414 216.582 267.323C216.582 267.232 216.582 267.232 216.582 267.142C216.582 267.051 216.582 266.96 216.672 266.869C216.672 266.597 216.763 266.416 216.763 266.144C216.763 265.962 216.763 265.871 216.763 265.69C216.763 265.599 216.763 265.599 216.763 265.509C216.763 265.418 216.763 265.418 216.763 265.327C216.763 265.055 216.763 264.874 216.763 264.601C216.763 264.329 216.763 264.148 216.763 263.876L216.853 221.691L200.383 231.398Z" fill="url(#paint1_linear_5686_2533)"/>
<path d="M231.423 256.255C231.966 256.709 232.509 257.163 232.962 257.707L233.052 257.798C233.505 258.251 234.048 258.796 234.5 259.249L251.242 249.452C251.152 249.361 251.061 249.179 250.971 249.089C250.79 248.816 250.518 248.635 250.337 248.454C250.156 248.272 249.975 248.091 249.885 248L249.794 247.909L249.704 247.819C249.523 247.637 249.251 247.365 249.07 247.184C248.889 247.002 248.618 246.821 248.346 246.549C248.346 246.549 248.346 246.549 248.256 246.458C248.256 246.458 248.256 246.458 248.165 246.367C247.984 246.186 247.803 246.095 247.622 245.913C247.441 245.732 247.17 245.551 246.989 245.369C246.898 245.278 246.808 245.188 246.717 245.188L246.627 245.097C246.536 245.006 246.446 245.006 246.446 244.916C246.265 244.734 245.993 244.643 245.812 244.462C245.631 244.371 245.36 244.19 245.179 244.099C245.088 244.099 245.088 244.008 244.998 244.008C244.817 243.918 244.636 243.827 244.545 243.736C244.364 243.646 244.093 243.555 243.912 243.373C243.821 243.283 243.64 243.283 243.55 243.192C243.55 243.192 243.459 243.192 243.459 243.101C243.459 243.101 243.369 243.101 243.369 243.01C243.188 242.92 242.917 242.829 242.736 242.738C242.555 242.648 242.283 242.557 242.102 242.466H242.012H241.921C241.74 242.375 241.65 242.375 241.469 242.285C241.288 242.194 241.016 242.194 240.835 242.103C240.745 242.103 240.654 242.103 240.564 242.013H240.473C240.383 242.013 240.383 242.013 240.292 242.013C240.111 242.013 239.84 241.922 239.659 241.922C239.568 241.922 239.387 241.922 239.297 241.922C239.206 241.922 239.206 241.922 239.116 241.922C239.116 241.922 239.025 241.922 238.935 241.922C238.663 241.922 238.482 241.922 238.211 241.922C238.12 241.922 238.03 241.922 237.939 241.922C237.849 241.922 237.758 241.922 237.668 241.922C237.577 241.922 237.487 241.922 237.396 241.922C237.125 241.922 236.763 242.013 236.491 242.013C236.401 242.013 236.401 242.013 236.31 242.103C236.039 242.194 235.767 242.285 235.405 242.375C235.405 242.375 235.405 242.375 235.315 242.375C234.862 242.557 234.5 242.738 234.138 242.92L217.396 252.717C217.758 252.536 218.12 252.355 218.573 252.173C218.844 252.082 219.206 251.992 219.478 251.901C219.568 251.901 219.568 251.901 219.659 251.81C220.021 251.719 220.383 251.719 220.835 251.629C220.926 251.629 221.016 251.629 221.107 251.629C221.469 251.629 221.831 251.629 222.283 251.629C222.374 251.629 222.374 251.629 222.464 251.629C222.917 251.629 223.279 251.719 223.731 251.81H223.822C224.274 251.901 224.727 251.992 225.179 252.173H225.27C225.722 252.355 226.265 252.536 226.718 252.717C226.718 252.717 226.808 252.717 226.808 252.808C227.351 253.08 227.804 253.262 228.347 253.625C228.89 253.987 229.433 254.26 229.975 254.713L230.066 254.804C230.428 255.439 230.971 255.893 231.423 256.255Z" fill="url(#paint2_linear_5686_2533)"/>
<path d="M260.292 215.795C260.292 215.704 260.292 215.613 260.292 215.522C260.292 215.432 260.292 215.341 260.292 215.25C260.292 215.16 260.292 215.069 260.292 214.978C260.292 214.887 260.292 214.797 260.292 214.706C260.292 214.615 260.292 214.615 260.292 214.525C260.292 214.434 260.292 214.343 260.201 214.252C260.201 214.162 260.201 214.071 260.111 213.98C260.111 213.89 260.111 213.799 260.021 213.708C260.021 213.617 260.02 213.527 259.93 213.436C259.93 213.345 259.839 213.255 259.839 213.164C259.839 213.073 259.749 212.982 259.749 212.892C259.749 212.801 259.659 212.71 259.659 212.71C259.659 212.619 259.568 212.529 259.568 212.529C259.568 212.438 259.478 212.347 259.478 212.347C259.478 212.257 259.387 212.166 259.387 212.166C259.387 212.075 259.297 211.984 259.297 211.894C259.297 211.803 259.206 211.712 259.116 211.622C259.025 211.531 258.935 211.349 258.935 211.259C258.844 211.077 258.663 210.896 258.573 210.714C258.482 210.533 258.392 210.442 258.301 210.261C258.211 210.17 258.211 210.079 258.12 210.079C258.03 209.989 258.03 209.898 257.939 209.898C257.849 209.807 257.849 209.716 257.758 209.716C257.668 209.626 257.668 209.626 257.577 209.535C257.577 209.535 257.577 209.535 257.487 209.444L257.396 209.354C257.306 209.263 257.306 209.263 257.215 209.172C257.125 209.081 257.034 209.081 257.034 208.991C256.944 208.9 256.853 208.9 256.853 208.809L256.763 208.719C256.763 208.719 256.672 208.719 256.672 208.628C256.582 208.537 256.582 208.537 256.491 208.446C256.401 208.356 256.401 208.356 256.31 208.265C256.22 208.265 256.22 208.174 256.129 208.174C256.039 208.174 256.039 208.084 255.948 208.084C255.858 208.084 255.858 207.993 255.767 207.993C255.677 207.993 255.677 207.902 255.586 207.902C255.496 207.902 255.496 207.811 255.405 207.811C255.315 207.811 255.315 207.721 255.224 207.721C255.134 207.721 255.134 207.63 255.043 207.63C254.953 207.63 254.953 207.63 254.862 207.539H254.772L211.967 195.474C211.876 195.474 211.876 195.474 211.786 195.474C211.695 195.474 211.695 195.474 211.605 195.474C211.514 195.474 211.514 195.474 211.424 195.474C211.333 195.474 211.243 195.474 211.243 195.474C211.152 195.474 211.062 195.474 211.062 195.474C210.971 195.474 210.881 195.474 210.881 195.474C210.79 195.474 210.7 195.474 210.609 195.474C210.519 195.474 210.428 195.564 210.247 195.564C210.157 195.655 209.976 195.655 209.885 195.746L193.144 205.543C193.415 205.362 193.777 205.271 194.139 205.271C194.501 205.271 194.863 205.271 195.315 205.362L238.12 217.428C238.482 217.518 238.935 217.7 239.297 217.972C239.568 218.153 239.93 218.335 240.202 218.607C240.473 218.879 240.745 219.061 241.016 219.423C241.288 219.696 241.559 220.058 241.74 220.331C242.012 220.693 242.193 220.966 242.374 221.328C242.555 221.691 242.736 222.054 242.917 222.417C243.098 222.78 243.188 223.143 243.369 223.596C243.46 223.959 243.55 224.413 243.641 224.776C243.731 225.139 243.731 225.592 243.731 225.955L243.55 280.659C243.55 281.203 243.55 281.838 243.46 282.382C243.46 282.473 243.46 282.473 243.46 282.564C243.369 283.017 243.369 283.562 243.279 284.015C243.279 284.106 243.279 284.106 243.279 284.197C243.188 284.65 243.098 285.104 242.917 285.467C242.917 285.557 242.826 285.648 242.826 285.739C242.736 286.102 242.555 286.465 242.374 286.827C242.374 286.827 242.374 286.918 242.283 286.918C242.102 287.281 241.921 287.644 241.65 288.007C241.378 288.46 241.016 288.914 240.564 289.277C240.473 289.368 240.383 289.458 240.292 289.549C239.93 289.912 239.478 290.275 239.025 290.547L255.767 280.749C256.22 280.477 256.672 280.114 257.034 279.751C257.125 279.661 257.215 279.57 257.306 279.479C257.668 279.116 258.03 278.663 258.392 278.209C258.573 277.846 258.754 277.574 258.935 277.121C258.935 277.121 258.935 277.03 259.025 277.03C259.116 276.758 259.206 276.576 259.297 276.304C259.387 276.213 259.387 276.032 259.387 275.941C259.387 275.85 259.478 275.76 259.478 275.669C259.478 275.578 259.568 275.578 259.568 275.488C259.659 275.215 259.749 274.943 259.749 274.671C259.749 274.58 259.749 274.49 259.839 274.399C259.839 274.308 259.839 274.308 259.839 274.218C259.839 274.127 259.84 274.036 259.93 273.945C259.93 273.673 260.021 273.492 260.021 273.22C260.021 273.038 260.021 272.947 260.021 272.766C260.021 272.675 260.021 272.675 260.021 272.585C260.021 272.494 260.021 272.494 260.021 272.403C260.021 272.131 260.021 271.95 260.021 271.677C260.021 271.405 260.021 271.224 260.021 270.952L260.201 216.248C260.292 215.976 260.292 215.885 260.292 215.795Z" fill="url(#paint3_linear_5686_2533)"/>
<path d="M238.935 217.79C241.378 219.242 243.55 222.78 243.55 225.774L243.369 280.477C243.369 290.184 236.491 294.176 227.985 289.277C219.478 284.378 212.691 272.494 212.691 262.787C212.691 253.08 219.568 249.088 228.075 253.987C230.337 255.348 232.509 257.162 234.5 259.34L234.591 241.105L200.383 231.489L200.293 273.673C200.293 283.38 193.415 287.372 184.908 282.473C176.402 277.574 169.614 265.69 169.614 255.983C169.614 246.276 176.492 242.284 184.999 247.183C187.261 248.544 189.433 250.358 191.424 252.536L191.514 208.537C191.514 206.088 192.962 204.727 195.044 205.362L237.849 217.428C238.211 217.337 238.573 217.518 238.935 217.79Z" fill="#50D955"/>
<path d="M223.098 325.564C223.279 325.655 223.369 325.837 223.55 325.927C224.365 326.562 225.179 327.197 225.994 327.832L226.084 327.923C226.898 328.649 227.713 329.375 228.527 330.1C228.708 330.282 228.889 330.463 229.07 330.554C229.885 331.28 230.609 332.005 231.333 332.822C231.423 332.913 231.514 333.003 231.695 333.185C232.419 333.911 233.143 334.727 233.867 335.453C233.957 335.544 234.048 335.634 234.138 335.725C234.862 336.541 235.586 337.358 236.31 338.265C236.491 338.446 236.582 338.628 236.763 338.809C237.487 339.717 238.211 340.624 238.844 341.531L255.767 331.643C255.767 331.643 255.767 331.643 255.676 331.552C255.133 330.826 254.59 330.191 254.047 329.465C253.866 329.284 253.685 329.102 253.595 328.83C253.414 328.649 253.323 328.467 253.142 328.286C252.961 328.105 252.78 327.832 252.599 327.651C252.147 327.107 251.604 326.472 251.152 325.927C251.061 325.837 251.061 325.837 250.971 325.746C250.88 325.655 250.79 325.564 250.699 325.474C250.337 325.111 249.975 324.657 249.613 324.294C249.251 323.931 248.889 323.569 248.527 323.206C248.437 323.115 248.346 323.024 248.256 322.843C248.165 322.752 248.165 322.752 248.075 322.661C247.532 322.117 246.989 321.573 246.446 321.028C246.265 320.847 246.084 320.756 245.903 320.575C245.722 320.393 245.541 320.212 245.36 320.121C245.179 319.94 244.907 319.668 244.726 319.486C244.183 318.942 243.55 318.488 243.007 318.035C243.007 318.035 243.007 318.035 242.916 318.035L242.826 317.944C242.283 317.49 241.83 317.128 241.287 316.674C241.016 316.402 240.654 316.22 240.382 316.039C240.201 315.948 240.111 315.767 239.93 315.676C239.839 315.585 239.659 315.495 239.568 315.404C239.025 315.041 238.482 314.587 237.939 314.225C237.758 314.134 237.577 314.043 237.487 313.862C237.306 313.771 237.215 313.68 237.034 313.59C236.763 313.408 236.582 313.317 236.31 313.136C235.767 312.773 235.224 312.501 234.681 312.138C234.591 312.047 234.41 311.957 234.319 311.957C233.867 311.684 233.505 311.503 233.052 311.231C232.509 310.959 231.966 310.687 231.423 310.414C231.152 310.233 230.79 310.142 230.518 309.961C230.337 309.87 230.066 309.779 229.885 309.689C229.342 309.507 228.889 309.235 228.346 309.054C227.984 308.872 227.622 308.781 227.26 308.6C227.17 308.6 227.079 308.509 227.079 308.509C226.989 308.509 226.989 308.419 226.898 308.419C226.356 308.237 225.903 308.056 225.36 307.965C224.908 307.784 224.365 307.693 223.912 307.602H223.822C223.279 307.511 222.736 307.33 222.283 307.239C221.831 307.149 221.288 307.058 220.835 306.967H220.745H220.654C220.111 306.876 219.478 306.786 218.935 306.786C218.663 306.786 218.301 306.786 218.03 306.786C217.849 306.786 217.668 306.786 217.487 306.786C217.396 306.786 217.215 306.786 217.125 306.786C216.491 306.786 215.767 306.786 215.134 306.876C215.043 306.876 215.043 306.876 214.953 306.876C214.772 306.876 214.5 306.967 214.319 306.967C213.867 307.058 213.415 307.058 212.962 307.149C212.781 307.149 212.691 307.239 212.51 307.239C212.057 307.33 211.605 307.511 211.062 307.602C210.79 307.693 210.428 307.784 210.157 307.874C209.976 307.965 209.795 308.056 209.704 308.056C209.523 308.146 209.342 308.237 209.161 308.237C208.437 308.509 207.713 308.872 206.989 309.326L190.066 319.214C190.79 318.851 191.514 318.488 192.238 318.125C192.419 318.035 192.6 317.944 192.781 317.944C193.234 317.763 193.686 317.672 194.139 317.49C194.591 317.309 195.044 317.218 195.587 317.128C196.13 317.037 196.763 316.855 197.397 316.855C197.578 316.855 197.849 316.765 198.03 316.765C198.845 316.674 199.75 316.674 200.564 316.674C200.745 316.674 200.926 316.674 201.107 316.674C202.012 316.674 202.917 316.765 203.822 316.855H203.912C204.908 317.037 205.903 317.218 206.989 317.49H207.08C208.075 317.763 209.161 318.035 210.247 318.488C210.338 318.488 210.428 318.579 210.428 318.579C211.514 318.942 212.6 319.396 213.686 319.94C214.953 320.575 216.22 321.21 217.487 321.936C218.392 322.48 219.297 323.024 220.202 323.569C220.383 323.659 220.473 323.75 220.654 323.841C221.469 324.385 222.283 324.929 223.098 325.564Z" fill="url(#paint4_linear_5686_2533)"/>
<path d="M255.857 302.612L255.586 386.89C255.586 388.432 255.495 389.884 255.405 391.245C255.405 391.335 255.405 391.517 255.405 391.608C255.314 392.878 255.133 394.148 254.862 395.327C254.862 395.508 254.771 395.69 254.771 395.781C254.5 396.96 254.228 398.049 253.957 399.137C253.866 399.319 253.866 399.5 253.776 399.772C253.414 400.77 253.142 401.677 252.69 402.494C252.599 402.675 252.599 402.766 252.509 402.947C252.056 403.945 251.513 404.943 250.88 405.85L250.789 405.941C250.246 406.758 249.703 407.483 249.07 408.209C248.889 408.391 248.708 408.663 248.436 408.844C247.984 409.388 247.441 409.842 246.898 410.296C246.717 410.477 246.445 410.659 246.264 410.84C245.54 411.475 244.726 412.019 244.002 412.473L260.925 402.585C261.739 402.131 262.463 401.587 263.187 400.952C263.368 400.77 263.64 400.589 263.821 400.407C264.364 399.954 264.816 399.5 265.359 398.956C265.54 398.774 265.721 398.502 265.993 398.321C266.626 397.595 267.169 396.869 267.712 396.053L267.803 395.962C268.346 395.055 268.888 394.148 269.341 393.241C269.341 393.15 269.341 393.15 269.431 393.059C269.522 392.878 269.522 392.787 269.612 392.605C269.884 392.061 270.155 391.517 270.336 390.882C270.427 390.519 270.608 390.156 270.698 389.884C270.789 389.702 270.879 389.521 270.879 389.249C270.97 389.067 270.97 388.886 271.06 388.705C271.241 388.07 271.422 387.344 271.603 386.618C271.694 386.346 271.694 386.074 271.784 385.892C271.784 385.711 271.875 385.62 271.875 385.439C271.965 385.167 271.965 384.985 272.056 384.713C272.146 384.078 272.237 383.443 272.327 382.808C272.327 382.445 272.418 382.082 272.418 381.719C272.418 381.629 272.418 381.447 272.418 381.356C272.418 381.175 272.418 381.084 272.508 380.903C272.599 380.268 272.599 379.633 272.599 378.998C272.599 378.363 272.599 377.728 272.599 377.093V377.002L272.87 292.724L255.857 302.612Z" fill="url(#paint5_linear_5686_2533)"/>
<path d="M247.169 253.261C247.803 253.624 248.527 254.078 249.16 254.713L296.58 295.718C300.2 298.893 302.825 304.154 302.734 308.509L302.644 331.007C302.644 336.36 298.843 338.265 294.499 335.725C293.866 335.362 293.142 334.817 292.508 334.273L255.857 302.612L255.586 386.89C255.495 411.203 238.844 422.27 217.758 410.386C217.577 410.295 217.396 410.205 217.215 410.023C194.681 396.96 176.763 364.119 179.297 338.99C181.288 319.577 195.858 311.412 213.686 319.849C214.953 320.484 216.22 321.119 217.487 321.845C225.36 326.38 232.69 333.366 238.753 341.621L239.025 258.069C238.934 252.626 242.826 250.721 247.169 253.261Z" fill="#50D955"/>
<path d="M319.657 298.258C319.657 298.167 319.657 297.986 319.657 297.895C319.657 297.804 319.657 297.623 319.657 297.532C319.657 297.441 319.657 297.26 319.657 297.169V297.079C319.657 296.988 319.657 296.897 319.657 296.806C319.657 296.625 319.567 296.534 319.567 296.353C319.567 296.171 319.476 296.081 319.476 295.899C319.476 295.718 319.386 295.627 319.386 295.446V295.355C319.386 295.264 319.295 295.173 319.295 295.083C319.295 294.901 319.205 294.811 319.205 294.629C319.205 294.448 319.114 294.357 319.024 294.176C318.933 293.994 318.933 293.903 318.843 293.722V293.631C318.843 293.54 318.752 293.45 318.752 293.359C318.662 293.268 318.662 293.087 318.571 292.996C318.481 292.905 318.481 292.724 318.39 292.633C318.3 292.543 318.3 292.361 318.209 292.27C318.209 292.18 318.119 292.089 318.119 292.089C318.119 292.089 318.119 292.089 318.119 291.998C318.119 291.908 318.029 291.908 318.029 291.817C317.938 291.635 317.847 291.545 317.757 291.363C317.666 291.091 317.486 290.91 317.395 290.728C317.395 290.637 317.305 290.547 317.305 290.547C317.214 290.456 317.124 290.275 317.124 290.184C317.033 290.002 316.943 289.821 316.762 289.64C316.581 289.367 316.4 289.186 316.309 288.914C316.309 288.914 316.309 288.823 316.219 288.823C316.219 288.823 316.219 288.823 316.219 288.732C316.128 288.642 316.038 288.551 315.947 288.37C315.857 288.279 315.766 288.097 315.585 288.007C315.495 287.916 315.404 287.734 315.314 287.644C315.223 287.553 315.133 287.462 315.042 287.372C314.952 287.281 314.861 287.099 314.68 287.009C314.59 286.918 314.409 286.737 314.318 286.646C314.228 286.555 314.047 286.374 313.956 286.283C313.866 286.192 313.775 286.192 313.775 286.102L266.355 245.097L266.264 245.006C266.174 244.915 265.993 244.825 265.902 244.734C265.812 244.643 265.631 244.552 265.541 244.462L265.45 244.371C265.45 244.371 265.45 244.371 265.36 244.371C265.269 244.28 265.269 244.28 265.179 244.189C265.088 244.099 264.907 244.008 264.817 243.917C264.726 243.827 264.636 243.736 264.455 243.736C264.455 243.736 264.364 243.736 264.364 243.645C264.274 243.554 264.183 243.554 264.093 243.464C264.002 243.373 263.912 243.373 263.731 243.282C263.64 243.192 263.55 243.192 263.369 243.101C263.278 243.01 263.188 243.01 263.007 242.919C262.916 242.919 262.826 242.829 262.645 242.829H262.554C262.464 242.829 262.373 242.738 262.283 242.738C262.192 242.738 262.011 242.647 261.921 242.647C261.83 242.647 261.649 242.557 261.559 242.557C261.468 242.557 261.287 242.557 261.197 242.466C261.106 242.466 261.016 242.466 260.925 242.466H260.835C260.744 242.466 260.563 242.466 260.473 242.466C260.292 242.466 260.201 242.466 260.02 242.466C259.839 242.466 259.658 242.466 259.568 242.557C259.387 242.557 259.206 242.647 259.025 242.738C258.753 242.829 258.572 242.919 258.391 243.01L241.378 252.717C241.74 252.536 242.192 252.354 242.645 252.263C243.097 252.173 243.55 252.173 244.002 252.173C244.455 252.173 244.998 252.354 245.541 252.536C246.084 252.717 246.627 252.989 247.17 253.261C247.532 253.443 247.803 253.624 248.165 253.896C248.165 253.896 248.165 253.896 248.256 253.896C248.618 254.169 248.889 254.35 249.251 254.713L296.671 295.718C297.124 296.081 297.576 296.534 297.938 296.988C298.391 297.441 298.753 297.895 299.115 298.349C299.115 298.349 299.115 298.349 299.115 298.439C299.477 298.893 299.748 299.346 300.02 299.8C300.11 299.891 300.201 300.072 300.201 300.163C300.472 300.617 300.744 301.161 301.015 301.705C301.015 301.705 301.015 301.705 301.015 301.796C301.287 302.34 301.558 302.885 301.739 303.429C301.92 303.973 302.101 304.517 302.282 305.152C302.282 305.152 302.282 305.152 302.282 305.243C302.463 305.788 302.554 306.332 302.644 306.876C302.735 307.42 302.735 307.965 302.735 308.509L302.644 331.007C302.644 331.642 302.554 332.277 302.463 332.822C302.463 332.822 302.463 332.822 302.463 332.912C302.373 333.457 302.192 333.91 302.011 334.364C301.83 334.727 301.649 334.999 301.377 335.271C301.287 335.362 301.196 335.453 301.106 335.543C300.834 335.815 300.563 336.088 300.201 336.269L317.124 326.381C317.486 326.199 317.757 325.927 318.029 325.655C318.119 325.564 318.209 325.473 318.3 325.383C318.39 325.292 318.481 325.111 318.571 325.02C318.662 324.838 318.752 324.657 318.843 324.476C318.933 324.294 318.933 324.203 319.024 324.022C319.114 323.841 319.114 323.75 319.205 323.568C319.205 323.387 319.295 323.296 319.295 323.115C319.295 323.024 319.295 323.024 319.295 322.933C319.295 322.933 319.295 322.933 319.295 322.843C319.295 322.752 319.295 322.752 319.295 322.661C319.295 322.57 319.295 322.389 319.386 322.298C319.386 322.208 319.386 322.026 319.386 321.935C319.386 321.845 319.386 321.663 319.386 321.573C319.386 321.482 319.386 321.3 319.386 321.21L319.476 298.711C319.657 298.53 319.657 298.439 319.657 298.258Z" fill="url(#paint6_linear_5686_2533)"/>
<path d="M167.533 210.715C223.822 243.283 269.342 322.39 269.161 387.253L268.98 435.516C268.799 500.38 223.007 526.597 166.628 493.939C110.339 461.28 64.8195 382.264 65.0005 317.4L65.1815 269.138C65.3625 204.274 111.154 178.056 167.533 210.715Z" fill="url(#paint7_linear_5686_2533)"/>
<path d="M403.729 304.155C403.729 303.883 403.729 303.611 403.729 303.248C403.729 302.613 403.639 301.978 403.639 301.343C403.639 300.617 403.548 299.891 403.548 299.165C403.548 298.621 403.458 298.077 403.458 297.442C403.367 296.807 403.367 296.081 403.277 295.446C403.277 294.992 403.186 294.539 403.186 294.176C403.096 293.269 403.005 292.271 402.915 291.364C402.824 290.819 402.824 290.275 402.734 289.731C402.734 289.549 402.734 289.368 402.643 289.186C402.462 287.463 402.191 285.739 401.919 284.015V283.925C401.919 283.652 401.829 283.471 401.829 283.199C401.557 281.747 401.376 280.296 401.105 278.844C401.014 278.572 401.014 278.3 400.924 278.028C400.833 277.302 400.652 276.667 400.471 275.941C400.29 275.125 400.109 274.308 399.928 273.401C399.838 272.948 399.747 272.494 399.566 272.04C399.385 271.315 399.204 270.498 399.023 269.773C398.842 269.228 398.752 268.593 398.661 268.049C398.48 267.323 398.299 266.688 398.118 265.962C397.937 265.237 397.756 264.42 397.485 263.694C397.394 263.331 397.304 262.969 397.213 262.606C396.942 261.608 396.67 260.61 396.399 259.703C396.218 259.068 396.037 258.433 395.856 257.798C395.766 257.616 395.766 257.435 395.675 257.253C395.132 255.53 394.589 253.715 393.956 251.992C393.956 251.992 393.956 251.992 393.956 251.901C393.865 251.719 393.865 251.629 393.775 251.447C393.232 249.905 392.689 248.363 392.146 246.73C392.055 246.458 391.965 246.276 391.874 246.004C391.693 245.46 391.422 244.825 391.241 244.281C390.969 243.464 390.607 242.648 390.336 241.74C390.155 241.196 389.883 240.652 389.702 240.107C389.431 239.472 389.159 238.837 388.888 238.112C388.707 237.658 388.526 237.114 388.345 236.66C387.983 235.753 387.53 234.755 387.168 233.848C386.987 233.304 386.716 232.85 386.535 232.306C386.444 232.124 386.354 231.943 386.263 231.761C385.539 230.128 384.815 228.495 384.001 226.772C384.001 226.681 383.91 226.681 383.91 226.59C383.729 226.137 383.458 225.774 383.277 225.32C382.644 224.05 382.01 222.689 381.377 221.419C381.286 221.238 381.196 221.057 381.105 220.875C380.562 219.877 380.019 218.879 379.567 217.791C379.114 216.974 378.752 216.158 378.3 215.251C378.209 215.069 378.119 214.978 378.028 214.797C376.58 212.166 375.132 209.535 373.594 206.904C373.503 206.723 373.322 206.451 373.232 206.269C372.87 205.634 372.417 204.999 372.055 204.274C371.422 203.185 370.788 202.187 370.155 201.098C369.612 200.191 368.979 199.193 368.436 198.286C367.802 197.197 367.078 196.2 366.445 195.202C366.264 194.839 365.992 194.476 365.811 194.204C365.63 193.841 365.359 193.569 365.178 193.297C363.277 190.484 361.377 187.763 359.386 185.041C359.386 185.041 359.386 185.041 359.386 184.95C357.938 183.045 356.581 181.14 355.042 179.326C354.952 179.235 354.952 179.144 354.861 179.054C353.775 177.693 352.689 176.332 351.603 175.062C351.422 174.79 351.151 174.518 350.97 174.246C350.97 174.246 350.97 174.246 350.97 174.155C349.703 172.613 348.345 171.07 346.988 169.528C346.897 169.438 346.897 169.347 346.807 169.347C346.445 168.893 345.992 168.44 345.54 167.986C344.725 167.079 343.821 166.081 343.006 165.174C342.825 164.992 342.644 164.811 342.554 164.629C342.011 163.994 341.377 163.45 340.834 162.815C340.201 162.18 339.567 161.454 338.934 160.819C338.662 160.547 338.481 160.366 338.21 160.094C337.576 159.458 336.943 158.823 336.309 158.188C335.766 157.644 335.223 157.1 334.68 156.555C334.409 156.283 334.047 156.011 333.685 155.648C332.961 155.013 332.327 154.378 331.604 153.743C331.151 153.29 330.608 152.836 330.156 152.382C329.794 152.02 329.432 151.747 328.979 151.385C328.255 150.749 327.622 150.114 326.898 149.57C326.445 149.207 326.083 148.844 325.631 148.482C325.178 148.119 324.726 147.756 324.273 147.302C323.549 146.758 322.916 146.123 322.192 145.579C321.83 145.306 321.468 144.943 321.106 144.671C320.563 144.218 319.929 143.764 319.386 143.311C318.753 142.857 318.12 142.313 317.486 141.859C317.215 141.678 316.943 141.496 316.672 141.224C315.857 140.68 315.043 140.135 314.319 139.5C313.776 139.137 313.233 138.684 312.69 138.321C312.509 138.23 312.418 138.14 312.237 138.049C310.789 137.051 309.341 136.144 307.893 135.146C307.803 135.055 307.712 135.055 307.622 134.964C306.264 134.148 304.998 133.331 303.64 132.515C303.278 132.334 303.007 132.152 302.645 131.971C301.559 131.336 300.473 130.701 299.387 130.156C298.934 129.975 298.572 129.703 298.12 129.521C297.577 129.249 297.034 128.977 296.491 128.614C296.038 128.433 295.586 128.161 295.224 127.979C294.5 127.616 293.866 127.344 293.142 126.981C292.69 126.709 292.147 126.528 291.695 126.255C291.514 126.165 291.333 126.074 291.061 125.983C289.704 125.348 288.346 124.804 286.989 124.26C285.631 123.715 284.274 123.171 282.916 122.717C282.735 122.627 282.554 122.627 282.373 122.536C281.921 122.355 281.378 122.173 280.925 122.082C280.201 121.81 279.568 121.629 278.844 121.357C278.482 121.266 278.12 121.175 277.849 121.084C277.215 120.903 276.672 120.722 276.039 120.631C275.586 120.54 275.134 120.359 274.681 120.268C274.229 120.177 273.686 120.087 273.233 119.905C272.6 119.724 272.057 119.633 271.423 119.542C271.152 119.452 270.79 119.361 270.428 119.361C269.885 119.27 269.342 119.179 268.799 119.089C268.075 118.998 267.441 118.816 266.717 118.726C266.446 118.726 266.265 118.635 265.994 118.635C265.451 118.544 264.908 118.544 264.274 118.454C263.55 118.363 262.826 118.272 262.102 118.272C261.921 118.272 261.65 118.181 261.469 118.181C260.926 118.181 260.473 118.181 260.021 118.091C259.116 118.091 258.301 118 257.396 118C257.125 118 256.944 118 256.672 118C255.767 118 254.772 118 253.867 118.091C253.776 118.091 253.595 118.091 253.505 118.091C252.781 118.091 252.057 118.181 251.424 118.272C250.971 118.272 250.519 118.363 250.066 118.454C249.704 118.454 249.433 118.544 249.071 118.544C247.894 118.726 246.718 118.907 245.541 119.089H245.451C245.089 119.179 244.817 119.27 244.546 119.27C243.55 119.452 242.555 119.724 241.65 119.996C241.197 120.087 240.745 120.268 240.293 120.449C239.659 120.631 239.026 120.812 238.483 120.994C238.302 121.084 238.211 121.084 238.03 121.175C237.125 121.538 236.22 121.901 235.315 122.264C234.863 122.445 234.41 122.627 234.048 122.808C232.781 123.443 231.514 124.078 230.247 124.804L94.9551 203.548C96.222 202.822 97.489 202.187 98.7559 201.552C99.2084 201.371 99.6609 201.189 100.023 201.008C100.928 200.645 101.833 200.282 102.738 199.919C103.462 199.647 104.276 199.375 105 199.193C105.453 199.012 105.905 198.921 106.358 198.74C107.263 198.468 108.258 198.286 109.254 198.014C109.525 197.923 109.887 197.833 110.158 197.833C111.335 197.56 112.602 197.379 113.869 197.197C114.231 197.197 114.502 197.107 114.864 197.107C116.041 197.016 117.127 196.835 118.303 196.835C118.394 196.835 118.575 196.835 118.665 196.835C119.842 196.744 121.018 196.744 122.195 196.744C123.009 196.744 123.914 196.744 124.819 196.835C125.543 196.835 126.267 196.925 126.9 196.925C127.624 197.016 128.348 197.107 129.072 197.107C129.887 197.197 130.701 197.288 131.516 197.379C132.24 197.47 132.873 197.56 133.597 197.742C134.502 197.923 135.317 198.014 136.221 198.195C136.855 198.286 137.398 198.468 138.031 198.558C138.936 198.74 139.932 199.012 140.837 199.284C141.47 199.465 142.013 199.647 142.647 199.738C143.642 200.01 144.728 200.373 145.724 200.736C146.176 200.917 146.719 201.008 147.172 201.189C148.71 201.733 150.248 202.278 151.787 202.913C153.325 203.548 154.864 204.183 156.493 204.909C156.945 205.09 157.488 205.362 157.941 205.634C159.027 206.179 160.203 206.723 161.289 207.267C161.832 207.539 162.375 207.812 162.918 208.174C164.366 208.991 165.904 209.807 167.352 210.624C168.981 211.622 170.701 212.62 172.33 213.618C172.42 213.708 172.511 213.708 172.601 213.799C174.23 214.797 175.768 215.886 177.397 216.974C177.94 217.337 178.483 217.791 179.026 218.154C180.112 218.879 181.108 219.696 182.194 220.421C182.827 220.875 183.461 221.419 184.094 221.873C185.09 222.599 185.995 223.324 186.9 224.141C187.624 224.685 188.257 225.23 188.981 225.865C189.886 226.59 190.791 227.407 191.696 228.133C192.42 228.768 193.144 229.312 193.777 229.947C194.682 230.763 195.497 231.489 196.402 232.306C197.126 232.941 197.759 233.576 198.483 234.211C199.388 235.027 200.203 235.934 201.108 236.751C201.741 237.386 202.374 238.021 203.008 238.656C203.913 239.563 204.818 240.47 205.723 241.378C206.266 242.013 206.899 242.557 207.442 243.192C208.438 244.281 209.433 245.369 210.519 246.549C210.881 247.002 211.334 247.456 211.786 247.909C213.234 249.542 214.591 251.175 215.949 252.808C216.13 253.08 216.401 253.352 216.582 253.625C217.759 255.076 218.935 256.437 220.021 257.888C221.469 259.703 222.827 261.608 224.275 263.422C224.275 263.513 224.365 263.513 224.365 263.604C226.356 266.325 228.256 269.047 230.157 271.859C230.609 272.494 231.062 273.22 231.514 273.855C232.148 274.853 232.872 275.941 233.505 276.939C234.139 277.846 234.682 278.844 235.315 279.752C235.949 280.84 236.582 281.838 237.216 282.927C237.759 283.834 238.302 284.65 238.754 285.558C240.293 288.188 241.74 290.819 243.188 293.45C243.731 294.448 244.184 295.446 244.727 296.444C245.27 297.442 245.813 298.44 246.265 299.438C246.989 300.889 247.713 302.431 248.437 303.883C248.618 304.336 248.89 304.699 249.071 305.153C249.976 307.058 250.79 308.963 251.605 310.868C251.786 311.412 252.057 311.866 252.238 312.41C252.872 313.862 253.415 315.223 254.048 316.674C254.319 317.309 254.591 317.944 254.862 318.579C255.405 319.94 255.948 321.301 256.401 322.662C256.582 323.206 256.853 323.841 257.034 324.385C257.668 326.2 258.301 328.014 258.935 329.828C259.025 330.01 259.025 330.1 259.116 330.282C259.749 332.278 260.383 334.183 261.016 336.179C261.197 336.814 261.378 337.449 261.559 338.084C261.921 339.445 262.374 340.805 262.736 342.166C262.917 342.892 263.098 343.618 263.279 344.434C263.641 345.704 263.912 346.974 264.184 348.244C264.365 348.97 264.546 349.696 264.727 350.512C264.998 351.782 265.27 353.143 265.541 354.413C265.722 355.139 265.813 355.774 265.994 356.5C266.355 358.223 266.627 359.947 266.898 361.58C266.898 361.852 266.989 362.034 266.989 362.306C267.26 364.211 267.532 366.207 267.803 368.112C267.894 368.656 267.894 369.2 267.984 369.745C268.165 371.105 268.256 372.466 268.437 373.918C268.527 374.553 268.527 375.188 268.618 375.913C268.708 377.184 268.799 378.544 268.889 379.814C268.889 380.449 268.98 381.084 268.98 381.629C269.07 383.443 269.07 385.258 269.07 387.163L268.889 435.425C268.889 437.33 268.799 439.235 268.708 441.05C268.708 441.594 268.618 442.047 268.618 442.592C268.527 443.862 268.437 445.132 268.346 446.311C268.256 447.037 268.165 447.763 268.165 448.398C268.075 449.396 267.894 450.484 267.803 451.482C267.713 452.208 267.622 452.934 267.441 453.75C267.26 454.657 267.17 455.655 266.989 456.562C266.808 457.379 266.627 458.195 266.536 459.012C266.356 459.828 266.175 460.645 265.994 461.461C265.722 462.368 265.541 463.366 265.27 464.274C265.089 464.999 264.908 465.725 264.636 466.451C264.274 467.539 263.912 468.628 263.55 469.717C263.279 470.352 263.098 471.077 262.826 471.712C262.736 472.075 262.555 472.348 262.464 472.71C262.012 473.799 261.559 474.888 261.107 475.976C261.016 476.158 260.926 476.43 260.835 476.611C260.202 477.881 259.568 479.151 258.935 480.421C258.935 480.421 258.935 480.421 258.935 480.512C258.211 481.782 257.577 482.962 256.763 484.141C256.582 484.413 256.491 484.595 256.31 484.776C255.767 485.592 255.134 486.5 254.591 487.316C254.319 487.679 254.138 487.951 253.867 488.314C253.324 489.04 252.691 489.766 252.148 490.491C251.876 490.763 251.695 491.036 251.424 491.308C250.609 492.215 249.795 493.122 248.89 493.939C248.799 494.029 248.618 494.12 248.528 494.301C247.804 495.027 246.989 495.753 246.175 496.388C245.903 496.66 245.632 496.842 245.27 497.114C244.546 497.658 243.912 498.202 243.188 498.747C242.917 498.928 242.645 499.2 242.283 499.382C241.288 500.017 240.292 500.742 239.297 501.287L373.956 422.815C374.951 422.18 376.037 421.545 376.942 420.91C377.214 420.729 377.485 420.456 377.847 420.275C378.571 419.731 379.295 419.277 379.929 418.642C380.2 418.37 380.562 418.188 380.834 417.916C381.648 417.281 382.372 416.555 383.187 415.83C383.277 415.739 383.458 415.648 383.548 415.467C384.453 414.65 385.268 413.743 386.082 412.836C386.354 412.564 386.535 412.292 386.806 412.02C387.44 411.294 387.983 410.568 388.526 409.842C388.797 409.479 388.978 409.207 389.25 408.844C389.883 408.028 390.426 407.211 390.969 406.304C391.15 406.032 391.241 405.851 391.422 405.578C391.422 405.488 391.512 405.488 391.512 405.397C392.236 404.308 392.87 403.129 393.503 402.04C394.137 400.861 394.77 399.682 395.313 398.502C395.313 398.412 395.404 398.321 395.404 398.23C395.494 398.049 395.585 397.777 395.675 397.595C396.128 396.507 396.58 395.418 397.032 394.329C397.123 393.966 397.304 393.694 397.394 393.331C397.485 393.059 397.575 392.878 397.666 392.606C397.847 392.152 397.937 391.789 398.118 391.336C398.48 390.247 398.842 389.158 399.204 388.07C399.295 387.798 399.385 387.525 399.476 387.163C399.566 386.709 399.657 386.346 399.838 385.893C400.109 384.985 400.381 384.078 400.562 383.08C400.652 382.717 400.743 382.354 400.833 381.901C400.924 381.447 401.014 380.994 401.105 380.631C401.286 379.814 401.467 378.998 401.557 378.181C401.648 377.728 401.738 377.365 401.829 376.911C401.919 376.458 402.01 375.913 402.1 375.369C402.191 374.643 402.372 373.918 402.462 373.101C402.553 372.738 402.553 372.375 402.643 372.013C402.734 371.378 402.734 370.743 402.824 370.017C402.915 369.291 403.005 368.656 403.005 367.93C403.005 367.658 403.096 367.386 403.096 367.114C403.186 366.207 403.186 365.209 403.277 364.211C403.277 363.666 403.367 363.213 403.367 362.669C403.367 362.578 403.367 362.396 403.367 362.306C403.458 360.673 403.458 359.04 403.458 357.316C403.458 357.225 403.458 357.135 403.458 357.044L403.639 308.782C403.82 307.239 403.729 305.697 403.729 304.155Z" fill="url(#paint8_linear_5686_2533)"/>
<path d="M152.692 241.196C170.52 251.538 184.908 276.577 184.908 297.079C184.818 317.582 170.339 325.928 152.511 315.586C134.683 305.244 120.294 280.205 120.294 259.703C120.294 239.201 134.864 230.854 152.692 241.196Z" fill="url(#paint9_linear_5686_2533)"/>
<path d="M161.017 349.696C184.999 363.576 204.365 397.233 204.274 424.902C204.184 452.481 184.727 463.73 160.655 449.759C136.583 435.788 117.307 402.222 117.398 374.553C117.488 346.975 137.036 335.725 161.017 349.696Z" fill="url(#paint10_linear_5686_2533)"/>
<path opacity="0.8" d="M167.533 210.715C223.822 243.283 269.342 322.39 269.161 387.253L268.98 435.516C268.799 500.38 223.007 526.597 166.628 493.939C110.339 461.28 64.8195 382.264 65.0005 317.4L65.1815 269.138C65.3625 204.274 111.154 178.056 167.533 210.715Z" stroke="white" stroke-miterlimit="10" stroke-linecap="round" stroke-linejoin="round"/>
<path d="M403.729 304.155C403.729 303.883 403.729 303.611 403.729 303.248C403.729 302.613 403.639 301.978 403.639 301.343C403.639 300.617 403.548 299.891 403.548 299.165C403.548 298.621 403.458 298.077 403.458 297.442C403.367 296.807 403.367 296.081 403.277 295.446C403.277 294.992 403.186 294.539 403.186 294.176C403.096 293.269 403.005 292.271 402.915 291.364C402.824 290.819 402.824 290.275 402.734 289.731C402.734 289.549 402.734 289.368 402.643 289.186C402.462 287.463 402.191 285.739 401.919 284.015V283.925C401.919 283.652 401.829 283.471 401.829 283.199C401.557 281.747 401.376 280.296 401.105 278.844C401.014 278.572 401.014 278.3 400.924 278.028C400.833 277.302 400.652 276.667 400.471 275.941C400.29 275.125 400.109 274.308 399.928 273.401C399.838 272.948 399.747 272.494 399.566 272.04C399.385 271.315 399.204 270.498 399.023 269.773C398.842 269.228 398.752 268.593 398.661 268.049C398.48 267.323 398.299 266.688 398.118 265.962C397.937 265.237 397.756 264.42 397.485 263.694C397.394 263.331 397.304 262.969 397.213 262.606C396.942 261.608 396.67 260.61 396.399 259.703C396.218 259.068 396.037 258.433 395.856 257.798C395.766 257.616 395.766 257.435 395.675 257.253C395.132 255.53 394.589 253.715 393.956 251.992C393.956 251.992 393.956 251.992 393.956 251.901C393.865 251.719 393.865 251.629 393.775 251.447C393.232 249.905 392.689 248.363 392.146 246.73C392.055 246.458 391.965 246.276 391.874 246.004C391.693 245.46 391.422 244.825 391.241 244.281C390.969 243.464 390.607 242.648 390.336 241.74C390.155 241.196 389.883 240.652 389.702 240.107C389.431 239.472 389.159 238.837 388.888 238.112C388.707 237.658 388.526 237.114 388.345 236.66C387.983 235.753 387.53 234.755 387.168 233.848C386.987 233.304 386.716 232.85 386.535 232.306C386.444 232.124 386.354 231.943 386.263 231.761C385.539 230.128 384.815 228.495 384.001 226.772C384.001 226.681 383.91 226.681 383.91 226.59C383.729 226.137 383.458 225.774 383.277 225.32C382.644 224.05 382.01 222.689 381.377 221.419C381.286 221.238 381.196 221.057 381.105 220.875C380.562 219.877 380.019 218.879 379.567 217.791C379.114 216.974 378.752 216.158 378.3 215.251C378.209 215.069 378.119 214.978 378.028 214.797C376.58 212.166 375.132 209.535 373.594 206.904C373.503 206.723 373.322 206.451 373.232 206.269C372.87 205.634 372.417 204.999 372.055 204.274C371.422 203.185 370.788 202.187 370.155 201.098C369.612 200.191 368.979 199.193 368.436 198.286C367.802 197.197 367.078 196.2 366.445 195.202C366.264 194.839 365.992 194.476 365.811 194.204C365.63 193.841 365.359 193.569 365.178 193.297C363.277 190.484 361.377 187.763 359.386 185.041C359.386 185.041 359.386 185.041 359.386 184.95C357.938 183.045 356.581 181.14 355.042 179.326C354.952 179.235 354.952 179.144 354.861 179.054C353.775 177.693 352.689 176.332 351.603 175.062C351.422 174.79 351.151 174.518 350.97 174.246C350.97 174.246 350.97 174.246 350.97 174.155C349.703 172.613 348.345 171.07 346.988 169.528C346.897 169.438 346.897 169.347 346.807 169.347C346.445 168.893 345.992 168.44 345.54 167.986C344.725 167.079 343.821 166.081 343.006 165.174C342.825 164.992 342.644 164.811 342.554 164.629C342.011 163.994 341.377 163.45 340.834 162.815C340.201 162.18 339.567 161.454 338.934 160.819C338.662 160.547 338.481 160.366 338.21 160.094C337.576 159.458 336.943 158.823 336.309 158.188C335.766 157.644 335.223 157.1 334.68 156.555C334.409 156.283 334.047 156.011 333.685 155.648C332.961 155.013 332.327 154.378 331.603 153.743C331.151 153.29 330.608 152.836 330.156 152.382C329.794 152.02 329.432 151.747 328.979 151.385C328.255 150.749 327.622 150.114 326.898 149.57C326.445 149.207 326.083 148.844 325.631 148.482C325.178 148.119 324.726 147.756 324.273 147.302C323.549 146.758 322.916 146.123 322.192 145.579C321.83 145.306 321.468 144.943 321.106 144.671C320.563 144.218 319.929 143.764 319.386 143.311C318.753 142.857 318.12 142.313 317.486 141.859C317.215 141.678 316.943 141.496 316.672 141.224C315.857 140.68 315.043 140.135 314.319 139.5C313.776 139.137 313.233 138.684 312.69 138.321C312.509 138.23 312.418 138.14 312.237 138.049C310.789 137.051 309.341 136.144 307.893 135.146C307.803 135.055 307.712 135.055 307.622 134.964C306.264 134.148 304.998 133.331 303.64 132.515C303.278 132.334 303.007 132.152 302.645 131.971C301.559 131.336 300.473 130.701 299.387 130.156C298.934 129.975 298.572 129.703 298.12 129.521C297.577 129.249 297.034 128.977 296.491 128.614C296.038 128.433 295.586 128.161 295.224 127.979C294.5 127.616 293.866 127.344 293.142 126.981C292.69 126.709 292.147 126.528 291.695 126.255C291.514 126.165 291.333 126.074 291.061 125.983C289.704 125.348 288.346 124.804 286.989 124.26C285.631 123.715 284.274 123.171 282.916 122.717C282.735 122.627 282.554 122.627 282.373 122.536C281.921 122.355 281.378 122.173 280.925 122.082C280.201 121.81 279.568 121.629 278.844 121.357C278.482 121.266 278.12 121.175 277.849 121.084C277.215 120.903 276.672 120.722 276.039 120.631C275.586 120.54 275.134 120.359 274.681 120.268C274.229 120.177 273.686 120.087 273.233 119.905C272.6 119.724 272.057 119.633 271.423 119.542C271.152 119.452 270.79 119.361 270.428 119.361C269.885 119.27 269.342 119.179 268.799 119.089C268.075 118.998 267.441 118.816 266.717 118.726C266.446 118.726 266.265 118.635 265.994 118.635C265.451 118.544 264.908 118.544 264.274 118.454C263.55 118.363 262.826 118.272 262.102 118.272C261.921 118.272 261.65 118.181 261.469 118.181C260.926 118.181 260.473 118.181 260.021 118.091C259.116 118.091 258.301 118 257.396 118C257.125 118 256.944 118 256.672 118C255.767 118 254.772 118 253.867 118.091C253.776 118.091 253.595 118.091 253.505 118.091C252.781 118.091 252.057 118.181 251.424 118.272C250.971 118.272 250.519 118.363 250.066 118.454C249.704 118.454 249.433 118.544 249.071 118.544C247.894 118.726 246.718 118.907 245.541 119.089H245.451C245.089 119.179 244.817 119.27 244.546 119.27C243.55 119.452 242.555 119.724 241.65 119.996C241.197 120.087 240.745 120.268 240.293 120.449C239.659 120.631 239.026 120.812 238.483 120.994C238.302 121.084 238.211 121.084 238.03 121.175C237.125 121.538 236.22 121.901 235.315 122.264C234.863 122.445 234.41 122.627 234.048 122.808C232.781 123.443 231.514 124.078 230.247 124.804L94.9551 203.548C96.222 202.822 97.489 202.187 98.7559 201.552C99.2084 201.371 99.6609 201.189 100.023 201.008C100.928 200.645 101.833 200.282 102.738 199.919C103.462 199.647 104.276 199.375 105 199.193C105.453 199.012 105.905 198.921 106.358 198.74C107.263 198.468 108.258 198.286 109.254 198.014C109.525 197.923 109.887 197.833 110.158 197.833C111.335 197.56 112.602 197.379 113.869 197.197C114.231 197.197 114.502 197.107 114.864 197.107C116.041 197.016 117.127 196.835 118.303 196.835C118.394 196.835 118.575 196.835 118.665 196.835C119.842 196.744 121.018 196.744 122.195 196.744C123.009 196.744 123.914 196.744 124.819 196.835C125.543 196.835 126.267 196.925 126.9 196.925C127.624 197.016 128.348 197.107 129.072 197.107C129.887 197.197 130.701 197.288 131.516 197.379C132.24 197.47 132.873 197.56 133.597 197.742C134.502 197.923 135.317 198.014 136.221 198.195C136.855 198.286 137.398 198.468 138.031 198.558C138.936 198.74 139.932 199.012 140.837 199.284C141.47 199.465 142.013 199.647 142.647 199.738C143.642 200.01 144.728 200.373 145.724 200.736C146.176 200.917 146.719 201.008 147.172 201.189C148.71 201.733 150.248 202.278 151.787 202.913C153.325 203.548 154.864 204.183 156.493 204.909C156.945 205.09 157.488 205.362 157.941 205.634C159.027 206.179 160.203 206.723 161.289 207.267C161.832 207.539 162.375 207.812 162.918 208.174C164.366 208.991 165.904 209.807 167.352 210.624C168.981 211.622 170.701 212.62 172.33 213.618C172.42 213.708 172.511 213.708 172.601 213.799C174.23 214.797 175.768 215.886 177.397 216.974C177.94 217.337 178.483 217.791 179.026 218.154C180.112 218.879 181.108 219.696 182.194 220.421C182.827 220.875 183.461 221.419 184.094 221.873C185.09 222.599 185.995 223.324 186.9 224.141C187.624 224.685 188.257 225.23 188.981 225.865C189.886 226.59 190.791 227.407 191.696 228.133C192.42 228.768 193.144 229.312 193.777 229.947C194.682 230.763 195.497 231.489 196.402 232.306C197.126 232.941 197.759 233.576 198.483 234.211C199.388 235.027 200.203 235.934 201.108 236.751C201.741 237.386 202.374 238.021 203.008 238.656C203.913 239.563 204.818 240.47 205.723 241.378C206.266 242.013 206.899 242.557 207.442 243.192C208.438 244.281 209.433 245.369 210.519 246.549C210.881 247.002 211.334 247.456 211.786 247.909C213.234 249.542 214.591 251.175 215.949 252.808C216.13 253.08 216.401 253.352 216.582 253.625C217.759 255.076 218.935 256.437 220.021 257.888C221.469 259.703 222.827 261.608 224.275 263.422C224.275 263.513 224.365 263.513 224.365 263.604C226.356 266.325 228.256 269.047 230.157 271.859C230.609 272.494 231.062 273.22 231.514 273.855C232.148 274.853 232.872 275.941 233.505 276.939C234.139 277.846 234.682 278.844 235.315 279.752C235.949 280.84 236.582 281.838 237.216 282.927C237.759 283.834 238.302 284.65 238.754 285.558C240.293 288.188 241.74 290.819 243.188 293.45C243.731 294.448 244.184 295.446 244.727 296.444C245.27 297.442 245.813 298.44 246.265 299.438C246.989 300.889 247.713 302.431 248.437 303.883C248.618 304.336 248.89 304.699 249.071 305.153C249.976 307.058 250.79 308.963 251.605 310.868C251.786 311.412 252.057 311.866 252.238 312.41C252.872 313.862 253.415 315.223 254.048 316.674C254.319 317.309 254.591 317.944 254.862 318.579C255.405 319.94 255.948 321.301 256.401 322.662C256.582 323.206 256.853 323.841 257.034 324.385C257.668 326.2 258.301 328.014 258.935 329.828C259.025 330.01 259.025 330.1 259.116 330.282C259.749 332.278 260.383 334.183 261.016 336.179C261.197 336.814 261.378 337.449 261.559 338.084C261.921 339.445 262.374 340.805 262.736 342.166C262.917 342.892 263.098 343.618 263.279 344.434C263.641 345.704 263.912 346.974 264.184 348.244C264.365 348.97 264.546 349.696 264.727 350.512C264.998 351.782 265.27 353.143 265.541 354.413C265.722 355.139 265.813 355.774 265.994 356.5C266.356 358.223 266.627 359.947 266.898 361.58C266.898 361.852 266.989 362.034 266.989 362.306C267.26 364.211 267.532 366.207 267.803 368.112C267.894 368.656 267.894 369.2 267.984 369.745C268.165 371.105 268.256 372.466 268.437 373.918C268.527 374.553 268.527 375.188 268.618 375.913C268.708 377.184 268.799 378.544 268.889 379.814C268.889 380.449 268.98 381.084 268.98 381.629C269.07 383.443 269.07 385.258 269.07 387.163L268.889 435.425C268.889 437.33 268.799 439.235 268.708 441.05C268.708 441.594 268.618 442.047 268.618 442.592C268.527 443.862 268.437 445.132 268.346 446.311C268.256 447.037 268.165 447.763 268.165 448.398C268.075 449.396 267.894 450.484 267.803 451.482C267.713 452.208 267.622 452.934 267.441 453.75C267.26 454.657 267.17 455.655 266.989 456.562C266.808 457.379 266.627 458.195 266.537 459.012C266.356 459.828 266.175 460.645 265.994 461.461C265.722 462.368 265.541 463.366 265.27 464.274C265.089 464.999 264.908 465.725 264.636 466.451C264.274 467.539 263.912 468.628 263.55 469.717C263.279 470.352 263.098 471.077 262.826 471.712C262.736 472.075 262.555 472.348 262.464 472.71C262.012 473.799 261.559 474.888 261.107 475.976C261.016 476.158 260.926 476.43 260.835 476.611C260.202 477.881 259.568 479.151 258.935 480.421C258.935 480.421 258.935 480.421 258.935 480.512C258.211 481.782 257.577 482.962 256.763 484.141C256.582 484.413 256.491 484.595 256.31 484.776C255.767 485.592 255.134 486.5 254.591 487.316C254.319 487.679 254.138 487.951 253.867 488.314C253.324 489.04 252.691 489.766 252.148 490.491C251.876 490.763 251.695 491.036 251.424 491.308C250.609 492.215 249.795 493.122 248.89 493.939C248.799 494.029 248.618 494.12 248.528 494.301C247.804 495.027 246.989 495.753 246.175 496.388C245.903 496.66 245.632 496.842 245.27 497.114C244.546 497.658 243.912 498.202 243.188 498.747C242.917 498.928 242.645 499.2 242.283 499.382C241.288 500.017 240.293 500.742 239.297 501.287L373.956 422.815C374.951 422.18 376.037 421.545 376.942 420.91C377.214 420.729 377.485 420.456 377.847 420.275C378.571 419.731 379.295 419.277 379.929 418.642C380.2 418.37 380.562 418.188 380.834 417.916C381.648 417.281 382.372 416.555 383.187 415.83C383.277 415.739 383.458 415.648 383.549 415.467C384.453 414.65 385.268 413.743 386.082 412.836C386.354 412.564 386.535 412.292 386.806 412.02C387.44 411.294 387.983 410.568 388.526 409.842C388.797 409.479 388.978 409.207 389.25 408.844C389.883 408.028 390.426 407.211 390.969 406.304C391.15 406.032 391.241 405.851 391.422 405.579C391.422 405.488 391.512 405.488 391.512 405.397C392.236 404.308 392.87 403.129 393.503 402.04C394.137 400.861 394.77 399.682 395.313 398.502C395.313 398.412 395.404 398.321 395.404 398.23C395.494 398.049 395.585 397.777 395.675 397.595C396.128 396.507 396.58 395.418 397.032 394.329C397.123 393.967 397.304 393.694 397.394 393.331C397.485 393.059 397.575 392.878 397.666 392.606C397.847 392.152 397.937 391.789 398.118 391.336C398.48 390.247 398.842 389.158 399.204 388.07C399.295 387.798 399.385 387.525 399.476 387.163C399.566 386.709 399.657 386.346 399.838 385.893C400.109 384.985 400.381 384.078 400.562 383.08C400.652 382.717 400.743 382.354 400.833 381.901C400.924 381.447 401.014 380.994 401.105 380.631C401.286 379.814 401.467 378.998 401.557 378.181C401.648 377.728 401.738 377.365 401.829 376.911C401.919 376.458 402.01 375.913 402.1 375.369C402.191 374.643 402.372 373.918 402.462 373.101C402.553 372.738 402.553 372.375 402.643 372.013C402.734 371.378 402.734 370.743 402.824 370.017C402.915 369.291 403.005 368.656 403.005 367.93C403.005 367.658 403.096 367.386 403.096 367.114C403.186 366.207 403.186 365.209 403.277 364.211C403.277 363.666 403.367 363.213 403.367 362.669C403.367 362.578 403.367 362.396 403.367 362.306C403.458 360.673 403.458 359.04 403.458 357.316C403.458 357.225 403.458 357.135 403.458 357.044L403.639 308.782C403.82 307.239 403.729 305.697 403.729 304.155Z" stroke="white" stroke-miterlimit="10" stroke-linecap="round" stroke-linejoin="round"/>
<g clip-path="url(#clip0_5686_2533)">
<path d="M403.908 478.815C440.86 478.815 470.815 448.86 470.815 411.908C470.815 374.956 440.86 345 403.908 345C366.956 345 337 374.956 337 411.908C337 448.86 366.956 478.815 403.908 478.815Z" fill="url(#paint11_radial_5686_2533)"/>
</g>
<defs>
<filter id="filter0_d_5686_2533" x="120" y="0" width="150" height="150" filterUnits="userSpaceOnUse" color-interpolation-filters="sRGB">
<feFlood flood-opacity="0" result="BackgroundImageFix"/>
<feColorMatrix in="SourceAlpha" type="matrix" values="0 0 0 0 0 0 0 0 0 0 0 0 0 0 0 0 0 0 127 0" result="hardAlpha"/>
<feOffset dx="4" dy="4"/>
<feGaussianBlur stdDeviation="5"/>
<feComposite in2="hardAlpha" operator="out"/>
<feColorMatrix type="matrix" values="0 0 0 0 0 0 0 0 0 0 0 0 0 0 0 0 0 0 0.7 0"/>
<feBlend mode="multiply" in2="BackgroundImageFix" result="effect1_dropShadow_5686_2533"/>
<feBlend mode="normal" in="SourceGraphic" in2="effect1_dropShadow_5686_2533" result="shape"/>
</filter>
<filter id="filter1_d_5686_2533" x="0" y="465" width="150" height="150" filterUnits="userSpaceOnUse" color-interpolation-filters="sRGB">
<feFlood flood-opacity="0" result="BackgroundImageFix"/>
<feColorMatrix in="SourceAlpha" type="matrix" values="0 0 0 0 0 0 0 0 0 0 0 0 0 0 0 0 0 0 127 0" result="hardAlpha"/>
<feOffset dx="4" dy="4"/>
<feGaussianBlur stdDeviation="5"/>
<feComposite in2="hardAlpha" operator="out"/>
<feColorMatrix type="matrix" values="0 0 0 0 0 0 0 0 0 0 0 0 0 0 0 0 0 0 0.7 0"/>
<feBlend mode="multiply" in2="BackgroundImageFix" result="effect1_dropShadow_5686_2533"/>
<feBlend mode="normal" in="SourceGraphic" in2="effect1_dropShadow_5686_2533" result="shape"/>
</filter>
<linearGradient id="paint0_linear_5686_2533" x1="174.063" y1="243.814" x2="208.099" y2="243.814" gradientUnits="userSpaceOnUse">
<stop stop-color="#053EC6"/>
<stop offset="1" stop-color="#50D955"/>
</linearGradient>
<linearGradient id="paint1_linear_5686_2533" x1="206.426" y1="221.674" x2="206.426" y2="283.447" gradientUnits="userSpaceOnUse">
<stop stop-color="#053EC6"/>
<stop offset="1" stop-color="#50D955"/>
</linearGradient>
<linearGradient id="paint2_linear_5686_2533" x1="220.786" y1="259.013" x2="247.787" y2="243.463" gradientUnits="userSpaceOnUse">
<stop stop-color="#053EC6"/>
<stop offset="1" stop-color="#50D955"/>
</linearGradient>
<linearGradient id="paint3_linear_5686_2533" x1="193.332" y1="195.192" x2="258.922" y2="260.23" gradientUnits="userSpaceOnUse">
<stop stop-color="#053EC6"/>
<stop offset="1" stop-color="#50D955"/>
</linearGradient>
<linearGradient id="paint4_linear_5686_2533" x1="190.21" y1="324.161" x2="255.64" y2="324.161" gradientUnits="userSpaceOnUse">
<stop stop-color="#053EC6"/>
<stop offset="1" stop-color="#50D955"/>
</linearGradient>
<linearGradient id="paint5_linear_5686_2533" x1="258.415" y1="412.578" x2="258.415" y2="292.762" gradientUnits="userSpaceOnUse">
<stop stop-color="#50D955"/>
<stop offset="1" stop-color="#053EC6"/>
</linearGradient>
<linearGradient id="paint6_linear_5686_2533" x1="243.109" y1="248.944" x2="329.306" y2="332.508" gradientUnits="userSpaceOnUse">
<stop offset="0.3" stop-color="#053EC6"/>
<stop offset="1" stop-color="#50D955"/>
</linearGradient>
<linearGradient id="paint7_linear_5686_2533" x1="139.005" y1="192.661" x2="195.429" y2="511.872" gradientUnits="userSpaceOnUse">
<stop stop-color="#053EC6" stop-opacity="0.4"/>
<stop offset="1" stop-color="#50D955"/>
</linearGradient>
<linearGradient id="paint8_linear_5686_2533" x1="188.236" y1="149.021" x2="353.652" y2="434.827" gradientUnits="userSpaceOnUse">
<stop stop-color="#053EC6" stop-opacity="0.4"/>
<stop offset="1" stop-color="#50D955"/>
</linearGradient>
<linearGradient id="paint9_linear_5686_2533" x1="129.806" y1="238.88" x2="175.513" y2="317.852" gradientUnits="userSpaceOnUse">
<stop stop-color="#50D955"/>
<stop offset="1" stop-color="#053EC6"/>
</linearGradient>
<linearGradient id="paint10_linear_5686_2533" x1="130.24" y1="346.543" x2="191.706" y2="452.744" gradientUnits="userSpaceOnUse">
<stop stop-color="#50D955"/>
<stop offset="1" stop-color="#053EC6"/>
</linearGradient>
<radialGradient id="paint11_radial_5686_2533" cx="0" cy="0" r="1" gradientUnits="userSpaceOnUse" gradientTransform="translate(403.969 411.969) scale(84.8678)">
<stop offset="0.2234" stop-color="white" stop-opacity="0"/>
<stop offset="1" stop-color="white" stop-opacity="0.5"/>
</radialGradient>
<clipPath id="clip0_5686_2533">
<rect width="134" height="134" fill="white" transform="translate(337 345)"/>
</clipPath>
</defs>
</svg>
