<svg width="90" height="90" viewBox="0 0 90 90" fill="none" xmlns="http://www.w3.org/2000/svg">
<g id="Group" filter="url(#filter0_d_5466_3349)">
<g id="Clip path group">
<mask id="mask0_5466_3349" style="mask-type:luminance" maskUnits="userSpaceOnUse" x="6" y="6" width="70" height="70">
<g id="SVGID_4_">
<path id="Vector" d="M71 76H11C8.25 76 6 73.75 6 71V11C6 8.25 8.25 6 11 6H71C73.75 6 76 8.25 76 11V71C76 73.75 73.75 76 71 76Z" fill="white"/>
</g>
</mask>
<g mask="url(#mask0_5466_3349)">
<path id="Vector_2" d="M71 76H11C8.25 76 6 73.75 6 71V11C6 8.25 8.25 6 11 6H71C73.75 6 76 8.25 76 11V71C76 73.75 73.75 76 71 76Z" fill="#6600CC"/>
</g>
</g>
<g id="Clip path group_2">
<mask id="mask1_5466_3349" style="mask-type:luminance" maskUnits="userSpaceOnUse" x="6" y="6" width="70" height="70">
<g id="SVGID_4__2">
<path id="Vector_3" d="M71 76H11C8.25 76 6 73.75 6 71V11C6 8.25 8.25 6 11 6H71C73.75 6 76 8.25 76 11V71C76 73.75 73.75 76 71 76Z" fill="white"/>
</g>
</mask>
<g mask="url(#mask1_5466_3349)">
<path id="Vector_4" d="M75.9996 161.65C123.303 161.65 161.65 123.303 161.65 76.0001C161.65 28.6969 123.303 -9.6499 75.9996 -9.6499C28.6964 -9.6499 -9.65039 28.6969 -9.65039 76.0001C-9.65039 123.303 28.6964 161.65 75.9996 161.65Z" fill="#E023E5"/>
</g>
</g>
<g id="Clip path group_3">
<mask id="mask2_5466_3349" style="mask-type:luminance" maskUnits="userSpaceOnUse" x="6" y="6" width="70" height="70">
<g id="SVGID_4__3">
<path id="Vector_5" d="M71 76H11C8.25 76 6 73.75 6 71V11C6 8.25 8.25 6 11 6H71C73.75 6 76 8.25 76 11V71C76 73.75 73.75 76 71 76Z" fill="white"/>
</g>
</mask>
<g mask="url(#mask2_5466_3349)">
<path id="Vector_6" d="M76.0008 150.199C116.98 150.199 150.201 116.979 150.201 75.9993C150.201 35.0198 116.98 1.79932 76.0008 1.79932C35.0212 1.79932 1.80078 35.0198 1.80078 75.9993C1.80078 116.979 35.0212 150.199 76.0008 150.199Z" fill="#053EC6"/>
</g>
</g>
<g id="Clip path group_4">
<mask id="mask3_5466_3349" style="mask-type:luminance" maskUnits="userSpaceOnUse" x="6" y="6" width="70" height="70">
<g id="SVGID_4__4">
<path id="Vector_7" d="M71 76H11C8.25 76 6 73.75 6 71V11C6 8.25 8.25 6 11 6H71C73.75 6 76 8.25 76 11V71C76 73.75 73.75 76 71 76Z" fill="white"/>
</g>
</mask>
<g mask="url(#mask3_5466_3349)">
<path id="Vector_8" d="M75.9992 138.8C110.683 138.8 138.799 110.683 138.799 75.9997C138.799 41.3162 110.683 13.1997 75.9992 13.1997C41.3157 13.1997 13.1992 41.3162 13.1992 75.9997C13.1992 110.683 41.3157 138.8 75.9992 138.8Z" fill="#50D955"/>
</g>
</g>
<g id="Clip path group_5">
<mask id="mask4_5466_3349" style="mask-type:luminance" maskUnits="userSpaceOnUse" x="6" y="6" width="70" height="70">
<g id="SVGID_4__5">
<path id="Vector_9" d="M71 76H11C8.25 76 6 73.75 6 71V11C6 8.25 8.25 6 11 6H71C73.75 6 76 8.25 76 11V71C76 73.75 73.75 76 71 76Z" fill="white"/>
</g>
</mask>
<g mask="url(#mask4_5466_3349)">
<path id="Vector_10" d="M76.0006 127.4C104.388 127.4 127.401 104.388 127.401 76.0001C127.401 47.6127 104.388 24.6001 76.0006 24.6001C47.6131 24.6001 24.6006 47.6127 24.6006 76.0001C24.6006 104.388 47.6131 127.4 76.0006 127.4Z" fill="#6600CC"/>
</g>
</g>
<g id="Clip path group_6">
<mask id="mask5_5466_3349" style="mask-type:luminance" maskUnits="userSpaceOnUse" x="6" y="6" width="70" height="70">
<g id="SVGID_4__6">
<path id="Vector_11" d="M71 76H11C8.25 76 6 73.75 6 71V11C6 8.25 8.25 6 11 6H71C73.75 6 76 8.25 76 11V71C76 73.75 73.75 76 71 76Z" fill="white"/>
</g>
</mask>
<g mask="url(#mask5_5466_3349)">
<path id="Vector_12" d="M76.0008 115.95C98.0646 115.95 115.951 98.0636 115.951 75.9998C115.951 53.936 98.0646 36.0498 76.0008 36.0498C53.937 36.0498 36.0508 53.936 36.0508 75.9998C36.0508 98.0636 53.937 115.95 76.0008 115.95Z" fill="#E023E5"/>
</g>
</g>
<g id="Clip path group_7">
<mask id="mask6_5466_3349" style="mask-type:luminance" maskUnits="userSpaceOnUse" x="6" y="6" width="70" height="70">
<g id="SVGID_4__7">
<path id="Vector_13" d="M71 76H11C8.25 76 6 73.75 6 71V11C6 8.25 8.25 6 11 6H71C73.75 6 76 8.25 76 11V71C76 73.75 73.75 76 71 76Z" fill="white"/>
</g>
</mask>
<g mask="url(#mask6_5466_3349)">
<path id="Vector_14" d="M76.0002 104.55C91.7679 104.55 104.55 91.7674 104.55 75.9997C104.55 60.232 91.7679 47.4497 76.0002 47.4497C60.2325 47.4497 47.4502 60.232 47.4502 75.9997C47.4502 91.7674 60.2325 104.55 76.0002 104.55Z" fill="#053EC6"/>
</g>
</g>
<g id="Clip path group_8">
<mask id="mask7_5466_3349" style="mask-type:luminance" maskUnits="userSpaceOnUse" x="6" y="6" width="70" height="70">
<g id="SVGID_4__8">
<path id="Vector_15" d="M71 76H11C8.25 76 6 73.75 6 71V11C6 8.25 8.25 6 11 6H71C73.75 6 76 8.25 76 11V71C76 73.75 73.75 76 71 76Z" fill="white"/>
</g>
</mask>
<g mask="url(#mask7_5466_3349)">
<path id="Vector_16" d="M75.9986 93.1496C85.4703 93.1496 93.1486 85.4713 93.1486 75.9996C93.1486 66.5279 85.4703 58.8496 75.9986 58.8496C66.5269 58.8496 58.8486 66.5279 58.8486 75.9996C58.8486 85.4713 66.5269 93.1496 75.9986 93.1496Z" fill="#50D955"/>
</g>
</g>
</g>
<defs>
<filter id="filter0_d_5466_3349" x="0" y="0" width="90" height="90" filterUnits="userSpaceOnUse" color-interpolation-filters="sRGB">
<feFlood flood-opacity="0" result="BackgroundImageFix"/>
<feColorMatrix in="SourceAlpha" type="matrix" values="0 0 0 0 0 0 0 0 0 0 0 0 0 0 0 0 0 0 127 0" result="hardAlpha"/>
<feOffset dx="4" dy="4"/>
<feGaussianBlur stdDeviation="5"/>
<feComposite in2="hardAlpha" operator="out"/>
<feColorMatrix type="matrix" values="0 0 0 0 0 0 0 0 0 0 0 0 0 0 0 0 0 0 0.7 0"/>
<feBlend mode="multiply" in2="BackgroundImageFix" result="effect1_dropShadow_5466_3349"/>
<feBlend mode="normal" in="SourceGraphic" in2="effect1_dropShadow_5466_3349" result="shape"/>
</filter>
</defs>
</svg>
