<svg width="170" height="170" viewBox="0 0 170 170" fill="none" xmlns="http://www.w3.org/2000/svg">
<g id="Group" filter="url(#filter0_d_5466_3223)">
<path id="Vector" d="M145.285 156H16.7143C10.8214 156 6 151.179 6 145.286V16.7143C6 10.8214 10.8214 6 16.7143 6H145.285C151.178 6 156 10.8214 156 16.7143V145.286C156 151.179 151.178 156 145.285 156Z" fill="#0C0C0C"/>
<path id="Vector_2" d="M145.285 156H16.7143C10.8214 156 6 151.179 6 145.286V16.7143C6 10.8214 10.8214 6 16.7143 6H145.285C151.178 6 156 10.8214 156 16.7143V145.286C156 151.179 151.178 156 145.285 156Z" fill="#0C0C0C"/>
<g id="Group_2">
<path id="Vector_3" d="M86.8936 135.964H109.929L98.3578 116.036L86.8936 135.964Z" fill="#053EC6"/>
<path id="Vector_4" d="M144.537 116.036L133.072 135.964H156.001L144.537 116.036Z" fill="#053EC6"/>
<path id="Vector_5" d="M121.499 76.1782L109.928 96.214H133.071L121.499 76.1782Z" fill="#053EC6"/>
<path id="Vector_6" d="M86.8936 96.2148L98.3578 116.036L109.929 96.2148H86.8936Z" fill="#053EC6"/>
<path id="Vector_7" d="M121.499 156L133.071 135.964H109.928L121.499 156Z" fill="#053EC6"/>
<path id="Vector_8" d="M156.001 96.2148H133.072L144.537 116.036L156.001 96.2148Z" fill="#053EC6"/>
<path id="Vector_9" d="M133.073 96.2148H109.93L98.3584 116.036L109.93 135.965H133.073L144.537 116.036L133.073 96.2148Z" fill="#E023E5"/>
</g>
<g id="Group_3">
<path id="Vector_10" d="M6 79.4995H34.1785L20.1428 55.0708L6 79.4995Z" fill="#053EC6"/>
<path id="Vector_11" d="M76.7124 55.0708L62.6768 79.4995H90.8552L76.7124 55.0708Z" fill="#053EC6"/>
<path id="Vector_12" d="M48.4277 6L34.1777 30.6429H62.6777L48.4277 6Z" fill="#053EC6"/>
<path id="Vector_13" d="M6 30.6436L20.1428 55.0722L34.1785 30.6436H6Z" fill="#053EC6"/>
<path id="Vector_14" d="M48.4277 104.143L62.6777 79.5H34.1777L48.4277 104.143Z" fill="#053EC6"/>
<path id="Vector_15" d="M90.8552 30.6436H62.6768L76.7124 55.0722L90.8552 30.6436Z" fill="#053EC6"/>
<path id="Vector_16" d="M62.6811 30.6436H34.1812L20.1455 55.0722L34.1812 79.5009H62.6811L76.7168 55.0722L62.6811 30.6436Z" fill="#E023E5"/>
</g>
<g id="Group_4">
<path id="Vector_17" d="M101.033 48.857H114.64L107.89 37.0713L101.033 48.857Z" fill="#053EC6"/>
<path id="Vector_18" d="M135.105 37.0713L128.248 48.857H141.855L135.105 37.0713Z" fill="#053EC6"/>
<path id="Vector_19" d="M121.497 13.5L114.64 25.2858H128.247L121.497 13.5Z" fill="#053EC6"/>
<path id="Vector_20" d="M101.033 25.2856L107.89 37.0714L114.64 25.2856H101.033Z" fill="#053EC6"/>
<path id="Vector_21" d="M121.497 60.6427L128.247 48.8569H114.64L121.497 60.6427Z" fill="#053EC6"/>
<path id="Vector_22" d="M141.855 25.2856H128.248L135.105 37.0714L141.855 25.2856Z" fill="#053EC6"/>
<path id="Vector_23" d="M128.249 25.2856H114.642L107.892 37.0714L114.642 48.8572H128.249L135.106 37.0714L128.249 25.2856Z" fill="#E023E5"/>
</g>
<g id="Group_5">
<path id="Vector_24" d="M17.8926 133.072H26.3568L22.1783 125.787L17.8926 133.072Z" fill="#053EC6"/>
<path id="Vector_25" d="M39.2134 125.787L34.9277 133.072H43.392L39.2134 125.787Z" fill="#053EC6"/>
<path id="Vector_26" d="M30.6431 111.001L26.3574 118.394H34.9288L30.6431 111.001Z" fill="#053EC6"/>
<path id="Vector_27" d="M17.8926 118.394L22.1783 125.787L26.3568 118.394H17.8926Z" fill="#053EC6"/>
<path id="Vector_28" d="M30.6431 140.465L34.9288 133.072H26.3574L30.6431 140.465Z" fill="#053EC6"/>
<path id="Vector_29" d="M43.392 118.394H34.9277L39.2134 125.787L43.392 118.394Z" fill="#053EC6"/>
<path id="Vector_30" d="M34.9287 118.394H26.3573L22.1787 125.787L26.3573 133.073H34.9287L39.2144 125.787L34.9287 118.394Z" fill="#E023E5"/>
</g>
<g id="Group_6">
<path id="Vector_31" d="M92.035 156C92.035 151.822 92.1421 147.75 92.1421 143.572V141.75C92.3564 141.75 92.4636 141.643 92.6778 141.643C95.5707 141.215 98.035 139.715 100.071 137.143C102.428 134.25 104.035 130.822 105.106 126.536C107.785 125.465 109.821 124.5 111.749 123.643C112.499 123.322 113.249 123 113.999 122.572C116.999 121.179 120.106 119.786 123.106 117.429C129.749 112.179 134.678 101.357 130.821 91.3931C130.178 89.786 129.535 88.5003 128.463 87.6431C128.785 86.4645 128.571 85.286 128.249 84.2145C128.142 84.0002 128.142 83.786 128.035 83.5717C127.606 82.2859 126.963 80.8931 125.785 79.9288C125.999 79.0717 125.999 78.2145 125.892 77.3574C125.571 75.5359 124.606 73.8216 123.213 72.7502C123.428 72.0002 123.428 71.1431 123.321 70.3931C122.999 68.2502 122.035 66.4288 120.642 65.3573C120.963 63.9645 120.749 62.4645 119.999 60.643C119.678 59.6787 119.035 58.7144 117.963 57.8573C118.178 56.6787 118.071 55.2859 117.535 53.893C116.999 52.393 116.356 51.3216 115.392 50.4644C115.713 48.5358 115.071 46.8215 114.749 45.9644C114.213 44.5715 113.571 43.7144 112.713 42.9644C112.928 41.7858 112.713 40.7144 112.499 39.8572L112.392 39.6429C112.178 38.8929 111.535 37.0715 110.035 35.6786C110.249 34.6072 110.142 33.6429 109.928 33.1072C108.856 28.3929 106.071 25.0715 103.499 22.1786C102.106 20.6786 100.499 19.6072 99.1064 18.6429C98.8921 18.4286 98.5707 18.3214 98.3564 18.1072C95.3564 16.0714 91.8207 14.5714 87.6421 13.6071C86.5707 13.6071 85.285 13.5 83.8921 13.5C83.3564 13.5 82.7136 13.5 82.1779 13.6071C77.035 14.0357 72.4279 15.4286 68.1422 17.0357C63.8565 18.6429 59.5708 20.1429 55.4994 22.0715C52.928 23.25 50.4637 24.6429 47.9994 25.9286C47.1423 26.4643 46.178 26.8929 45.3208 27.3215L44.7851 27.6429C42.5351 28.8215 39.9637 30.2143 37.6066 32.1429C32.7852 36.3215 30.1066 41.6787 29.7852 48.2144C29.5709 52.1787 30.7494 55.7144 31.928 58.7144C31.8209 60.2144 32.2494 61.5002 32.5709 62.3573C33.1066 63.643 33.5352 64.8216 34.0709 66.1073C35.7851 70.3931 37.6066 74.7859 38.9994 79.1788C40.178 82.6074 41.3566 86.1431 42.5351 89.4645C43.178 91.286 43.8208 93.1074 44.4637 94.9288C45.2137 97.0717 45.9637 99.2146 46.7137 101.465C47.9994 105.322 49.3923 109.393 50.7851 113.25C50.9994 113.786 51.2137 114.429 51.428 114.965C52.0708 116.893 52.8208 119.036 53.9994 121.179C54.1065 121.393 54.2137 121.5 54.2137 121.5C54.6422 125.679 55.3922 131.036 58.2851 136.286C60.9636 141 64.7136 143.465 69.535 143.465H69.6422C69.6422 145.393 69.6422 147.215 69.6422 149.143C69.6422 151.393 69.6422 153.75 69.6422 156H92.035Z" fill="#0C0C0C"/>
<g id="Group_7">
<path id="Vector_32" d="M126.321 93.3211C125.571 91.3925 125.464 91.1782 123.321 91.1782C122.678 91.1782 121.928 91.3925 121.5 90.7496C121.5 90.9639 121.178 90.9639 121.071 91.1782C121.714 91.3925 122.25 91.2854 122.892 91.2854C124.714 91.2854 124.928 91.4996 125.357 93.2139C125.464 93.7497 125.357 94.2854 125.678 94.7139C125.892 95.1425 125.892 95.6782 126.321 96.1068C126.107 96.2139 126.107 96.2139 126 96.2139C125.678 96.2139 125.464 95.5711 125.25 95.7854C124.821 96.1068 125.035 96.7497 125.035 97.1782C125.035 97.4997 125.142 97.8211 125.571 97.8211C125.892 97.8211 126.107 98.0354 126.214 98.3568C126.75 100.071 126 104.785 124.714 106.5C125.035 104.785 125.25 103.285 125.25 101.785C124.928 101.893 125.25 102.321 124.821 102.428C124.714 101.035 124.714 99.6425 124.5 98.2497C124.392 97.4997 124.071 96.7497 123.535 96.2139C123.214 95.8925 122.785 95.464 122.678 96.4282C122.678 96.6425 122.357 96.8568 122.357 97.1782C122.25 97.6068 122.25 98.0354 122.892 97.8211C123.642 97.6068 123.964 97.8211 124.071 98.6782C124.607 102.214 124.178 105.428 122.571 108.643C121.821 110.035 120.964 111.321 119.785 112.5C120.107 111.428 120.857 110.464 121.178 109.5C121.607 108.428 121.928 107.25 122.25 106.071C122.25 105.964 122.357 105.857 122.25 105.75C121.178 103.928 122.25 102 121.821 100.178C121.5 98.9997 121.392 97.8211 120.642 96.8568C120.428 96.5354 119.892 96.1068 119.678 96.3211C119.464 96.8568 118.607 97.1782 118.928 97.9282C119.142 98.464 119.678 98.2497 120.107 98.1425C120.964 97.9282 121.071 98.3568 121.178 98.9997C121.928 103.178 121.285 107.143 119.035 110.785C118.821 111.107 118.714 111.643 118.071 111.428C117.75 111.321 117.642 111.643 117.535 111.857C117 112.607 116.25 113.143 115.607 113.893C115.392 114.107 115.285 114.321 115.071 114.107C114.857 113.893 115.178 113.785 115.285 113.571C116.571 111.964 117.642 110.25 118.285 108.321C118.714 107.035 119.035 105.75 119.142 104.357C119.25 102.857 118.714 101.464 118.392 99.964C118.178 99.1068 118.071 98.2497 117.535 97.4997C117.321 97.1782 117 96.6425 116.571 96.8568C115.607 97.2854 115.607 96.4282 115.607 95.9997C115.5 95.0354 114.75 94.2854 114.107 93.9639C113.25 93.5354 113.892 92.9997 113.785 92.5711C113.678 92.0354 114.214 92.1425 114.535 92.1425C115.392 92.0354 116.357 91.8211 117.214 91.6068C117.857 91.4996 118.178 91.0711 117.964 90.4282C117.642 89.2496 117.214 87.9639 116.571 86.8925C116.142 86.2496 115.5 86.3568 114.857 86.4639C116.142 86.7853 117.535 88.9282 117.321 90.1068C117.214 90.9639 116.785 91.2854 115.928 91.3925C114 91.6068 111.964 91.8211 110.035 92.2496C104.357 93.4282 98.8925 95.3568 93.4283 97.3925C90.1068 98.5711 86.8926 99.964 83.6783 101.25C82.1783 101.893 81.1069 101.464 80.5712 100.178C79.9283 98.5711 80.3569 97.2854 81.8569 96.6425C90.1068 93.3211 98.2497 89.8925 106.928 87.8568C108.857 87.4282 110.678 87.1068 112.607 86.7853C112.928 86.7853 113.25 86.6782 113.571 86.5711C112.285 86.7853 111.964 85.6068 111.214 85.0711C110.785 84.7496 110.892 84.3211 111.535 84.3211C112.5 84.2139 113.357 84.1068 114.321 83.8925C114.535 83.8925 114.642 83.7853 114.642 83.5711C114.642 83.3568 114.535 83.3568 114.321 83.4639C112.928 84.1068 111.321 84.1068 109.821 84.2139C104.143 84.9639 98.6782 86.6782 93.3211 88.6068C89.1426 90.1068 85.0711 91.7139 80.9997 93.4282C79.3926 94.0711 78.214 93.7497 77.6783 92.3568C77.0354 90.7496 77.464 89.4639 79.1783 88.8211C86.0354 86.0353 92.8926 83.1425 100.071 81.1068C103.071 80.2496 106.071 79.6068 109.178 79.1782C109.393 79.1782 109.607 79.071 109.928 79.071C109.5 78.4282 108.857 77.9996 108.428 77.3567C108.107 76.821 108.321 76.7139 108.75 76.6068C109.714 76.4996 110.678 76.2853 111.642 76.1782C111.321 75.7496 111 76.071 110.678 76.071C99.214 76.9282 88.8211 81.3211 78.4283 85.6068C78.3212 85.6068 78.214 85.7139 78.1069 85.7139C76.4997 86.3568 75.5355 86.0353 74.8926 84.8568C74.1426 83.2496 74.6783 81.7496 76.1783 81.1068C82.0711 78.7496 87.964 76.1782 94.0711 74.2496C97.9282 73.071 101.893 71.9996 105.964 71.4639C106.393 71.3567 107.035 71.3567 106.393 70.7139C106.178 70.4996 106.178 70.1782 105.964 69.9639C105.643 69.321 105.75 68.9996 106.5 68.7853C108.535 68.2496 108.75 67.6067 107.25 65.9996C106.607 65.3567 105.964 64.6067 105.321 63.9638C105 63.6424 104.785 63.321 104.143 63.7496C105.107 64.6067 105.535 65.8924 106.714 66.4281C107.035 66.5353 107.25 66.8567 107.464 67.071C107.785 67.6067 107.571 68.2496 106.821 68.3567C105 68.571 103.285 68.7853 101.464 69.1067C95.8925 70.1782 90.4283 71.9996 85.1783 73.9282C82.2854 74.9996 79.3926 76.1782 76.6069 77.4639C74.2497 78.5353 74.0355 79.071 74.3569 81.7496C74.464 82.9282 74.0355 84.1068 74.7855 85.1782C73.6069 86.5711 74.3569 88.1782 74.1426 89.7854C73.6069 93.9639 74.7855 97.9282 76.2854 101.785C77.8926 106.071 79.2854 110.571 81.7497 114.428C82.4997 115.714 83.3569 116.785 84.3211 117.964C86.5711 120.643 89.3568 122.25 92.6783 123.107C92.8926 123.214 93.214 123.214 93.4283 123.535C92.464 123.535 91.714 123.214 90.964 123C87.7497 122.035 85.2854 120.214 83.3569 117.535C81.6426 115.178 80.2497 112.714 78.964 110.143C77.8926 108 77.3569 105.75 76.6069 103.5C75.964 101.678 75.3212 99.964 74.6783 98.3568C74.6783 100.928 74.6783 103.714 74.6783 106.393C74.6783 107.893 74.5712 109.393 74.7855 111C74.8926 111.321 74.5712 111.535 74.5712 111.857C74.3569 112.393 74.0355 112.928 74.5712 113.571C74.6783 113.678 74.6783 114 74.5712 114.107C73.3926 115.821 74.2497 117.428 74.5712 119.143C74.8926 120.857 75.964 121.714 77.1426 122.357C77.9997 122.785 79.0712 123.107 79.714 123.857C80.3569 124.607 80.9997 125.143 81.964 125.571C83.6783 126.428 85.2854 127.393 87.214 127.071C87.4283 127.071 87.6426 126.964 87.964 127.285C86.9997 127.607 86.1426 127.928 85.1783 128.25C85.3926 128.678 86.0354 128.785 86.0354 129.321C85.9283 129.857 85.6069 130.071 85.0711 130.178C84.1069 130.393 83.3569 130.928 82.714 131.571C82.4997 131.785 82.3926 131.893 82.4997 132.214C82.6069 132.428 82.8211 132.321 83.0354 132.321C83.8926 132.321 84.7497 132.321 85.714 132.643C86.464 132.964 87.214 132.428 87.4283 131.571C87.5354 131.357 87.6426 131.143 87.8568 131.035C89.5711 129.964 90.6426 128.357 91.6068 126.643C91.8211 126.214 92.0354 126 92.464 125.893C94.0711 125.357 95.6783 124.928 97.1782 124.393C97.3925 124.285 97.714 124.178 97.9283 124.393C98.1425 124.607 97.9282 124.928 97.8211 125.143C96.964 127.5 95.7854 129.643 93.8568 131.357C94.8211 131.25 96.1068 130.178 96.964 128.785C97.8211 127.5 98.464 126.107 98.8925 124.607C98.9997 124.285 99.1068 124.071 99.3211 123.857C99.5354 123.643 99.7497 123.643 99.964 123.75C100.285 123.857 100.178 124.071 100.071 124.285C99.5354 126.214 98.8925 128.035 98.0354 129.75C97.4997 130.821 96.8568 131.893 96.214 132.857C94.8211 134.893 92.8926 135.857 90.4283 135.857C89.2497 135.857 88.0711 136.286 86.8926 136.821C86.7854 136.928 86.6783 137.143 86.5711 137.036C85.0711 136.286 83.8926 137.357 82.4997 137.464C81.3212 137.464 80.1426 138.107 78.8569 137.786C76.714 137.143 75.214 135.75 74.1426 133.821C72.964 131.785 72.3212 129.428 71.7855 127.178C70.8212 123 70.714 118.714 70.714 114.535C70.714 103.928 70.714 93.2139 70.714 82.6068C70.714 78.7496 70.714 74.7853 70.8212 70.9282C70.8212 69.7496 70.4998 68.6782 69.964 67.6067C69.7498 67.2853 69.6426 67.071 70.1783 66.8567C70.2855 66.8567 70.3926 66.7496 70.4998 66.6424C70.8212 65.7853 70.714 65.7853 71.7855 65.4639C75.4283 64.4996 78.7497 62.8924 82.1783 61.4996C85.8211 60.1067 89.464 58.9281 93.1068 57.9638C94.9283 57.5353 96.7497 57.1067 98.5711 56.8924C99.4282 56.7853 99.7497 56.3567 99.4282 55.4995C99.1068 54.5352 99.214 54.2138 100.285 54.1067C101.25 53.9995 102.214 53.8924 103.178 53.8924C104.035 53.8924 104.25 53.571 104.25 52.7138C104.143 51.4281 103.821 50.2495 103.071 49.1781C102.857 48.9638 102.643 48.4281 102.321 48.7495C102 49.0709 102.428 49.2852 102.643 49.4995C103.5 50.3567 103.928 51.4281 103.821 52.6067C103.821 53.3567 103.393 53.571 102.75 53.571C100.928 53.6781 99.1068 53.8924 97.2854 53.9995C92.464 54.5352 87.964 56.0353 83.464 57.5353C78.964 59.0353 74.5712 60.9638 70.1783 62.7853C68.7855 63.4281 67.6069 62.9996 67.0712 61.7138C66.4283 60.2138 66.8569 58.7138 68.2498 58.1781C73.6069 56.0353 78.8569 53.571 84.4283 51.8567C89.1426 50.3567 93.8568 49.0709 98.7854 48.7495C98.3568 48.4281 97.714 48.9638 97.4997 48.4281C97.2854 47.9995 97.6068 47.5709 97.6068 47.0352C97.6068 46.3924 98.0354 46.3924 98.464 46.2852C99.3211 46.1781 100.178 46.1781 101.035 46.0709C101.678 46.0709 101.893 45.6424 101.785 45.1066C101.571 43.8209 101.035 42.5352 100.393 41.3566C100.178 41.0352 99.8568 40.7138 99.214 41.0352C99.8568 41.7852 100.607 42.3209 100.928 43.2852C101.464 45.1066 101.143 45.8566 99.214 45.8566C88.8211 45.8566 79.6069 49.9281 70.2855 53.6781C69.3212 54.1067 68.3569 54.5352 67.3926 54.9638C66.1069 55.4995 64.9283 55.1781 64.3926 53.9995C63.7498 52.4995 64.1783 50.9995 65.5712 50.4638C68.7855 49.0709 72.1069 47.6781 75.4283 46.2852C80.2497 44.3566 85.0711 42.7495 90.1068 41.7852C91.3926 41.5709 92.7854 41.3566 94.1783 41.2495C95.0354 41.1423 95.6783 40.9281 95.7854 39.8566C95.8925 38.9995 96.5354 38.5709 97.4997 38.5709C99.3211 38.5709 99.5354 38.2495 98.9997 36.428C98.5711 35.2495 98.464 33.8566 97.1782 33.3209C97.0711 33.8566 97.0711 33.8566 97.4997 34.3923C98.2497 35.1423 98.6782 36.1066 98.5711 37.2852C98.464 38.0352 98.1425 38.3566 97.3925 38.3566C93.8568 38.4638 90.3211 38.5709 86.8926 39.4281C80.3569 41.0352 74.0355 43.3924 67.9283 46.0709C66.8569 46.4995 65.8926 46.9281 64.8212 47.4638C63.5355 47.9995 62.2498 47.6781 61.8212 46.4995C61.1784 44.9995 61.6069 43.6066 62.9998 42.9638C64.8212 42.2138 66.6426 41.4638 68.3569 40.6066C74.2497 37.9281 80.2497 35.7852 86.464 34.4995C88.4997 34.0709 90.5354 33.7495 92.5711 33.7495C93.1068 33.7495 93.6425 33.6423 93.6425 32.9995C93.6425 32.2495 94.1783 31.7137 94.2854 30.9637C94.3925 30.2137 95.464 29.7852 96.1068 30.1066C96.214 30.2137 96.4283 30.3209 96.5354 30.1066C97.1782 29.1423 98.1425 29.1423 99.1068 29.1423C99.5354 29.1423 99.5354 28.178 100.178 28.6066C101.25 29.3566 102.535 29.7852 103.178 30.9637C103.607 31.7137 104.035 32.5709 104.464 33.3209C104.785 33.8566 104.571 34.0709 104.035 33.9638C102.964 33.8566 102 33.7495 100.714 33.6423C101.357 33.8566 101.893 34.0709 101.893 34.7138C101.893 35.1423 102.214 35.2495 102.535 35.3566C103.071 35.5709 103.393 35.8923 102.857 36.428C102.535 36.7495 102.643 37.0709 102.75 37.3923C103.178 36.6423 103.928 36.3209 104.571 35.7852C105.107 35.3566 105.428 34.8209 105.321 34.0709C104.571 30.6423 102.321 27.9637 100.071 25.3923C98.8925 24.1066 97.2854 23.1423 95.7854 22.178C92.9997 20.2494 89.8926 19.178 86.6783 18.3208C85.3926 17.9994 83.9997 17.9994 82.714 18.1066C78.3212 18.428 74.1426 19.8209 69.964 21.3209C65.7855 22.8209 61.7141 24.3209 57.6426 26.2494C54.2141 27.8566 50.9998 29.678 47.5712 31.3923C45.2141 32.5709 42.857 33.7495 40.8213 35.5709C36.9641 38.8923 35.0356 43.0709 34.7141 48.1067C34.607 51.1067 35.4641 53.8924 36.5356 56.6781C36.7498 57.2138 37.0713 57.7495 36.857 58.3924C36.7498 59.0353 36.857 59.6781 37.0713 60.2138C39.3213 65.8924 41.6784 71.4639 43.607 77.2496C45.4284 82.4996 47.2498 87.7496 49.0712 92.9996C51.2141 99.1068 53.2498 105.214 55.3927 111.321C56.2498 113.678 56.8927 116.25 58.1784 118.5C58.6069 119.25 58.9284 120 58.9284 120.857C59.3569 125.357 60.2141 129.643 62.4641 133.607C64.0712 136.5 66.2141 138.428 69.7498 138.214C70.9283 138.214 72.1069 138.428 73.1783 138.428C74.1426 138.428 74.3569 138.857 74.3569 139.821C74.2497 145.071 74.2497 150.428 74.2497 155.678H86.9997C86.9997 150.107 87.1068 144.536 87.1068 138.964C87.1068 138.75 87.1068 138.428 87.1068 138.214C86.9997 137.464 87.4283 137.143 88.1783 137.036C89.3568 136.928 90.6426 136.607 91.8211 136.5C93.6425 136.178 95.0354 135.214 96.214 133.821C98.3568 131.143 99.5354 128.143 100.393 124.821C100.714 123.428 101.464 122.464 102.857 121.928C105.214 120.964 107.464 120 109.714 118.928C113.25 117.214 117 115.928 120.107 113.357C125.357 109.5 129.321 100.821 126.321 93.3211ZM92.6783 90.4282C92.8926 89.9996 93.214 89.5711 93.7497 89.3568C94.714 89.0354 95.6783 88.6068 96.6425 88.2854C97.9282 87.8568 98.1425 88.0711 98.2497 89.4639C98.2497 89.8925 98.1425 90.2139 97.6068 90.4282C96.3211 90.8568 95.0354 91.2854 93.7497 91.7139C93.5354 91.8211 93.1068 92.0354 93.214 91.8211C93.214 91.2854 92.3568 91.0711 92.6783 90.4282ZM90.3211 82.9282C90.6426 81.8568 91.4997 81.321 92.5711 81.1068C93.4283 80.8925 94.2854 80.4639 95.1425 80.2496C95.3568 80.1425 95.9997 80.0353 95.6782 80.6782C95.5711 80.8925 95.6783 81.1068 95.8925 81.3211C96.1068 81.7496 95.9997 82.2853 95.5711 82.3925C93.8568 83.0353 92.0354 83.6782 90.1068 84.4282C90.5354 83.8925 90.5354 83.2496 91.0711 83.1425C90.964 82.7139 90.6426 83.2496 90.3211 82.9282ZM88.8211 74.0353C89.7854 73.6067 90.6426 72.9639 91.6068 72.7496C92.5711 72.4282 92.6783 73.1782 92.9997 73.7139C93.3211 74.2496 92.9997 74.6782 92.464 74.8925C91.3925 75.321 90.214 75.7496 89.0354 76.1782C89.1426 75.7496 89.1426 75.4282 89.1426 75.1067C89.1426 74.9996 89.2497 74.6782 88.9283 74.7853C88.714 74.8925 88.4997 75.1067 88.3926 74.7853C88.3926 74.4639 88.6068 74.1425 88.8211 74.0353ZM93.3211 120.214C92.9997 120.214 92.7854 120.107 92.7854 119.785C92.7854 119.464 92.9997 119.143 93.3211 119.143C93.6425 119.143 93.5354 119.571 93.6425 119.678C93.7497 120 93.6425 120.214 93.3211 120.214ZM82.8211 59.4638C82.714 58.821 83.1426 58.4995 83.5711 58.3924C84.4283 57.9638 85.2854 57.6424 86.2497 57.321C86.8926 57.1067 87.1068 57.1067 87.4283 57.9638C87.8568 59.3567 87.1068 59.4638 86.2497 59.6781C85.6069 59.8924 85.0711 60.1067 84.5354 60.321C83.9997 60.5353 83.3569 59.9996 83.3569 59.4638C83.1426 59.4638 83.0354 59.4638 82.8211 59.4638V60.321C82.6069 59.8924 82.4997 59.6781 82.8211 59.4638ZM80.1426 51.1067C80.2497 50.7852 80.3569 50.7852 80.5712 50.6781C81.6426 50.2495 82.714 49.8209 83.7854 49.4995C84.3211 49.2852 84.7497 49.2852 84.7497 50.0352C84.7497 50.1424 84.8569 50.3567 84.964 50.4638C85.3926 50.9995 85.1783 51.321 84.6426 51.5352C83.1426 52.1781 81.5354 52.6067 79.9283 53.1424C80.5712 52.6067 79.8212 51.8567 80.1426 51.1067ZM77.8926 44.0352C77.5712 43.1781 78.3212 42.9638 78.8569 42.6424C79.2854 42.3209 79.8212 42.1066 80.3569 41.9995C80.7854 41.8923 81.214 41.6781 81.6426 41.7852C81.5354 42.4281 82.1783 42.9638 82.0711 43.6066C81.964 43.8209 81.8569 44.0352 81.6426 44.0352C80.3569 44.4638 78.964 44.9995 77.6783 45.4281C77.9997 44.9995 78.214 44.5709 77.8926 44.0352ZM95.2497 24.1066C96.3211 24.6423 97.4997 25.0709 98.0354 26.3566C98.1425 26.5709 98.6782 26.8923 98.0354 27.1066C97.6068 27.2137 97.1782 27.9637 96.7497 27.1066C96.3211 26.1423 95.7854 25.178 95.2497 24.1066ZM92.7854 25.178C92.9997 24.9637 93.1068 25.0709 93.4283 25.2852C93.8568 25.6066 94.0711 26.2494 94.714 25.8209C94.9283 25.7137 95.0354 26.1423 95.0354 26.4637C95.0354 27.1066 94.3925 27.1066 94.0711 27.3209C93.6425 27.6423 93.5354 27.2137 93.4283 26.9994C93.214 26.5709 92.9997 26.2494 92.6783 25.8209C92.5711 25.6066 92.464 25.3923 92.7854 25.178ZM87.4283 24.5352C87.5354 24.7494 87.6426 24.7494 87.7497 24.8566C87.7497 24.8566 87.7497 24.8566 87.8568 24.8566C88.714 25.178 89.464 25.7137 90.1068 26.4637C90.4283 26.7852 90.5354 27.2137 89.9997 27.6423C89.464 28.0709 89.3568 27.428 89.2497 27.2137C88.714 26.5709 88.1783 25.7137 87.8568 24.9637C87.6426 24.8566 87.5354 24.7494 87.4283 24.5352ZM84.7497 28.4995C83.6783 27.9637 83.1426 26.8923 82.2854 26.1423C83.3569 26.678 84.214 27.428 84.7497 28.4995ZM74.2497 37.9281C74.2497 37.8209 74.2497 37.7138 74.3569 37.7138C75.4283 37.3923 75.7497 36.3209 76.0712 35.4638C76.2855 35.0352 76.6069 35.0352 76.9283 35.3566C77.1426 34.7138 76.8212 34.0709 77.3569 33.428C77.5712 33.2138 77.5712 32.9995 77.8926 33.428C78.1069 33.8566 78.7497 34.0709 79.0712 34.178C79.8212 34.3923 79.714 34.928 79.8212 35.3566C79.9283 35.8923 79.6069 36.1066 79.1783 36.3209C77.5712 36.9638 75.964 37.3923 74.2497 37.9281C74.1426 38.0352 74.1426 37.9281 74.1426 37.9281H74.2497ZM43.607 56.9995C43.1784 57.2138 42.9641 57.1067 42.857 56.6781C42.6427 55.7138 42.2141 54.7495 41.7856 53.7852C41.4641 53.2495 41.6784 52.821 42.2141 52.6067C45.2141 51.2138 48.107 49.8209 51.1069 48.5352C52.6069 47.8924 53.9998 49.0709 53.9998 50.9995C53.9998 51.7495 53.5712 52.4995 52.7141 52.9281C49.607 54.2138 46.607 55.6067 43.607 56.9995ZM45.4284 64.2853C45.107 63.1067 44.6784 62.0353 44.1427 60.9638C43.9284 60.4281 44.357 60.321 44.6784 60.2138C46.3927 59.3567 48.2141 58.4995 50.0355 57.7495C51.1069 57.2138 52.1784 56.7853 53.2498 56.3567C55.0712 55.4995 56.6784 56.571 56.6784 58.4995C56.6784 59.4638 56.3569 60.1067 55.6069 60.4281C52.4998 61.821 49.3927 63.2138 46.2855 64.7139C45.7498 64.7139 45.5355 64.7139 45.4284 64.2853ZM58.6069 101.893C58.0712 100.821 57.7498 99.8568 57.4284 98.8925C57.1069 98.1425 58.1784 98.3568 58.6069 98.0354V101.893ZM58.7141 92.1425C58.7141 94.1782 58.7141 94.1782 56.7855 95.0354C56.2498 95.2497 56.1427 95.0354 55.9284 94.6068C55.6069 93.5354 55.2855 92.5711 54.8569 91.4996C54.6427 90.9639 54.6427 90.7496 55.1784 90.5354C56.1427 90.1068 57.1069 89.5711 58.1784 89.1425C58.6069 88.9282 58.8212 89.0354 58.7141 89.5711C58.7141 90.2139 58.7141 90.9639 58.7141 91.7139V92.1425ZM56.3569 86.3568C55.6069 86.6782 54.8569 86.9996 54.2141 87.3211C53.7855 87.5354 53.5712 87.5353 53.3569 86.9996C53.0355 85.9282 52.7141 84.8568 52.2855 83.7853C52.0712 83.3568 52.1784 83.1425 52.4998 83.0353C54.4284 82.1782 56.3569 81.2139 58.2855 80.3568C58.7141 80.1425 58.8212 80.3568 58.8212 80.7853C58.8212 81.5353 58.8212 82.1782 58.8212 82.9282C58.7141 85.2853 58.7141 85.2853 56.3569 86.3568ZM58.1784 76.821C55.9284 77.7853 53.7855 78.7496 51.5355 79.7139C50.9998 79.9282 50.8927 79.821 50.6784 79.2853C50.5712 78.7496 50.357 78.2139 50.1427 77.6782C49.8212 77.0353 49.8212 75.8567 48.5355 76.7139C48.4284 76.821 48.2141 76.6068 47.8927 76.4996C49.3927 75.2139 51.107 74.6782 52.6069 73.9282C54.3212 73.071 56.0355 72.4282 57.7498 71.571C58.4998 71.2496 58.6069 71.4639 58.6069 72.1067C58.6069 73.2853 58.6069 74.571 58.6069 75.7496C58.7141 76.3925 58.4998 76.6067 58.1784 76.821ZM57.9641 68.0353C54.9641 69.4282 51.857 70.7139 48.7498 72.1067C48.3212 72.321 48.2141 72.2139 47.9998 71.7853C47.6784 70.821 47.357 69.7496 46.9284 68.7853C46.4998 68.0353 46.9284 67.821 47.4641 67.4996C49.7141 66.5353 51.857 65.4639 54.1069 64.4996C54.7498 64.1781 55.2855 63.9639 55.9284 63.7496C57.6426 63.1067 59.1426 64.1781 59.1426 66.321C59.1426 66.9639 58.8212 67.7139 57.9641 68.0353ZM63.5355 65.9996C62.7855 63.9638 62.1426 62.0353 61.4998 60.2138C59.2498 53.8924 56.9998 47.4638 54.9641 41.1423C53.8927 37.8209 53.4641 34.4995 53.9998 31.0709C54.1069 30.5352 54.2141 29.9995 54.5355 29.5709C54.1069 31.6066 53.8927 33.6423 54.1069 35.678C54.5355 39.4281 55.8212 42.9638 56.9998 46.4995C59.2498 52.821 61.4998 59.1424 63.6426 65.4639C63.7498 65.4639 63.7498 65.571 63.5355 65.9996ZM70.1783 119.357V69.2139H70.4998C70.4998 85.9282 70.4998 102.643 70.1783 119.357ZM82.1783 141.643C81.964 143.464 81.8569 145.286 81.6426 147.107C81.6426 147.428 81.5354 147.75 81.214 147.857C80.8926 148.071 80.464 148.178 80.3569 147.643C80.2497 145.714 79.9283 143.786 80.3569 141.857C80.464 141.214 80.2497 140.571 80.3569 140.036C80.3569 139.5 80.5712 139.178 81.1069 139.178C81.6426 139.071 81.6426 139.607 81.7497 139.928C81.964 140.357 82.2854 140.893 82.1783 141.643ZM95.464 117.964C96.1068 117.75 96.6425 117.428 97.2854 117.214C97.2854 117.321 97.3925 117.321 97.3925 117.428C96.8568 117.643 96.6425 118.178 96.1068 118.393C95.5711 118.5 95.7854 119.035 95.8925 119.464C95.9997 119.785 95.9997 120.107 95.5711 120.214C95.1425 120.428 94.9283 120.107 94.714 119.785C94.1783 118.5 94.1783 118.5 95.464 117.964ZM94.9283 123.857C95.9997 123.964 97.0711 123.964 98.1425 124.071C97.0711 124.071 95.9997 124.285 94.9283 123.857ZM99.1068 121.393C98.5711 121.393 98.5711 120.857 98.5711 120.75C98.5711 120.321 98.9997 120.214 99.4282 120.107C99.8568 120 99.6425 120.428 99.8568 120.535C99.8568 121.071 99.5354 121.285 99.1068 121.393ZM100.714 103.285C100.285 103.393 99.964 103.607 100.393 104.035C99.5354 104.143 98.7854 103.714 97.9283 103.928C97.0711 104.035 96.4283 103.285 95.9997 102.643C95.8925 102.428 95.9997 102 95.5711 102C95.464 102 95.3568 101.893 95.464 101.678C96.214 100.928 96.214 100.178 95.3568 99.4282C95.2497 99.3211 95.464 98.0354 96.1068 97.714C97.3925 97.0711 98.5711 96.3211 100.071 95.8925C100.393 95.7854 100.714 95.8925 100.714 96.2139C100.928 98.1425 101.785 99.8568 101.893 101.785C101.893 102.643 101.357 103.071 100.714 103.285ZM104.571 113.571C104.571 113.678 104.571 113.678 104.571 113.571C104.464 113.678 104.464 113.678 104.464 113.678C104.571 113.678 104.571 113.678 104.571 113.571C104.357 113.035 104.464 112.607 104.893 112.178C107.785 109.178 109.285 105.643 109.285 101.357C109.285 101.035 109.393 100.821 109.393 100.5C109.5 100.071 109.285 99.5354 110.142 99.964C110.678 100.285 111.535 100.071 112.178 99.7497C112.714 99.4282 112.928 99.5354 113.035 100.178C113.25 102.857 112.821 105.321 111.857 107.785C111.535 108.75 110.571 109.285 109.928 110.035C109.285 110.785 108.428 111.535 107.571 111.964C106.714 112.714 105.75 113.25 104.571 113.571ZM111.214 114.535C110.464 114.75 109.928 115.607 108.964 115.178C108.964 115.714 108.643 115.928 108 116.035C108.321 115.5 108.643 115.393 108.964 115.178C111.107 112.928 113.142 110.571 114 107.464C114.642 105.107 114.964 102.857 114.857 100.393C114.75 99.3211 116.25 98.3568 117.321 98.7854C117.535 98.8925 117.535 99.1068 117.642 99.4282C118.392 104.035 117.428 108.214 114.642 111.964C113.785 113.035 112.714 114.107 111.214 114.535Z" fill="#6600CC"/>
<path id="Vector_33" d="M115.928 74.3568C115.928 74.1425 115.928 73.8211 116.035 73.7139C116.356 73.1782 116.356 72.8568 115.606 72.6425C115.071 72.4282 115.071 71.4639 114.321 71.3568C115.285 71.3568 116.249 71.3568 117.214 71.3568C117.749 71.3568 117.856 71.2496 117.749 70.6068C117.321 69.3211 116.999 69.1068 115.606 68.9996C113.785 68.8925 113.571 68.6782 113.356 66.8568C113.249 66.2139 113.464 65.571 113.249 64.821C113.035 64.2853 113.249 63.7496 114.106 63.7496C114.535 63.7496 115.178 63.9639 115.178 63.5353C115.178 62.8925 114.964 62.1425 114.214 61.821C113.999 61.7139 113.678 61.6067 113.356 61.6067C111.964 61.6067 111.428 60.6425 110.785 59.6782C110.785 59.571 110.785 59.571 110.678 59.4639C110.142 58.9282 111.642 58.1782 110.678 57.8567C109.928 57.5353 109.928 56.9996 109.499 56.3567C110.464 56.3567 111.214 56.3567 112.071 56.3567C112.499 56.3567 112.714 56.3567 112.499 55.821C112.178 54.7496 111.642 53.9996 110.356 54.1067C109.606 54.1067 108.856 53.8924 107.999 53.7853C108.535 53.4639 108.321 53.0353 108.214 52.7139C108.106 52.1781 107.999 51.7496 108.428 51.321C108.749 50.8924 108.535 50.571 108.106 50.4639C107.464 50.3567 107.249 49.9281 107.356 49.3924C107.464 48.8567 107.999 49.071 108.321 49.071C108.964 49.071 109.606 49.071 110.249 49.071C109.928 48.1067 109.606 47.0353 108.428 46.7138C109.606 46.6067 109.928 46.9281 110.356 47.9996C110.999 49.6067 110.892 50.0353 110.035 50.7853C109.714 51.1067 109.285 51.321 108.856 51.6424C108.428 51.9639 107.999 52.1781 108.214 52.821C108.428 53.3567 108.642 53.8924 109.392 53.8924C109.821 53.8924 110.356 53.9996 110.785 53.9996C112.178 54.1067 112.499 54.321 113.035 55.7139C113.464 57.1067 113.356 57.5353 112.178 58.3924C111.642 58.821 110.785 59.0353 111.214 59.8925C111.535 60.6425 112.178 61.3925 113.249 61.3925C114.106 61.4996 115.071 61.3925 115.499 62.571C116.249 64.4996 116.142 64.821 114.428 65.9996C113.892 66.321 113.464 66.6425 113.678 67.3925C113.892 68.1425 114.321 68.6782 115.178 68.7853C115.392 68.7853 115.606 68.7853 115.928 68.7853C117.642 68.7853 118.392 69.5353 118.713 71.2496C118.821 72.1068 118.285 72.4282 117.749 72.8568C116.999 73.3925 116.249 73.6068 115.928 74.3568Z" fill="#6600CC"/>
<path id="Vector_34" d="M120.963 88.9291C120.963 88.7148 121.07 88.5005 121.177 88.2862C121.499 87.9648 121.499 87.6434 120.963 87.5362C120.213 87.4291 120.106 86.3577 119.141 86.5719C119.141 86.4648 119.141 86.3577 119.249 86.1434C120.32 86.1434 121.284 86.1434 122.356 86.1434C122.999 86.1434 123.213 86.0362 122.999 85.2862C122.677 84.2148 122.141 83.7862 121.07 83.8934C120.32 83.8934 119.463 83.7862 118.606 83.6791C119.141 83.3577 119.034 83.0362 118.927 82.6076C118.713 81.9648 118.177 81.2148 118.927 80.5719C119.034 80.4648 119.034 80.1434 118.82 80.1434C117.963 80.0362 117.749 78.5362 116.463 78.9648C117.106 78.4291 117.749 78.6433 118.391 78.5362C118.606 78.5362 118.82 78.5362 119.034 78.5362C120.856 78.5362 120.856 78.5362 119.999 76.8219C119.999 76.7148 119.999 76.6076 119.999 76.5005C121.284 77.0362 121.606 78.9648 120.641 79.8219C120.427 80.0362 120.106 80.2505 119.891 80.4648C119.356 80.7862 118.606 81.0005 118.82 81.9648C119.034 83.0362 119.57 83.6791 120.641 83.5719C120.856 83.5719 120.963 83.5719 121.177 83.5719C123.32 83.5719 123.106 83.7862 123.856 85.8219C124.07 86.3577 123.749 86.7862 123.32 87.1077C122.463 87.8577 121.713 88.3934 120.963 88.9291Z" fill="#6600CC"/>
<path id="Vector_35" d="M105.427 45.1073C105.427 45.0002 105.427 44.893 105.427 44.6787C105.534 43.9287 105.213 43.2859 104.677 42.7502C104.463 42.5359 104.463 42.3216 104.57 42.0001C104.57 41.6787 104.891 41.5716 105.106 41.5716C105.856 41.5716 106.498 41.5716 107.248 41.5716C107.034 39.7501 105.856 39.2144 104.356 39.1073C103.713 39.1073 103.177 38.893 102.534 38.7859C102.641 38.7859 102.856 38.6787 102.963 38.6787C103.927 39.1073 104.891 39.1073 105.856 39.2144C107.356 39.4287 107.57 40.6073 107.891 41.6787C108.213 42.5359 107.57 43.0716 107.034 43.6073C106.498 44.0359 105.748 44.2502 105.534 45.1073C105.534 45.1073 105.427 45.2144 105.427 45.1073Z" fill="#6600CC"/>
<path id="Vector_36" d="M107.358 46.607C105.965 46.3927 105.965 46.3927 105.644 46.0713C106.179 46.2856 106.715 46.4999 107.251 46.4999C107.358 46.4999 107.358 46.4999 107.358 46.607Z" fill="#6600CC"/>
<path id="Vector_37" d="M104.251 56.6798C104.144 56.5726 103.93 56.3584 103.715 56.5726C103.608 56.6798 103.608 56.8941 103.823 57.0012C104.573 57.4298 104.251 57.8584 104.037 58.5012C103.823 59.2512 103.501 60.0012 103.394 60.8584C103.287 61.3941 103.073 61.5012 102.537 61.6084C100.823 61.8227 99.1083 61.9298 97.394 62.3584C89.6798 63.9655 82.3941 66.7513 75.2155 69.8584C74.787 70.0727 74.2512 70.287 73.8227 70.5013C75.0012 70.3941 74.6798 71.3584 74.787 71.8941C75.0012 72.4298 75.0012 72.9656 74.3584 73.1798C73.8227 73.3941 73.1798 73.6084 72.8584 74.2513C73.1798 74.037 73.5013 73.8227 73.8227 73.7156C77.1441 72.4298 80.5727 71.037 83.8941 69.7513C89.3583 67.6084 94.9298 65.787 100.608 64.7155C102.001 64.5012 102.108 64.287 101.787 62.8941C101.787 62.787 101.787 62.787 101.68 62.6798C101.573 62.2512 101.68 62.037 102.215 61.9298C103.93 61.6084 103.93 61.6084 104.358 59.8941C104.465 59.5727 104.573 59.1441 104.573 58.8227C104.787 58.0726 104.787 57.3226 104.251 56.6798ZM89.2512 67.3941C87.4298 68.037 85.7155 68.5727 83.8941 69.2155C85.0726 68.8941 84.6441 67.7155 84.9655 66.9655C85.0726 66.7513 85.0726 66.6441 85.2869 66.537C86.6798 66.0013 88.0726 65.4655 89.4655 64.9298C89.8941 64.8227 90.1083 64.8227 90.0012 65.3584C90.0012 65.3584 90.1083 65.4655 90.1083 65.5727C90.6441 66.7513 90.6441 66.8584 89.2512 67.3941Z" fill="#6600CC"/>
<path id="Vector_38" d="M77.3579 132.643C76.9294 132.643 76.7151 132.75 76.3936 132.643C76.0722 132.535 75.7508 132.214 75.8579 131.893C75.8579 131.464 76.2865 131.678 76.6079 131.571C78.2151 131.357 79.8222 131.143 81.5365 130.928C81.0008 132.857 79.3936 132.214 78.1079 132.428C78.8579 132.428 79.5008 132.964 80.2508 132.857C80.6794 132.75 81.1079 133.178 81.1079 133.607C81.1079 134.143 80.5722 133.928 80.3579 133.928C79.2865 134.25 78.2151 134.143 77.2508 133.5C76.8222 133.285 76.5008 132.964 77.3579 132.643Z" fill="#6600CC"/>
<path id="Vector_39" d="M78.5381 129.75C77.5738 130.179 76.6095 130.286 75.6452 130.286C75.2167 130.286 74.7881 130.179 74.5738 129.75C74.4667 129.536 74.3595 129.108 74.8952 129.215C76.0738 129.536 77.3595 129.536 78.5381 129.75Z" fill="#6600CC"/>
<path id="Vector_40" d="M108.428 60.5356C109.606 60.9642 110.571 62.9999 110.249 64.0714C110.142 64.2857 110.035 64.4999 109.821 64.4999C109.606 64.4999 109.606 64.2857 109.606 64.1785C109.821 62.7856 109.499 61.6071 108.428 60.5356Z" fill="#6600CC"/>
<path id="Vector_41" d="M114.642 83.5714C114.75 81.6428 114 80.3571 112.714 79.1785C113.678 78.9642 113.892 79.6071 114.107 80.1428C115.071 81.6428 115.285 82.8214 114.642 83.5714Z" fill="#6600CC"/>
<path id="Vector_42" d="M110.356 71.7856C111.535 72.3214 112.499 74.4642 112.285 75.9642C111.749 74.3571 111.535 72.7499 110.356 71.7856Z" fill="#6600CC"/>
<path id="Vector_43" d="M101.035 102.643C101.035 102.429 100.928 102.107 101.464 102.107C101.464 102.429 101.142 102.429 101.035 102.643Z" fill="#6600CC"/>
<path id="Vector_44" d="M101.037 102.644C100.929 102.644 100.929 102.753 101.037 102.644V102.644Z" fill="#6600CC"/>
<path id="Vector_45" d="M95.7873 80.6794C95.6798 80.6794 95.6798 80.5719 95.5723 80.5719C95.5723 80.5719 95.5723 80.5719 95.6798 80.4644C95.7873 80.5719 95.7873 80.5719 95.7873 80.6794Z" fill="#6600CC"/>
<path id="Vector_46" d="M83.25 59.4657C83.25 59.4657 83.25 59.3574 83.3582 59.3574C83.3582 59.3574 83.3582 59.4657 83.25 59.4657Z" fill="#6600CC"/>
</g>
<g id="Group_8">
<path id="Vector_47" d="M121.502 90.7502C121.502 90.9645 121.181 90.9645 121.074 91.1788C121.716 91.3931 122.252 91.2859 122.895 91.2859C124.716 91.2859 124.824 91.5002 125.359 93.2145C125.466 93.7502 125.359 94.2859 125.681 94.7145C125.895 95.1431 125.895 95.6788 126.324 96.1074C126.109 96.2145 126.109 96.2145 126.002 96.2145C125.681 96.2145 125.466 95.5716 125.252 95.7859C124.824 96.1074 125.038 96.7502 125.038 97.1788C125.038 97.5002 125.145 97.8217 125.574 97.8217C125.895 97.8217 126.109 98.0359 126.216 98.3574C126.752 100.072 126.002 104.786 124.716 106.5C125.038 104.786 125.252 103.393 125.252 101.786C124.931 101.893 125.252 102.322 124.824 102.429C124.716 101.036 124.716 99.6431 124.502 98.2502C124.395 97.5002 124.074 96.7502 123.538 96.2145C123.216 95.8931 122.788 95.4645 122.681 96.4288C122.681 96.6431 122.359 96.8574 122.359 97.1788C122.252 97.6074 122.252 98.0359 122.895 97.8217C123.645 97.6074 123.966 97.8217 124.074 98.6788C124.609 102.215 124.181 105.429 122.574 108.643C121.824 110.036 120.966 111.322 119.788 112.5C120.109 111.429 120.859 110.465 121.181 109.5C121.609 108.429 121.931 107.25 122.252 106.072C122.252 105.965 122.359 105.857 122.252 105.75C121.181 103.929 122.252 102 121.824 100.179C121.502 99.0002 121.395 97.8217 120.645 96.8574C120.431 96.5359 119.788 96.1074 119.681 96.3217C119.466 96.8574 118.609 97.1788 118.824 97.9288C119.038 98.4645 119.574 98.2502 120.002 98.1431C120.859 97.9288 120.966 98.3574 121.074 99.0002C121.824 103.179 121.181 107.143 118.931 110.786C118.716 111.107 118.609 111.643 117.966 111.429C117.645 111.322 117.538 111.643 117.431 111.857C116.895 112.607 116.145 113.143 115.502 113.893C115.288 114.107 115.181 114.322 114.966 114.107C114.752 113.893 115.074 113.786 115.181 113.572C116.466 111.965 117.538 110.25 118.181 108.322C118.609 107.036 118.931 105.75 119.038 104.357C119.252 102.857 118.609 101.465 118.288 99.9645C118.074 99.1074 117.966 98.2502 117.431 97.5002C117.216 97.1788 116.895 96.6431 116.466 96.8574C115.502 97.2859 115.502 96.4288 115.502 96.0002C115.395 95.0359 114.645 94.2859 114.002 93.9645C113.145 93.5359 113.788 93.0002 113.681 92.5716C113.574 92.0359 114.109 92.1431 114.431 92.1431C115.288 92.0359 116.252 91.8216 117.109 91.6073C117.752 91.5002 118.074 91.0716 117.859 90.4288C117.538 89.2502 117.109 87.9645 116.466 86.893C116.038 86.2502 115.395 86.3573 114.752 86.4645C116.038 86.7859 117.431 88.9288 117.216 90.1073C117.109 90.9645 116.681 91.2859 115.824 91.3931C113.895 91.6073 111.859 91.8216 109.931 92.2502C104.252 93.4288 98.7879 95.3574 93.3237 97.3931C90.0023 98.5717 86.788 99.9645 83.5737 101.25C82.0737 101.893 81.0023 101.465 80.4666 100.179C79.8237 98.5717 80.2523 97.2859 81.7523 96.6431C90.0023 93.3216 98.1451 89.8931 106.824 87.8573C108.752 87.4288 110.574 87.1073 112.502 86.7859C112.824 86.7859 113.145 86.6788 113.466 86.5716C112.181 86.7859 111.859 85.6073 111.109 85.0716C110.681 84.7502 110.788 84.3216 111.431 84.3216C112.395 84.2145 113.252 84.1073 114.216 83.893C114.431 83.893 114.538 83.7859 114.538 83.5716C114.538 83.3573 114.431 83.3573 114.216 83.4645C112.824 84.1073 111.216 84.0002 109.716 84.2145C104.038 84.9645 98.5737 86.6788 93.2165 88.6073C89.038 90.1073 84.9666 91.7145 80.8951 93.4288C79.288 94.0716 78.1094 93.7502 77.5737 92.3573C76.9309 90.7502 77.3594 89.4645 79.0737 88.8216C85.9308 86.0359 92.788 83.143 99.9665 81.1073C102.967 80.2502 105.967 79.6073 109.181 79.1787C109.395 79.1787 109.609 79.0716 109.931 79.0716C109.502 78.4287 108.859 78.0002 108.538 77.3573C108.216 76.8216 108.431 76.7144 108.859 76.6073C109.824 76.5002 110.788 76.2859 111.752 76.1787C111.431 75.7502 111.109 76.0716 110.788 76.0716C99.3237 76.9287 88.9308 81.3216 78.538 85.6073C78.4309 85.6073 78.3237 85.7145 78.2166 85.7145C76.6094 86.3573 75.6452 86.0359 75.0023 84.8573C74.2523 83.2502 74.788 81.7502 76.288 81.1073C82.1809 78.7502 88.0737 76.1787 94.1808 74.2501C98.038 73.0716 102.002 72.0001 106.074 71.4644C106.502 71.3573 107.145 71.3573 106.502 70.7144C106.288 70.5001 106.288 70.1787 106.074 69.9644C105.752 69.3216 105.859 69.0001 106.609 68.7858C108.645 68.2501 108.859 67.6073 107.359 66.0001C106.716 65.3573 106.074 64.6073 105.431 63.9644C105.109 63.643 104.895 63.3215 104.359 63.7501C105.324 64.6073 105.752 65.893 106.931 66.4287C107.252 66.5358 107.466 66.8573 107.681 67.0716C108.002 67.6073 107.788 68.2501 107.038 68.3573C105.217 68.5716 103.502 68.7858 101.681 69.1073C96.1094 70.1787 90.6451 72.0001 85.3951 73.9287C82.5023 75.0002 79.6094 76.1787 76.8237 77.4644C74.4666 78.5359 74.2523 79.0716 74.5737 81.7502C74.6809 82.9287 74.2523 84.1073 75.0023 85.1788C73.8237 86.5716 74.5737 88.1788 74.3595 89.7859C73.8237 93.9645 75.0023 97.9288 76.5023 101.786C78.1094 106.072 79.5023 110.465 81.9666 114.429C82.7166 115.715 83.5737 116.893 84.538 117.965C86.788 120.643 89.5737 122.25 92.8951 123.107C93.1094 123.215 93.4308 123.215 93.6451 123.536C92.6808 123.536 91.9308 123.215 91.1808 123C87.9666 122.036 85.5023 120.215 83.5737 117.536C81.8594 115.179 80.4666 112.715 79.1809 110.143C78.1094 108 77.5737 105.75 76.8237 103.5C76.1809 101.679 75.538 99.9645 74.8952 98.3574C74.8952 100.929 74.8952 103.715 74.8952 106.393C74.8952 107.893 74.788 109.5 75.0023 111C75.1095 111.322 74.788 111.536 74.6809 111.857C74.4666 112.393 74.1452 112.929 74.6809 113.572C74.788 113.679 74.788 114 74.6809 114.107C73.5023 115.822 74.3595 117.429 74.6809 119.143C75.0023 120.857 76.0737 121.715 77.2523 122.357C78.1094 122.786 79.1809 123.107 79.8237 123.857C80.4666 124.607 81.1094 125.143 82.0737 125.572C83.788 126.429 85.3951 127.393 87.3237 127.072C87.538 127.072 87.7523 126.965 88.0737 127.286C87.1094 127.607 86.2523 127.929 85.288 128.25C85.5023 128.679 86.1451 128.786 86.1451 129.322C86.038 129.857 85.7166 130.072 85.1808 130.179C84.2166 130.393 83.4666 130.929 82.8237 131.572C82.6094 131.786 82.5023 131.893 82.6094 132.215C82.7166 132.429 82.9309 132.322 83.1451 132.322C84.0023 132.322 84.8594 132.322 85.8237 132.643C86.5737 132.965 87.3237 132.429 87.538 131.572C87.6451 131.357 87.7523 131.143 87.9666 131.036C89.6808 129.965 90.7523 128.357 91.7165 126.643C91.9308 126.215 92.1451 126 92.5737 125.893C94.1808 125.357 95.788 124.929 97.288 124.393C97.5022 124.286 97.8237 124.179 98.038 124.393C98.2522 124.607 98.038 124.929 97.9308 125.143C97.0737 127.5 95.8951 129.643 93.9665 131.357C94.9308 131.25 96.2165 130.179 97.0737 128.786C97.9308 127.5 98.5737 126 99.0022 124.607C99.1094 124.286 99.2165 124.072 99.4308 123.857C99.6451 123.643 99.8594 123.643 100.074 123.75C100.395 123.857 100.288 124.072 100.181 124.286C99.6451 126.215 99.0022 128.036 98.1451 129.75C97.6094 130.822 96.9665 131.893 96.3237 132.857C94.9308 134.893 93.0023 135.857 90.538 135.857C89.3594 135.857 88.1808 136.286 87.0023 136.822C86.8951 136.929 86.788 137.143 86.6808 137.036C85.1809 136.286 84.0023 137.357 82.6094 137.465C81.4309 137.465 80.2523 138.107 78.9666 137.786C76.8237 137.143 75.3237 135.75 74.2523 133.822C73.0737 131.786 72.4309 129.429 71.8952 127.179C70.9309 123 70.8237 118.715 70.8237 114.536C70.8237 103.929 70.8237 93.2145 70.8237 82.6073C70.8237 78.7502 70.8237 74.7859 70.9309 70.9287C70.9309 69.7501 70.6095 68.6787 70.0737 67.6073C69.8595 67.2858 69.7523 67.0716 70.288 66.8573C70.3952 66.8573 70.5023 66.7501 70.6095 66.643C70.9309 65.7858 70.8237 65.7858 71.8952 65.4644C75.538 64.5001 78.8594 62.893 82.288 61.5001C85.9308 60.1072 89.5737 58.9287 93.2165 57.9644C95.038 57.5358 96.8594 57.1072 98.6808 56.893C99.5379 56.7858 99.8594 56.3572 99.538 55.5001C99.2165 54.5358 99.3237 54.2144 100.395 54.1072C101.359 54.0001 102.324 53.8929 103.288 53.8929C104.145 53.8929 104.359 53.5715 104.359 52.7144C104.252 51.4286 103.931 50.2501 103.181 49.1786C102.967 48.9644 102.752 48.4286 102.431 48.7501C102.109 49.0715 102.538 49.2858 102.752 49.5001C103.609 50.3572 104.038 51.4286 103.931 52.6072C103.931 53.3572 103.502 53.5715 102.859 53.5715C101.038 53.6787 99.2165 53.8929 97.3951 54.0001C92.5737 54.5358 88.0737 56.0358 83.5737 57.5358C79.0737 59.0358 74.6809 60.9644 70.288 62.7858C68.8952 63.4287 67.7166 63.0001 67.1809 61.7144C66.538 60.2144 66.9666 58.7144 68.3595 58.1787C73.7166 56.0358 78.9666 53.5715 84.538 51.8572C89.2523 50.3572 93.9665 49.0715 98.8951 48.7501C98.4665 48.4286 97.8237 48.9644 97.6094 48.4286C97.3951 48.0001 97.7165 47.5715 97.7165 47.0358C97.7165 46.3929 98.1451 46.3929 98.5737 46.2858C99.4308 46.1786 100.288 46.1786 101.145 46.1786C101.788 46.1786 102.002 45.7501 101.895 45.2143C101.681 43.9286 101.145 42.6429 100.502 41.4643C100.288 41.1429 99.9665 40.8215 99.3237 41.1429C99.9665 41.8929 100.717 42.4286 101.038 43.3929C101.574 45.2143 101.252 45.9643 99.3237 45.9643C88.9308 45.9643 79.7166 50.0358 70.3952 53.7858C69.4309 54.2144 68.4666 54.6429 67.5023 55.0715C66.2166 55.6072 65.038 55.2858 64.5023 54.1072C63.8595 52.6072 64.2881 51.1072 65.6809 50.5715C68.8952 49.1786 72.2166 47.7858 75.538 46.3929C80.3594 44.4643 85.1808 42.8572 90.2165 41.8929C91.5023 41.6786 92.8951 41.4643 94.288 41.3572C95.1451 41.25 95.788 41.0358 95.8951 39.9643C96.0022 39.1072 96.6451 38.6786 97.6094 38.6786C99.4308 38.6786 99.6451 38.3572 99.1094 36.5357C98.6808 35.3572 98.5737 33.9643 97.288 33.4286C97.1808 33.9643 97.1808 33.9643 97.6094 34.5C98.3594 35.25 98.788 36.2143 98.6808 37.3929C98.5737 38.1429 98.2522 38.4643 97.5022 38.4643C93.9665 38.5715 90.4308 38.6786 87.0023 39.5358C80.4666 41.1429 74.1452 43.5001 68.038 46.1786C66.9666 46.6072 66.0023 47.0358 64.9309 47.5715C63.6452 48.1072 62.3595 47.7858 61.9309 46.6072C61.2881 45.1072 61.7166 43.7143 63.1095 43.0715C64.9309 42.3215 66.7523 41.5715 68.4666 40.7143C74.3595 38.0358 80.3594 35.8929 86.5737 34.6072C88.6094 34.1786 90.6451 33.8572 92.6808 33.8572C93.2165 33.8572 93.7523 33.75 93.7523 33.1072C93.7523 32.3572 94.288 31.8214 94.3951 31.0714C94.5023 30.3214 95.5737 29.8929 96.2165 30.2143C96.4308 30.3214 96.538 30.4286 96.6451 30.2143C97.288 29.25 98.2522 29.25 99.2165 29.25C99.6451 29.25 99.6451 28.2857 100.288 28.7143C101.359 29.4643 102.645 29.8929 103.288 31.0714C103.717 31.8214 104.145 32.6786 104.574 33.4286C104.895 33.9643 104.681 34.1786 104.145 34.0715C103.074 33.9643 102.109 33.8572 100.824 33.75C101.467 33.9643 102.002 34.1786 102.002 34.8215C102.002 35.25 102.324 35.3572 102.645 35.4643C103.181 35.6786 103.502 36 102.967 36.5357C102.645 36.8572 102.752 37.1786 102.859 37.5C102.967 37.8215 102.967 38.0357 103.074 38.3572C102.967 38.3572 102.752 38.4643 102.645 38.4643C103.288 38.6786 103.824 38.7858 104.467 38.7858C106.074 38.8929 107.252 39.4286 107.359 41.25C106.609 41.25 105.966 41.25 105.217 41.25C104.895 41.25 104.681 41.25 104.681 41.6786C104.681 41.8929 104.574 42.2143 104.788 42.4286C105.324 42.9643 105.645 43.6072 105.538 44.3572C105.538 44.4643 105.538 44.5715 105.538 44.7858C105.645 45.1072 105.752 45.4286 105.752 45.8572C106.074 46.1786 106.074 46.1786 107.466 46.3929C107.788 46.3929 108.109 46.5001 108.431 46.5001C109.716 46.7143 109.931 47.7858 110.252 48.8572C109.609 48.8572 108.966 48.8572 108.324 48.8572C108.002 48.8572 107.466 48.6429 107.359 49.1786C107.252 49.7144 107.466 50.1429 108.109 50.2501C108.538 50.3572 108.859 50.6786 108.431 51.1072C108.002 51.5358 108.109 52.0715 108.216 52.5001C108.324 52.8215 108.538 53.2501 108.002 53.5715C108.859 53.6787 109.609 53.8929 110.359 53.8929C111.645 53.8929 112.181 54.5358 112.502 55.6072C112.716 56.143 112.502 56.143 112.074 56.143C111.216 56.143 110.466 56.143 109.502 56.143C109.931 56.7858 109.931 57.3215 110.681 57.643C111.645 57.9644 110.145 58.7144 110.681 59.2501C110.681 59.2501 110.681 59.3572 110.788 59.4644C111.324 60.4287 111.966 61.393 113.359 61.393C113.681 61.393 114.002 61.5001 114.216 61.6073C114.966 61.9287 115.181 62.6787 115.181 63.3215C115.181 63.7501 114.431 63.5358 114.109 63.5358C113.252 63.4287 113.038 64.0715 113.252 64.6073C113.466 65.2501 113.359 65.893 113.359 66.643C113.574 68.4644 113.895 68.6787 115.609 68.7858C116.895 68.893 117.216 69.1073 117.752 70.393C117.966 70.9287 117.859 71.143 117.216 71.143C116.252 71.143 115.288 71.143 114.324 71.143C115.181 71.2501 115.074 72.3216 115.609 72.4287C116.359 72.643 116.359 72.9644 116.038 73.5001C115.931 73.7144 116.038 73.9287 115.931 74.143C116.038 74.3573 116.038 74.4644 116.145 74.6787C116.145 74.893 116.252 75.2144 116.252 75.4287C116.574 75.9644 117.002 76.1787 117.645 76.1787C118.395 76.1787 119.145 76.1787 119.895 76.5002C119.895 76.6073 119.895 76.7144 119.895 76.8216C120.752 78.5359 120.752 78.5359 118.931 78.5359C118.716 78.5359 118.502 78.5359 118.288 78.5359C117.645 78.643 117.002 78.4287 116.359 78.9644C117.645 78.4287 117.752 79.9287 118.716 80.143C118.931 80.143 118.931 80.4645 118.824 80.5716C118.181 81.3216 118.716 81.9645 118.824 82.6073C118.931 83.0359 119.145 83.3573 118.502 83.6787C119.359 83.7859 120.216 83.893 120.966 83.893C122.038 83.893 122.574 84.3216 122.895 85.2859C123.109 86.0359 122.895 86.143 122.252 86.143C121.181 86.143 120.216 86.143 119.145 86.143C119.145 86.2502 119.145 86.3573 119.038 86.5716C120.002 86.3573 120.109 87.4288 120.859 87.5359C121.395 87.643 121.395 87.8573 121.074 88.2859C120.859 88.5002 120.752 88.6073 120.859 88.9288C121.181 89.5716 121.288 90.1073 121.502 90.7502ZM72.8595 74.2501C73.1809 74.0359 73.5023 73.8216 73.8237 73.7144C77.1452 72.4287 80.5737 71.0359 83.8951 69.7501C89.3594 67.6073 94.9308 65.7858 100.609 64.7144C102.002 64.5001 102.109 64.2858 101.788 62.893C101.788 62.7858 101.788 62.7858 101.681 62.6787C101.574 62.2501 101.681 62.0358 102.217 61.9287C103.931 61.6073 103.931 61.6073 104.359 59.893C104.467 59.5715 104.574 59.143 104.574 58.8215C104.681 58.0715 104.681 57.3215 104.038 56.6787C103.931 56.5715 103.717 56.3572 103.502 56.5715C103.395 56.6787 103.395 56.893 103.609 57.0001C104.359 57.4287 104.038 57.8572 103.824 58.5001C103.609 59.2501 103.288 60.0001 103.181 60.7501C103.074 61.2858 102.859 61.393 102.324 61.5001C100.609 61.7144 98.8951 61.8215 97.1808 62.2501C89.4665 63.8573 82.1809 66.643 75.0023 69.7501C74.5737 69.9644 74.038 70.1787 73.6095 70.393C74.788 70.2859 74.4666 71.2501 74.5737 71.7859C74.788 72.3216 74.788 72.8573 74.1452 73.0716C73.8237 73.393 73.1809 73.6073 72.8595 74.2501ZM77.3594 132.643C76.5023 132.965 76.8237 133.286 77.2523 133.607C78.2166 134.25 79.288 134.357 80.3594 134.036C80.6809 133.929 81.1094 134.143 81.1094 133.715C81.1094 133.286 80.6809 132.857 80.2523 132.965C79.5023 133.072 78.8594 132.643 78.1094 132.536C79.3952 132.322 80.8951 132.965 81.538 131.036C79.8237 131.25 78.2166 131.465 76.6094 131.679C76.3952 131.679 75.9666 131.465 75.8594 132C75.8594 132.322 76.0737 132.643 76.3952 132.75C76.6094 132.643 76.9309 132.643 77.3594 132.643ZM78.538 129.75C77.2523 129.536 76.0737 129.429 74.8952 129.215C74.4666 129.107 74.5737 129.429 74.5737 129.75C74.788 130.286 75.2166 130.286 75.6452 130.286C76.6094 130.286 77.5737 130.179 78.538 129.75ZM108.431 60.5358C109.502 61.6073 109.824 62.7858 109.609 64.1787C109.609 64.393 109.609 64.5001 109.824 64.5001C110.038 64.5001 110.145 64.2858 110.252 64.0715C110.574 63.1073 109.609 61.0715 108.431 60.5358ZM114.645 83.5716C115.288 82.8216 115.074 81.643 114.109 80.0359C113.788 79.5002 113.574 78.8573 112.716 79.0716C114.002 80.2502 114.752 81.643 114.645 83.5716ZM110.359 71.7859C111.538 72.8573 111.752 74.3573 112.288 75.9644C112.502 74.4644 111.538 72.2144 110.359 71.7859Z" fill="#50D955"/>
<path id="Vector_48" d="M56.4674 58.3939C56.4674 59.3582 56.146 60.001 55.396 60.3225C52.2888 61.7153 49.1817 63.1082 46.0746 64.6082C45.7531 64.8225 45.5388 64.7153 45.4317 64.2868C45.1103 63.1082 44.6817 62.0367 44.146 60.9653C43.8246 60.4296 44.3603 60.3225 44.6817 60.2153C46.396 59.3582 48.2174 58.501 50.0388 57.751C51.1103 57.2153 52.1817 56.7867 53.2531 56.3582C54.9674 55.3939 56.5745 56.4653 56.4674 58.3939Z" fill="#50D955"/>
<path id="Vector_49" d="M59.146 66.3217C59.146 66.9645 58.7174 67.7145 57.9674 68.036C54.9675 69.4288 51.8603 70.7145 48.7532 72.1074C48.3246 72.3217 48.2175 72.2145 48.0032 71.786C47.6818 70.8217 47.3603 69.7502 46.9318 68.786C46.5032 68.0359 46.9318 67.8217 47.4675 67.5002C49.7175 66.5359 51.8603 65.4645 54.1103 64.5002C54.7532 64.1788 55.2889 63.9645 55.9317 63.7502C57.7532 63.1074 59.146 64.1788 59.146 66.3217Z" fill="#50D955"/>
<path id="Vector_50" d="M53.8955 51C53.8955 51.75 53.467 52.5 52.6098 52.9286C49.6098 54.3214 46.6099 55.7143 43.5027 57.1072C43.0741 57.3214 42.8599 57.2143 42.7527 56.7857C42.4313 55.8214 42.1099 54.8572 41.6813 53.8929C41.3599 53.3571 41.5742 52.9286 42.1099 52.7143C45.1099 51.3214 48.0027 49.9286 51.0027 48.6428C52.5027 47.8928 53.8955 49.0714 53.8955 51Z" fill="#50D955"/>
<path id="Vector_51" d="M104.575 113.572C104.361 113.036 104.468 112.608 104.896 112.179C107.789 109.179 109.289 105.644 109.289 101.358C109.289 101.036 109.396 100.822 109.396 100.501C109.503 100.072 109.289 99.5364 110.146 99.965C110.682 100.286 111.539 100.072 112.182 99.7507C112.718 99.4293 112.932 99.5364 113.039 100.179C113.253 102.858 112.825 105.322 111.861 107.786C111.539 108.751 110.575 109.286 109.932 110.036C109.289 110.786 108.432 111.536 107.575 111.965C106.718 112.715 105.753 113.251 104.575 113.572Z" fill="#50D955"/>
<path id="Vector_52" d="M48.0029 76.5006C49.5029 75.2149 51.2172 74.6791 52.7172 73.9291C54.4315 73.072 56.1458 72.4291 57.86 71.572C58.61 71.2506 58.7172 71.4648 58.7172 72.1077C58.7172 73.2863 58.7172 74.572 58.7172 75.7506C58.7172 76.2863 58.5029 76.5006 58.0743 76.6077C55.8243 77.572 53.6815 78.5363 51.4315 79.5006C50.8958 79.7149 50.7886 79.6077 50.5743 79.072C50.4672 78.5363 50.2529 78.0006 50.0386 77.4649C49.7172 76.822 49.7172 75.6434 48.4315 76.5006C48.4315 76.822 48.2172 76.6077 48.0029 76.5006Z" fill="#50D955"/>
<path id="Vector_53" d="M108.969 115.179C111.112 112.929 113.147 110.572 114.004 107.465C114.647 105.108 114.969 102.858 114.862 100.393C114.754 99.322 116.254 98.3577 117.326 98.7863C117.54 98.8934 117.54 99.1077 117.647 99.4292C118.397 104.036 117.433 108.215 114.647 111.965C113.79 113.036 112.826 114.215 111.219 114.536C110.469 114.751 109.933 115.608 108.969 115.179Z" fill="#50D955"/>
<path id="Vector_54" d="M100.396 104.037C99.5389 104.144 98.7889 103.715 97.9317 103.929C97.0746 104.037 96.4317 103.287 96.0031 102.644C95.896 102.429 96.0031 102.001 95.5746 102.001C95.4674 102.001 95.3603 101.894 95.4674 101.679C96.2174 100.929 96.2174 100.179 95.3603 99.4294C95.2532 99.3223 95.4674 98.0366 96.1103 97.7151C97.396 97.0723 98.5746 96.3223 100.075 95.8937C100.396 95.7866 100.717 95.8937 100.717 96.2151C100.932 98.1437 101.789 99.858 101.896 101.787C101.896 102.644 101.467 103.072 100.717 103.287C100.289 103.394 99.9674 103.501 100.396 104.037ZM101.039 102.644C101.146 102.537 101.467 102.429 101.467 102.108C100.932 102.108 101.039 102.429 101.039 102.644C100.932 102.751 100.932 102.644 101.039 102.644Z" fill="#50D955"/>
<path id="Vector_55" d="M58.7178 82.822C58.7178 85.2863 58.7178 85.2863 56.3606 86.2506C55.6106 86.572 54.8606 86.8934 54.2178 87.2149C53.7892 87.4292 53.4678 87.4292 53.3606 86.8934C53.0392 85.822 52.7178 84.7506 52.2892 83.6791C52.0749 83.2506 52.1821 83.0363 52.5035 82.9292C54.4321 82.072 56.3606 81.1077 58.2892 80.2506C58.7178 80.0363 58.8249 80.2506 58.8249 80.6791C58.7178 81.4291 58.7178 82.1791 58.7178 82.822Z" fill="#50D955"/>
<path id="Vector_56" d="M63.5388 66.001C62.7888 63.9652 62.1459 62.0367 61.5031 60.2152C59.2531 53.8938 57.0031 47.4652 54.9674 41.1437C53.896 37.8223 53.4674 34.5009 54.0031 31.0723C54.1102 30.5366 54.2174 30.0008 54.5388 29.5723C54.1102 31.608 53.896 33.6437 54.1102 35.6794C54.5388 39.4294 55.8245 42.9652 57.0031 46.5009C59.2531 52.8223 61.5031 59.1438 63.6459 65.4652C63.7531 65.4652 63.7531 65.5724 63.5388 66.001Z" fill="#50D955"/>
<path id="Vector_57" d="M58.7166 91.6081C58.7166 91.8223 58.7166 91.9295 58.7166 92.1438C58.7166 94.1795 58.7166 94.1795 56.788 95.0366C56.2523 95.2509 56.1452 95.0366 55.9309 94.6081C55.6095 93.5366 55.288 92.5724 54.8595 91.5009C54.6452 90.9652 54.6452 90.7509 55.1809 90.5366C56.1452 90.1081 57.1095 89.5723 58.1809 89.1438C58.6095 88.9295 58.8237 89.0366 58.7166 89.4652C58.7166 90.2152 58.7166 90.9652 58.7166 91.6081Z" fill="#50D955"/>
<path id="Vector_58" d="M70.1826 119.358C70.1826 102.644 70.1826 85.9297 70.1826 69.2153C70.2898 69.2153 70.3969 69.2153 70.504 69.2153C70.504 85.9297 70.504 102.644 70.1826 119.358Z" fill="#50D955"/>
<path id="Vector_59" d="M95.7882 80.6792C95.6811 80.8935 95.7882 81.1078 96.0025 81.3221C96.2168 81.7507 96.1096 82.2864 95.6811 82.3935C93.9668 83.0364 92.1454 83.6792 90.2168 84.4292C90.6454 83.8935 90.6454 83.2507 91.1811 83.1435C90.8597 82.8221 90.5382 83.3578 90.3239 83.0364C90.6454 81.9649 91.5025 81.4292 92.5739 81.2149C93.4311 81.0006 94.2882 80.5721 95.1454 80.3578C95.5739 80.1435 96.1096 79.9292 95.7882 80.6792C95.6811 80.6792 95.6811 80.5721 95.6811 80.4649C95.6811 80.4649 95.6811 80.4649 95.5739 80.5721C95.6811 80.5721 95.7882 80.5721 95.7882 80.6792Z" fill="#50D955"/>
<path id="Vector_60" d="M82.1816 141.644C81.9673 143.466 81.8601 145.287 81.6459 147.109C81.6459 147.43 81.5387 147.751 81.2173 147.859C80.8959 148.073 80.4673 148.18 80.3601 147.644C80.253 145.716 79.9316 143.787 80.3601 141.859C80.4673 141.216 80.253 140.573 80.3601 140.037C80.3601 139.501 80.5744 139.18 81.1101 139.18C81.6459 139.073 81.6459 139.609 81.753 139.93C81.9673 140.359 82.2887 140.894 82.1816 141.644Z" fill="#50D955"/>
<path id="Vector_61" d="M98.2525 89.4647C98.2525 89.8932 98.1453 90.2147 97.6096 90.4289C96.3239 90.8575 95.0382 91.2861 93.7525 91.7147C93.5382 91.8218 93.1096 92.0361 93.2168 91.8218C93.3239 91.2861 92.3596 91.0718 92.7882 90.4289C93.0025 90.0004 93.3239 89.5718 93.8596 89.3575C94.8239 89.0361 95.7882 88.6075 96.7525 88.2861C97.931 87.8575 98.1453 88.0718 98.2525 89.4647Z" fill="#50D955"/>
<path id="Vector_62" d="M79.9307 53.2505C80.5735 52.6077 79.9307 51.8577 80.2521 51.2148C80.3592 50.8934 80.4664 50.8934 80.6807 50.7862C81.7521 50.3577 82.8235 49.9291 83.8949 49.6077C84.4306 49.3934 84.8592 49.3934 84.8592 50.1434C84.8592 50.2505 84.9664 50.4648 85.0735 50.5719C85.5021 51.1077 85.2878 51.4291 84.7521 51.6434C83.1449 52.2862 81.5378 52.7148 79.9307 53.2505Z" fill="#50D955"/>
<path id="Vector_63" d="M74.25 37.9293C74.25 37.8222 74.25 37.715 74.25 37.6079C75.3214 37.2864 75.6429 36.215 76.0714 35.3579C76.2857 34.9293 76.6071 34.9293 76.9286 35.2507C77.1428 34.6079 76.8214 33.965 77.3571 33.3221C77.5714 33.1079 77.5714 32.8936 77.8928 33.3221C78.1071 33.7507 78.75 33.965 79.0714 34.0721C79.8214 34.2864 79.7143 34.8221 79.8214 35.2507C79.9286 35.7864 79.6071 36.0007 79.1786 36.215C77.5714 36.965 75.9643 37.3936 74.25 37.9293Z" fill="#50D955"/>
<path id="Vector_64" d="M83.2511 59.465C83.144 59.465 82.9297 59.465 82.8225 59.465C82.7154 58.9293 83.0368 58.6079 83.4654 58.3936C84.3225 57.965 85.1797 57.6436 86.1439 57.3222C86.7868 57.1079 87.0011 57.1079 87.3225 57.965C87.8582 59.3579 87.0011 59.465 86.1439 59.6793C85.5011 59.8936 84.9654 60.1079 84.4297 60.3222C83.8939 60.5365 83.2511 60.0008 83.2511 59.465C83.3582 59.3579 83.3582 59.3579 83.3582 59.3579L83.2511 59.465Z" fill="#50D955"/>
<path id="Vector_65" d="M77.5752 45.4294C78.0038 45.0008 78.1109 44.5722 77.8966 44.0365C77.5752 43.1794 78.3252 42.9651 78.8609 42.6437C79.2895 42.3222 79.8252 42.108 80.3609 42.0008C80.7895 41.8937 81.218 41.6794 81.6466 41.7865C81.5395 42.4294 82.1823 42.858 82.0752 43.608C81.968 43.8222 81.8609 44.0365 81.6466 44.0365C80.2538 44.4651 78.968 45.0008 77.5752 45.4294Z" fill="#50D955"/>
<path id="Vector_66" d="M89.0376 76.0717C89.1447 75.6431 89.1447 75.3217 89.1447 75.0002C89.1447 74.8931 89.2519 74.5717 88.9304 74.6788C88.7161 74.786 88.5019 75.0002 88.3947 74.6788C88.2876 74.4645 88.5018 74.1431 88.7161 74.036C89.6804 73.6074 90.5376 72.9645 91.5018 72.7502C92.4661 72.4288 92.5733 73.1788 92.8947 73.7145C93.2161 74.2502 92.8947 74.6788 92.359 74.8931C91.3947 75.2145 90.2161 75.6431 89.0376 76.0717Z" fill="#50D955"/>
<path id="Vector_67" d="M95.25 24.1079C96.3214 24.6436 97.5 25.0722 98.1428 26.3579C98.25 26.5722 98.7857 26.8936 98.1428 27.1079C97.7143 27.2151 97.2857 27.9651 96.8571 27.1079C96.3214 26.1436 95.7857 25.0722 95.25 24.1079Z" fill="#50D955"/>
<path id="Vector_68" d="M97.3953 117.429C96.8596 117.644 96.6453 118.179 96.1096 118.287C95.5739 118.394 95.7882 118.929 95.8953 119.358C96.0025 119.679 96.0025 120.001 95.5739 120.215C95.1453 120.322 94.9311 120.108 94.7168 119.787C94.1811 118.608 94.1811 118.608 95.4668 118.072C96.1096 117.858 96.6453 117.537 97.2882 117.322C97.2882 117.322 97.3953 117.322 97.3953 117.429Z" fill="#50D955"/>
<path id="Vector_69" d="M87.8584 24.9653C88.7155 25.2868 89.5727 25.8225 90.2155 26.5725C90.537 26.8939 90.6441 27.3225 90.1084 27.7511C89.5727 28.1796 89.4655 27.5368 89.3584 27.3225C88.7155 26.5725 88.1798 25.8225 87.8584 24.9653Z" fill="#50D955"/>
<path id="Vector_70" d="M58.6079 101.894C58.0722 100.822 57.7508 99.8581 57.4294 98.8938C57.1079 98.1438 58.1794 98.3581 58.6079 98.0366C58.6079 99.2152 58.6079 100.394 58.6079 101.894Z" fill="#50D955"/>
<path id="Vector_71" d="M95.0378 26.4643C95.0378 27.1072 94.3949 27.1072 94.0735 27.3215C93.6449 27.6429 93.5378 27.2143 93.4306 27C93.2163 26.5715 93.0021 26.25 92.7878 25.8215C92.6806 25.6072 92.5735 25.3929 92.7878 25.1786C93.0021 24.9643 93.1092 25.1786 93.3235 25.2857C93.7521 25.6072 93.9663 26.25 94.6092 25.8215C94.8235 25.7143 94.9306 26.25 95.0378 26.4643Z" fill="#50D955"/>
<path id="Vector_72" d="M84.7543 28.5012C83.6829 27.9655 83.1472 26.894 82.29 26.144C83.2543 26.6798 84.2186 27.4298 84.7543 28.5012Z" fill="#50D955"/>
<path id="Vector_73" d="M99.8589 120.537C99.8589 121.073 99.6447 121.287 99.109 121.287C98.5732 121.287 98.5732 120.751 98.5732 120.644C98.5732 120.216 99.0018 120.109 99.4304 120.001C99.8589 120.001 99.7518 120.43 99.8589 120.537Z" fill="#50D955"/>
<path id="Vector_74" d="M94.9297 123.858C96.0011 123.965 97.0725 123.965 98.2511 124.072C97.0725 124.072 96.0011 124.286 94.9297 123.858Z" fill="#50D955"/>
<path id="Vector_75" d="M93.6433 119.679C93.6433 120 93.6433 120.108 93.3218 120.108C93.0004 120.108 92.7861 120 92.7861 119.679C92.7861 119.358 93.0004 119.036 93.3218 119.036C93.7504 119.036 93.5361 119.465 93.6433 119.679Z" fill="#50D955"/>
<path id="Vector_76" d="M108.967 115.179C108.967 115.715 108.646 115.929 108.003 116.143C108.324 115.608 108.646 115.393 108.967 115.179Z" fill="#50D955"/>
<path id="Vector_77" d="M87.8602 24.8573C87.6459 24.7501 87.5388 24.643 87.4316 24.4287C87.5388 24.643 87.7531 24.7501 87.8602 24.8573Z" fill="#50D955"/>
<path id="Vector_78" d="M82.824 59.4644C82.824 59.6786 82.824 59.8929 82.824 60.3215C82.6097 59.8929 82.5025 59.6786 82.824 59.4644Z" fill="#50D955"/>
<path id="Vector_79" d="M74.2528 37.9297L74.1445 38.0379V37.9297H74.2528Z" fill="#50D955"/>
<path id="Vector_80" d="M104.576 113.572C104.576 113.681 104.576 113.681 104.576 113.572C104.468 113.681 104.468 113.681 104.468 113.681C104.576 113.681 104.576 113.681 104.576 113.572Z" fill="#50D955"/>
<path id="Vector_81" d="M83.8945 69.2148C85.0731 68.8933 84.6445 67.7148 84.966 66.9648C85.0731 66.7505 85.0731 66.6433 85.2874 66.5362C86.6802 66.0005 88.0731 65.4647 89.4659 64.929C89.8945 64.8219 90.1088 64.8219 90.0017 65.3576C90.0017 65.3576 90.1088 65.4647 90.1088 65.5719C90.6445 66.9648 90.6445 66.9648 89.2517 67.5005C87.5374 67.929 85.716 68.5719 83.8945 69.2148Z" fill="#50D955"/>
</g>
</g>
</g>
<defs>
<filter id="filter0_d_5466_3223" x="0" y="0" width="170.001" height="170" filterUnits="userSpaceOnUse" color-interpolation-filters="sRGB">
<feFlood flood-opacity="0" result="BackgroundImageFix"/>
<feColorMatrix in="SourceAlpha" type="matrix" values="0 0 0 0 0 0 0 0 0 0 0 0 0 0 0 0 0 0 127 0" result="hardAlpha"/>
<feOffset dx="4" dy="4"/>
<feGaussianBlur stdDeviation="5"/>
<feComposite in2="hardAlpha" operator="out"/>
<feColorMatrix type="matrix" values="0 0 0 0 0 0 0 0 0 0 0 0 0 0 0 0 0 0 0.7 0"/>
<feBlend mode="multiply" in2="BackgroundImageFix" result="effect1_dropShadow_5466_3223"/>
<feBlend mode="normal" in="SourceGraphic" in2="effect1_dropShadow_5466_3223" result="shape"/>
</filter>
</defs>
</svg>
