<svg width="127" height="127" viewBox="0 0 127 127" fill="none" xmlns="http://www.w3.org/2000/svg">
<g id="Group" filter="url(#filter0_d_5466_3316)">
<g id="Clip path group">
<mask id="mask0_5466_3316" style="mask-type:luminance" maskUnits="userSpaceOnUse" x="6" y="6" width="107" height="107">
<g id="SVGID_4_">
<path id="Vector" d="M79.1692 111.869L10.7058 86.9504C7.56793 85.8083 5.935 82.3065 7.0771 79.1686L31.9957 10.7053C33.1378 7.56737 36.6396 5.93445 39.7775 7.07655L108.241 31.9952C111.379 33.1373 113.012 36.6391 111.87 39.777L86.951 108.24C85.8089 111.378 82.3071 113.011 79.1692 111.869Z" fill="white"/>
</g>
</mask>
<g mask="url(#mask0_5466_3316)">
<path id="Vector_2" d="M79.1692 111.869L10.7058 86.9504C7.56793 85.8083 5.935 82.3065 7.0771 79.1686L31.9957 10.7053C33.1378 7.56737 36.6396 5.93445 39.7775 7.07655L108.241 31.9952C111.379 33.1373 113.012 36.6391 111.87 39.777L86.951 108.24C85.8089 111.378 82.3071 113.011 79.1692 111.869Z" fill="#6600CC"/>
</g>
</g>
<g id="Clip path group_2">
<mask id="mask1_5466_3316" style="mask-type:luminance" maskUnits="userSpaceOnUse" x="6" y="6" width="107" height="107">
<g id="SVGID_4__2">
<path id="Vector_3" d="M79.1692 111.869L10.7058 86.9504C7.56793 85.8083 5.935 82.3065 7.0771 79.1686L31.9957 10.7053C33.1378 7.56737 36.6396 5.93445 39.7775 7.07655L108.241 31.9952C111.379 33.1373 113.012 36.6391 111.87 39.777L86.951 108.24C85.8089 111.378 82.3071 113.011 79.1692 111.869Z" fill="white"/>
</g>
</mask>
<g mask="url(#mask1_5466_3316)">
<path id="Vector_4" d="M49.3026 211.677C103.278 231.322 162.96 203.492 182.605 149.517C202.251 95.541 174.421 35.8594 120.445 16.2139C66.4697 -3.4316 6.78804 24.3984 -12.8575 78.374C-32.5029 132.35 -4.67295 192.031 49.3026 211.677Z" fill="#E023E5"/>
</g>
</g>
<g id="Clip path group_3">
<mask id="mask2_5466_3316" style="mask-type:luminance" maskUnits="userSpaceOnUse" x="6" y="6" width="107" height="107">
<g id="SVGID_4__3">
<path id="Vector_5" d="M79.1692 111.869L10.7058 86.9504C7.56793 85.8083 5.935 82.3065 7.0771 79.1686L31.9957 10.7053C33.1378 7.56737 36.6396 5.93445 39.7775 7.07655L108.241 31.9952C111.379 33.1373 113.012 36.6391 111.87 39.777L86.951 108.24C85.8089 111.378 82.3071 113.011 79.1692 111.869Z" fill="white"/>
</g>
</mask>
<g mask="url(#mask2_5466_3316)">
<path id="Vector_6" d="M54.0587 198.612C100.819 215.631 152.522 191.521 169.541 144.761C186.56 98.0013 162.451 46.2981 115.691 29.2789C68.9308 12.2597 17.2276 36.3693 0.208396 83.1292C-16.8108 129.889 7.29876 181.592 54.0587 198.612Z" fill="#053EC6"/>
</g>
</g>
<g id="Clip path group_4">
<mask id="mask3_5466_3316" style="mask-type:luminance" maskUnits="userSpaceOnUse" x="6" y="6" width="107" height="107">
<g id="SVGID_4__4">
<path id="Vector_7" d="M79.1692 111.869L10.7058 86.9504C7.56793 85.8083 5.935 82.3065 7.0771 79.1686L31.9957 10.7053C33.1378 7.56737 36.6396 5.93445 39.7775 7.07655L108.241 31.9952C111.379 33.1373 113.012 36.6391 111.87 39.777L86.951 108.24C85.8089 111.378 82.3071 113.011 79.1692 111.869Z" fill="white"/>
</g>
</mask>
<g mask="url(#mask3_5466_3316)">
<path id="Vector_8" d="M58.7922 185.604C98.3679 200.008 142.128 179.603 156.532 140.027C170.936 100.451 150.531 56.6914 110.955 42.287C71.3794 27.8826 27.6198 48.2881 13.2154 87.8638C-1.189 127.44 19.2164 171.199 58.7922 185.604Z" fill="#50D955"/>
</g>
</g>
<g id="Clip path group_5">
<mask id="mask4_5466_3316" style="mask-type:luminance" maskUnits="userSpaceOnUse" x="6" y="6" width="107" height="107">
<g id="SVGID_4__5">
<path id="Vector_9" d="M79.1692 111.869L10.7058 86.9504C7.56793 85.8083 5.935 82.3065 7.0771 79.1686L31.9957 10.7053C33.1378 7.56737 36.6396 5.93445 39.7775 7.07655L108.241 31.9952C111.379 33.1373 113.012 36.6391 111.87 39.777L86.951 108.24C85.8089 111.378 82.3071 113.011 79.1692 111.869Z" fill="white"/>
</g>
</mask>
<g mask="url(#mask4_5466_3316)">
<path id="Vector_10" d="M63.5276 172.596C95.9193 184.386 131.735 167.684 143.525 135.293C155.314 102.901 138.613 67.0853 106.222 55.2957C73.8299 43.5061 38.0139 60.2073 26.2243 92.599C14.4348 124.991 31.136 160.807 63.5276 172.596Z" fill="#6600CC"/>
</g>
</g>
<g id="Clip path group_6">
<mask id="mask5_5466_3316" style="mask-type:luminance" maskUnits="userSpaceOnUse" x="6" y="6" width="107" height="107">
<g id="SVGID_4__6">
<path id="Vector_11" d="M79.1692 111.869L10.7058 86.9504C7.56793 85.8083 5.935 82.3065 7.0771 79.1686L31.9957 10.7053C33.1378 7.56737 36.6396 5.93445 39.7775 7.07655L108.241 31.9952C111.379 33.1373 113.012 36.6391 111.87 39.777L86.951 108.24C85.8089 111.378 82.3071 113.011 79.1692 111.869Z" fill="white"/>
</g>
</mask>
<g mask="url(#mask5_5466_3316)">
<path id="Vector_12" d="M68.2837 159.531C93.4597 168.694 121.297 155.713 130.461 130.537C139.624 105.361 126.643 77.524 101.467 68.3607C76.291 59.1974 48.4535 72.1782 39.2902 97.3542C30.1269 122.53 43.1077 150.368 68.2837 159.531Z" fill="#E023E5"/>
</g>
</g>
<g id="Clip path group_7">
<mask id="mask6_5466_3316" style="mask-type:luminance" maskUnits="userSpaceOnUse" x="6" y="6" width="107" height="107">
<g id="SVGID_4__7">
<path id="Vector_13" d="M79.1692 111.869L10.7058 86.9504C7.56793 85.8083 5.935 82.3065 7.0771 79.1686L31.9957 10.7053C33.1378 7.56737 36.6396 5.93445 39.7775 7.07655L108.241 31.9952C111.379 33.1373 113.012 36.6391 111.87 39.777L86.951 108.24C85.8089 111.378 82.3071 113.011 79.1692 111.869Z" fill="white"/>
</g>
</mask>
<g mask="url(#mask6_5466_3316)">
<path id="Vector_14" d="M73.0172 146.523C91.009 153.071 110.903 143.794 117.451 125.803C124 107.811 114.723 87.9168 96.7314 81.3683C78.7396 74.8198 58.8457 84.0965 52.2972 102.088C45.7487 120.08 55.0253 139.974 73.0172 146.523Z" fill="#053EC6"/>
</g>
</g>
<g id="Clip path group_8">
<mask id="mask7_5466_3316" style="mask-type:luminance" maskUnits="userSpaceOnUse" x="6" y="6" width="107" height="107">
<g id="SVGID_4__8">
<path id="Vector_15" d="M79.1692 111.869L10.7058 86.9504C7.56793 85.8083 5.935 82.3065 7.0771 79.1686L31.9957 10.7053C33.1378 7.56737 36.6396 5.93445 39.7775 7.07655L108.241 31.9952C111.379 33.1373 113.012 36.6391 111.87 39.777L86.951 108.24C85.8089 111.378 82.3071 113.011 79.1692 111.869Z" fill="white"/>
</g>
</mask>
<g mask="url(#mask7_5466_3316)">
<path id="Vector_16" d="M77.7507 133.514C88.5584 137.448 100.509 131.875 104.442 121.068C108.376 110.26 102.804 98.3097 91.9958 94.376C81.1881 90.4423 69.2379 96.0148 65.3042 106.823C61.3705 117.63 66.943 129.581 77.7507 133.514Z" fill="#50D955"/>
</g>
</g>
</g>
<defs>
<filter id="filter0_d_5466_3316" x="0.712891" y="0.711914" width="125.521" height="125.521" filterUnits="userSpaceOnUse" color-interpolation-filters="sRGB">
<feFlood flood-opacity="0" result="BackgroundImageFix"/>
<feColorMatrix in="SourceAlpha" type="matrix" values="0 0 0 0 0 0 0 0 0 0 0 0 0 0 0 0 0 0 127 0" result="hardAlpha"/>
<feOffset dx="4" dy="4"/>
<feGaussianBlur stdDeviation="5"/>
<feComposite in2="hardAlpha" operator="out"/>
<feColorMatrix type="matrix" values="0 0 0 0 0 0 0 0 0 0 0 0 0 0 0 0 0 0 0.7 0"/>
<feBlend mode="multiply" in2="BackgroundImageFix" result="effect1_dropShadow_5466_3316"/>
<feBlend mode="normal" in="SourceGraphic" in2="effect1_dropShadow_5466_3316" result="shape"/>
</filter>
</defs>
</svg>
