<svg width="624" height="591" viewBox="0 0 624 591" fill="none" xmlns="http://www.w3.org/2000/svg">
<g clip-path="url(#clip0_5466_3661)">
<path d="M381.2 587.2C588.307 587.2 756.2 419.307 756.2 212.2C756.2 5.09341 588.307 -162.8 381.2 -162.8C174.093 -162.8 6.2002 5.09341 6.2002 212.2C6.2002 419.307 174.093 587.2 381.2 587.2Z" stroke="url(#paint0_linear_5466_3661)" stroke-width="2" stroke-miterlimit="10"/>
<path d="M381.201 578.3C583.392 578.3 747.301 414.392 747.301 212.2C747.301 10.0087 583.392 -153.9 381.201 -153.9C179.009 -153.9 15.1006 10.0087 15.1006 212.2C15.1006 414.392 179.009 578.3 381.201 578.3Z" stroke="url(#paint1_linear_5466_3661)" stroke-width="2" stroke-miterlimit="10"/>
<path d="M381.2 569.4C578.476 569.4 738.4 409.476 738.4 212.2C738.4 14.9239 578.476 -145 381.2 -145C183.924 -145 24 14.9239 24 212.2C24 409.476 183.924 569.4 381.2 569.4Z" stroke="url(#paint2_linear_5466_3661)" stroke-width="2" stroke-miterlimit="10"/>
<path d="M381.2 560.5C573.561 560.5 729.5 404.561 729.5 212.2C729.5 19.8396 573.561 -136.1 381.2 -136.1C188.84 -136.1 32.9004 19.8396 32.9004 212.2C32.9004 404.561 188.84 560.5 381.2 560.5Z" stroke="url(#paint3_linear_5466_3661)" stroke-width="2" stroke-miterlimit="10"/>
<path d="M381.2 551.6C568.645 551.6 720.6 399.646 720.6 212.2C720.6 24.7549 568.645 -127.2 381.2 -127.2C193.754 -127.2 41.7998 24.7549 41.7998 212.2C41.7998 399.646 193.754 551.6 381.2 551.6Z" stroke="url(#paint4_linear_5466_3661)" stroke-width="2" stroke-miterlimit="10"/>
<path d="M381.2 542.7C563.73 542.7 711.7 394.73 711.7 212.2C711.7 29.6701 563.73 -118.3 381.2 -118.3C198.67 -118.3 50.7002 29.6701 50.7002 212.2C50.7002 394.73 198.67 542.7 381.2 542.7Z" stroke="url(#paint5_linear_5466_3661)" stroke-width="2" stroke-miterlimit="10"/>
<path d="M381.201 533.8C558.815 533.8 702.801 389.815 702.801 212.2C702.801 34.5853 558.815 -109.4 381.201 -109.4C203.586 -109.4 59.6006 34.5853 59.6006 212.2C59.6006 389.815 203.586 533.8 381.201 533.8Z" stroke="url(#paint6_linear_5466_3661)" stroke-width="2" stroke-miterlimit="10"/>
<path d="M381.2 524.9C553.899 524.9 693.9 384.899 693.9 212.2C693.9 39.5006 553.899 -100.5 381.2 -100.5C208.501 -100.5 68.5 39.5006 68.5 212.2C68.5 384.899 208.501 524.9 381.2 524.9Z" stroke="url(#paint7_linear_5466_3661)" stroke-width="2" stroke-miterlimit="10"/>
<path d="M381.2 516C548.984 516 685 379.984 685 212.2C685 44.4163 548.984 -91.5996 381.2 -91.5996C213.416 -91.5996 77.4004 44.4163 77.4004 212.2C77.4004 379.984 213.416 516 381.2 516Z" stroke="url(#paint8_linear_5466_3661)" stroke-width="2" stroke-miterlimit="10"/>
<path d="M381.2 507.1C544.069 507.1 676.1 375.069 676.1 212.2C676.1 49.3315 544.069 -82.6997 381.2 -82.6997C218.331 -82.6997 86.2998 49.3315 86.2998 212.2C86.2998 375.069 218.331 507.1 381.2 507.1Z" stroke="url(#paint9_linear_5466_3661)" stroke-width="2" stroke-miterlimit="10"/>
<path d="M381.2 498.2C539.154 498.2 667.2 370.154 667.2 212.2C667.2 54.2467 539.154 -73.7998 381.2 -73.7998C223.247 -73.7998 95.2002 54.2467 95.2002 212.2C95.2002 370.154 223.247 498.2 381.2 498.2Z" stroke="url(#paint10_linear_5466_3661)" stroke-width="2" stroke-miterlimit="10"/>
<path d="M381.201 489.3C534.239 489.3 658.301 365.238 658.301 212.2C658.301 59.162 534.239 -64.8999 381.201 -64.8999C228.162 -64.8999 104.101 59.162 104.101 212.2C104.101 365.238 228.162 489.3 381.201 489.3Z" stroke="url(#paint11_linear_5466_3661)" stroke-width="2" stroke-miterlimit="10"/>
<path d="M381.2 480.4C529.323 480.4 649.4 360.323 649.4 212.2C649.4 64.0772 529.323 -56 381.2 -56C233.077 -56 113 64.0772 113 212.2C113 360.323 233.077 480.4 381.2 480.4Z" stroke="url(#paint12_linear_5466_3661)" stroke-width="2" stroke-miterlimit="10"/>
<path d="M381.2 471.5C524.408 471.5 640.5 355.408 640.5 212.2C640.5 68.993 524.408 -47.0996 381.2 -47.0996C237.993 -47.0996 121.9 68.993 121.9 212.2C121.9 355.408 237.993 471.5 381.2 471.5Z" stroke="url(#paint13_linear_5466_3661)" stroke-width="2" stroke-miterlimit="10"/>
<path d="M381.2 462.6C519.492 462.6 631.6 350.492 631.6 212.2C631.6 73.9082 519.492 -38.1997 381.2 -38.1997C242.908 -38.1997 130.8 73.9082 130.8 212.2C130.8 350.492 242.908 462.6 381.2 462.6Z" stroke="url(#paint14_linear_5466_3661)" stroke-width="2" stroke-miterlimit="10"/>
<path d="M381.2 453.7C514.577 453.7 622.7 345.577 622.7 212.2C622.7 78.8234 514.577 -29.2998 381.2 -29.2998C247.823 -29.2998 139.7 78.8234 139.7 212.2C139.7 345.577 247.823 453.7 381.2 453.7Z" stroke="url(#paint15_linear_5466_3661)" stroke-width="2" stroke-miterlimit="10"/>
<path d="M381.201 444.8C509.662 444.8 613.801 340.662 613.801 212.2C613.801 83.7387 509.662 -20.3999 381.201 -20.3999C252.739 -20.3999 148.601 83.7387 148.601 212.2C148.601 340.662 252.739 444.8 381.201 444.8Z" stroke="url(#paint16_linear_5466_3661)" stroke-width="2" stroke-miterlimit="10"/>
<path d="M381.2 435.9C504.746 435.9 604.9 335.746 604.9 212.2C604.9 88.6539 504.746 -11.5 381.2 -11.5C257.654 -11.5 157.5 88.6539 157.5 212.2C157.5 335.746 257.654 435.9 381.2 435.9Z" stroke="url(#paint17_linear_5466_3661)" stroke-width="2" stroke-miterlimit="10"/>
<path d="M381.2 427C499.831 427 596 330.831 596 212.2C596 93.5696 499.831 -2.59961 381.2 -2.59961C262.57 -2.59961 166.4 93.5696 166.4 212.2C166.4 330.831 262.57 427 381.2 427Z" stroke="url(#paint18_linear_5466_3661)" stroke-width="2" stroke-miterlimit="10"/>
<path d="M381.2 418.1C494.915 418.1 587.1 325.916 587.1 212.2C587.1 98.4849 494.915 6.30029 381.2 6.30029C267.484 6.30029 175.3 98.4849 175.3 212.2C175.3 325.916 267.484 418.1 381.2 418.1Z" stroke="url(#paint19_linear_5466_3661)" stroke-width="2" stroke-miterlimit="10"/>
<path d="M381.2 409.2C490 409.2 578.2 321 578.2 212.2C578.2 103.4 490 15.2002 381.2 15.2002C272.4 15.2002 184.2 103.4 184.2 212.2C184.2 321 272.4 409.2 381.2 409.2Z" stroke="url(#paint20_linear_5466_3661)" stroke-width="2" stroke-miterlimit="10"/>
<path d="M381.2 400.2C485.03 400.2 569.2 316.03 569.2 212.2C569.2 108.371 485.03 24.2002 381.2 24.2002C277.371 24.2002 193.2 108.371 193.2 212.2C193.2 316.03 277.371 400.2 381.2 400.2Z" stroke="url(#paint21_linear_5466_3661)" stroke-width="2" stroke-miterlimit="10"/>
<path d="M381.201 391.3C480.115 391.3 560.301 311.114 560.301 212.2C560.301 113.286 480.115 33.1001 381.201 33.1001C282.286 33.1001 202.101 113.286 202.101 212.2C202.101 311.114 282.286 391.3 381.201 391.3Z" stroke="url(#paint22_linear_5466_3661)" stroke-width="2" stroke-miterlimit="10"/>
<path d="M381.2 382.4C475.199 382.4 551.4 306.199 551.4 212.2C551.4 118.201 475.199 42 381.2 42C287.201 42 211 118.201 211 212.2C211 306.199 287.201 382.4 381.2 382.4Z" stroke="url(#paint23_linear_5466_3661)" stroke-width="2" stroke-miterlimit="10"/>
<path d="M381.2 373.5C470.284 373.5 542.5 301.284 542.5 212.2C542.5 123.117 470.284 50.9004 381.2 50.9004C292.117 50.9004 219.9 123.117 219.9 212.2C219.9 301.284 292.117 373.5 381.2 373.5Z" stroke="url(#paint24_linear_5466_3661)" stroke-width="2" stroke-miterlimit="10"/>
<path d="M381.2 364.6C465.368 364.6 533.6 296.368 533.6 212.2C533.6 128.032 465.368 59.8003 381.2 59.8003C297.032 59.8003 228.8 128.032 228.8 212.2C228.8 296.368 297.032 364.6 381.2 364.6Z" stroke="url(#paint25_linear_5466_3661)" stroke-width="2" stroke-miterlimit="10"/>
<path d="M381.2 355.7C460.453 355.7 524.7 291.453 524.7 212.2C524.7 132.947 460.453 68.7002 381.2 68.7002C301.947 68.7002 237.7 132.947 237.7 212.2C237.7 291.453 301.947 355.7 381.2 355.7Z" stroke="url(#paint26_linear_5466_3661)" stroke-width="2" stroke-miterlimit="10"/>
<path d="M381.201 346.8C455.538 346.8 515.801 286.538 515.801 212.2C515.801 137.863 455.538 77.6001 381.201 77.6001C306.863 77.6001 246.601 137.863 246.601 212.2C246.601 286.538 306.863 346.8 381.201 346.8Z" stroke="url(#paint27_linear_5466_3661)" stroke-width="2" stroke-miterlimit="10"/>
<path d="M381.2 337.9C450.622 337.9 506.9 281.622 506.9 212.2C506.9 142.778 450.622 86.5 381.2 86.5C311.778 86.5 255.5 142.778 255.5 212.2C255.5 281.622 311.778 337.9 381.2 337.9Z" stroke="url(#paint28_linear_5466_3661)" stroke-width="2" stroke-miterlimit="10"/>
<path d="M381.2 329C445.707 329 498 276.707 498 212.2C498 147.694 445.707 95.4004 381.2 95.4004C316.694 95.4004 264.4 147.694 264.4 212.2C264.4 276.707 316.694 329 381.2 329Z" stroke="url(#paint29_linear_5466_3661)" stroke-width="2" stroke-miterlimit="10"/>
<path d="M381.2 320.1C440.791 320.1 489.1 271.791 489.1 212.2C489.1 152.608 440.791 104.3 381.2 104.3C321.608 104.3 273.3 152.608 273.3 212.2C273.3 271.791 321.608 320.1 381.2 320.1Z" stroke="url(#paint30_linear_5466_3661)" stroke-width="2" stroke-miterlimit="10"/>
<path d="M381.2 311.2C435.876 311.2 480.2 266.876 480.2 212.2C480.2 157.524 435.876 113.2 381.2 113.2C326.524 113.2 282.2 157.524 282.2 212.2C282.2 266.876 326.524 311.2 381.2 311.2Z" stroke="url(#paint31_linear_5466_3661)" stroke-width="2" stroke-miterlimit="10"/>
<path d="M381.201 302.3C430.961 302.3 471.301 261.961 471.301 212.2C471.301 162.439 430.961 122.1 381.201 122.1C331.44 122.1 291.101 162.439 291.101 212.2C291.101 261.961 331.44 302.3 381.201 302.3Z" stroke="url(#paint32_linear_5466_3661)" stroke-width="2" stroke-miterlimit="10"/>
<path d="M381.2 293.4C426.046 293.4 462.4 257.046 462.4 212.2C462.4 167.354 426.046 131 381.2 131C336.354 131 300 167.354 300 212.2C300 257.046 336.354 293.4 381.2 293.4Z" stroke="url(#paint33_linear_5466_3661)" stroke-width="2" stroke-miterlimit="10"/>
<path d="M381.2 284.5C421.131 284.5 453.5 252.131 453.5 212.2C453.5 172.27 421.131 139.9 381.2 139.9C341.27 139.9 308.9 172.27 308.9 212.2C308.9 252.131 341.27 284.5 381.2 284.5Z" stroke="url(#paint34_linear_5466_3661)" stroke-width="2" stroke-miterlimit="10"/>
<path d="M381.2 275.6C416.215 275.6 444.6 247.215 444.6 212.2C444.6 177.185 416.215 148.8 381.2 148.8C346.185 148.8 317.8 177.185 317.8 212.2C317.8 247.215 346.185 275.6 381.2 275.6Z" stroke="url(#paint35_linear_5466_3661)" stroke-width="2" stroke-miterlimit="10"/>
<path d="M381.2 266.7C411.3 266.7 435.7 242.3 435.7 212.2C435.7 182.101 411.3 157.7 381.2 157.7C351.101 157.7 326.7 182.101 326.7 212.2C326.7 242.3 351.101 266.7 381.2 266.7Z" stroke="url(#paint36_linear_5466_3661)" stroke-width="2" stroke-miterlimit="10"/>
<path d="M381.201 257.8C406.385 257.8 426.801 237.384 426.801 212.2C426.801 187.016 406.385 166.6 381.201 166.6C356.016 166.6 335.601 187.016 335.601 212.2C335.601 237.384 356.016 257.8 381.201 257.8Z" stroke="url(#paint37_linear_5466_3661)" stroke-width="2" stroke-miterlimit="10"/>
<path d="M381.2 248.9C401.469 248.9 417.9 232.469 417.9 212.2C417.9 191.931 401.469 175.5 381.2 175.5C360.931 175.5 344.5 191.931 344.5 212.2C344.5 232.469 360.931 248.9 381.2 248.9Z" stroke="url(#paint38_linear_5466_3661)" stroke-width="2" stroke-miterlimit="10"/>
<path d="M381.2 240C396.554 240 409 227.554 409 212.2C409 196.847 396.554 184.4 381.2 184.4C365.847 184.4 353.4 196.847 353.4 212.2C353.4 227.554 365.847 240 381.2 240Z" stroke="url(#paint39_linear_5466_3661)" stroke-width="2" stroke-miterlimit="10"/>
<path d="M381.2 231.1C391.638 231.1 400.1 222.638 400.1 212.2C400.1 201.762 391.638 193.3 381.2 193.3C370.762 193.3 362.3 201.762 362.3 212.2C362.3 222.638 370.762 231.1 381.2 231.1Z" stroke="url(#paint40_linear_5466_3661)" stroke-width="2" stroke-miterlimit="10"/>
<path d="M381.2 222.2C386.723 222.2 391.2 217.723 391.2 212.2C391.2 206.677 386.723 202.2 381.2 202.2C375.677 202.2 371.2 206.677 371.2 212.2C371.2 217.723 375.677 222.2 381.2 222.2Z" stroke="url(#paint41_linear_5466_3661)" stroke-width="2" stroke-miterlimit="10"/>
</g>
<defs>
<linearGradient id="paint0_linear_5466_3661" x1="241.955" y1="601.795" x2="524.195" y2="-173.645" gradientUnits="userSpaceOnUse">
<stop stop-color="#053EC6" stop-opacity="0"/>
<stop offset="1" stop-color="#50D955"/>
</linearGradient>
<linearGradient id="paint1_linear_5466_3661" x1="245.26" y1="592.549" x2="520.802" y2="-164.488" gradientUnits="userSpaceOnUse">
<stop stop-color="#053EC6" stop-opacity="0"/>
<stop offset="1" stop-color="#50D955"/>
</linearGradient>
<linearGradient id="paint2_linear_5466_3661" x1="248.564" y1="583.302" x2="517.408" y2="-155.33" gradientUnits="userSpaceOnUse">
<stop stop-color="#053EC6" stop-opacity="0"/>
<stop offset="1" stop-color="#50D955"/>
</linearGradient>
<linearGradient id="paint3_linear_5466_3661" x1="251.87" y1="574.056" x2="514.014" y2="-146.172" gradientUnits="userSpaceOnUse">
<stop stop-color="#053EC6" stop-opacity="0"/>
<stop offset="1" stop-color="#50D955"/>
</linearGradient>
<linearGradient id="paint4_linear_5466_3661" x1="255.174" y1="564.81" x2="510.62" y2="-137.015" gradientUnits="userSpaceOnUse">
<stop stop-color="#053EC6" stop-opacity="0"/>
<stop offset="1" stop-color="#50D955"/>
</linearGradient>
<linearGradient id="paint5_linear_5466_3661" x1="258.479" y1="555.563" x2="507.226" y2="-127.858" gradientUnits="userSpaceOnUse">
<stop stop-color="#053EC6" stop-opacity="0"/>
<stop offset="1" stop-color="#50D955"/>
</linearGradient>
<linearGradient id="paint6_linear_5466_3661" x1="261.784" y1="546.317" x2="503.833" y2="-118.701" gradientUnits="userSpaceOnUse">
<stop stop-color="#053EC6" stop-opacity="0"/>
<stop offset="1" stop-color="#50D955"/>
</linearGradient>
<linearGradient id="paint7_linear_5466_3661" x1="265.088" y1="537.07" x2="500.439" y2="-109.543" gradientUnits="userSpaceOnUse">
<stop stop-color="#053EC6" stop-opacity="0"/>
<stop offset="1" stop-color="#50D955"/>
</linearGradient>
<linearGradient id="paint8_linear_5466_3661" x1="268.393" y1="527.824" x2="497.045" y2="-100.386" gradientUnits="userSpaceOnUse">
<stop stop-color="#053EC6" stop-opacity="0"/>
<stop offset="1" stop-color="#50D955"/>
</linearGradient>
<linearGradient id="paint9_linear_5466_3661" x1="271.698" y1="518.578" x2="493.651" y2="-91.2282" gradientUnits="userSpaceOnUse">
<stop stop-color="#053EC6" stop-opacity="0"/>
<stop offset="1" stop-color="#50D955"/>
</linearGradient>
<linearGradient id="paint10_linear_5466_3661" x1="275.003" y1="509.331" x2="490.258" y2="-82.0709" gradientUnits="userSpaceOnUse">
<stop stop-color="#053EC6" stop-opacity="0"/>
<stop offset="1" stop-color="#50D955"/>
</linearGradient>
<linearGradient id="paint11_linear_5466_3661" x1="278.308" y1="500.085" x2="486.864" y2="-72.9136" gradientUnits="userSpaceOnUse">
<stop stop-color="#053EC6" stop-opacity="0"/>
<stop offset="1" stop-color="#50D955"/>
</linearGradient>
<linearGradient id="paint12_linear_5466_3661" x1="281.612" y1="490.838" x2="483.47" y2="-63.7563" gradientUnits="userSpaceOnUse">
<stop stop-color="#053EC6" stop-opacity="0"/>
<stop offset="1" stop-color="#50D955"/>
</linearGradient>
<linearGradient id="paint13_linear_5466_3661" x1="284.917" y1="481.592" x2="480.077" y2="-54.5986" gradientUnits="userSpaceOnUse">
<stop stop-color="#053EC6" stop-opacity="0"/>
<stop offset="1" stop-color="#50D955"/>
</linearGradient>
<linearGradient id="paint14_linear_5466_3661" x1="288.221" y1="472.346" x2="476.682" y2="-45.4413" gradientUnits="userSpaceOnUse">
<stop stop-color="#053EC6" stop-opacity="0"/>
<stop offset="1" stop-color="#50D955"/>
</linearGradient>
<linearGradient id="paint15_linear_5466_3661" x1="291.526" y1="463.099" x2="473.289" y2="-36.284" gradientUnits="userSpaceOnUse">
<stop stop-color="#053EC6" stop-opacity="0"/>
<stop offset="1" stop-color="#50D955"/>
</linearGradient>
<linearGradient id="paint16_linear_5466_3661" x1="294.832" y1="453.853" x2="469.896" y2="-27.1267" gradientUnits="userSpaceOnUse">
<stop stop-color="#053EC6" stop-opacity="0"/>
<stop offset="1" stop-color="#50D955"/>
</linearGradient>
<linearGradient id="paint17_linear_5466_3661" x1="298.136" y1="444.606" x2="466.501" y2="-17.9694" gradientUnits="userSpaceOnUse">
<stop stop-color="#053EC6" stop-opacity="0"/>
<stop offset="1" stop-color="#50D955"/>
</linearGradient>
<linearGradient id="paint18_linear_5466_3661" x1="301.441" y1="435.36" x2="463.108" y2="-8.81163" gradientUnits="userSpaceOnUse">
<stop stop-color="#053EC6" stop-opacity="0"/>
<stop offset="1" stop-color="#50D955"/>
</linearGradient>
<linearGradient id="paint19_linear_5466_3661" x1="304.745" y1="426.114" x2="459.714" y2="0.345664" gradientUnits="userSpaceOnUse">
<stop stop-color="#053EC6" stop-opacity="0"/>
<stop offset="1" stop-color="#50D955"/>
</linearGradient>
<linearGradient id="paint20_linear_5466_3661" x1="308.05" y1="416.867" x2="456.32" y2="9.50295" gradientUnits="userSpaceOnUse">
<stop stop-color="#053EC6" stop-opacity="0"/>
<stop offset="1" stop-color="#50D955"/>
</linearGradient>
<linearGradient id="paint21_linear_5466_3661" x1="311.392" y1="407.517" x2="452.888" y2="18.7632" gradientUnits="userSpaceOnUse">
<stop stop-color="#053EC6" stop-opacity="0"/>
<stop offset="1" stop-color="#50D955"/>
</linearGradient>
<linearGradient id="paint22_linear_5466_3661" x1="314.697" y1="398.271" x2="449.495" y2="27.9205" gradientUnits="userSpaceOnUse">
<stop stop-color="#053EC6" stop-opacity="0"/>
<stop offset="1" stop-color="#50D955"/>
</linearGradient>
<linearGradient id="paint23_linear_5466_3661" x1="318.001" y1="389.024" x2="446.101" y2="37.0778" gradientUnits="userSpaceOnUse">
<stop stop-color="#053EC6" stop-opacity="0"/>
<stop offset="1" stop-color="#50D955"/>
</linearGradient>
<linearGradient id="paint24_linear_5466_3661" x1="321.306" y1="379.778" x2="442.707" y2="46.2356" gradientUnits="userSpaceOnUse">
<stop stop-color="#053EC6" stop-opacity="0"/>
<stop offset="1" stop-color="#50D955"/>
</linearGradient>
<linearGradient id="paint25_linear_5466_3661" x1="324.611" y1="370.532" x2="439.313" y2="55.3929" gradientUnits="userSpaceOnUse">
<stop stop-color="#053EC6" stop-opacity="0"/>
<stop offset="1" stop-color="#50D955"/>
</linearGradient>
<linearGradient id="paint26_linear_5466_3661" x1="327.916" y1="361.285" x2="435.92" y2="64.5502" gradientUnits="userSpaceOnUse">
<stop stop-color="#053EC6" stop-opacity="0"/>
<stop offset="1" stop-color="#50D955"/>
</linearGradient>
<linearGradient id="paint27_linear_5466_3661" x1="331.221" y1="352.039" x2="432.526" y2="73.7075" gradientUnits="userSpaceOnUse">
<stop stop-color="#053EC6" stop-opacity="0"/>
<stop offset="1" stop-color="#50D955"/>
</linearGradient>
<linearGradient id="paint28_linear_5466_3661" x1="334.525" y1="342.792" x2="429.132" y2="82.8648" gradientUnits="userSpaceOnUse">
<stop stop-color="#053EC6" stop-opacity="0"/>
<stop offset="1" stop-color="#50D955"/>
</linearGradient>
<linearGradient id="paint29_linear_5466_3661" x1="337.83" y1="333.546" x2="425.739" y2="92.0225" gradientUnits="userSpaceOnUse">
<stop stop-color="#053EC6" stop-opacity="0"/>
<stop offset="1" stop-color="#50D955"/>
</linearGradient>
<linearGradient id="paint30_linear_5466_3661" x1="341.134" y1="324.299" x2="422.344" y2="101.179" gradientUnits="userSpaceOnUse">
<stop stop-color="#053EC6" stop-opacity="0"/>
<stop offset="1" stop-color="#50D955"/>
</linearGradient>
<linearGradient id="paint31_linear_5466_3661" x1="344.44" y1="315.053" x2="418.951" y2="110.337" gradientUnits="userSpaceOnUse">
<stop stop-color="#053EC6" stop-opacity="0"/>
<stop offset="1" stop-color="#50D955"/>
</linearGradient>
<linearGradient id="paint32_linear_5466_3661" x1="347.745" y1="305.807" x2="415.558" y2="119.494" gradientUnits="userSpaceOnUse">
<stop stop-color="#053EC6" stop-opacity="0"/>
<stop offset="1" stop-color="#50D955"/>
</linearGradient>
<linearGradient id="paint33_linear_5466_3661" x1="351.049" y1="296.56" x2="412.163" y2="128.652" gradientUnits="userSpaceOnUse">
<stop stop-color="#053EC6" stop-opacity="0"/>
<stop offset="1" stop-color="#50D955"/>
</linearGradient>
<linearGradient id="paint34_linear_5466_3661" x1="354.354" y1="287.314" x2="408.77" y2="137.809" gradientUnits="userSpaceOnUse">
<stop stop-color="#053EC6" stop-opacity="0"/>
<stop offset="1" stop-color="#50D955"/>
</linearGradient>
<linearGradient id="paint35_linear_5466_3661" x1="357.658" y1="278.067" x2="405.376" y2="146.966" gradientUnits="userSpaceOnUse">
<stop stop-color="#053EC6" stop-opacity="0"/>
<stop offset="1" stop-color="#50D955"/>
</linearGradient>
<linearGradient id="paint36_linear_5466_3661" x1="360.963" y1="268.821" x2="401.982" y2="156.124" gradientUnits="userSpaceOnUse">
<stop stop-color="#053EC6" stop-opacity="0"/>
<stop offset="1" stop-color="#50D955"/>
</linearGradient>
<linearGradient id="paint37_linear_5466_3661" x1="364.268" y1="259.575" x2="398.589" y2="165.281" gradientUnits="userSpaceOnUse">
<stop stop-color="#053EC6" stop-opacity="0"/>
<stop offset="1" stop-color="#50D955"/>
</linearGradient>
<linearGradient id="paint38_linear_5466_3661" x1="367.573" y1="250.328" x2="395.194" y2="174.439" gradientUnits="userSpaceOnUse">
<stop stop-color="#053EC6" stop-opacity="0"/>
<stop offset="1" stop-color="#50D955"/>
</linearGradient>
<linearGradient id="paint39_linear_5466_3661" x1="370.878" y1="241.082" x2="391.801" y2="183.596" gradientUnits="userSpaceOnUse">
<stop stop-color="#053EC6" stop-opacity="0"/>
<stop offset="1" stop-color="#50D955"/>
</linearGradient>
<linearGradient id="paint40_linear_5466_3661" x1="374.182" y1="231.835" x2="388.407" y2="192.753" gradientUnits="userSpaceOnUse">
<stop stop-color="#053EC6" stop-opacity="0"/>
<stop offset="1" stop-color="#50D955"/>
</linearGradient>
<linearGradient id="paint41_linear_5466_3661" x1="377.487" y1="222.589" x2="385.013" y2="201.911" gradientUnits="userSpaceOnUse">
<stop stop-color="#053EC6" stop-opacity="0"/>
<stop offset="1" stop-color="#50D955"/>
</linearGradient>
<clipPath id="clip0_5466_3661">
<rect width="757" height="754" fill="white" transform="translate(0 -163)"/>
</clipPath>
</defs>
</svg>
