<svg width="143" height="97" viewBox="0 0 143 97" fill="none" xmlns="http://www.w3.org/2000/svg">
<g id="Group">
<g id="Group_2">
<g id="Group_3">
<path id="Vector" d="M90.7053 42.647H51.8545C52.016 42.1624 52.1776 41.7585 52.5007 41.2739L53.8738 38.77H88.6052L90.463 41.9201C90.463 42.0816 90.6245 42.3239 90.7053 42.647Z" fill="white"/>
<path id="Vector_2" d="M90.6245 46.5244C90.1399 47.8975 89.1706 49.0283 87.7975 49.7552C86.9898 50.1591 86.1013 50.4014 85.2129 50.4014H57.2661C55.893 50.4014 54.6007 49.9168 53.4699 48.9475C52.743 48.3014 52.1776 47.4129 51.8545 46.5244H90.6245Z" fill="white"/>
<path id="Vector_3" d="M57.2656 54.2773H67.2004C67.2004 54.3581 67.2004 54.3581 67.2004 54.4389V58.1543H57.2656V54.2773Z" fill="white"/>
<path id="Vector_4" d="M85.2122 54.2773V58.1543H75.2773V54.4389C75.2773 54.3581 75.2773 54.3581 75.2773 54.2773H85.2122Z" fill="white"/>
<path id="Vector_5" d="M86.2624 34.8931H55.8926L57.0234 32.7931C57.5888 31.6623 58.8003 31.0161 60.0119 31.0161H82.0623C83.2739 31.0161 84.4047 31.6623 84.9701 32.7123L86.2624 34.8931Z" fill="white"/>
<path id="Vector_6" d="M57.3467 62.0317H67.2007V65.9087H61.8698C59.6082 65.9087 57.6698 64.2126 57.3467 62.0317Z" fill="white"/>
<path id="Vector_7" d="M85.1314 62.0317C84.8083 64.2126 82.8698 65.9087 80.6082 65.9087H75.2773V62.0317H85.1314Z" fill="white"/>
</g>
<g id="Group_4">
<path id="Vector_8" d="M71.2409 0C64.4562 0 58.0753 1.37311 52.2598 3.877H90.3028C84.4066 1.37311 78.0257 0 71.2409 0Z" fill="url(#paint0_linear_5581_2528)"/>
<path id="Vector_9" d="M97.5714 7.75439H44.9896C43.2127 8.96596 41.4357 10.2583 39.8203 11.6314H102.822C101.125 10.1775 99.3484 8.88519 97.5714 7.75439Z" fill="url(#paint1_linear_5581_2528)"/>
<path id="Vector_10" d="M52.3402 23.2617H29.8051C28.9974 24.5541 28.3512 25.8464 27.7051 27.1387H48.0593C49.3517 25.6848 50.8055 24.3925 52.3402 23.2617Z" fill="url(#paint2_linear_5581_2528)"/>
<path id="Vector_11" d="M94.4224 27.1387H114.777C114.131 25.8464 113.404 24.5541 112.677 23.2617H90.1416C91.6762 24.3925 93.1301 25.6848 94.4224 27.1387Z" fill="url(#paint3_linear_5581_2528)"/>
<path id="Vector_12" d="M41.275 38.77H23.7477C23.5054 40.0624 23.2631 41.3547 23.1016 42.647H40.225C40.5481 41.2739 40.8711 39.9816 41.275 38.77Z" fill="url(#paint4_linear_5581_2528)"/>
<path id="Vector_13" d="M39.7402 48.4629C39.7402 47.8167 39.7402 47.1706 39.821 46.5244H22.8591C22.8591 47.1706 22.7783 47.8167 22.7783 48.4629C22.7783 49.1091 22.7783 49.7552 22.8591 50.4014H39.821C39.7402 49.7552 39.7402 49.1091 39.7402 48.4629Z" fill="url(#paint5_linear_5581_2528)"/>
<path id="Vector_14" d="M40.3051 54.2783H23.1816C23.3432 55.5707 23.5855 56.863 23.8278 58.1553H41.3551C40.8704 56.863 40.5474 55.5707 40.3051 54.2783Z" fill="url(#paint6_linear_5581_2528)"/>
<path id="Vector_15" d="M48.0593 69.7861H27.7051C28.3512 71.0785 29.0782 72.3708 29.8051 73.6631H52.3402C50.8055 72.5323 49.3517 71.1592 48.0593 69.7861Z" fill="url(#paint7_linear_5581_2528)"/>
<path id="Vector_16" d="M90.1416 73.6631H112.677C113.484 72.3708 114.131 71.0785 114.777 69.7861H94.4224C93.1301 71.1592 91.6762 72.5323 90.1416 73.6631Z" fill="url(#paint8_linear_5581_2528)"/>
<path id="Vector_17" d="M44.9096 89.171H97.5721C99.3491 87.9594 101.126 86.667 102.741 85.2939H39.7402C41.3557 86.667 43.1326 87.9594 44.9096 89.171Z" fill="url(#paint9_linear_5581_2528)"/>
<path id="Vector_18" d="M71.2416 96.9249C78.0264 96.9249 84.4073 95.5517 90.2228 93.0479H52.1797C58.076 95.5517 64.4569 96.9249 71.2416 96.9249Z" fill="url(#paint10_linear_5581_2528)"/>
<path id="Vector_19" d="M95.149 15.5083H47.4135C45.7981 16.7199 44.2634 18.0122 42.8096 19.3853H59.1253C62.8407 17.8507 66.96 16.9622 71.2409 16.9622C75.5217 16.9622 79.6411 17.8507 83.3565 19.3853H99.6722C98.2991 17.9314 96.7645 16.6391 95.149 15.5083Z" fill="url(#paint11_linear_5581_2528)"/>
<path id="Vector_20" d="M34.4894 31.0161C33.924 32.3084 33.3586 33.6008 32.874 34.8931H42.8088C43.455 33.52 44.1819 32.2277 44.9896 31.0161H34.4894Z" fill="url(#paint12_linear_5581_2528)"/>
<path id="Vector_21" d="M107.991 31.0161H97.4102C98.2179 32.2277 98.9448 33.52 99.591 34.8931H109.526C109.122 33.52 108.637 32.2277 107.991 31.0161Z" fill="url(#paint13_linear_5581_2528)"/>
<path id="Vector_22" d="M32.874 62.0317C33.3586 63.3241 33.8433 64.6164 34.4894 65.9087H45.0704C44.2627 64.6972 43.5358 63.4048 42.8896 62.0317H32.874Z" fill="url(#paint14_linear_5581_2528)"/>
<path id="Vector_23" d="M97.4912 65.9087H108.072C108.638 64.6164 109.203 63.3241 109.688 62.0317H99.7528C99.0258 63.3241 98.2989 64.6164 97.4912 65.9087Z" fill="url(#paint15_linear_5581_2528)"/>
<path id="Vector_24" d="M47.332 81.4175H95.1484C96.7638 80.206 98.2984 78.9136 99.7523 77.5405H83.4366C79.7211 79.0752 75.6018 79.9637 71.321 79.9637C67.0401 79.9637 62.9208 79.0752 59.2054 77.5405H42.8896C44.182 78.9136 45.7166 80.206 47.332 81.4175Z" fill="url(#paint16_linear_5581_2528)"/>
<path id="Vector_25" d="M90.7072 42.647H51.8564C52.018 42.1624 52.1795 41.7585 52.5026 41.2739L53.8757 38.77H88.6072L90.4649 41.9201C90.4649 42.0816 90.6264 42.3239 90.7072 42.647Z" fill="url(#paint17_linear_5581_2528)"/>
<path id="Vector_26" d="M90.6265 46.5244C90.1418 47.8975 89.1726 49.0283 87.7995 49.7552C86.9918 50.1591 86.1033 50.4014 85.2148 50.4014H57.2681C55.895 50.4014 54.6027 49.9168 53.4719 48.9475C52.7449 48.3014 52.1795 47.4129 51.8564 46.5244H90.6265Z" fill="url(#paint18_linear_5581_2528)"/>
<path id="Vector_27" d="M57.2676 54.2783H67.2024C67.2024 54.3591 67.2024 54.3591 67.2024 54.4399V58.1553H57.2676V54.2783Z" fill="url(#paint19_linear_5581_2528)"/>
<path id="Vector_28" d="M85.2131 54.2783V58.1553H75.2783V54.4399C75.2783 54.3591 75.2783 54.3591 75.2783 54.2783H85.2131Z" fill="url(#paint20_linear_5581_2528)"/>
<path id="Vector_29" d="M86.2634 34.8931H55.8936L57.0243 32.7931C57.5897 31.6623 58.8013 31.0161 60.0129 31.0161H82.0633C83.2749 31.0161 84.4057 31.6623 84.9711 32.7123L86.2634 34.8931Z" fill="url(#paint21_linear_5581_2528)"/>
<path id="Vector_30" d="M57.3486 62.0317H67.2027V65.9087H61.8718C59.6102 65.9087 57.6717 64.2126 57.3486 62.0317Z" fill="url(#paint22_linear_5581_2528)"/>
<path id="Vector_31" d="M85.1323 62.0317C84.8093 64.2126 82.8708 65.9087 80.6092 65.9087H75.2783V62.0317H85.1323Z" fill="url(#paint23_linear_5581_2528)"/>
</g>
</g>
<g id="Group_5">
<path id="Vector_32" d="M0.969235 44.4239C1.6154 43.2124 2.5039 42.3239 3.63469 41.6777C4.76548 41.0316 6.13858 40.7085 7.67323 40.7085C9.61173 40.7085 11.2271 41.1931 12.5195 42.2431C13.8118 43.2932 14.7003 44.6663 15.0234 46.4432H10.4194C10.1771 45.8778 9.77327 45.3932 9.28864 45.1509C8.80402 44.8278 8.23862 44.6663 7.59245 44.6663C6.6232 44.6663 5.8155 44.9893 5.2501 45.7163C4.68471 46.4432 4.36162 47.3317 4.36162 48.5433C4.36162 49.7548 4.68471 50.7241 5.2501 51.3702C5.8155 52.0972 6.6232 52.4203 7.59245 52.4203C8.23862 52.4203 8.80402 52.2587 9.28864 51.9356C9.77327 51.6125 10.1771 51.2087 10.4194 50.6433H15.0234C14.6195 52.4203 13.8118 53.7934 12.5195 54.8434C11.2271 55.8934 9.61173 56.378 7.67323 56.378C6.13858 56.378 4.84625 56.0549 3.63469 55.4088C2.5039 54.7626 1.53463 53.7934 0.969235 52.6626C0.323068 51.451 0 50.1587 0 48.624C0 46.9278 0.323068 45.6355 0.969235 44.4239Z" fill="white"/>
<path id="Vector_33" d="M28.9971 53.6321H23.5047L22.697 56.136H18.1738L23.747 40.7896H28.674L34.2472 56.136H29.724L28.9971 53.6321ZM27.8663 50.4013L26.1701 45.3935L24.5547 50.4013H27.8663Z" fill="white"/>
<path id="Vector_34" d="M52.0975 56.2161H47.8166L42.1627 47.6544V56.2161H37.8818V40.8696H42.1627L47.8166 49.5929V40.8696H52.0975V56.2161Z" fill="white"/>
<path id="Vector_35" d="M60.983 40.7896V56.136H56.7021V40.7896H60.983Z" fill="white"/>
<path id="Vector_36" d="M67.0404 55.0857C65.9096 54.1972 65.2634 52.9856 65.1826 51.451H69.7058C69.7866 52.0164 69.9481 52.4203 70.1904 52.6626C70.4327 52.9049 70.8366 53.0664 71.2404 53.0664C71.6443 53.0664 71.9674 52.9857 72.2097 52.7433C72.452 52.5818 72.6135 52.2587 72.6135 51.9356C72.6135 51.451 72.3712 51.1279 71.9674 50.8856C71.5635 50.6433 70.8366 50.401 69.9481 50.0779C68.9788 49.7548 68.1711 49.4317 67.525 49.1087C66.8788 48.7856 66.3942 48.3009 65.9095 47.7356C65.4249 47.1702 65.1826 46.3624 65.1826 45.3932C65.1826 44.4239 65.4249 43.5355 65.9095 42.8893C66.3942 42.1624 67.1211 41.6777 67.9288 41.2739C68.8173 40.9508 69.7866 40.7085 70.9173 40.7085C72.6943 40.7085 74.1482 41.1123 75.1982 42.0008C76.2482 42.8085 76.8136 44.0201 76.8944 45.5547H72.2097C72.2097 45.0701 72.0481 44.747 71.8058 44.5047C71.5635 44.2624 71.1597 44.1816 70.7558 44.1816C70.4327 44.1816 70.1904 44.2624 69.9481 44.5047C69.7058 44.6663 69.625 44.9893 69.625 45.3124C69.625 45.6355 69.7058 45.8778 69.9481 46.0394C70.1904 46.2817 70.4327 46.4432 70.7558 46.6048C71.0789 46.7663 71.5635 46.9278 72.2097 47.1702C73.1789 47.4932 73.9866 47.8163 74.6328 48.1394C75.279 48.4625 75.8444 48.9471 76.2482 49.5125C76.7329 50.0779 76.9752 50.8856 76.9752 51.7741C76.9752 52.6626 76.7329 53.551 76.2482 54.278C75.7636 55.0049 75.1174 55.5703 74.229 55.9742C73.3405 56.378 72.3712 56.6203 71.1597 56.6203C69.625 56.2973 68.1712 55.8934 67.0404 55.0857Z" fill="white"/>
<path id="Vector_37" d="M92.886 40.7896V44.1819H88.7666V56.136H84.4858V44.1819H80.4473V40.7896H92.886Z" fill="white"/>
<path id="Vector_38" d="M100.076 55.3282C98.8643 54.682 97.8951 53.7128 97.1682 52.5012C96.4412 51.2897 96.1182 49.9166 96.1182 48.4627C96.1182 47.0088 96.4412 45.5549 97.1682 44.4242C97.8951 43.2126 98.8643 42.3241 100.076 41.5972C101.287 40.951 102.58 40.6279 104.034 40.6279C105.488 40.6279 106.78 40.951 107.991 41.5972C109.203 42.2433 110.172 43.2126 110.818 44.4242C111.545 45.6357 111.868 47.0088 111.868 48.4627C111.868 49.9166 111.545 51.3704 110.818 52.5012C110.092 53.7128 109.203 54.6013 107.991 55.3282C106.78 55.9744 105.488 56.3782 104.034 56.3782C102.661 56.2975 101.287 55.9744 100.076 55.3282ZM106.618 51.2897C107.265 50.5627 107.588 49.5935 107.588 48.4627C107.588 47.2511 107.265 46.2819 106.618 45.555C105.972 44.828 105.164 44.5049 104.034 44.5049C102.903 44.5049 102.095 44.828 101.449 45.555C100.803 46.2819 100.48 47.2511 100.48 48.4627C100.48 49.6743 100.803 50.6435 101.449 51.3705C102.095 52.0974 102.903 52.4205 104.034 52.4205C105.164 52.3397 106.053 52.0166 106.618 51.2897Z" fill="white"/>
<path id="Vector_39" d="M123.821 56.2161L120.752 50.5621H120.267V56.2161H115.986V40.8696H122.69C123.902 40.8696 124.952 41.1119 125.84 41.5158C126.729 41.9197 127.375 42.5658 127.779 43.2928C128.183 44.0197 128.425 44.9082 128.425 45.7966C128.425 46.8467 128.102 47.7351 127.537 48.5429C126.971 49.3506 126.083 49.916 125.033 50.239L128.506 56.2161H123.821ZM120.348 47.5736H122.448C123.013 47.5736 123.498 47.4121 123.74 47.1698C124.063 46.9274 124.144 46.5236 124.144 45.9582C124.144 45.4736 123.983 45.0697 123.66 44.8274C123.336 44.5043 122.933 44.4235 122.367 44.4235H120.267V47.5736H120.348Z" fill="white"/>
<path id="Vector_40" d="M136.907 44.2627V46.7666H141.834V49.9974H136.907V52.7436H142.48V56.136H132.626V40.7896H142.48V44.1819H136.907V44.2627Z" fill="white"/>
</g>
</g>
<defs>
<linearGradient id="paint0_linear_5581_2528" x1="68.7718" y1="96.9085" x2="68.7718" y2="-0.0165574" gradientUnits="userSpaceOnUse">
<stop stop-color="#6600CC"/>
<stop offset="1" stop-color="#50D955"/>
</linearGradient>
<linearGradient id="paint1_linear_5581_2528" x1="68.7711" y1="96.9089" x2="68.7711" y2="-0.016164" gradientUnits="userSpaceOnUse">
<stop stop-color="#6600CC"/>
<stop offset="1" stop-color="#50D955"/>
</linearGradient>
<linearGradient id="paint2_linear_5581_2528" x1="68.7715" y1="96.9082" x2="68.7715" y2="-0.0168478" gradientUnits="userSpaceOnUse">
<stop stop-color="#6600CC"/>
<stop offset="1" stop-color="#50D955"/>
</linearGradient>
<linearGradient id="paint3_linear_5581_2528" x1="68.7721" y1="96.9082" x2="68.7721" y2="-0.0168478" gradientUnits="userSpaceOnUse">
<stop stop-color="#6600CC"/>
<stop offset="1" stop-color="#50D955"/>
</linearGradient>
<linearGradient id="paint4_linear_5581_2528" x1="68.7719" y1="96.9085" x2="68.7719" y2="-0.0165551" gradientUnits="userSpaceOnUse">
<stop stop-color="#6600CC"/>
<stop offset="1" stop-color="#50D955"/>
</linearGradient>
<linearGradient id="paint5_linear_5581_2528" x1="68.7717" y1="96.9089" x2="68.7717" y2="-0.0161617" gradientUnits="userSpaceOnUse">
<stop stop-color="#6600CC"/>
<stop offset="1" stop-color="#50D955"/>
</linearGradient>
<linearGradient id="paint6_linear_5581_2528" x1="68.7712" y1="96.9088" x2="68.7712" y2="-0.0162565" gradientUnits="userSpaceOnUse">
<stop stop-color="#6600CC"/>
<stop offset="1" stop-color="#50D955"/>
</linearGradient>
<linearGradient id="paint7_linear_5581_2528" x1="68.7715" y1="96.9085" x2="68.7715" y2="-0.016226" gradientUnits="userSpaceOnUse">
<stop stop-color="#6600CC"/>
<stop offset="1" stop-color="#50D955"/>
</linearGradient>
<linearGradient id="paint8_linear_5581_2528" x1="68.7721" y1="96.9085" x2="68.7721" y2="-0.016226" gradientUnits="userSpaceOnUse">
<stop stop-color="#6600CC"/>
<stop offset="1" stop-color="#50D955"/>
</linearGradient>
<linearGradient id="paint9_linear_5581_2528" x1="68.7718" y1="96.9084" x2="68.7718" y2="-0.0169108" gradientUnits="userSpaceOnUse">
<stop stop-color="#6600CC"/>
<stop offset="1" stop-color="#50D955"/>
</linearGradient>
<linearGradient id="paint10_linear_5581_2528" x1="68.7725" y1="96.9083" x2="68.7725" y2="-0.0170311" gradientUnits="userSpaceOnUse">
<stop stop-color="#6600CC"/>
<stop offset="1" stop-color="#50D955"/>
</linearGradient>
<linearGradient id="paint11_linear_5581_2528" x1="68.7718" y1="96.9088" x2="68.7718" y2="-0.0162647" gradientUnits="userSpaceOnUse">
<stop stop-color="#6600CC"/>
<stop offset="1" stop-color="#50D955"/>
</linearGradient>
<linearGradient id="paint12_linear_5581_2528" x1="68.7711" y1="96.9084" x2="68.7711" y2="-0.0163552" gradientUnits="userSpaceOnUse">
<stop stop-color="#6600CC"/>
<stop offset="1" stop-color="#50D955"/>
</linearGradient>
<linearGradient id="paint13_linear_5581_2528" x1="68.7713" y1="96.9084" x2="68.7713" y2="-0.0163552" gradientUnits="userSpaceOnUse">
<stop stop-color="#6600CC"/>
<stop offset="1" stop-color="#50D955"/>
</linearGradient>
<linearGradient id="paint14_linear_5581_2528" x1="68.7711" y1="96.9082" x2="68.7711" y2="-0.0168426" gradientUnits="userSpaceOnUse">
<stop stop-color="#6600CC"/>
<stop offset="1" stop-color="#50D955"/>
</linearGradient>
<linearGradient id="paint15_linear_5581_2528" x1="68.7717" y1="96.9082" x2="68.7717" y2="-0.0168426" gradientUnits="userSpaceOnUse">
<stop stop-color="#6600CC"/>
<stop offset="1" stop-color="#50D955"/>
</linearGradient>
<linearGradient id="paint16_linear_5581_2528" x1="68.7711" y1="96.9089" x2="68.7711" y2="-0.0158107" gradientUnits="userSpaceOnUse">
<stop stop-color="#6600CC"/>
<stop offset="1" stop-color="#50D955"/>
</linearGradient>
<linearGradient id="paint17_linear_5581_2528" x1="68.7724" y1="96.9085" x2="68.7724" y2="-0.0165551" gradientUnits="userSpaceOnUse">
<stop stop-color="#6600CC"/>
<stop offset="1" stop-color="#50D955"/>
</linearGradient>
<linearGradient id="paint18_linear_5581_2528" x1="68.7724" y1="96.9089" x2="68.7724" y2="-0.0161617" gradientUnits="userSpaceOnUse">
<stop stop-color="#6600CC"/>
<stop offset="1" stop-color="#50D955"/>
</linearGradient>
<linearGradient id="paint19_linear_5581_2528" x1="68.7718" y1="96.9088" x2="68.7718" y2="-0.0162565" gradientUnits="userSpaceOnUse">
<stop stop-color="#6600CC"/>
<stop offset="1" stop-color="#50D955"/>
</linearGradient>
<linearGradient id="paint20_linear_5581_2528" x1="68.7707" y1="96.9088" x2="68.7707" y2="-0.0162565" gradientUnits="userSpaceOnUse">
<stop stop-color="#6600CC"/>
<stop offset="1" stop-color="#50D955"/>
</linearGradient>
<linearGradient id="paint21_linear_5581_2528" x1="68.7709" y1="96.9084" x2="68.7709" y2="-0.0163552" gradientUnits="userSpaceOnUse">
<stop stop-color="#6600CC"/>
<stop offset="1" stop-color="#50D955"/>
</linearGradient>
<linearGradient id="paint22_linear_5581_2528" x1="68.7721" y1="96.9082" x2="68.7721" y2="-0.0168426" gradientUnits="userSpaceOnUse">
<stop stop-color="#6600CC"/>
<stop offset="1" stop-color="#50D955"/>
</linearGradient>
<linearGradient id="paint23_linear_5581_2528" x1="68.7707" y1="96.9082" x2="68.7707" y2="-0.0168426" gradientUnits="userSpaceOnUse">
<stop stop-color="#6600CC"/>
<stop offset="1" stop-color="#50D955"/>
</linearGradient>
</defs>
</svg>
